<?xml version="1.0" encoding="UTF-8"?>
<svg width="24px" height="24px" viewBox="0 0 24 24" version="1.1" xmlns="http://www.w3.org/2000/svg" xmlns:xlink="http://www.w3.org/1999/xlink">
    <title>Icons/Basic icons/link</title>
    <g id="Icons/Basic-icons/link" stroke="none" stroke-width="1" fill="none" fill-rule="evenodd">
        <path d="M11.0035,15.2604 C10.8195,15.2604 10.6325,15.2094 10.4655,15.1024 C10.1345,14.8904 9.8265,14.6434 9.5495,14.3654 C7.4385,12.2544 7.4385,8.8174 9.5495,6.7024 L14.6685,1.5864 C15.6915,0.5634 17.0515,-0.0006 18.4995,-0.0006 C19.9465,-0.0006 21.3065,0.5634 22.3305,1.5864 C23.3535,2.6094 23.9175,3.9694 23.9175,5.4174 C23.9175,6.8654 23.3535,8.2254 22.3305,9.2484 L18.8325,12.7464 C18.4425,13.1374 17.8095,13.1374 17.4185,12.7464 C17.0285,12.3564 17.0285,11.7234 17.4185,11.3324 L20.9165,7.8344 C21.5615,7.1894 21.9175,6.3304 21.9175,5.4174 C21.9175,4.5044 21.5615,3.6464 20.9165,3.0004 C19.6235,1.7094 17.3735,1.7084 16.0825,3.0004 L10.9645,8.1174 C9.6325,9.4514 9.6325,11.6194 10.9645,12.9514 C11.1395,13.1274 11.3345,13.2834 11.5445,13.4184 C12.0085,13.7164 12.1445,14.3344 11.8465,14.8004 C11.6555,15.0984 11.3335,15.2604 11.0035,15.2604" id="Fill-1" fill="#222222"></path>
        <path d="M5.4156,24.0300014 C4.0276,24.031 2.6406,23.503 1.5846,22.446 C-0.5284,20.334 -0.5284,16.895 1.5846,14.783 L5.0696,11.298 C5.4596,10.907 6.0926,10.907 6.4836,11.298 C6.8736,11.688 6.8736,12.321 6.4836,12.712 L2.9986,16.197 C2.3526,16.843 1.9976,17.701 1.9976,18.614 C1.9976,19.528 2.3526,20.386 2.9986,21.032 C4.3326,22.365 6.4996,22.363 7.8326,21.032 L12.9506,15.914 C13.5966,15.268 13.9526,14.41 13.9526,13.497 C13.9526,12.584 13.5966,11.725 12.9506,11.08 C12.7806,10.911 12.5946,10.759 12.3986,10.632 C11.9366,10.331 11.8056,9.711 12.1066,9.248 C12.4076,8.786 13.0276,8.655 13.4906,8.956 C13.8016,9.159 14.0956,9.397 14.3646,9.665 C15.3886,10.689 15.9526,12.05 15.9526,13.497 C15.9526,14.944 15.3886,16.304 14.3646,17.328 L9.2466,22.446 C8.1896,23.502 6.8026,24.0300014 5.4156,24.0300014" id="Fill-4" fill="#222222"></path>
    </g>
</svg>