<svg width="24" height="24" viewBox="0 0 24 24" fill="none" xmlns="http://www.w3.org/2000/svg">
<g id="sort">
<path id="arrow down" fill-rule="evenodd" clip-rule="evenodd" d="M7.29289 15.2929C7.68342 14.9024 8.31658 14.9024 8.70711 15.2929L12 18.5858L15.2929 15.2929C15.6834 14.9024 16.3166 14.9024 16.7071 15.2929C17.0976 15.6834 17.0976 16.3166 16.7071 16.7071L12.7071 20.7071C12.3166 21.0976 11.6834 21.0976 11.2929 20.7071L7.29289 16.7071C6.90237 16.3166 6.90237 15.6834 7.29289 15.2929Z" fill="#222222"/>
<path id="arrow up" fill-rule="evenodd" clip-rule="evenodd" d="M16.7071 8.70711C16.3166 9.09763 15.6834 9.09763 15.2929 8.70711L12 5.41421L8.70711 8.70711C8.31658 9.09763 7.68342 9.09763 7.29289 8.70711C6.90237 8.31658 6.90237 7.68342 7.29289 7.29289L11.2929 3.29289C11.6834 2.90237 12.3166 2.90237 12.7071 3.29289L16.7071 7.29289C17.0976 7.68342 17.0976 8.31658 16.7071 8.70711Z" fill="#222222"/>
</g>
</svg>
