<svg width="24" height="25" viewBox="0 0 24 25" fill="none" xmlns="http://www.w3.org/2000/svg">
<g id="flag">
<path id="Shape" d="M22.77 0.499889C22.42 0.079889 21.79 0.019889 21.36 0.379889C18.18 3.03989 14.81 2.10989 11.24 1.10989C7.87 0.159889 4.14 -1.07011 1.36 1.70989C1.07 1.99989 1 2.29989 1 2.58989V23.1099C1 23.6599 1.45 24.1099 2 24.1099C2.55 24.1099 3 23.6599 3 23.1099V13.9799C5.15 12.4899 7.74 13.2099 10.7 14.0399C12.57 14.5599 14.57 15.1199 16.61 15.1199C18.65 15.1199 20.66 14.5799 22.64 12.9199C22.65 12.9199 22.65 12.8999 22.66 12.8899C22.86 12.7099 23 12.4499 23 12.1499V1.12989C23 0.809889 22.84 0.589889 22.77 0.499889ZM11.24 12.0999C8.46 11.3199 5.61 10.5299 3 11.6799V2.96989C5.15 1.47989 7.74 2.19989 10.7 3.02989C12.57 3.54989 14.57 4.10989 16.61 4.10989C18.07 4.10989 19.54 3.81989 21 3.01989V11.6399C17.92 13.9499 14.67 13.0499 11.24 12.0999Z" fill="#222222"/>
</g>
</svg>
