<?xml version="1.0" encoding="UTF-8"?>
<svg width="24px" height="24px" viewBox="0 0 24 24" version="1.1" xmlns="http://www.w3.org/2000/svg" xmlns:xlink="http://www.w3.org/1999/xlink">
    <title>Icons/Basic icons/hourglass</title>
    <g id="Icons/Basic-icons/hourglass" stroke="none" stroke-width="1" fill="none" fill-rule="evenodd">
        <path d="M20 0C20.5523 0 21 0.447715 21 1C21 1.55228 20.5523 2 20 2H18V5.28809C18 7.93504 16.507 10.356 14.1416 11.5439L13.3242 11.9541C13.2917 11.9704 13.2585 11.9849 13.2256 12C13.2585 12.0151 13.2917 12.0296 13.3242 12.0459L14.1416 12.4561C16.507 13.644 18 16.065 18 18.7119V22H20C20.5523 22 21 22.4477 21 23C21 23.5523 20.5523 24 20 24H4C3.44772 24 3 23.5523 3 23C3 22.4477 3.44772 22 4 22H6V18.6709C6 15.9727 7.55098 13.5143 9.98633 12.3525L10.6855 12.0186C10.6991 12.0121 10.7129 12.0063 10.7266 12C10.7129 11.9937 10.6991 11.9879 10.6855 11.9814L9.98633 11.6475C7.55098 10.4857 6 8.02734 6 5.3291V2H4C3.44772 2 3 1.55228 3 1C3 0.447715 3.44772 0 4 0H20ZM12.4258 13.833C12.1498 13.6946 11.8255 13.6913 11.5469 13.8242L10.8477 14.1582C9.10812 14.988 8 16.7436 8 18.6709V22H16V18.7119C16 16.8214 14.9335 15.0927 13.2441 14.2441L12.4258 13.833ZM8 5.3291C8 7.25642 9.10812 9.012 10.8477 9.8418L11.5469 10.1758C11.8255 10.3087 12.1498 10.3054 12.4258 10.167L13.2441 9.75586C14.9335 8.90728 16 7.17865 16 5.28809V2H8V5.3291Z" fill="#222222" fill-rule="evenodd" clip-rule="evenodd"/>
    </g>
</svg>
