<?xml version="1.0" encoding="UTF-8"?>
<svg  viewBox="0 0 24 24" version="1.1" xmlns="http://www.w3.org/2000/svg" xmlns:xlink="http://www.w3.org/1999/xlink">
    <title>Icons/Basic icons/chevron-circle-down</title>
    <g  id="Icons/Basic-icons/chevron-circle-down" stroke="none" stroke-width="1" fill="none" fill-rule="evenodd">
        <path d="M12,0 C18.617,0 24,5.383 24,12 C24,18.617 18.617,24 12,24 C5.383,24 0,18.617 0,12 C0,5.383 5.383,0 12,0 Z M12,2 C6.486,2 2,6.486 2,12 C2,17.514 6.486,22 12,22 C17.514,22 22,17.514 22,12 C22,6.486 17.514,2 12,2 Z M8.706875,9.292875 L11.999875,12.585875 L15.292875,9.292875 C15.682875,8.901875 16.316875,8.901875 16.706875,9.292875 C17.097875,9.683875 17.097875,10.315875 16.706875,10.706875 L12.706875,14.706875 C12.316875,15.097875 11.682875,15.097875 11.292875,14.706875 L7.292875,10.706875 C7.097875,10.511875 6.999875,10.255875 6.999875,9.999875 C6.999875,9.743875 7.097875,9.487875 7.292875,9.292875 C7.682875,8.901875 8.316875,8.901875 8.706875,9.292875 Z"  id="Shape" fill="#222222"></path>
    </g>
</svg>