<?xml version="1.0" encoding="UTF-8"?>
<svg width="24px" height="24px" viewBox="0 0 24 24" version="1.1" xmlns="http://www.w3.org/2000/svg" xmlns:xlink="http://www.w3.org/1999/xlink">
    <title>Icons/Basic icons/grid</title>
    <g id="Icons/Basic-icons/grid" stroke="none" stroke-width="1" fill="none" fill-rule="evenodd">
        <path d="M8.999,9 L2,9 L2,2 L9.002,2 L8.999,9 Z M9.002,0 L2,0 C0.897,0 0,0.897 0,2 L0,9 C0,10.103 0.897,11 2,11 L9.002,11 C10.105,11 11.002,10.103 11.002,9 L11.002,2 C11.002,0.897 10.105,0 9.002,0 L9.002,0 Z M21.9971,9 L15.0001,9 L15.0001,2 L22.0001,2 L21.9971,9 Z M22.0001,0 L15.0001,0 C13.8971,0 13.0001,0.897 13.0001,2 L13.0001,9 C13.0001,10.103 13.8971,11 15.0001,11 L22.0001,11 C23.1031,11 24.0001,10.103 24.0001,9 L24.0001,2 C24.0001,0.897 23.1031,0 22.0001,0 L22.0001,0 Z M8.999,22 L2,22 L2,15 L9.002,15 L8.999,22 Z M9.002,13 L2,13 C0.897,13 0,13.897 0,15 L0,22 C0,23.103 0.897,24 2,24 L9.002,24 C10.105,24 11.002,23.103 11.002,22 L11.002,15 C11.002,13.897 10.105,13 9.002,13 L9.002,13 Z M21.9971,22 L15.0001,22 L15.0001,15 L22.0001,15 L21.9971,22 Z M22.0001,13 L15.0001,13 C13.8971,13 13.0001,13.897 13.0001,15 L13.0001,22 C13.0001,23.103 13.8971,24 15.0001,24 L22.0001,24 C23.1031,24 24.0001,23.103 24.0001,22 L24.0001,15 C24.0001,13.897 23.1031,13 22.0001,13 L22.0001,13 Z" id="Combined-Shape" fill="#222222"></path>
    </g>
</svg>