<?xml version="1.0" encoding="UTF-8"?>
<svg width="24px" height="24px" viewBox="0 0 24 24" version="1.1" xmlns="http://www.w3.org/2000/svg" xmlns:xlink="http://www.w3.org/1999/xlink">
    <title>Icons/Basic icons/align-left</title>
    <g id="Icons/Basic-icons/align-left" stroke="none" stroke-width="1" fill="none" fill-rule="evenodd">
        <path d="M23,4 L1,4 C0.448,4 0,3.552 0,3 C0,2.448 0.448,2 1,2 L23,2 C23.552,2 24,2.448 24,3 C24,3.552 23.552,4 23,4 M15.001,10 L1,10 C0.448,10 1.03028697e-13,9.552 1.03028697e-13,9 C1.03028697e-13,8.448 0.448,8 1,8 L15.001,8 C15.553,8 16.001,8.448 16.001,9 C16.001,9.552 15.553,10 15.001,10 M23,16 L1,16 C0.448,16 0,15.552 0,15 C0,14.448 0.448,14 1,14 L23,14 C23.552,14 24,14.448 24,15 C24,15.552 23.552,16 23,16 M15.001,22 L1,22 C0.448,22 1.03028697e-13,21.552 1.03028697e-13,21 C1.03028697e-13,20.448 0.448,20 1,20 L15.001,20 C15.553,20 16.001,20.448 16.001,21 C16.001,21.552 15.553,22 15.001,22" id="Combined-Shape" fill="#222222"></path>
    </g>
</svg>