<svg width="24" height="24" viewBox="0 0 24 24" fill="none" xmlns="http://www.w3.org/2000/svg">
<g id="dragHandle">
<g id="Union">
<path d="M15.293 17.2931C15.6835 16.9026 16.3165 16.9026 16.707 17.2931C17.0975 17.6836 17.0975 18.3167 16.707 18.7072L12.707 22.7072C12.3165 23.0975 11.6834 23.0975 11.293 22.7072L7.29297 18.7072C6.9025 18.3167 6.90262 17.6836 7.29297 17.2931C7.68349 16.9026 8.31651 16.9026 8.70703 17.2931L12 20.5861L15.293 17.2931Z" fill="#212121"/>
<path d="M20.8887 13.0001C21.5023 13.0001 22 13.4478 22 14.0001C21.9999 14.5523 21.5022 15.0001 20.8887 15.0001H3.11133C2.49777 15.0001 2.00014 14.5523 2 14.0001C2 13.4478 2.49768 13.0001 3.11133 13.0001H20.8887Z" fill="#212121"/>
<path d="M20.8887 9.00013C21.5023 9.00013 22 9.44785 22 10.0001C21.9999 10.5523 21.5022 11.0001 20.8887 11.0001H3.11133C2.49777 11.0001 2.00014 10.5523 2 10.0001C2 9.44785 2.49768 9.00013 3.11133 9.00013H20.8887Z" fill="#212121"/>
<path d="M11.293 1.2931C11.6835 0.902651 12.3165 0.9026 12.707 1.2931L16.707 5.2931C17.0974 5.68361 17.0975 6.31666 16.707 6.70716C16.3165 7.09752 15.6835 7.09755 15.293 6.70716L12 3.41419L8.70703 6.70716C8.31653 7.09752 7.68345 7.09755 7.29297 6.70716C6.90249 6.31668 6.90258 5.68364 7.29297 5.2931L11.293 1.2931Z" fill="#212121"/>
</g>
</g>
</svg>
