<svg width="24" height="24" viewBox="0 0 24 24" fill="none" xmlns="http://www.w3.org/2000/svg">
<g id="unreadMessage">
<g id="Shape">
<path d="M14.3867 6C14.9388 6.00019 15.3867 6.44783 15.3867 7C15.3867 7.55217 14.9388 7.99981 14.3867 8H3.55957L10.5137 13.7168L16.8828 8.71387C17.3171 8.37272 17.9459 8.44858 18.2871 8.88281C18.6282 9.31707 18.5533 9.94594 18.1191 10.2871L11.1172 15.7871C10.7481 16.0765 10.2266 16.0704 9.86426 15.7725L2 9.30664V19.25C2 19.6766 2.33816 20 2.72754 20H18.2725C18.6618 20 19 19.6766 19 19.25V12.25C19 11.6977 19.4477 11.25 20 11.25C20.5523 11.25 21 11.6977 21 12.25V19.25C21 20.7564 19.791 22 18.2725 22H2.72754C1.20902 22 0 20.7564 0 19.25V8.75C2.78996e-08 7.24358 1.20902 6 2.72754 6H14.3867Z" fill="#222222"/>
<path d="M23 8C23.5523 8 24 8.44772 24 9C23.9999 9.55217 23.5522 10 23 10H22C21.4478 10 21.0001 9.55217 21 9C21 8.44772 21.4477 8 22 8H23Z" fill="#222222"/>
<path d="M21.4697 3.12305C21.8625 2.80264 22.4415 2.82631 22.8076 3.19238C23.1738 3.55853 23.1974 4.1375 22.877 4.53027L22.8076 4.60645L22.207 5.20703C21.8165 5.59748 21.1835 5.59753 20.793 5.20703C20.4025 4.81653 20.4025 4.18347 20.793 3.79297L21.3936 3.19238L21.4697 3.12305Z" fill="#222222"/>
<path d="M17 2C17.5523 2 18 2.44772 18 3V4C18 4.55228 17.5523 5 17 5C16.4477 5 16 4.55228 16 4V3C16 2.44772 16.4477 2 17 2Z" fill="#222222"/>
</g>
</g>
</svg>
