<?xml version="1.0" encoding="UTF-8"?>
<svg width="24px" height="24px" viewBox="0 0 24 24" version="1.1" xmlns="http://www.w3.org/2000/svg" xmlns:xlink="http://www.w3.org/1999/xlink">
    <title>italics</title>
    <g id="italics" stroke="none" stroke-width="1" fill="none" fill-rule="evenodd">
        <path d="M18,-0.0005 L12,-0.0005 C11.448,-0.0005 11,0.4475 11,0.9995 C11,1.5515 11.448,1.9995 12,1.9995 L13.691,1.9995 L8.236,21.9995 L6,21.9995 C5.448,21.9995 5,22.4475 5,22.9995 C5,23.5515 5.448,23.9995 6,23.9995 L8.997,23.9995 C8.998,23.9995 8.999,23.9995 9,23.9995 C9.002,23.9995 9.002,23.9995 9.003,23.9995 L12,23.9995 C12.552,23.9995 13,23.5515 13,22.9995 C13,22.4475 12.552,21.9995 12,21.9995 L10.309,21.9995 L15.764,1.9995 L18,1.9995 C18.552,1.9995 19,1.5515 19,0.9995 C19,0.4475 18.552,-0.0005 18,-0.0005" id="Fill-1" fill="#222222"></path>
    </g>
</svg>