<?xml version="1.0" encoding="UTF-8"?>
<svg  viewBox="0 0 24 24" version="1.1" xmlns="http://www.w3.org/2000/svg" xmlns:xlink="http://www.w3.org/1999/xlink">
    <title>Icons/Basic icons/error</title>
    <g  id="Icons/Basic-icons/error" stroke="none" stroke-width="1" fill="none" fill-rule="evenodd">
        <path d="M12,0 C18.617,0 24,5.383 24,12 C24,18.617 18.617,24 12,24 C5.383,24 0,18.617 0,12 C0,5.383 5.383,0 12,0 Z M12,2 C6.486,2 2,6.486 2,12 C2,17.514 6.486,22 12,22 C17.514,22 22,17.514 22,12 C22,6.486 17.514,2 12,2 Z M12.71,17.29 C12.89,17.48 13,17.73 13,18 C13,18.26 12.89,18.52 12.71,18.71 C12.52,18.89 12.26,19 12,19 C11.74,19 11.479,18.89 11.29,18.71 C11.109,18.52 11,18.26 11,18 C11,17.73 11.109,17.48 11.29,17.29 C11.66,16.92 12.33,16.92 12.71,17.29 Z M12,5 C12.553,5 13,5.448 13,6 L13,14 C13,14.552 12.553,15 12,15 C11.447,15 11,14.552 11,14 L11,6 C11,5.448 11.447,5 12,5 Z"  id="Combined-Shape" fill="#222222"></path>
    </g>
</svg>