<?xml version="1.0" encoding="UTF-8"?>
<svg viewBox="0 0 24 24" version="1.1" xmlns="http://www.w3.org/2000/svg" xmlns:xlink="http://www.w3.org/1999/xlink">
    <title>Icons/Basic icons/chevron-double-right</title>
    <g id="Icons/Basic-icons/chevron-double-right" stroke="none" stroke-width="1" fill="none" fill-rule="evenodd">
        <path d="M3.00047303,23.9999303 C2.72947303,23.9999303 2.46047303,23.8909303 2.26247303,23.6759303 C1.88947303,23.2689303 1.91747303,22.6359303 2.32447303,22.2629303 L13.519473,11.9999303 L2.32447303,1.73693032 C1.91747303,1.36393032 1.88947303,0.730930321 2.26247303,0.323930321 C2.63547303,-0.083069679 3.26847303,-0.110069679 3.67547303,0.262930321 L15.675473,11.2629303 C15.882473,11.4519303 15.999473,11.7199303 15.999473,11.9999303 C15.999473,12.2799303 15.882473,12.5479303 15.675473,12.7369303 L3.67547303,23.7369303 C3.48347303,23.9129303 3.24147303,23.9999303 3.00047303,23.9999303" id="Fill-1" fill="#222222"></path>
        <path d="M9.00047303,23.9999303 C8.72947303,23.9999303 8.46047303,23.8909303 8.26247303,23.6759303 C7.88947303,23.2689303 7.91747303,22.6359303 8.32447303,22.2629303 L19.519473,11.9999303 L8.32447303,1.73693032 C7.91747303,1.36393032 7.88947303,0.730930321 8.26247303,0.323930321 C8.63547303,-0.083069679 9.26947303,-0.110069679 9.67547303,0.262930321 L21.675473,11.2629303 C21.882473,11.4519303 21.999473,11.7199303 21.999473,11.9999303 C21.999473,12.2799303 21.882473,12.5479303 21.675473,12.7369303 L9.67547303,23.7369303 C9.48347303,23.9129303 9.24147303,23.9999303 9.00047303,23.9999303" id="Fill-3" fill="#222222"></path>
    </g>
</svg>