<?xml version="1.0" encoding="UTF-8"?>
<svg  viewBox="0 0 24 24" version="1.1" xmlns="http://www.w3.org/2000/svg" xmlns:xlink="http://www.w3.org/1999/xlink">
    <title>Icons/Basic icons/list-bulleted</title>
    <g  id="Icons/Basic-icons/list-bulleted" stroke="none" stroke-width="1" fill="none" fill-rule="evenodd">
        <path d="M3,17 C4.65701677,17 6,18.3434471 6,20 C6,21.6565529 4.65701677,23 3,23 C1.34298323,23 -7.10542736e-14,21.6565529 -7.10542736e-14,20 C-7.10542736e-14,18.3434471 1.34298323,17 3,17 Z M23,19 C23.5522847,19 24,19.4477153 24,20 C24,20.5128358 23.6139598,20.9355072 23.1166211,20.9932723 L23,21 L9,21 C8.44771525,21 8,20.5522847 8,20 C8,19.4871642 8.38604019,19.0644928 8.88337887,19.0067277 L9,19 L23,19 Z M3,19 C2.44770738,19 2,19.447862 2,20 C2,20.552138 2.44770738,21 3,21 C3.55229262,21 4,20.552138 4,20 C4,19.447862 3.55229262,19 3,19 Z M3,9 C4.65701677,9 6,10.3434471 6,12 C6,13.6565529 4.65701677,15 3,15 C1.34298323,15 -7.10542736e-14,13.6565529 -7.10542736e-14,12 C-7.10542736e-14,10.3434471 1.34298323,9 3,9 Z M23,11 C23.5522847,11 24,11.4477153 24,12 C24,12.5128358 23.6139598,12.9355072 23.1166211,12.9932723 L23,13 L9,13 C8.44771525,13 8,12.5522847 8,12 C8,11.4871642 8.38604019,11.0644928 8.88337887,11.0067277 L9,11 L23,11 Z M3,11 C2.44770738,11 2,11.447862 2,12 C2,12.552138 2.44770738,13 3,13 C3.55229262,13 4,12.552138 4,12 C4,11.447862 3.55229262,11 3,11 Z M3,1 C4.65701677,1 6,2.34344712 6,4 C6,5.65655288 4.65701677,7 3,7 C1.34298323,7 -7.10542736e-14,5.65655288 -7.10542736e-14,4 C-7.10542736e-14,2.34344712 1.34298323,1 3,1 Z M23,3 C23.5522847,3 24,3.44771525 24,4 C24,4.51283584 23.6139598,4.93550716 23.1166211,4.99327227 L23,5 L9,5 C8.44771525,5 8,4.55228475 8,4 C8,3.48716416 8.38604019,3.06449284 8.88337887,3.00672773 L9,3 L23,3 Z M3,3 C2.44770738,3 2,3.44786203 2,4 C2,4.55213797 2.44770738,5 3,5 C3.55229262,5 4,4.55213797 4,4 C4,3.44786203 3.55229262,3 3,3 Z"  id="Combined-Shape" fill="#222222"></path>
    </g>
</svg>