<?xml version="1.0" encoding="UTF-8"?>
<svg  viewBox="0 0 24 24" version="1.1" xmlns="http://www.w3.org/2000/svg" xmlns:xlink="http://www.w3.org/1999/xlink">
    <title>Icons/Basic icons/save</title>
    <g  id="Icons/Basic-icons/save" stroke="none" stroke-width="1" fill="none" fill-rule="evenodd">
        <path d="M23,0 C23.552,0 24,0.447 24,1 L24,1 L24,23 C24,23.553 23.552,24 23,24 L23,24 L1,24 C0.448,24 0,23.553 0,23 L0,23 L0,5.4 C0,5.135 0.105,4.881 0.293,4.693 L0.293,4.693 L4.693,0.293 C4.881,0.105 5.135,0 5.4,0 L5.4,0 Z M6,2 L5.814,2 L2,5.814 L2,22 L4,22 L4,15 C4,14.447 4.448,14 5,14 L5,14 L19,14 C19.552,14 20,14.447 20,15 L20,15 L20,22 L22,22 L22,2 L18,2 L18,9 C18,9.553 17.552,10 17,10 L17,10 L7,10 C6.448,10 6,9.553 6,9 L6,9 L6,2 Z M18,16 L6,16 L6,22 L18,22 L18,16 Z M16,2 L8,2 L8,8 L16,8 L16,2 Z M10,3 C10.552,3 11,3.447 11,4 L11,4 L11,6 C11,6.553 10.552,7 10,7 C9.448,7 9,6.553 9,6 L9,6 L9,4 C9,3.447 9.448,3 10,3 Z"  id="Combined-Shape" fill="#222222"></path>
    </g>
</svg>