<?xml version="1.0" encoding="UTF-8"?>
<svg  viewBox="0 0 24 24" version="1.1" xmlns="http://www.w3.org/2000/svg" xmlns:xlink="http://www.w3.org/1999/xlink">
	<title>Icons/Basic icons/icon-file-generic</title>
	<g  id="Icons/Basic-icons/icon-file-generic" stroke="none" stroke-width="1" fill="none" fill-rule="evenodd">
		<path d="M18,13c0,0.6-0.4,1-1,1H8c-0.6,0-1-0.4-1-1s0.4-1,1-1h9C17.6,12,18,12.4,18,13z M14,18H8c-0.6,0-1,0.4-1,1s0.4,1,1,1h6
		c0.6,0,1-0.4,1-1S14.6,18,14,18z M17,15H8c-0.6,0-1,0.4-1,1s0.4,1,1,1h9c0.6,0,1-0.4,1-1S17.6,15,17,15z M21.5,8.6v13.9
		c0,1.1-0.9,2-2,2h-14c-1.1,0-2-0.9-2-2v-20c0-1.1,0.9-2,2-2h8c0,0,0,0,0.1,0c0.1,0,0.2,0,0.3,0.1c0,0,0.1,0,0.1,0
		c0.1,0,0.2,0.1,0.3,0.2c0,0,0,0,0,0l6.9,6.9C21.3,7.9,21.5,8.2,21.5,8.6C21.5,8.5,21.5,8.6,21.5,8.6z M14.5,7.5h3.6l-3.6-3.6V7.5z
		 M19.5,22.5v-13h-6c-0.6,0-1-0.4-1-1v-6h-7v20H19.5z" id="Combined-Shape" fill="#222222"></path>
	</g>
</svg>