<svg width="24" height="24" viewBox="0 0 24 24" fill="none" xmlns="http://www.w3.org/2000/svg">
<g id="unlock" clip-path="url(#clip0_4209_532)">
<path id="Shape" d="M19 7.99999H8.48L8.25 7.35999C7.89 6.35999 7.93 5.27999 8.38 4.30999C8.83 3.33999 9.63 2.60999 10.63 2.24999C11.63 1.88999 12.71 1.92999 13.68 2.37999C14.65 2.82999 15.38 3.62999 15.76 4.68999L16.07 5.40999C16.29 5.91999 16.88 6.14999 17.39 5.92999C17.9 5.70999 18.13 5.11999 17.91 4.61999L17.62 3.95999C17.07 2.45999 15.97 1.25999 14.52 0.579988C13.07 -0.100012 11.44 -0.170012 9.94 0.379988C8.44 0.929988 7.24 2.02999 6.56 3.47999C5.89 4.91999 5.82 6.52999 6.35 8.01999H4.99C3.34 8.01999 1.99 9.36999 1.99 11.02V21.02C1.99 22.67 3.34 24.02 4.99 24.02H18.99C20.64 24.02 21.99 22.67 21.99 21.02V11.02C21.99 9.36999 20.64 8.01999 18.99 8.01999L19 7.99999ZM20 21C20 21.55 19.55 22 19 22H5C4.45 22 4 21.55 4 21V11C4 10.45 4.45 9.99999 5 9.99999H19C19.55 9.99999 20 10.45 20 11V21Z" fill="#222222"/>
<path id="Shape_2" d="M12 12C10.9 12 10 12.9 10 14C10 14.74 10.41 15.38 11 15.72V18C11 18.55 11.45 19 12 19C12.55 19 13 18.55 13 18V15.72C13.59 15.37 14 14.74 14 14C14 12.9 13.1 12 12 12Z" fill="#222222"/>
</g>
</svg>
