<?xml version="1.0" encoding="UTF-8"?>
<svg width="24" height="24" viewBox="0 0 24 24" fill="none" xmlns="http://www.w3.org/2000/svg">
    <g id="sortUp">
        <path id="Shape" d="M5.99975 21C6.55275 21 6.99975 20.553 6.99975 20L6.99975 6.42065L10.2937 9.70775C10.6848 10.0967 11.3168 10.0988 11.7077 9.70575C12.0978 9.31575 12.0978 8.68275 11.7057 8.29175L6.78745 3.38329C6.60453 3.14982 6.3199 3 5.99975 3C5.6796 3 5.39498 3.14982 5.21205 3.38329L0.29375 8.29175C-0.0982499 8.68275 -0.0982498 9.31575 0.29175 9.70575C0.68275 10.0988 1.31475 10.0968 1.70575 9.70775L4.99975 6.42065L4.99975 20C4.99975 20.553 5.44675 21 5.99975 21Z" fill="#222222"/>
        <path id="Line 11 (Stroke)" fill-rule="evenodd" clip-rule="evenodd" d="M14 6C14 6.55228 14.4477 7 15 7H16C16.5523 7 17 6.55228 17 6C17 5.44772 16.5523 5 16 5H15C14.4477 5 14 5.44772 14 6Z" fill="#222222"/>
        <path id="Line 12 (Stroke)" fill-rule="evenodd" clip-rule="evenodd" d="M14 10C14 9.44772 14.4477 9 15 9H18C18.5523 9 19 9.44772 19 10C19 10.5523 18.5523 11 18 11H15C14.4477 11 14 10.5523 14 10Z" fill="#222222"/>
        <path id="Line 13 (Stroke)" fill-rule="evenodd" clip-rule="evenodd" d="M14 14C14 13.4477 14.4477 13 15 13H21C21.5523 13 22 13.4477 22 14C22 14.5523 21.5523 15 21 15H15C14.4477 15 14 14.5523 14 14Z" fill="#222222"/>
        <path id="Line 14 (Stroke)" fill-rule="evenodd" clip-rule="evenodd" d="M14 18C14 17.4477 14.4477 17 15 17H23C23.5523 17 24 17.4477 24 18C24 18.5523 23.5523 19 23 19H15C14.4477 19 14 18.5523 14 18Z" fill="#222222"/>
    </g>
</svg>
