<svg width="24" height="24" viewBox="0 0 24 24" fill="none" xmlns="http://www.w3.org/2000/svg">
<g id="send">
<path id="Shape" d="M24 0.950234C24 0.830234 23.97 0.720234 23.92 0.620234C23.91 0.590234 23.89 0.560234 23.88 0.530234C23.84 0.450234 23.78 0.370234 23.72 0.300234C23.71 0.280234 23.7 0.260234 23.68 0.250234C23.68 0.250234 23.66 0.250234 23.65 0.230234C23.64 0.220234 23.63 0.210234 23.62 0.200234C23.54 0.130234 23.45 0.0902344 23.35 0.0502344C23.33 0.0502344 23.31 0.0502344 23.28 0.0302344C23.19 0.000234375 23.1 -0.00976562 23 -0.00976562C22.97 -0.00976562 22.93 -0.00976562 22.9 -0.00976562C22.81 -0.00976562 22.72 0.0202344 22.63 0.0502344C22.61 0.0502344 22.58 0.0602344 22.56 0.0702344H22.54L0.55 11.1002C0.21 11.2702 0 11.6202 0 11.9902C0 12.3602 0.21 12.7202 0.55 12.8802L5.24 15.2202C5.73 15.4702 6.33 15.2702 6.58 14.7702C6.83 14.2802 6.63 13.6802 6.13 13.4302L3.23 11.9802L18.47 4.36023L8.26 15.3002C8.26 15.3002 8.22 15.3702 8.2 15.4002C8.18 15.4302 8.14 15.4602 8.12 15.4902C8.12 15.5102 8.12 15.5302 8.1 15.5402C8.09 15.5602 8.07 15.5902 8.06 15.6102C8.04 15.6602 8.04 15.7002 8.03 15.7502C8.02 15.8102 8 15.8602 8 15.9202C8 15.9402 7.99 15.9602 7.99 15.9802L8.06 22.9802C8.06 23.4102 8.34 23.7902 8.75 23.9202C8.85 23.9502 8.95 23.9702 9.06 23.9702C9.37 23.9702 9.67 23.8202 9.87 23.5602L12.8 19.5602C12.86 19.4802 12.89 19.3902 12.92 19.3002L17.51 21.8502C17.66 21.9302 17.83 21.9802 18 21.9802C18.14 21.9802 18.27 21.9502 18.4 21.9002C18.69 21.7802 18.9 21.5302 18.97 21.2202L23.97 1.23023C23.99 1.14023 24 1.06023 24 0.970234C24 0.970234 24 0.960234 24 0.950234ZM11.19 18.4002L10.03 19.9802L10.01 17.7002L11.22 18.3702C11.22 18.3702 11.2 18.3902 11.19 18.4002ZM17.35 19.4802L10.61 15.7302L21.1 4.49023L17.35 19.4702V19.4802Z" fill="#222222"/>
</g>
</svg>
