<?xml version="1.0" encoding="UTF-8"?>
<svg  viewBox="0 0 24 24" version="1.1" xmlns="http://www.w3.org/2000/svg" xmlns:xlink="http://www.w3.org/1999/xlink">
    <title>Icons/Basic icons/compare</title>
    <g  id="Icons/Basic-icons/compare" stroke="none" stroke-width="1" fill="none" fill-rule="evenodd">
        <path d="M21.2497995,16.7283735 C21.6964487,16.7283735 22.0640691,17.0619267 22.1179832,17.4926135 L22.1247904,17.602172 L22.1247904,21.1262015 C22.1247904,21.5714354 21.7915276,21.9392374 21.3596795,21.9931878 L21.2497995,22 L16.8748451,22 C16.4281959,22 16.0605754,21.6664468 16.0066613,21.23576 L15.9998542,21.1262015 L15.9998542,17.602172 C15.9998542,17.1569381 16.333117,16.7891361 16.764965,16.7351857 L16.8748451,16.7283735 L21.2497995,16.7283735 Z M14.2498724,13.2331794 C14.6965216,13.2331794 15.064142,13.5667326 15.1180561,13.9974194 L15.1248633,14.1069779 L15.1248633,21.0973661 C15.1248633,21.5426001 14.7916005,21.910402 14.3597525,21.9643524 L14.2498724,21.9711646 L9.87491797,21.9711646 C9.42826878,21.9711646 9.06064835,21.6376114 9.00673425,21.2069246 L8.99992708,21.0973661 L8.99992708,14.1069779 C8.99992708,13.6617439 9.33318988,13.293942 9.76503791,13.2399916 L9.87491797,13.2331794 L14.2498724,13.2331794 Z M7.24994531,7.99038822 C7.69659451,7.99038822 8.06421494,8.32394141 8.11812903,8.75462824 L8.1249362,8.86418674 L8.1249362,21.0973661 C8.1249362,21.5426001 7.7916734,21.910402 7.35982537,21.9643524 L7.24994531,21.9711646 L2.87499089,21.9711646 C2.42834169,21.9711646 2.06072126,21.6376114 2.00680717,21.2069246 L2,21.0973661 L2,8.86418674 C2,8.41895279 2.3332628,8.05115082 2.76511083,7.99720042 L2.87499089,7.99038822 L7.24994531,7.99038822 Z M20.3748086,18.4759705 L17.7498359,18.4759705 L17.7498359,20.2524029 L20.3748086,20.2524029 L20.3748086,18.4759705 Z M13.3748815,14.9807764 L10.7499089,14.9807764 L10.7499089,20.2235676 L13.3748815,20.2235676 L13.3748815,14.9807764 Z M6.37495443,9.73798527 L3.74998177,9.73798527 L3.74998177,20.2235676 L6.37495443,20.2235676 L6.37495443,9.73798527 Z M15.1248633,1 C18.0202081,1 20.3748086,3.35139184 20.3748086,6.24279116 C20.3748086,7.50607082 19.9212911,8.66278589 19.1728983,9.56800854 L19.0080728,9.75808264 L22.7434089,13.4892023 C23.0855304,13.8308576 23.0855304,14.3830982 22.7434089,14.7247535 C22.5727857,14.8951442 22.348788,14.9807764 22.1247904,14.9807764 C21.9381256,14.9807764 21.7514609,14.9213096 21.5956842,14.8028816 L21.5061718,14.7247535 L17.6264622,10.8503308 C16.88272,11.2548995 16.0304788,11.4855823 15.1248633,11.4855823 C12.2295184,11.4855823 9.87491797,9.13419049 9.87491797,6.24279116 C9.87491797,3.35139184 12.2295184,1 15.1248633,1 Z M15.1248633,2.74759705 C13.1946334,2.74759705 11.6248997,4.31519161 11.6248997,6.24279116 C11.6248997,8.17039071 13.1946334,9.73798527 15.1248633,9.73798527 C17.0550932,9.73798527 18.6248268,8.17039071 18.6248268,6.24279116 C18.6248268,4.31519161 17.0550932,2.74759705 15.1248633,2.74759705 Z"  id="Combined-Shape" fill="#222222"></path>
    </g>
</svg>