<?xml version="1.0" encoding="UTF-8"?>
<svg width="24px" height="24px" viewBox="0 0 24 24" version="1.1" xmlns="http://www.w3.org/2000/svg" xmlns:xlink="http://www.w3.org/1999/xlink">
    <title>split</title>
    <g id="split" stroke="none" stroke-width="1" fill="none" fill-rule="evenodd">
        <path d="M23.9230278,0.62 C23.8220278,0.374 23.6260278,0.178 23.3800278,0.077 C23.2670278,0.03 23.1470278,0.009 23.0260278,0.005 C23.0170278,0.005 23.0090278,-1.03028697e-13 23.0000278,-1.03028697e-13 L18.0000278,-1.03028697e-13 C17.4470278,-1.03028697e-13 17.0000278,0.448 17.0000278,1 C17.0000278,1.552 17.4470278,2 18.0000278,2 L20.5850278,2 L14.7060278,7.879 C13.5350278,9.05 12.6260278,10.412 11.9990278,11.891 C11.3720278,10.412 10.4630278,9.05 9.29302778,7.879 L3.41302778,2 L6.00002778,2 C6.55202778,2 7.00002778,1.552 7.00002778,1 C7.00002778,0.448 6.55202778,-1.03028697e-13 6.00002778,-1.03028697e-13 L1.00002778,-1.03028697e-13 L0.999027784,-1.03028697e-13 C0.869027784,-1.03028697e-13 0.739027784,0.026 0.616027784,0.077 C0.510027784,0.121 0.419027784,0.188 0.335027784,0.264 C0.322027784,0.276 0.304027784,0.28 0.292027784,0.293 C0.270027784,0.314 0.262027784,0.343 0.243027784,0.366 C0.179027784,0.443 0.116027784,0.522 0.0770277841,0.616 C0.0250277841,0.74 -0.000972215869,0.872 -3.48165941e-13,1.005 L-3.48165941e-13,6 C-3.48165941e-13,6.552 0.447027784,7 1.00002778,7 C1.55202778,7 2.00002778,6.552 2.00002778,6 L2.00002778,3.415 L7.87902778,9.293 C9.89002778,11.306 10.9990278,13.982 10.9990278,16.829 L10.9990278,17.135 L10.9990278,23 C10.9990278,23.552 11.4460278,24 11.9990278,24 C12.5510278,24 12.9990278,23.552 12.9990278,23 L12.9990278,17.135 L12.9990278,16.829 C12.9990278,13.982 14.1070278,11.306 16.1200278,9.293 L22.0000278,3.413 L22.0000278,6 C22.0000278,6.552 22.4470278,7 23.0000278,7 C23.5520278,7 24.0000278,6.552 24.0000278,6 L24.0000278,1 C24.0000278,0.951 23.9780278,0.908 23.9720278,0.861 C23.9600278,0.779 23.9550278,0.697 23.9230278,0.62" id="Fill-1" fill="#222222"></path>
    </g>
</svg>