<?xml version="1.0" encoding="UTF-8"?>
<svg width="24px" height="24px" viewBox="0 0 24 24" version="1.1" xmlns="http://www.w3.org/2000/svg" xmlns:xlink="http://www.w3.org/1999/xlink">
    <title>bold</title>
    <g id="bold" stroke="none" stroke-width="1" fill="none" fill-rule="evenodd">
        <path d="M13.066,22 L6,22 L6,12 L12.876,12 C12.928,12.009 12.976,12.031 13.031,12.031 C16.293,12.031 18,14.531 18,17 C18,19.408 16.456,22 13.066,22 M17,6 C17,8.28 15.28,10 13,10 L6,10 L6,2 L13.066,2 C15.345,2 17,3.682 17,6 M16.496,10.9 C18.019,9.822 19,8.048 19,6 C19,2.58 16.449,0 13.066,0 L5,0 C4.447,0 4,0.448 4,1 L4,23 C4,23.552 4.447,24 5,24 L13.066,24 C17.084,24 20,21.056 20,17 C20,14.307 18.62,12.066 16.496,10.9" id="Fill-1" fill="#222222"></path>
    </g>
</svg>