<?xml version="1.0" encoding="UTF-8"?>
<svg viewBox="0 0 24 24" version="1.1" xmlns="http://www.w3.org/2000/svg" xmlns:xlink="http://www.w3.org/1999/xlink">
    <title>Icons/Basic icons/chevron-double-left</title>
    <g id="Icons/Basic-icons/chevron-double-left" stroke="none" stroke-width="1" fill="none" fill-rule="evenodd">
        <path d="M20.999,23.9999729 C20.758,23.9999729 20.516,23.9129729 20.324,23.7369729 L8.324,12.7369729 C8.117,12.5479729 8,12.2799729 8,11.9999729 C8,11.7199729 8.117,11.4519729 8.324,11.2629729 L20.324,0.262972935 C20.731,-0.111027065 21.364,-0.0820270655 21.737,0.323972935 C22.11,0.730972935 22.082,1.36397293 21.675,1.73697293 L10.48,11.9999729 L21.675,22.2629729 C22.082,22.6359729 22.11,23.2689729 21.737,23.6759729 C21.54,23.8909729 21.27,23.9999729 20.999,23.9999729" id="Fill-1" fill="#222222"></path>
        <path d="M14.999,23.9999729 C14.758,23.9999729 14.516,23.9129729 14.324,23.7369729 L2.324,12.7369729 C2.117,12.5479729 2,12.2799729 2,11.9999729 C2,11.7199729 2.117,11.4519729 2.324,11.2629729 L14.324,0.262972935 C14.731,-0.111027065 15.364,-0.0820270655 15.737,0.323972935 C16.11,0.730972935 16.083,1.36397293 15.675,1.73697293 L4.48,11.9999729 L15.675,22.2629729 C16.083,22.6359729 16.11,23.2689729 15.737,23.6759729 C15.54,23.8909729 15.27,23.9999729 14.999,23.9999729" id="Fill-3" fill="#222222"></path>
    </g>
</svg>