<svg width="24" height="24" viewBox="0 0 24 24" fill="none" xmlns="http://www.w3.org/2000/svg">
<g id="sortUpAlph">
<path id="Arrow up" d="M6.00025 21C5.44725 21 5.00025 20.553 5.00025 20L5.00025 6.42065L1.70625 9.70775C1.31525 10.0967 0.683251 10.0988 0.292251 9.70575C-0.0977496 9.31575 -0.0977496 8.68275 0.294251 8.29175L5.21255 3.38329C5.39547 3.14982 5.6801 3 6.00025 3C6.3204 3 6.60502 3.14982 6.78795 3.38329L11.7063 8.29175C12.0983 8.68275 12.0983 9.31575 11.7083 9.70575C11.3173 10.0988 10.6853 10.0967 10.2943 9.70775L7.00025 6.42065L7.00025 20C7.00025 20.553 6.55325 21 6.00025 21Z" fill="#222222"/>
<path id="Z" fill-rule="evenodd" clip-rule="evenodd" d="M16 15C16 14.4477 16.4477 14 17 14H23C23.3788 14 23.725 14.214 23.8944 14.5528C24.0638 14.8916 24.0273 15.297 23.8 15.6L19 22H23C23.5523 22 24 22.4477 24 23C24 23.5523 23.5523 24 23 24H17C16.6212 24 16.275 23.786 16.1056 23.4472C15.9362 23.1084 15.9727 22.703 16.2 22.4L21 16H17C16.4477 16 16 15.5523 16 15Z" fill="#222222"/>
<path id="A" fill-rule="evenodd" clip-rule="evenodd" d="M20.9433 0.66718C20.8022 0.267368 20.4243 0 20.0003 0C19.5763 0 19.1984 0.267368 19.0573 0.66718L16.0573 9.16718C15.8735 9.68798 16.1467 10.2592 16.6675 10.443C17.1883 10.6268 17.7595 10.3536 17.9433 9.83282L18.5901 8H21.4104L22.0573 9.83282C22.2411 10.3536 22.8123 10.6268 23.3331 10.443C23.8539 10.2592 24.1271 9.68798 23.9433 9.16718L20.9433 0.66718ZM20.7045 6L20.0003 4.00463L19.296 6H20.7045Z" fill="#222222"/>
</g>
</svg>
