<svg width="24" height="24" viewBox="0 0 24 24" fill="none" xmlns="http://www.w3.org/2000/svg">
<g id="sortDownAlph">
<path id="Arrow up" d="M5.99975 3C6.55275 3 6.99975 3.447 6.99975 4L6.99975 17.5793L10.2937 14.2923C10.6848 13.9033 11.3168 13.9012 11.7077 14.2942C12.0978 14.6842 12.0978 15.3173 11.7057 15.7083L6.78745 20.6167C6.60453 20.8502 6.3199 21 5.99975 21C5.6796 21 5.39498 20.8502 5.21205 20.6167L0.29375 15.7082C-0.0982499 15.3172 -0.0982498 14.6842 0.29175 14.2942C0.68275 13.9012 1.31475 13.9032 1.70575 14.2922L4.99975 17.5793L4.99975 4C4.99975 3.447 5.44675 3 5.99975 3Z" fill="#222222"/>
<path id="Z" fill-rule="evenodd" clip-rule="evenodd" d="M16 15C16 14.4477 16.4477 14 17 14H23C23.3788 14 23.725 14.214 23.8944 14.5528C24.0638 14.8916 24.0273 15.297 23.8 15.6L19 22H23C23.5523 22 24 22.4477 24 23C24 23.5523 23.5523 24 23 24H17C16.6212 24 16.275 23.786 16.1056 23.4472C15.9362 23.1084 15.9727 22.703 16.2 22.4L21 16H17C16.4477 16 16 15.5523 16 15Z" fill="#222222"/>
<path id="A" fill-rule="evenodd" clip-rule="evenodd" d="M20.9433 0.66718C20.8022 0.267368 20.4243 0 20.0003 0C19.5763 0 19.1984 0.267368 19.0573 0.66718L16.0573 9.16718C15.8735 9.68798 16.1467 10.2592 16.6675 10.443C17.1883 10.6268 17.7595 10.3536 17.9433 9.83282L18.5901 8H21.4104L22.0573 9.83282C22.2411 10.3536 22.8123 10.6268 23.3331 10.443C23.8539 10.2592 24.1271 9.68798 23.9433 9.16718L20.9433 0.66718ZM20.7045 6L20.0003 4.00463L19.296 6H20.7045Z" fill="#222222"/>
</g>
</svg>
