<?xml version="1.0" encoding="UTF-8"?>
<svg width="24px" height="24px" viewBox="0 0 24 24" version="1.1" xmlns="http://www.w3.org/2000/svg" xmlns:xlink="http://www.w3.org/1999/xlink">
    <title>Icons/Basic icons/mandates-receive</title>
    <g id="Icons/Basic-icons/mandates-receive" stroke="none" stroke-width="1" fill="none" fill-rule="evenodd">
        <path d="M9.41608 9.81599C10.7055 8.94639 11.5552 7.47706 11.5552 5.81781C11.5552 3.15902 9.38609 1 6.7272 1C4.0683 1 1.9092 3.15902 1.9092 5.81781C1.9092 7.48705 2.75885 8.94639 4.04831 9.81599C1.6893 10.8055 0 13.0445 0 15.5734V15.9932C0 16.5429 0.449813 16.9927 0.999583 16.9927H12.4748C13.0246 16.9927 13.4744 16.5429 13.4744 15.9932V15.5734C13.4744 13.0445 11.7851 10.8155 9.42607 9.81599H9.41608ZM6.73719 2.99909C8.29654 2.99909 9.56601 4.25852 9.56601 5.81781C9.56601 7.3771 8.29654 8.63653 6.73719 8.63653C5.17784 8.63653 3.90837 7.3771 3.90837 5.81781C3.90837 4.25852 5.17784 2.99909 6.73719 2.99909ZM2.03915 14.9936C2.35902 12.9246 4.37818 11.2653 6.7272 11.2653C9.07622 11.2653 11.0954 12.9246 11.4152 14.9936H2.03915Z" fill="#222222"/>
        <path d="M19.222 11.1454C19.5918 11.4952 19.8817 11.8851 20.0816 12.3249C20.2516 12.6947 20.6114 12.9046 20.9913 12.9046C21.1312 12.9046 21.2711 12.8746 21.4111 12.8146C21.9109 12.5847 22.1308 11.985 21.9009 11.4852C21.591 10.8155 21.1512 10.2058 20.5914 9.68605C20.0616 9.18628 19.4419 8.80645 18.7822 8.51658C19.8017 7.75693 20.4815 6.54748 20.4815 5.1781C20.4815 2.86915 18.6022 1 16.2932 1C13.9842 1 12.105 2.87915 12.105 5.1781C12.105 6.54748 12.7847 7.76692 13.8142 8.52658C13.3444 8.72649 12.8946 8.96638 12.4848 9.27624C12.045 9.60609 11.965 10.2358 12.2949 10.6756C12.6247 11.1154 13.2545 11.1954 13.6943 10.8655C15.3036 9.63607 17.7526 9.76601 19.222 11.1454ZM16.2932 2.99909C17.5027 2.99909 18.4823 3.97865 18.4823 5.1781C18.4823 6.37756 17.5027 7.35711 16.2932 7.35711C15.0837 7.35711 14.1041 6.37756 14.1041 5.1781C14.1041 3.97865 15.0837 2.99909 16.2932 2.99909Z" fill="#222222"/>
        <path d="M22.9904 17.9923H17.4027L18.6922 16.7029C19.082 16.313 19.082 15.6833 18.6922 15.2935C18.3024 14.9037 17.6726 14.9037 17.2828 15.2935L14.284 18.2921C14.1941 18.3821 14.1141 18.492 14.0641 18.622C13.9642 18.8619 13.9642 19.1418 14.0641 19.3816C14.1141 19.5016 14.1841 19.6115 14.284 19.7115L17.2828 22.7101C17.4827 22.91 17.7326 23 17.9925 23C18.2524 23 18.5023 22.9 18.7022 22.7101C19.092 22.3203 19.092 21.6906 18.7022 21.3008L17.4127 20.0114H23.0004C23.5502 20.0114 24 19.5616 24 19.0118C24 18.4621 23.5502 18.0123 23.0004 18.0123L22.9904 17.9923Z" fill="#222222"/>
    </g>
</svg>
