<?xml version="1.0" encoding="UTF-8"?>
<svg width="24px" height="24px" viewBox="0 0 24 24" version="1.1" xmlns="http://www.w3.org/2000/svg" xmlns:xlink="http://www.w3.org/1999/xlink">
    <title>Icons/Basic icons/size-fullscreen</title>
    <g id="Icons/Basic-icons/size-fullscreen" stroke="none" stroke-width="1" fill="none" fill-rule="evenodd">
        <path d="M9.707,8.293 L3.414,2 L6,2 C6.552,2 7,1.552 7,1 C7,0.448 6.552,0 6,0 L1,0 C0.87,0 0.74,0.027 0.618,0.077 C0.373,0.179 0.179,0.373 0.077,0.618 C0.027,0.74 0,0.87 0,1 L0,6 C0,6.552 0.448,7 1,7 C1.552,7 2,6.552 2,6 L2,3.414 L8.293,9.707 C8.488,9.902 8.744,10 9,10 C9.256,10 9.512,9.902 9.707,9.707 C10.098,9.317 10.098,8.683 9.707,8.293 M23.9228,0.6176 C23.8218,0.3736 23.6268,0.1786 23.3818,0.0776 C23.2598,0.0266 23.1298,-0.0004 22.9998,-0.0004 L17.9998,-0.0004 C17.4478,-0.0004 16.9998,0.4476 16.9998,0.9996 C16.9998,1.5526 17.4478,1.9996 17.9998,1.9996 L20.5858,1.9996 L14.2928,8.2926 C13.9018,8.6836 13.9018,9.3166 14.2928,9.7066 C14.4878,9.9026 14.7438,9.9996 14.9998,9.9996 C15.2558,9.9996 15.5118,9.9026 15.7068,9.7066 L21.9998,3.4136 L21.9998,5.9996 C21.9998,6.5526 22.4478,6.9996 22.9998,6.9996 C23.5518,6.9996 23.9998,6.5526 23.9998,5.9996 L23.9998,1.0006 C23.9998,0.8696 23.9738,0.7396 23.9228,0.6176 M23.9228,23.3824 C23.9738,23.2604 23.9998,23.1304 23.9998,22.9994 L23.9998,18.0004 C23.9998,17.4474 23.5518,17.0004 22.9998,17.0004 C22.4478,17.0004 21.9998,17.4474 21.9998,18.0004 L21.9998,20.5864 L15.7068,14.2934 C15.3168,13.9024 14.6838,13.9024 14.2928,14.2934 C13.9018,14.6834 13.9018,15.3164 14.2928,15.7074 L20.5858,22.0004 L17.9998,22.0004 C17.4478,22.0004 16.9998,22.4474 16.9998,23.0004 C16.9998,23.5524 17.4478,24.0004 17.9998,24.0004 L22.9998,24.0004 C23.1298,24.0004 23.2598,23.9734 23.3818,23.9224 C23.6268,23.8214 23.8218,23.6264 23.9228,23.3824 M9.707,14.293 C9.316,13.902 8.684,13.902 8.293,14.293 L2,20.586 L2,18 C2,17.448 1.552,17 1,17 C0.448,17 0,17.448 0,18 L0,23 C0,23.13 0.027,23.26 0.077,23.382 C0.179,23.627 0.373,23.822 0.618,23.923 C0.74,23.973 0.87,24 1,24 L6,24 C6.552,24 7,23.552 7,23 C7,22.448 6.552,22 6,22 L3.414,22 L9.707,15.707 C10.098,15.317 10.098,14.683 9.707,14.293" id="Combined-Shape" fill="#222222"></path>
    </g>
</svg>