<?xml version="1.0" encoding="UTF-8"?>
<svg width="24px" height="24px" viewBox="0 0 24 24" version="1.1" xmlns="http://www.w3.org/2000/svg" xmlns:xlink="http://www.w3.org/1999/xlink">
    <title>Icons/Basic icons/group-of-people</title>
    <g id="Icons/Basic-icons/group-of-people" stroke="none" stroke-width="1" fill="none" fill-rule="evenodd">
        <path d="M15 3C15 1.35 13.65 0 12 0C10.35 0 9 1.35 9 3C9 4.65 10.35 6 12 6C13.65 6 15 4.65 15 3ZM12 4C11.45 4 11 3.55 11 3C11 2.45 11.45 2 12 2C12.55 2 13 2.45 13 3C13 3.55 12.55 4 12 4Z" fill="#222222"/>
        <path d="M17 15V11.04C17 11.04 17 11.03 17 11.02C17 11.02 17 11.01 17 11C17 8.24 14.76 6 12 6C9.24 6 7 8.24 7 11C7 11 7 11.01 7 11.02C7 11.02 7 11.03 7 11.04V15C7 15.55 7.45 16 8 16H9.12L10.01 23.12C10.07 23.62 10.5 24 11 24H13C13.5 24 13.93 23.62 13.99 23.12L14.88 16H16C16.55 16 17 15.55 17 15ZM15 14H14C14 14 13.91 14.02 13.87 14.03C13.8 14.03 13.73 14.05 13.67 14.07C13.61 14.09 13.56 14.12 13.51 14.15C13.45 14.18 13.4 14.21 13.35 14.26C13.3 14.3 13.26 14.35 13.22 14.4C13.18 14.45 13.14 14.5 13.12 14.55C13.09 14.61 13.07 14.67 13.06 14.74C13.05 14.78 13.02 14.82 13.02 14.87L12.13 21.99H11.9L11.01 14.87C11.01 14.87 10.98 14.79 10.97 14.74C10.95 14.67 10.94 14.61 10.91 14.55C10.88 14.49 10.84 14.44 10.8 14.39C10.76 14.34 10.72 14.29 10.68 14.25C10.63 14.21 10.58 14.17 10.52 14.14C10.47 14.11 10.42 14.08 10.36 14.06C10.29 14.04 10.23 14.03 10.16 14.02C10.12 14.02 10.08 13.99 10.03 13.99H9.03V11.03C9.03 11.03 9.03 11.02 9.03 11.01C9.03 11.01 9.03 11 9.03 10.99C9.03 9.34 10.38 7.99 12.03 7.99C13.68 7.99 15.03 9.34 15.03 10.99C15.03 10.99 15.03 11 15.03 11.01C15.03 11.01 15.03 11.02 15.03 11.03V13.99L15 14Z" fill="#222222"/>
        <path d="M24 11.7C24 8.83 22.63 6.86 20.54 6.56C21.41 6.03 22 5.09 22 4C22 2.35 20.65 1 19 1C17.35 1 16 2.35 16 4C16 5.65 17.35 7 19 7C19.06 7 19.11 6.99 19.17 6.98C19.07 7.13 19.01 7.3 19.01 7.5C19.01 8.05 19.46 8.5 20.01 8.5C21.91 8.5 22.01 11.17 22.01 11.7C22.01 11.7 22.01 11.71 22.01 11.72C22.01 11.72 22.01 11.73 22.01 11.74V13.5H21.01C21.01 13.5 20.93 13.52 20.89 13.52C20.82 13.52 20.76 13.54 20.69 13.56C20.63 13.58 20.58 13.61 20.52 13.64C20.46 13.67 20.41 13.7 20.36 13.75C20.31 13.79 20.27 13.84 20.23 13.89C20.19 13.94 20.15 13.99 20.12 14.05C20.09 14.11 20.07 14.17 20.05 14.24C20.04 14.28 20.01 14.31 20.01 14.35L19.14 20H18.85L18.51 17.85C18.43 17.31 17.91 16.93 17.37 17.02C16.82 17.1 16.45 17.62 16.54 18.16L17.01 21.16C17.09 21.65 17.51 22.01 18 22.01H20C20.49 22.01 20.91 21.65 20.99 21.16L21.86 15.51H23C23.55 15.51 24 15.06 24 14.51V11.75C24 11.75 24 11.74 24 11.73C24 11.73 24 11.72 24 11.71V11.7ZM18 4C18 3.45 18.45 3 19 3C19.55 3 20 3.45 20 4C20 4.55 19.55 5 19 5C18.45 5 18 4.55 18 4Z" fill="#222222"/>
        <path d="M6.62 17.01C6.07 16.93 5.56 17.3 5.48 17.84L5.14 19.99H4.85L3.98 14.34C3.98 14.34 3.95 14.26 3.94 14.22C3.92 14.15 3.9 14.09 3.87 14.03C3.84 13.97 3.8 13.92 3.76 13.87C3.72 13.82 3.68 13.78 3.64 13.74C3.59 13.7 3.54 13.66 3.48 13.63C3.43 13.6 3.37 13.57 3.31 13.55C3.25 13.53 3.18 13.52 3.12 13.51C3.08 13.51 3.04 13.49 3 13.49H2V11.73C2 11.73 2 11.72 2 11.71C2 11.71 2 11.7 2 11.69C2 11.16 2.1 8.49 4 8.49C4.55 8.49 5 8.04 5 7.49C5 7.3 4.93 7.13 4.84 6.97C4.9 6.97 4.95 6.99 5.01 6.99C6.66 6.99 8.01 5.64 8.01 3.99C8.01 2.34 6.66 0.99 5.01 0.99C3.36 0.99 2.01 2.34 2.01 3.99C2.01 5.08 2.6 6.02 3.47 6.55C1.38 6.85 0.00999832 8.82 0.00999832 11.69C0.00999832 11.69 0.00999832 11.7 0.00999832 11.71C0.00999832 11.71 0.00999832 11.72 0.00999832 11.73V14.49C0.00999832 15.04 0.459998 15.49 1.01 15.49H2.15L3.02 21.14C3.1 21.63 3.52 21.99 4.01 21.99H6.01C6.5 21.99 6.92 21.63 7 21.14L7.47 18.14C7.55 17.59 7.18 17.08 6.64 17L6.62 17.01ZM5 3C5.55 3 6 3.45 6 4C6 4.55 5.55 5 5 5C4.45 5 4 4.55 4 4C4 3.45 4.45 3 5 3Z" fill="#222222"/>
    </g>
</svg>
