<svg width="24" height="24" viewBox="0 0 24 24" fill="none" xmlns="http://www.w3.org/2000/svg">
<g id="lock">
<path id="Shape" d="M19 8H18V6C18 2.69 15.31 0 12 0C8.69 0 6 2.69 6 6V8H5C3.35 8 2 9.35 2 11V21C2 22.65 3.35 24 5 24H19C20.65 24 22 22.65 22 21V11C22 9.35 20.65 8 19 8ZM8 6C8 3.79 9.79 2 12 2C14.21 2 16 3.79 16 6V8H8V6ZM20 21C20 21.55 19.55 22 19 22H5C4.45 22 4 21.55 4 21V11C4 10.45 4.45 10 5 10H19C19.55 10 20 10.45 20 11V21Z" fill="#222222"/>
<path id="Shape_2" d="M12 12C10.9 12 10 12.9 10 14C10 14.74 10.41 15.38 11 15.72V18C11 18.55 11.45 19 12 19C12.55 19 13 18.55 13 18V15.72C13.59 15.37 14 14.74 14 14C14 12.9 13.1 12 12 12Z" fill="#222222"/>
</g>
</svg>
