<?xml version="1.0" encoding="UTF-8"?>
<svg width="24px" height="24px" viewBox="0 0 24 24" version="1.1" xmlns="http://www.w3.org/2000/svg" xmlns:xlink="http://www.w3.org/1999/xlink">
    <title>quotes</title>
    <g id="quotes" stroke="none" stroke-width="1" fill="none" fill-rule="evenodd">
        <path d="M16,13 L13,13 C12.447,13 12,13.448 12,14 L12,18 C12,18.552 12.447,19 13,19 L14.912,19 C14.567,20.839 13.283,20.991 12.988,21 C12.441,21.006 12,21.452 12,22 C12,22.552 12.447,23 13,23 C14.384,23 17,21.955 17,18 L17,14 C17,13.448 16.553,13 16,13" id="Fill-1" fill="#222222"></path>
        <path d="M23,13 L20,13 C19.447,13 19,13.448 19,14 L19,18 C19,18.552 19.447,19 20,19 L21.912,19 C21.567,20.839 20.283,20.991 19.988,21 C19.441,21.006 19,21.452 19,22 C19,22.552 19.447,23 20,23 C21.384,23 24,21.955 24,18 L24,14 C24,13.448 23.553,13 23,13" id="Fill-3" fill="#222222"></path>
        <path d="M12,6 C12,5.448 11.553,5 11,5 L9.088,5 C9.433,3.16 10.717,3.009 11.012,3 C11.559,2.994 12,2.548 12,2 C12,1.448 11.553,1 11,1 C9.616,1 7,2.045 7,6 L7,10 C7,10.552 7.447,11 8,11 L11,11 C11.553,11 12,10.552 12,10 L12,6 Z" id="Fill-5" fill="#222222"></path>
        <path d="M4.0117,3 C4.5587,2.994 4.9997,2.548 4.9997,2 C4.9997,1.448 4.5527,1 3.9997,1 C2.6167,1 -0.0003,2.045 -0.0003,6 L-0.0003,10 C-0.0003,10.552 0.4477,11 0.9997,11 L3.9997,11 C4.5527,11 4.9997,10.552 4.9997,10 L4.9997,6 C4.9997,5.448 4.5527,5 3.9997,5 L2.0877,5 C2.4327,3.16 3.7177,3.009 4.0117,3" id="Fill-7" fill="#222222"></path>
    </g>
</svg>