<?xml version="1.0" encoding="UTF-8"?>
<svg  viewBox="0 0 24 24" version="1.1" xmlns="http://www.w3.org/2000/svg" xmlns:xlink="http://www.w3.org/1999/xlink">
    <title>Icons/Basic icons/image</title>
    <g  id="Icons/Basic-icons/image" stroke="none" stroke-width="1" fill="none" fill-rule="evenodd">
        <path d="M22,2 C23.103,2 24,2.897 24,4 L24,20 C24,21.103 23.103,22 22,22 L2,22 C0.897,22 0,21.103 0,20 L0,4 C0,2.897 0.897,2 2,2 L22,2 Z M7.9475,10.362 L2,15.458 L2,20 L21.997,20 L21.996,18.358 L17.8395,13.37 L14.6005,15.8 C14.2015,16.099 13.6455,16.059 13.2925,15.707 L7.9475,10.362 Z M22,4 L2,4 L2,12.825 L7.3495,8.241 C7.7455,7.901 8.3365,7.923 8.7075,8.293 L14.0935,13.68 L17.3995,11.2 C17.8265,10.881 18.4275,10.951 18.7685,11.36 L21.997,15.234 L22,4 Z M16.5015,6 C17.32725,6 18,6.67275 18,7.5 C18,8.32725 17.32725,9 16.5015,9 C15.6735,9 15,8.32725 15,7.5 C15,6.67275 15.6735,6 16.5015,6 Z"  id="Combined-Shape" fill="#222222"></path>
    </g>
</svg>