<?xml version="1.0" encoding="UTF-8"?>
<svg width="24" height="24" viewBox="0 0 24 24" fill="none" xmlns="http://www.w3.org/2000/svg">
    <g id="sortDown">
        <path id="Shape" d="M5.99975 3C6.55275 3 6.99975 3.447 6.99975 4L6.99975 17.5793L10.2937 14.2923C10.6848 13.9033 11.3168 13.9012 11.7077 14.2942C12.0978 14.6842 12.0978 15.3173 11.7057 15.7083L6.78745 20.6167C6.60453 20.8502 6.3199 21 5.99975 21C5.6796 21 5.39498 20.8502 5.21205 20.6167L0.29375 15.7082C-0.0982499 15.3172 -0.0982498 14.6842 0.29175 14.2942C0.68275 13.9012 1.31475 13.9032 1.70575 14.2922L4.99975 17.5793L4.99975 4C4.99975 3.447 5.44675 3 5.99975 3Z" fill="#222222"/>
        <path id="Line 11 (Stroke)" fill-rule="evenodd" clip-rule="evenodd" d="M14 6C14 5.44772 14.4477 5 15 5H16C16.5523 5 17 5.44772 17 6C17 6.55228 16.5523 7 16 7H15C14.4477 7 14 6.55228 14 6Z" fill="#222222"/>
        <path id="Line 12 (Stroke)" fill-rule="evenodd" clip-rule="evenodd" d="M14 10C14 9.44772 14.4477 9 15 9H18C18.5523 9 19 9.44772 19 10C19 10.5523 18.5523 11 18 11H15C14.4477 11 14 10.5523 14 10Z" fill="#222222"/>
        <path id="Line 13 (Stroke)" fill-rule="evenodd" clip-rule="evenodd" d="M14 14C14 13.4477 14.4477 13 15 13H21C21.5523 13 22 13.4477 22 14C22 14.5523 21.5523 15 21 15H15C14.4477 15 14 14.5523 14 14Z" fill="#222222"/>
        <path id="Line 14 (Stroke)" fill-rule="evenodd" clip-rule="evenodd" d="M14 18C14 17.4477 14.4477 17 15 17H23C23.5523 17 24 17.4477 24 18C24 18.5523 23.5523 19 23 19H15C14.4477 19 14 18.5523 14 18Z" fill="#222222"/>
    </g>
</svg>
