<?xml version="1.0" encoding="UTF-8"?>
<svg width="24px" height="24px" viewBox="0 0 24 24" version="1.1" xmlns="http://www.w3.org/2000/svg" xmlns:xlink="http://www.w3.org/1999/xlink">
    <title>Icons/Basic icons/mandates-grant</title>
    <g id="Icons/Basic-icons/mandates-grant" stroke="none" stroke-width="1" fill="none" fill-rule="evenodd">
        <path d="M19.2941 15.3027C19.6842 14.9124 20.3145 14.9124 20.7046 15.3027L23.7052 18.3054C23.8052 18.4055 23.875 18.5157 23.925 18.6358C24.025 18.8759 24.025 19.156 23.925 19.3962L23.9348 19.3767C23.8848 19.5066 23.8049 19.617 23.715 19.707L20.7144 22.7097C20.5144 22.8997 20.2642 23 20.0043 23C19.7443 23 19.4942 22.9097 19.2941 22.7097C18.9041 22.3194 18.9042 21.6886 19.2941 21.2983L20.5845 20.0071H14.9934C14.4434 20.0071 13.9933 19.5566 13.9932 19.0062C13.9932 18.4557 14.4433 18.0053 14.9934 18.0053H20.5845L19.2941 16.7141C18.9041 16.3238 18.9041 15.6931 19.2941 15.3027Z" fill="#222222"/>
        <path d="M6.7319 1C9.39225 1.00025 11.562 3.16239 11.562 5.8246C11.5619 7.48594 10.7121 8.95743 9.42193 9.82815H9.4317C11.7922 10.829 13.4833 13.0608 13.4833 15.593V16.0133C13.4833 16.5637 13.033 17.014 12.4831 17.0142H1.00021C0.450096 17.0142 0 16.5638 0 16.0133V15.593C0 13.0609 1.69031 10.8191 4.05067 9.82815C2.76047 8.95743 1.91067 7.49595 1.91056 5.8246C1.91056 3.16223 4.07134 1 6.7319 1ZM6.7319 11.2787C4.3814 11.2787 2.36054 12.9406 2.04047 15.0124H11.4224C11.1023 12.9407 9.0822 11.2789 6.7319 11.2787ZM6.74167 3.00178C5.18134 3.00178 3.91099 4.26321 3.91099 5.8246C3.91116 7.38584 5.18144 8.64644 6.74167 8.64644C8.30179 8.64631 9.57218 7.38576 9.57235 5.8246C9.57235 4.26329 8.30189 3.0019 6.74167 3.00178Z" fill="#222222" fill-rule="evenodd" clip-rule="evenodd"/>
        <path d="M16.3033 1C18.6137 1 20.4944 2.87149 20.4946 5.1834C20.4946 6.55451 19.8141 7.76553 18.794 8.52621C19.4542 8.81647 20.0739 9.19771 20.604 9.69815C21.1641 10.2186 21.6048 10.829 21.9148 11.4996C22.1447 11.9999 21.9245 12.6007 21.4245 12.8308C21.2845 12.8908 21.1444 12.9207 21.0045 12.9207C20.6244 12.9207 20.2642 12.7105 20.0941 12.3401C19.8942 11.8999 19.6044 11.5096 19.2346 11.1594C17.7643 9.7782 15.3135 9.64785 13.7031 10.8789C13.263 11.2092 12.6325 11.1287 12.3024 10.6883C11.9726 10.2479 12.0529 9.61785 12.4929 9.28763C12.903 8.97736 13.3532 8.73714 13.8233 8.53696C12.793 7.77629 12.1129 6.55462 12.1129 5.1834C12.1131 2.88156 13.993 1.00011 16.3033 1ZM16.3033 3.00178C15.0932 3.00188 14.1135 3.98254 14.1134 5.1834C14.1134 6.3844 15.0931 7.3659 16.3033 7.366C17.5135 7.366 18.4942 6.38447 18.4942 5.1834C18.494 3.98248 17.5134 3.00178 16.3033 3.00178Z" fill="#222222" fill-rule="evenodd" clip-rule="evenodd"/>
    </g>
</svg>
