<?xml version="1.0" encoding="UTF-8"?>
<svg  viewBox="0 0 24 24" version="1.1" xmlns="http://www.w3.org/2000/svg" xmlns:xlink="http://www.w3.org/1999/xlink">
    <title>Icons/Basic icons/chevron-circle-up</title>
    <g  id="Icons/Basic-icons/chevron-circle-up" stroke="none" stroke-width="1" fill="none" fill-rule="evenodd">
        <path d="M12,0 C18.617,0 24,5.383 24,12 C24,18.617 18.617,24 12,24 C5.383,24 0,18.617 0,12 C0,5.383 5.383,0 12,0 Z M12,2 C6.486,2 2,6.486 2,12 C2,17.514 6.486,22 12,22 C17.514,22 22,17.514 22,12 C22,6.486 17.514,2 12,2 Z M11.292875,8.292875 C11.682875,7.901875 12.316875,7.901875 12.706875,8.292875 L12.706875,8.292875 L16.706875,12.292875 C17.097875,12.683875 17.097875,13.315875 16.706875,13.706875 C16.316875,14.097875 15.682875,14.097875 15.292875,13.706875 L15.292875,13.706875 L11.999875,10.413875 L8.706875,13.706875 C8.316875,14.097875 7.682875,14.097875 7.292875,13.706875 C7.097875,13.511875 6.999875,13.255875 6.999875,12.999875 C6.999875,12.743875 7.097875,12.487875 7.292875,12.292875 L7.292875,12.292875 L11.292875,8.292875 Z"  id="Shape" fill="#222222"></path>
    </g>
</svg>