<?xml version="1.0" encoding="UTF-8"?>
<svg  viewBox="0 0 24 24" version="1.1" xmlns="http://www.w3.org/2000/svg" xmlns:xlink="http://www.w3.org/1999/xlink">
    <title>Icons/Basic icons/control-next</title>
    <g  id="Icons/Basic-icons/control-next" stroke="none" stroke-width="1" fill="none" fill-rule="evenodd">
        <path d="M2.4915,-9.99999987e-05 C2.7895,-9.99999987e-05 3.0865,0.0849 3.3745,0.2519 L20.6315,10.2689 C20.7705,10.3489 20.8925,10.4419 20.9995,10.5449 L20.9995,1.0069 C20.9995,0.4549 21.4465,0.0069 21.9995,0.0069 C22.5515,0.0069 22.9995,0.4549 22.9995,1.0069 L22.9995,23.0069 C22.9995,23.5599 22.5515,24.0069 21.9995,24.0069 C21.4465,24.0069 20.9995,23.5599 20.9995,23.0069 L20.9995,12.7609 C20.9005,12.8559 20.7915,12.9439 20.6675,13.0219 L3.3855,23.7229 C3.0875,23.9069 2.7785,24.0009 2.4685,24.0009 C1.7375,24.0009 0.9995,23.4399 0.9995,22.3689 L0.9995,1.6459 C0.9995,0.6919 1.6265,-9.99999987e-05 2.4915,-9.99999987e-05 Z M2.9425,2.3469 L2.9425,21.6089 L18.9995,11.6669 L2.9425,2.3469 Z"  id="Combined-Shape" fill="#222222"></path>
    </g>
</svg>