<svg width="24" height="24" viewBox="0 0 24 24" fill="none" xmlns="http://www.w3.org/2000/svg">
<g id="person">
<path id="Shape" fill-rule="evenodd" clip-rule="evenodd" d="M9.14958 13.4069C6.69247 12.3266 5 9.88167 5 7C5 3.1 8.1 0 12 0C15.9 0 19 3.1 19 7C19 9.88167 17.3075 12.3266 14.8504 13.4069C18.9243 14.591 22 18.2115 22 22.3V23C22 23.6 21.6 24 21 24H3C2.4 24 2 23.6 2 23V22.3C2 18.2115 5.07574 14.591 9.14958 13.4069ZM7 7C7 4.2 9.2 2 12 2C14.8 2 17 4.2 17 7C17 9.8 14.8 12 12 12C9.2 12 7 9.8 7 7ZM12 15C16.2 15 19.8 18.2 20 22H4C4.2 18.2 7.8 15 12 15Z" fill="#222222"/>
</g>
</svg>
