<?xml version="1.0" encoding="UTF-8"?>
<svg width="24px" height="24px" viewBox="0 0 24 24" version="1.1" xmlns="http://www.w3.org/2000/svg" xmlns:xlink="http://www.w3.org/1999/xlink">
    <title>Icons/Basic icons/preview</title>
    <g id="Icons/Basic-icons/preview" stroke="none" stroke-width="1" fill="none" fill-rule="evenodd">
        <path d="M12,5 C5.216,5 2,10.615 2,12 C2,13.385 5.216,19 12,19 C18.784,19 22,13.385 22,12 C22,10.615 18.784,5 12,5 M12,21 C4.205,21 0,14.612 0,12 C0,9.388 4.205,3 12,3 C19.795,3 24,9.388 24,12 C24,14.612 19.795,21 12,21" id="Fill-1" fill="#222222"></path>
        <path d="M12,9 C10.346,9 9,10.346 9,12 C9,13.654 10.346,15 12,15 C13.654,15 15,13.654 15,12 C15,10.346 13.654,9 12,9 M12,17 C9.243,17 7,14.757 7,12 C7,9.243 9.243,7 12,7 C14.757,7 17,9.243 17,12 C17,14.757 14.757,17 12,17" id="Fill-3" fill="#222222"></path>
    </g>
</svg>