<?xml version="1.0" encoding="UTF-8"?>
<svg  viewBox="0 0 24 24" version="1.1" xmlns="http://www.w3.org/2000/svg" xmlns:xlink="http://www.w3.org/1999/xlink">
    <title>Icons/Basic icons/settings</title>
    <g  id="Icons/Basic-icons/settings" stroke="none" stroke-width="1" fill="none" fill-rule="evenodd">
        <path d="M13.4671,0 C13.9731,0 14.3981,0.377 14.4591,0.879 L14.7401,3.174 C15.2661,3.337 15.7781,3.548 16.2701,3.804 L18.1261,2.391 C18.5211,2.09 19.0801,2.125 19.4361,2.478 L21.4731,4.501 C21.8271,4.853 21.8671,5.412 21.5661,5.812 L20.1801,7.654 C20.4521,8.162 20.6761,8.693 20.8501,9.243 L23.1301,9.542 C23.6281,9.606 24.0001,10.031 24.0001,10.533 L24.0001,13.467 C24.0001,13.969 23.6281,14.394 23.1301,14.458 L20.8631,14.755 C20.6971,15.29 20.4821,15.809 20.2211,16.307 L21.6071,18.125 C21.9101,18.522 21.8741,19.082 21.5221,19.437 L19.5001,21.473 C19.1501,21.824 18.5981,21.866 18.1971,21.573 L16.3351,20.203 C15.8301,20.471 15.3041,20.689 14.7601,20.858 L14.4581,23.132 C14.3911,23.629 13.9681,24 13.4671,24 L10.5331,24 C10.0301,24 9.6051,23.627 9.5411,23.128 L9.2491,20.866 C8.7171,20.701 8.1991,20.488 7.7031,20.229 L5.8721,21.61 C5.4751,21.911 4.9191,21.873 4.5651,21.522 L2.5281,19.501 C2.1771,19.152 2.1341,18.601 2.4251,18.201 L3.7841,16.34 C3.5111,15.825 3.2881,15.29 3.1181,14.738 L0.8761,14.459 C0.3761,14.396 0.0001,13.972 0.0001,13.467 L0.0001,10.533 C0.0001,10.029 0.3741,9.604 0.8741,9.541 L3.1341,9.254 C3.3061,8.708 3.5271,8.18 3.7991,7.673 L2.4001,5.885 C2.0901,5.487 2.1241,4.922 2.4781,4.563 L4.5011,2.527 C4.8551,2.172 5.4181,2.133 5.8161,2.437 L7.6551,3.835 C8.1631,3.566 8.6931,3.346 9.2421,3.176 L9.5421,0.871 C9.6061,0.373 10.0301,0 10.5331,0 L13.4671,0 Z M12.5821,2 L11.4121,2 L11.1391,4.097 C11.0851,4.512 10.7781,4.85 10.3691,4.942 C9.5681,5.125 8.8081,5.44 8.1121,5.879 C7.7581,6.103 7.3071,6.083 6.9741,5.829 L5.3031,4.559 L4.5191,5.348 L5.7921,6.975 C6.0531,7.309 6.0751,7.771 5.8471,8.129 C5.4011,8.827 5.0821,9.587 4.8971,10.387 C4.8031,10.795 4.4651,11.102 4.0491,11.154 L2.0001,11.414 L2.0001,12.584 L4.0341,12.837 C4.4521,12.889 4.7941,13.198 4.8861,13.61 C5.0641,14.406 5.3801,15.167 5.8221,15.871 C6.0401,16.218 6.0241,16.662 5.7831,16.993 L4.5471,18.687 L5.3581,19.492 L7.0231,18.236 C7.3531,17.986 7.8021,17.967 8.1531,18.185 C8.8441,18.614 9.5921,18.921 10.3761,19.099 C10.7851,19.191 11.0941,19.53 11.1471,19.946 L11.4121,22 L12.5911,22 L12.8651,19.936 C12.9201,19.521 13.2261,19.186 13.6331,19.093 C14.4251,18.911 15.1781,18.599 15.8691,18.164 C16.2171,17.945 16.6631,17.962 16.9941,18.205 L18.6881,19.451 L19.4891,18.646 L18.2271,16.991 C17.9741,16.66 17.9541,16.207 18.1751,15.854 C18.6071,15.164 18.9181,14.415 19.0961,13.628 C19.1881,13.22 19.5261,12.912 19.9411,12.858 L22.0001,12.589 L22.0001,11.411 L19.9311,11.14 C19.5171,11.086 19.1811,10.781 19.0871,10.375 C18.9001,9.574 18.5811,8.817 18.1381,8.124 C17.9121,7.772 17.9301,7.317 18.1811,6.983 L19.4441,5.305 L18.6441,4.51 L16.9571,5.795 C16.6281,6.046 16.1781,6.066 15.8251,5.85 C15.1351,5.423 14.3901,5.117 13.6081,4.94 C13.1961,4.847 12.8881,4.505 12.8371,4.086 L12.5821,2 Z M12,7.0137 C14.757,7.0137 17,9.2567 17,12.0137 C17,14.7707 14.757,17.0137 12,17.0137 C9.243,17.0137 7,14.7707 7,12.0137 C7,9.2567 9.243,7.0137 12,7.0137 Z M12,9.0137 C10.346,9.0137 9,10.3597 9,12.0137 C9,13.6677 10.346,15.0137 12,15.0137 C13.654,15.0137 15,13.6677 15,12.0137 C15,10.3597 13.654,9.0137 12,9.0137 Z"  id="Combined-Shape" fill="#222222"></path>
    </g>
</svg>