<?xml version="1.0" encoding="UTF-8"?>
<svg  viewBox="0 0 24 24" version="1.1" xmlns="http://www.w3.org/2000/svg" xmlns:xlink="http://www.w3.org/1999/xlink">
    <title>Icons/Basic icons/heart</title>
    <g  id="Icons/Basic-icons/heart" stroke="none" stroke-width="1" fill="none" fill-rule="evenodd">
        <path d="M17.2991,2.0001 C19.0151,2.0001 20.7301,2.6671 22.0311,4.0011 C24.6341,6.6691 24.6341,11.0341 22.0311,13.7021 L22.0311,13.7021 L13.4231,22.5241 C13.0301,22.9271 12.5111,23.1281 11.9911,23.1281 C11.4721,23.1281 10.9521,22.9271 10.5601,22.5241 L10.5601,22.5241 L1.9521,13.7021 C-0.6509,11.0341 -0.6509,6.6691 1.9511,4.0011 C3.2531,2.6671 4.9691,2.0001 6.6851,2.0001 C8.4011,2.0001 10.1151,2.6671 11.4171,4.0011 L11.4171,4.0011 L11.9911,4.5891 L12.5661,4.0011 C13.8671,2.6671 15.5831,2.0001 17.2991,2.0001 Z M17.2991,4.0001 C16.0491,4.0001 14.8771,4.4971 13.9971,5.3971 L13.9971,5.3971 L13.4231,5.9861 L11.9911,7.4531 L10.5611,5.9861 L9.9861,5.3971 C9.1071,4.4961 7.9341,4.0001 6.6851,4.0001 C5.4351,4.0001 4.2631,4.4971 3.3831,5.3981 C1.5261,7.3021 1.5261,10.4011 3.3841,12.3051 L3.3841,12.3051 L11.9911,21.1281 L20.6001,12.3051 C22.4581,10.4011 22.4581,7.3021 20.6001,5.3981 C19.7211,4.4971 18.5481,4.0001 17.2991,4.0001 Z"  id="Combined-Shape" fill="#222222"></path>
    </g>
</svg>