<svg width="24" height="24" viewBox="0 0 24 24" fill="none" xmlns="http://www.w3.org/2000/svg">
<g id="authoriseCompany">
<g id="Shape">
<path fill-rule="evenodd" clip-rule="evenodd" d="M7.188 4C10.014 4 12.313 6.299 12.313 9.125C12.313 10.9 11.405 12.465 10.03 13.385C12.559 14.44 14.375 16.833 14.375 19.542V20C14.375 20.552 13.928 21 13.375 21H1C0.448 21 0 20.552 0 20V19.542C0 16.833 1.817 14.44 4.346 13.385C2.971 12.465 2.063 10.9 2.063 9.125C2.063 6.299 4.362 4 7.188 4ZM7.188 14.813C4.577 14.813 2.341 16.68 2.036 19H12.34C12.035 16.68 9.799 14.813 7.188 14.813ZM7.188 6C5.465 6 4.063 7.402 4.063 9.125C4.063 10.848 5.465 12.25 7.188 12.25C8.911 12.25 10.313 10.848 10.313 9.125C10.313 7.402 8.911 6 7.188 6Z" fill="#222222"/>
<path fill-rule="evenodd" clip-rule="evenodd" d="M14 5C14 4.44772 14.4477 4 15 4H23C23.5523 4 24 4.44772 24 5V17C24 17.5523 23.5523 18 23 18H19C18.4477 18 18 17.5523 18 17V14H16V15C16 15.5523 15.5523 16 15 16C14.4477 16 14 15.5523 14 15V5ZM16 10V12H18V10H16ZM18 8H16V6H18V8ZM20 10V12H22V10H20ZM22 8H20V6H22V8ZM22 14H20V16H22V14Z" fill="#222222"/>
</g>
</g>
</svg>
