<?xml version="1.0" encoding="UTF-8"?>
<svg width="24px" height="24px" viewBox="0 0 24 24" version="1.1" xmlns="http://www.w3.org/2000/svg" xmlns:xlink="http://www.w3.org/1999/xlink">
    <title>Icons/Basic icons/mail-receive</title>
    <g id="Icons/Basic-icons/mail-receive" stroke="none" stroke-width="1" fill="none" fill-rule="evenodd">
        <path d="M20.9913 3H2.99875C1.34944 3 0 4.34929 0 5.99842V17.9921C0 19.6412 1.34944 20.9905 2.99875 20.9905H10.9954C11.5452 20.9905 11.995 20.5408 11.995 19.9911C11.995 19.4413 11.5452 18.9916 10.9954 18.9916H2.99875C2.44898 18.9916 1.99917 18.5418 1.99917 17.9921V6.55813L11.3353 14.7438C11.5252 14.9137 11.7551 14.9937 11.995 14.9937C12.2349 14.9937 12.4648 14.9137 12.6547 14.7438L21.9908 6.55813V11.9953C21.9908 12.545 22.4406 12.9947 22.9904 12.9947C23.5402 12.9947 23.99 12.545 23.99 11.9953V5.99842C23.99 4.34929 22.6406 3 20.9913 3ZM11.995 12.6649L3.24865 4.99895H20.7414L11.995 12.6649Z" fill="#222222"/>
        <path d="M22.9904 16.9926H17.4027L18.6922 15.7033C19.082 15.3135 19.082 14.6839 18.6922 14.2941C18.3024 13.9043 17.6726 13.9043 17.2828 14.2941L14.284 17.2925C14.1941 17.3824 14.1141 17.4924 14.0641 17.6223C13.9642 17.8622 13.9642 18.142 14.0641 18.3819C14.1141 18.5018 14.1841 18.6118 14.284 18.7117L17.2828 21.7102C17.4827 21.91 17.7326 22 17.9925 22C18.2524 22 18.5023 21.9001 18.7022 21.7102C19.092 21.3204 19.092 20.6907 18.7022 20.3009L17.4127 19.0116H23.0004C23.5502 19.0116 24 18.5618 24 18.0121C24 17.4624 23.5502 17.0126 23.0004 17.0126L22.9904 16.9926Z" fill="#222222"/>
    </g>
</svg>
