<?xml version="1.0" encoding="UTF-8"?>
<svg  viewBox="0 0 24 24" version="1.1" xmlns="http://www.w3.org/2000/svg" xmlns:xlink="http://www.w3.org/1999/xlink">
    <title>Icons/Basic icons/arrow-right</title>
    <g  id="Icons/Basic-icons/arrow-right" stroke="none" stroke-width="1" fill="none" fill-rule="evenodd">
        <path d="M23.923,11.6175 C23.872,11.4945 23.799,11.3845 23.707,11.2925 L17.707,5.2925 C17.317,4.9025 16.684,4.9025 16.293,5.2925 C15.902,5.6835 15.902,6.3165 16.293,6.7065 L20.586,10.9995 L1,10.9995 C0.448,10.9995 9.9475983e-14,11.4475 9.9475983e-14,11.9995 C9.9475983e-14,12.5525 0.448,12.9995 1,12.9995 L20.586,12.9995 L16.293,17.2925 C15.902,17.6835 15.902,18.3165 16.293,18.7065 C16.488,18.9025 16.744,18.9995 17,18.9995 C17.256,18.9995 17.512,18.9025 17.707,18.7065 L23.707,12.7075 C23.799,12.6155 23.872,12.5045 23.923,12.3825 C24.024,12.1375 24.024,11.8625 23.923,11.6175"  id="Shape" fill="#292929"></path>
    </g>
</svg>