<?xml version="1.0" encoding="UTF-8"?>
<svg  viewBox="0 0 24 24" version="1.1" xmlns="http://www.w3.org/2000/svg" xmlns:xlink="http://www.w3.org/1999/xlink">
    <title>Icons/Basic icons/attachment</title>
    <g  id="Icons/Basic-icons/attachment" stroke="none" stroke-width="1" fill="none" fill-rule="evenodd">
        <path d="M22.069,11.129549 C22.069,10.873549 21.971,10.617549 21.776,10.422549 C21.385,10.031549 20.752,10.031549 20.362,10.422549 L9.986,20.797549 C9.213,21.570549 8.184,21.996549 7.091,21.996549 C5.997,21.996549 4.969,21.571549 4.196,20.797549 C2.6,19.200549 2.601,16.602549 4.196,15.006549 L16.232,2.97154902 C16.911,2.29254902 17.565,1.96654902 18.176,2.00254902 C18.771,2.03854902 19.23,2.41454902 19.451,2.63554902 C19.824,3.00854902 19.98,3.41154902 19.922,3.86654902 C19.851,4.43554902 19.46,5.08954902 18.789,5.76054902 L9.345,15.203549 C8.954,15.594549 8.954,16.226549 9.345,16.617549 C9.736,17.008549 10.368,17.008549 10.759,16.617549 L20.204,7.17454902 C21.206,6.17254902 21.778,5.14254902 21.907,4.11354902 C22.041,3.03454902 21.68,2.03554902 20.865,1.22154902 C20.138,0.493549021 19.225,0.0615490207 18.295,0.0065490207 C17.088,-0.0654509793 15.918,0.456549021 14.818,1.55654902 L2.782,13.592549 C0.406,15.968549 0.406,19.835549 2.782,22.211549 C3.932,23.362549 5.463,23.996549 7.091,23.996549 C8.719,23.996549 10.249,23.362549 11.401,22.211549 L21.776,11.836549 C21.971,11.641549 22.069,11.385549 22.069,11.129549"  id="Shape" fill="#292929"></path>
    </g>
</svg>