<?xml version="1.0" encoding="UTF-8"?>
<svg  viewBox="0 0 24 24" version="1.1" xmlns="http://www.w3.org/2000/svg" xmlns:xlink="http://www.w3.org/1999/xlink">
    <title>Icons/Basic icons/chevron-circle-left</title>
    <g  id="Icons/Basic-icons/chevron-circle-left" stroke="none" stroke-width="1" fill="none" fill-rule="evenodd">
        <path d="M12,0 C18.617,0 24,5.383 24,12 C24,18.617 18.617,24 12,24 C5.383,24 0,18.617 0,12 C0,5.383 5.383,0 12,0 Z M12,2 C6.486,2 2,6.486 2,12 C2,17.514 6.486,22 12,22 C17.514,22 22,17.514 22,12 C22,6.486 17.514,2 12,2 Z M12.293,7.293 C12.684,6.902 13.316,6.902 13.707,7.293 C14.098,7.683 14.098,8.317 13.707,8.707 L13.707,8.707 L10.414,12 L13.707,15.293 C14.098,15.683 14.098,16.317 13.707,16.707 C13.512,16.902 13.256,17 13,17 C12.744,17 12.488,16.902 12.293,16.707 L12.293,16.707 L8.293,12.707 C7.902,12.317 7.902,11.683 8.293,11.293 L8.293,11.293 L12.293,7.293 Z"  id="Shape" fill="#292929"></path>
    </g>
</svg>