<?xml version="1.0" encoding="UTF-8"?>
<svg  viewBox="0 0 24 24" version="1.1" xmlns="http://www.w3.org/2000/svg" xmlns:xlink="http://www.w3.org/1999/xlink">
    <title>Icons/Basic icons/swap-rounded</title>
    <g  id="Icons/Basic-icons/swap-rounded" stroke="none" stroke-width="1" fill="none" fill-rule="evenodd">
        <path d="M21.89564,12.5518 L23.89564,16.5518 C24.14264,17.0468 23.94164,17.6468 23.44764,17.8938 C23.30464,17.9658 23.15164,17.9998 23.00164,17.9998 C22.63464,17.9998 22.28164,17.7968 22.10564,17.4468 L21.2720754,15.7781113 C19.7874637,19.4998213 16.2158958,21.9996 12.00064,21.9996 C7.41963997,21.9996 3.32563997,19.0426 2.04363997,14.8086 C1.88363997,14.2806 2.18263997,13.7216 2.71063997,13.5616 C3.23663997,13.4016 3.79763997,13.7006 3.95763997,14.2296 C4.98563997,17.6266 8.29363997,19.9996 12.00064,19.9996 C15.4907131,19.9996 18.3486484,17.970031 19.4843778,14.8759962 L17.44764,15.8938 C16.95264,16.1418 16.35264,15.9398 16.10564,15.4468 C15.85864,14.9528 16.05964,14.3518 16.55364,14.1048 L20.55364,12.1048 C21.04864,11.8578 21.64864,12.0588 21.89564,12.5518 Z M12.00054,2 C16.58054,2 20.67454,4.956 21.95754,9.19 C22.11754,9.719 21.81854,10.277 21.29054,10.437 C20.76354,10.597 20.20354,10.299 20.04354,9.77 C19.01354,6.372 15.70654,4 12.00054,4 C8.50828636,4 5.64975594,6.02945646 4.51549089,9.12284629 L6.55363997,8.1048 C7.04863997,7.8578 7.64863997,8.0588 7.89563997,8.5518 C8.14263997,9.0468 7.94163997,9.6468 7.44763997,9.8938 L3.44763997,11.8938 C3.30463997,11.9658 3.15163997,11.9998 3.00163997,11.9998 C2.63463997,11.9998 2.28163997,11.7968 2.10563997,11.4468 L0.105639966,7.4468 C-0.141360034,6.9528 0.0596399661,6.3518 0.553639966,6.1048 C1.04963997,5.8578 1.64863997,6.0588 1.89563997,6.5518 L2.72814782,8.21946236 C4.21148684,4.4991033 7.78281856,2 12.00054,2 Z"  id="Combined-Shape" fill="#222222"></path>
    </g>
</svg>