<svg xmlns="http://www.w3.org/2000/svg" xmlns:xlink="http://www.w3.org/1999/xlink" viewBox="0 0 38 38"><defs><path id="a" d="M19 0c10.493 0 19 8.507 19 19s-8.507 19-19 19S0 29.493 0 19 8.507 0 19 0zm0 2C9.626 2 2 9.626 2 19c0 9.374 7.626 17 17 17 9.374 0 17-7.626 17-17 0-9.374-7.626-17-17-17zm.4159 9.5148l.0725.0035h.015c.058 0 .117-.009.173.001l.052.012c.01.003.02 0 .029.002.042.012.074.04.113.056.053.022.11.036.16.067.017.011.032.025.05.037.046.033.08.075.119.115.039.039.081.072.112.117.006.008.015.012.021.02l1.809 2.714 2.675.892c.523.175.807.741.632 1.265-.14.419-.529.684-.948.684-.105 0-.211-.016-.317-.052l-3-1c-.211-.07-.392-.209-.515-.394l-.773-1.158-.943 3.537 2.602 1.735c.256.17.419.448.443.755l.5 6.5c.042.551-.37 1.031-.92 1.074-.027.002-.053.003-.078.003-.518 0-.956-.399-.996-.924l-.463-6.014-1.632-1.088-1.943 7.284c-.119.447-.523.742-.964.742-.086 0-.172-.011-.259-.034-.533-.143-.851-.69-.708-1.224l3.562-13.361-1.772.443-.855 3.418c-.113.455-.52.758-.968.758-.081 0-.163-.01-.244-.03-.536-.134-.862-.677-.727-1.213l1-4c.089-.358.369-.638.727-.727l4-1c.01-.003.019 0 .028-.002.019-.004.039-.008.058-.011.048-.008.097.001.145.001zM20.5 7.5c1.103 0 2 .897 2 2s-.897 2-2 2-2-.897-2-2 .897-2 2-2z"/></defs><g fill="none" fill-rule="evenodd"><mask id="b" fill="#fff"><use xlink:href="#a"/></mask><use fill="#292929" xlink:href="#a"/><g fill="#5F686D" mask="url(#b)"><path d="M0 0h38v38H0z"/></g></g></svg>