<?xml version="1.0" encoding="UTF-8"?>
<svg width="24px" height="24px" viewBox="0 0 24 24" version="1.1" xmlns="http://www.w3.org/2000/svg" xmlns:xlink="http://www.w3.org/1999/xlink" fill-rule="evenodd" clip-rule="evenodd" stroke-linejoin="round" stroke-miterlimit="1.41"><path d="M13.38 17H1a1 1 0 0 1-1-1v-.46c0-2.7 1.82-5.1 4.35-6.15a5.13 5.13 0 1 1 5.68 0 6.83 6.83 0 0 1 4.35 6.15V16a1 1 0 0 1-1 1zM2.04 15h10.3c-.3-2.32-2.54-4.19-5.15-4.19-2.61 0-4.85 1.87-5.15 4.19zM7.19 2a3.14 3.14 0 0 0-3.13 3.13A3.14 3.14 0 0 0 7.2 8.25a3.14 3.14 0 0 0 3.12-3.13A3.14 3.14 0 0 0 7.2 2z"/><path d="M23 15h-6.88a1 1 0 0 1-1-1 1 1 0 0 1 1-1h5.83c-.33-1.95-2.23-3.5-4.45-3.5-1.04 0-2.03.33-2.85.95a1 1 0 1 1-1.21-1.59 6.6 6.6 0 0 1 1.48-.82 4.43 4.43 0 1 1 5.17-.01A6.18 6.18 0 0 1 24 13.59V14a1 1 0 0 1-1 1zM17.5 2a2.45 2.45 0 0 0-2.44 2.44c0 1.34 1.1 2.43 2.44 2.44 1.34 0 2.44-1.1 2.44-2.44C19.94 3.1 18.84 2 17.5 2z"/></svg>