<?xml version="1.0" encoding="UTF-8"?>
<svg  viewBox="0 0 24 24" version="1.1" xmlns="http://www.w3.org/2000/svg" xmlns:xlink="http://www.w3.org/1999/xlink">
    <title>Icons/Basic icons/control-play</title>
    <g  id="Icons/Basic-icons/control-play" stroke="none" stroke-width="1" fill="none" fill-rule="evenodd">
        <path d="M12,0 C18.617,0 24,5.383 24,12 C24,18.617 18.617,24 12,24 C5.383,24 0,18.617 0,12 C0,5.383 5.383,0 12,0 Z M12,2 C6.486,2 2,6.486 2,12 C2,17.514 6.486,22 12,22 C17.514,22 22,17.514 22,12 C22,6.486 17.514,2 12,2 Z M9.447,7.1052 L17.447,11.1052 C17.786,11.2752 18,11.6212 18,12.0001959 C18,12.3792 17.786,12.7252 17.447,12.8942 L9.447,16.8942 C9.306,16.9652 9.153,17.0001959 9,17.0001959 C8.817,17.0001959 8.635,16.9502 8.474,16.8502 C8.18,16.6682 8,16.3472 8,16.0001959 L8,8.00019589 C8,7.6532 8.18,7.3312 8.474,7.1492 C8.769,6.9672 9.137,6.9512 9.447,7.1052 Z M10,9.6182 L10,14.3822 L14.764,12.0002 L10,9.6182 Z"  id="Combined-Shape" fill="#292929"></path>
    </g>
</svg>