<svg xmlns="http://www.w3.org/2000/svg" viewBox="0 0 24 24"><path fill="#34B5E5" fill-rule="evenodd" d="M24 24V0h-9.5235012c-.0522941.1509058-.1523999.3974351-.3242234.78889373l-.8127996 1.80389716c-.613086 1.354666-1.5797796 3.425014-1.5643404 3.71835896.0194235.40739588.294341.07221565.294341.07221565.5329017-.76100355 2.8587437-5.25032684 3.4454336-5.15719355.4059018.06374899.6404782.33468219.5084978.73659964-.0119529.03884704-.1777999.37950569-.4636743.92137209l-1.0184896 1.92492063c-.7395879 1.41194048-1.5110503 2.94988483-1.5942228 3.47431986-.0283882.17929403-.0099608.5329017.229596.57025463.3989292.06424702 1.9074892-1.40745814 2.1146734-1.59820706.2893607-.26545477 1.4273797-1.36213659 1.8601756-1.55437963.2141568.03386665.4412625.23308224.4034116.47313702-.1030941.65392517-1.3681131 1.91545788-1.8551952 2.40851647-.6638859.66737222-2.1903754 2.313391-3.590861 3.8353981-.5916703.0881529-1.3108386.1543921-1.9398618.1842744.1608666-.4213409.4128743-.946274.5523252-1.1459876.0263961-.0363569.1384549-.1763058.2131607-.2689411.1294902-.1618626.2111685-.2644587.254996-.3267135.3436469-.4910665 1.3915209-2.48770471.25649-3.28108079-.1887567-.13347445-.3949449-.20419598-.5936624-.20419598-.2719293 0-.5194547.12998817-.6798232.35759198-.0976156.14044699-.19074893.28189006-.28089399.41885078-.20220382.30828612-.39394882.60013696-.62503891.8486584l-.28786652.29234888c-.2236195.22262342-.42881156.43428998-.66338791.76349373-.6095997.8451721-.89497603 1.1659092-1.14548964 1.4492934l-.02440391.0273922c-.26645084.3008155-.54236444.6110938-1.0837328 1.3626346l-1.5195169 2.1709519c-.16136463.2096744-.35111747.358588-.5916703.5468468-.03187449.0249019-.06374899.0498039-.09761564.0757019-.20369794.1245097-1.29988171.5682624-3.3034925 1.2983876 1.52848161-1.316317 3.85133537-3.6810061 3.93002553-4.1745627.19274108-1.2221876-1.17387786-4.71692708-1.63008155-6.07209112-.10110191-.30878416-.33468219-.80931333-.53887817-1.25256801L1.955301 4.65367615c.04631763-.28687045.25399988-.34215277.60760755-.28936064 1.5284816.24204694 1.78995206 2.17344207 2.33281454 3.31096308.17182345.36008218.38797236.66139575.72414866.71418789 1.28344643.20369794 2.25462243-2.36568512 3.08485339-4.72738592.42482725-1.21172882.82873685-2.42744195 1.22567391-3.32341406C9.98817157.2096744 10.0414617.1110627 10.0967441 0H0v17.8253128c1.79393638-.6454585 3.9628961-1.4557679 4.2134097-1.6559795.30131358-.2380627.57573305-.4352861.8127996-.7490507l1.52250514-2.1739401c.5393762-.7490506.79686235-1.0344269 1.06928967-1.342713.27790574-.3122705.5712507-.6474507 1.18383863-1.4961091.21664696-.3043018.40889-.49903506.60163108-.6912781l.29683123-.3003175c.38000375-.40739588.64695265-.88601133.96420345-1.33872876.1080745-.15439208.2853763-.11305485.4362821-.00697255.6519331.45570566-.0737097 1.97572061-.4029135 2.44686551-.0692274.0981136-.3984312.4960468-.4676586.5956546-.2211293.3157567-.88650935 1.6773952-.79935253 2.1077009.89945833.0049804 2.62068103-.1269999 3.50818653-.344643.626533-.154392 2.3278341-.6992467 3.9514412-1.1494739 1.3282699-.3680508 2.8587437-.7191683 3.1585631-.5901762.3102783.1334744.4840939.5543174.2594783.8770466-.2569881.3655606-5.6019423 2.2297205-6.4431301 2.5285439.000498.1753097-.1877607.7047251 1.4139326.4940547 1.8830854-.2485215 6.4710204-.8013448 7.015875-.4193489.3386665.2370666.4317998.6220507.1982195.9223682-.2206313.280894-1.5015875.3431489-2.0359833.4263214-1.7625599.2714312-5.3130798 1.0150034-5.8644089 1.1793563.2674469.2007097.625537.3790076 2.4309282.1364626.0592667-.0079686 1.0966818-.1289921 2.3716616-.2853763.9821329-.1210235 1.8736226-.230592 2.2526303 0 .3162547.192243.5408703.6230468.2520077.8441761-.4263214.3267135-2.8866339.6439644-5.0296956 1.0458818-1.2022661.2256117-2.223744.2435411-2.6899085.3287057-.0104588.1718235-.0124509.2793999.2056901.4437527.574737.4019175 1.5085601.4034116 2.5509556.6120899.5583017.1115608 2.2342029.306792 2.6739713.6315135.3849841.2833841.1827803.6076075.1080744.7126937-.3775135.5398743-5.5840129-.3924547-6.4441262-.5538193-1.5538816-.2893607-3.2427318.3316939-4.80557805.4387723C6.39830667 21.6422835 2.76660649 22.7852829 0 23.7773766V24h24zM10.978273 4.21789205C11.2770964 3.22828861 12.2522567 1.43983067 13.0301936 0h-1.7087717s-.6892859 2.17692834-.7709643 2.52107327c-.0343647.14841562-.1449294.48259977-.2121646.83023097-.0224118.11703916-.55083113 1.69831289-.55083113 1.69831289-.13198033.40291353-.12600386.68430555.36157633.97665443.3655606-.32023906.5787212-1.07028575.8292348-1.80837951z"/></svg>