<?xml version="1.0" encoding="UTF-8"?>
<svg width="24px" height="24px" viewBox="0 0 24 24" version="1.1" xmlns="http://www.w3.org/2000/svg" xmlns:xlink="http://www.w3.org/1999/xlink">
    <path fill-rule="evenodd" d="M12,18 L10,18 C9.626,18 9.283,18.208 9.111,18.541 C8.496,19.734 7.16,20.35 6.004,20.667 C6.512,19.656 6.984,18.358 6.984,17.031 C6.984,16.622 6.735,16.254 6.355,16.103 C4.191,15.239 2,13.024 2,10.461 C2,6.347 6.486,3 12,3 C17.514,3 22,6.347 22,10.461 C22,14.618 17.514,18 12,18 M12,1 C18.617,1 24,5.244 24,10.461 C24,15.721 18.617,20 12,20 L10.564,20 C8.608,22.845 4.223,22.995 4.026,23 C4.018,23 4.009,23 4,23 C3.622,23 3.275,22.786 3.106,22.446 C2.932,22.098 2.977,21.681 3.218,21.376 C3.234,21.356 4.655,19.548 4.937,17.656 C2.446,16.409 0,13.774 0,10.461 C0,5.244 5.383,1 12,1 Z M11.29,14.29 C11.11,14.48 11,14.74 11,15 C11,15.26 11.11,15.52 11.29,15.71 C11.48,15.89 11.74,16 12,16 C12.26,16 12.52,15.89 12.71,15.71 C12.89,15.52 13,15.26 13,15 C13,14.74 12.89,14.48 12.71,14.29 C12.34,13.92 11.67,13.92 11.29,14.29 Z M12,6 C10.346,6 9,7.346 9,9 C9,9.552 9.448,10 10,10 C10.552,10 11,9.552 11,9 C11,8.449 11.449,8 12,8 C12.551,8 13,8.449 13,9 C13,9.551 12.551,10 12,10 C11.448,10 11,10.448 11,11 L11,12 C11,12.201 11.074,12.377 11.176,12.534 C11.214,12.594 11.242,12.659 11.29,12.71 C11.341,12.759 11.408,12.787 11.468,12.825 C11.625,12.926 11.8,13 12,13 C12.201,13 12.377,12.926 12.534,12.824 C12.594,12.786 12.659,12.758 12.71,12.71 C12.757,12.66 12.785,12.596 12.821,12.538 C12.925,12.38 13,12.203 13,12 L13,11.815 C14.162,11.401 15,10.302 15,9 C15,7.346 13.654,6 12,6 Z"></path>
</svg>