<?xml version="1.0" encoding="UTF-8"?>
<svg  viewBox="0 0 24 24" version="1.1" xmlns="http://www.w3.org/2000/svg" xmlns:xlink="http://www.w3.org/1999/xlink">
    <title>Icons/Basic icons/check-selected</title>
    <g  id="Icons/Basic-icons/check-selected" stroke="none" stroke-width="1" fill="none" fill-rule="evenodd">
        <path d="M14,2 C14.5522847,2 15,2.44771525 15,3 C15,3.51283584 14.6139598,3.93550716 14.1166211,3.99327227 L14,4 L2,4 L2,22 L20,22 L20,10 C20,9.48716416 20.3860402,9.06449284 20.8833789,9.00672773 L21,9 C21.5128358,9 21.9355072,9.38604019 21.9932723,9.88337887 L22,10 L22,23 C22,23.5128358 21.6139598,23.9355072 21.1166211,23.9932723 L21,24 L1,24 C0.487164161,24 0.0644928393,23.6139598 0.00672773133,23.1166211 L0,23 L0,3 C0,2.48716416 0.38604019,2.06449284 0.883378875,2.00672773 L1,2 L14,2 Z M23.6507914,0.240743398 C24.0378614,0.572517691 24.1090139,1.1359512 23.8349748,1.55048125 L23.7592566,1.65079137 L11.7592566,15.6507914 C11.4072421,16.0614749 10.7997604,16.113174 10.3849856,15.7886767 L10.2928932,15.7071068 L5.29289322,10.7071068 C4.90236893,10.3165825 4.90236893,9.68341751 5.29289322,9.29289322 C5.65337718,8.93240926 6.22060824,8.90467972 6.61289944,9.20970461 L6.70710678,9.29289322 L10.943,13.528 L22.2407434,0.349208627 C22.6001655,-0.0701172162 23.2314655,-0.118678753 23.6507914,0.240743398 Z"  id="Combined-shape" fill="#292929"></path>
    </g>
</svg>