<?xml version="1.0" encoding="UTF-8"?>
<svg  viewBox="0 0 38 38" version="1.1" xmlns="http://www.w3.org/2000/svg" xmlns:xlink="http://www.w3.org/1999/xlink">
    <title>Icons/Basic icons/transport-bus</title>
    <g  id="Icons/Basic-icons/transport-bus" stroke="none" stroke-width="1" fill="none" fill-rule="evenodd">
        <path d="M19,0 C29.493,0 38,8.507 38,19 C38,29.493 29.493,38 19,38 C8.507,38 0,29.493 0,19 C0,8.507 8.507,0 19,0 Z M19,2 C9.626,2 2,9.626 2,19 C2,28.374 9.626,36 19,36 C28.374,36 36,28.374 36,19 C36,9.626 28.374,2 19,2 Z M27.4611,7 C28.8051,7 29.9085624,8.0257408 29.994689,9.31811891 L30.0001,9.481 L30.0001,28 C30.0001,28.5125714 29.6146765,28.9354694 29.1168533,28.9932682 L29.0001,29 L29.0001,30 C29.0001,30.5125714 28.6146765,30.9354694 28.1168533,30.9932682 L28.0001,31 L24.0001,31 C23.4866,31 23.064498,30.6137143 23.0068176,30.1165685 L23.0001,30 L23.0001,29 L15.0001,29 L15.0001,30 C15.0001,30.5125714 14.6146765,30.9354694 14.1168533,30.9932682 L14.0001,31 L10.0001,31 C9.4866,31 9.06449796,30.6137143 9.00681757,30.1165685 L9.0001,30 L9.0001,29 C8.4866,29 8.06449796,28.6137143 8.00681757,28.1165685 L8.0001,28 L8.0001,9.481 C8.0001,8.16772 9.0498024,7.089448 10.372409,7.00528749 L10.5391,7 L27.4611,7 Z M28.0001,22 L10.0001,22 L10.0001,27 L28.0001,27 L28.0001,22 Z M13.501,23 C14.327,23 15,23.673 15,24.5 C15,25.327 14.327,26 13.501,26 C12.674,26 12,25.327 12,24.5 C12,23.673 12.674,23 13.501,23 Z M24.501,23 C25.327,23 26,23.673 26,24.5 C26,25.327 25.327,26 24.501,26 C23.674,26 23,25.327 23,24.5 C23,23.673 23.674,23 24.501,23 Z M28.0001,15 L10.0001,15 L10.0001,20 L28.0001,20 L28.0001,15 Z M27.4611,9 L10.5391,9 C10.2795444,9 10.0555444,9.17461728 10.0089711,9.39602743 L10.0001,9.481 L10.0001,13 L28.0001,13 L28.0001,9.481 C28.0001,9.221 27.7531,9 27.4611,9 Z M23,10 C23.553,10 24,10.448 24,11 C24,11.552 23.553,12 23,12 L23,12 L15,12 C14.447,12 14,11.552 14,11 C14,10.448 14.447,10 15,10 L15,10 Z"  id="Combined-Shape" fill="#292929"></path>
    </g>
</svg>