<svg xmlns="http://www.w3.org/2000/svg" xmlns:xlink="http://www.w3.org/1999/xlink" viewBox="0 0 24 24"><defs><path id="a" d="M7.18308407 20.1658544l1.66491661-1.7576096v2.8042662c0 .4851002-.37210886.8788048-.83245831.8788048H5.35916792l1.66491661-1.7576096h.15899954v-.1678518zm8.32458303-5.983782v7.0304386c0 .4851002-.3721088.8788048-.8324583.8788048h-4.1622915c-.4603494 0-.83245831-.3937046-.83245831-.8788048V17.52944l1.66491661-1.7576097v4.5618759h2.4973749v-5.272829h-1.8239161l1.6640841-1.7576096h.9922903c.4603495 0 .8324583.3945833.8324583.8788048zm2.4973749 6.1815131h2.497375v-1.7866102h-2.497375v1.7866102zm3.3298333-3.5450986h-4.1622916c-.4603494 0-.8324583.3945833-.8324583.8788048v3.5450986c0 .4842215.3721089.8788049.8324583.8788049h4.1622916c.4603494 0 .8324583-.3945834.8324583-.8788049v-3.5450986c0-.4842215-.3721089-.8788048-.8324583-.8788048zm1.4210063-2.0150995c-.1623294.1722457-.3754387.2574898-.588548.2574898-.2131093 0-.4262187-.0852441-.588548-.2574898l-3.6911202-3.8957418c-.7075895.4068866-1.5192364.6380123-2.3799983.6380123-.0516124 0-.1015599-.0061516-.1523398-.0070304l5.1387651-5.42574103c.0016649.05272829.0083246.10633539.0083246.15994248 0 1.36126868-.4961452 2.59950468-1.3002999 3.53631062l3.5537645 3.75161783c.3254912.3436127.3254912.8998961 0 1.24263zM4.68570915 9.78804825h2.49737492v5.44155945l-2.49737492 2.6364145V9.78804825zm7.49212475-3.5152193c0-1.93864344 1.4934302-3.5152193 3.3298332-3.5152193.958992 0 1.8189214.43588719 2.4249511 1.12399137l-4.6909026 4.95118639c-.6518148-.63976991-1.0638817-1.54669649-1.0638817-2.55995846zm9.2685908-4.85803307c-.3254912-.34361269-.8524373-.34361269-1.1770961 0l-1.1637767 1.22856914C18.1965075 1.6371335 16.9253436 1 15.5076671 1c-2.7546045 0-4.9947498 2.36574259-4.9947498 5.27282895 0 1.49748343.6035323 2.83941839 1.5558646 3.79907325l-3.22078122 3.4000959V8.90924343c0-.48422146-.37210886-.87880483-.83245831-.87880483H3.85325084c-.46034944 0-.8324583.39458337-.8324583.87880483V19.6236319l-1.77729849 1.8762483c-.32465873.3427338-.32465873.8990173 0 1.24263.16316183.1713669.3754387.2574898.58854803.2574898.21310932 0 .42621865-.0861229.58854802-.2574898L21.4464247 2.6574259c.3246587-.34273388.3246587-.89901734 0-1.24263002z"/></defs><use fill="#5F686D" fill-rule="evenodd" xlink:href="#a"/></svg>