<?xml version="1.0" encoding="UTF-8"?>
<svg width="24px" height="24px" viewBox="0 0 24 24" version="1.1" xmlns="http://www.w3.org/2000/svg" xmlns:xlink="http://www.w3.org/1999/xlink">
    <path fill-rule="evenodd" d="M10,3 C9.448,3 9,3.447 9,4 L9,6 C9,6.553 9.448,7 10,7 C10.552,7 11,6.553 11,6 L11,4 C11,3.447 10.552,3 10,3 M22,22 L20,22 L20,15 C20,14.447 19.552,14 19,14 L5,14 C4.448,14 4,14.447 4,15 L4,22 L2,22 L2,5.814 L5.814,2 L6,2 L6,9 C6,9.553 6.448,10 7,10 L17,10 C17.552,10 18,9.553 18,9 L18,2 L22,2 L22,22 Z M6,22 L18,22 L18,16 L6,16 L6,22 Z M8,8 L16,8 L16,2 L8,2 L8,8 Z M23,0 L5.4,0 C5.135,0 4.881,0.105 4.693,0.293 L0.293,4.693 C0.105,4.881 0,5.135 0,5.4 L0,23 C0,23.553 0.448,24 1,24 L23,24 C23.552,24 24,23.553 24,23 L24,1 C24,0.447 23.552,0 23,0 Z"></path>
</svg>