<?xml version="1.0" encoding="UTF-8"?>
<svg width="24px" height="24px" viewBox="0 0 24 24" version="1.1" xmlns="http://www.w3.org/2000/svg" xmlns:xlink="http://www.w3.org/1999/xlink">
    <title>merge</title>
    <g id="merge" stroke="none" stroke-width="1" fill="none" fill-rule="evenodd">
        <path d="M20.43925,22.293 L20.41625,22.27 C20.41625,22.27 20.41625,22.27 20.41625,22.269 L20.40425,22.258 C20.40425,22.258 20.40425,22.258 20.40425,22.257 L17.46825,19.321 L15.98825,17.841 C13.97525,15.829 12.86725,13.153 12.86725,10.306 L12.86725,3.414 L14.69625,5.243 C14.89125,5.438 15.14725,5.535 15.40325,5.535 C15.65925,5.535 15.91525,5.438 16.11025,5.242 C16.50125,4.852 16.50125,4.219 16.11025,3.828 L12.57425,0.293 C12.57425,0.293 12.57425,0.293 12.57425,0.293 L12.57425,0.293 C12.57325,0.292 12.57325,0.292 12.57225,0.292 C12.48025,0.2 12.37025,0.127 12.24925,0.077 C12.12925,0.028 12.00225,0.003 11.87525,0.002 C11.87225,0.002 11.87025,0 11.86725,0 C11.86425,0 11.86125,0.002 11.85825,0.002 C11.73125,0.003 11.60425,0.028 11.48525,0.077 C11.36225,0.128 11.25125,0.201 11.15925,0.294 L7.62525,3.828 C7.23425,4.219 7.23425,4.852 7.62525,5.242 C8.01525,5.633 8.64825,5.633 9.03925,5.242 L10.86725,3.414 L10.86725,10.296 C10.86725,10.299 10.86525,10.302 10.86525,10.306 C10.86525,13.153 9.75625,15.829 7.74425,17.842 L3.29325,22.293 C2.90225,22.683 2.90225,23.317 3.29325,23.707 C3.48825,23.902 3.74425,24 4.00025,24 C4.25525,24 4.51125,23.902 4.70725,23.707 L9.15825,19.256 C10.32925,18.085 11.23925,16.722 11.86625,15.241 C12.49325,16.722 13.40225,18.085 14.57425,19.256 L18.96125,23.644 C18.96225,23.644 18.96225,23.644 18.96225,23.644 L19.02525,23.707 C19.22025,23.902 19.47625,24 19.73225,24 C19.98825,24 20.24425,23.902 20.43925,23.707 C20.83025,23.317 20.83025,22.683 20.43925,22.293" id="Fill-1" fill="#222222"></path>
    </g>
</svg>