<?xml version="1.0" encoding="UTF-8"?>
<svg width="24px" height="24px" viewBox="0 0 24 24" version="1.1" xmlns="http://www.w3.org/2000/svg" xmlns:xlink="http://www.w3.org/1999/xlink" style="fill-rule:evenodd;clip-rule:evenodd;stroke-linejoin:round;stroke-miterlimit:1.41421;">
    <path d="M12,24c-0.232,0 -0.464,-0.081 -0.651,-0.241c-0.341,-0.293 -8.349,-7.255 -8.349,-14.716c0,-4.986 4.037,-9.043 9,-9.043c4.963,0 9,4.057 9,9.043c0,7.461 -8.008,14.423 -8.349,14.716c-0.187,0.16 -0.419,0.241 -0.651,0.241Zm0,-10.926c-2.206,0 -4,-1.794 -4,-4c0,-2.206 1.794,-4 4,-4c2.206,0 4,1.794 4,4c0,2.206 -1.794,4 -4,4Z"/>
</svg>