<?xml version="1.0" encoding="UTF-8"?>
<svg width="24px" height="24px" viewBox="0 0 24 24" version="1.1" xmlns="http://www.w3.org/2000/svg" xmlns:xlink="http://www.w3.org/1999/xlink">
    <path fill-rule="evenodd" d="M18,10 C18,10.553 18.448,11 19,11 L20,11 C20.552,11 21,10.553 21,10 C21,9.447 20.552,9 20,9 L19,9 C18.448,9 18,9.447 18,10 M22,18 L20,18 L20,14 C20,13.447 19.552,13 19,13 L5,13 C4.448,13 4,13.447 4,14 L4,18 L2,18 L2,8 L5,8 L19,8 L22,8 L22,18 Z M6,22 L18,22 L18,15 L6,15 L6,22 Z M6,6 L18,6 L18,2 L6,2 L6,6 Z M22,6 L20,6 L20,1 C20,0.447 19.552,0 19,0 L5,0 C4.448,0 4,0.447 4,1 L4,6 L2,6 C0.897,6 0,6.897 0,8 L0,18 C0,19.103 0.897,20 2,20 L4,20 L4,23 C4,23.553 4.448,24 5,24 L19,24 C19.552,24 20,23.553 20,23 L20,20 L22,20 C23.103,20 24,19.103 24,18 L24,8 C24,6.897 23.103,6 22,6 Z"></path>
</svg>