<?xml version="1.0" encoding="UTF-8"?>
<svg  viewBox="0 0 24 24" version="1.1" xmlns="http://www.w3.org/2000/svg" xmlns:xlink="http://www.w3.org/1999/xlink">
    <title>Icons/Basic icons/chat</title>
    <g  id="Icons/Basic-icons/chat" stroke="none" stroke-width="1" fill="none" fill-rule="evenodd">
        <path d="M12,1 C18.617,1 24,5.244 24,10.461 C24,15.721 18.617,20 12,20 L12,20 L10.564,20 C8.608,22.845 4.223,22.995 4.026,23 L4.026,23 L4,23 C3.622,23 3.275,22.786 3.106,22.446 C2.932,22.098 2.977,21.681 3.218,21.376 C3.234,21.356 4.655,19.548 4.937,17.656 C2.446,16.409 0,13.774 0,10.461 C0,5.244 5.383,1 12,1 Z M12,3 C6.486,3 2,6.347 2,10.461 C2,13.024 4.191,15.239 6.355,16.103 C6.735,16.254 6.984,16.622 6.984,17.031 C6.984,18.358 6.512,19.656 6.004,20.667 C7.16,20.35 8.496,19.734 9.111,18.541 C9.283,18.208 9.626,18 10,18 L10,18 L12,18 C17.514,18 22,14.618 22,10.461 C22,6.347 17.514,3 12,3 Z"  id="Combined-Shape" fill="#292929"></path>
    </g>
</svg>