<?xml version="1.0" encoding="UTF-8"?>
<svg  viewBox="0 0 24 24" version="1.1" xmlns="http://www.w3.org/2000/svg" xmlns:xlink="http://www.w3.org/1999/xlink">
    <title>Icons/Basic icons/registers</title>
    <g  id="Icons/Basic-icons/registers" stroke="none" stroke-width="1" fill="none" fill-rule="evenodd">
        <path d="M23.345,0.3996 C23.7194,0.7065 23.95043,1.15758 23.992892,1.655154 L24,1.8226 L24,19.6216 C24,20.5879158 23.2972521,21.4958936 22.3730089,21.760548 L22.217,21.7986 L12.232,23.7956 C12.187,23.8066 12.141,23.8136 12.094,23.8176 C12.062,23.8206 12.031,23.8226 11.999,23.8226 C11.981,23.8226 11.964,23.8216 11.947,23.8206 L11.8755,23.8146 L11.8755,23.8146 L11.804,23.8026 L11.768,23.7956 L1.784,21.7986 C0.835684211,21.6072316 0.0830249307,20.7400404 0.00642455168,19.7820122 L0,19.6216 L0,1.8226 C0,1.2596 0.239,0.7406 0.655,0.3996 C1.02388889,0.0964888889 1.50260494,-0.0406962963 1.99352401,0.0105190672 L2.178,0.0386 L11.766,1.9556 C11.841,1.9376 11.919,1.9276 12,1.9276 L12.11925,1.93485 L12.11925,1.93485 L12.234,1.9556 L21.824,0.0386 C22.374,-0.0714 22.929,0.0586 23.345,0.3996 Z M22,2.0426 L13,3.8416 L13,21.6026 L21.823,19.8376 C21.8806,19.8256 21.95932,19.74192 21.988504,19.67104 L22,19.6216 L22,2.0426 Z M2,2.0426 L2,19.6216 C2,19.6808 2.0672,19.77392 2.131456,19.81648 L2.178,19.8376 L11,21.6026 L11,3.8416 L2,2.0426 Z M3.0202,15.6262 C3.1272,15.0842 3.6522,14.7282 4.1962,14.8422 L4.1962,14.8422 L9.1962,15.8422 C9.7382,15.9502 10.0892,16.4772 9.9802,17.0192 C9.8862,17.4942 9.4682,17.8232 9.0012,17.8232 C8.9362,17.8232 8.8702,17.8172 8.8042,17.8022 L8.8042,17.8022 L3.8042,16.8022 C3.2622,16.6952 2.9112,16.1682 3.0202,15.6262 Z M19.804,14.8427 C20.349,14.7287 20.873,15.0847 20.98,15.6267 C21.089,16.1687 20.738,16.6947 20.196,16.8017 L20.196,16.8017 L15.196,17.8017 C15.13,17.8167 15.064,17.8227 14.999,17.8227 C14.532,17.8227 14.114,17.4947 14.02,17.0187 C13.911,16.4767 14.262,15.9507 14.804,15.8427 L14.804,15.8427 Z M3.0202,10.6262 C3.1272,10.0842 3.6522,9.7302 4.1962,9.8432 L4.1962,9.8432 L9.1962,10.8432 C9.7382,10.9502 10.0892,11.4772 9.9802,12.0192 C9.8862,12.4942 9.4682,12.8232 9.0012,12.8232 C8.9362,12.8232 8.8702,12.8172 8.8042,12.8022 L8.8042,12.8022 L3.8042,11.8022 C3.2622,11.6952 2.9112,11.1682 3.0202,10.6262 Z M19.804,9.8427 C20.349,9.7307 20.873,10.0847 20.98,10.6267 C21.089,11.1687 20.738,11.6947 20.196,11.8017 L20.196,11.8017 L15.196,12.8017 C15.13,12.8167 15.064,12.8227 14.999,12.8227 C14.532,12.8227 14.114,12.4947 14.02,12.0187 C13.911,11.4767 14.262,10.9507 14.804,10.8427 L14.804,10.8427 Z M3.0202,5.6267 C3.1272,5.0847 3.6522,4.7287 4.1962,4.8427 L4.1962,4.8427 L9.1962,5.8427 C9.7382,5.9507 10.0892,6.4767 9.9802,7.0187 C9.8862,7.4947 9.4682,7.8227 9.0012,7.8227 C8.9362,7.8227 8.8702,7.8167 8.8042,7.8027 L8.8042,7.8027 L3.8042,6.8027 C3.2622,6.6947 2.9112,6.1687 3.0202,5.6267 Z M19.804,4.8427 C20.349,4.7287 20.873,5.0847 20.98,5.6267 C21.089,6.1687 20.738,6.6947 20.196,6.8027 L20.196,6.8027 L15.196,7.8027 C15.13,7.8167 15.064,7.8227 14.999,7.8227 C14.532,7.8227 14.114,7.4947 14.02,7.0187 C13.911,6.4767 14.262,5.9507 14.804,5.8427 L14.804,5.8427 Z"  id="Combined-Shape" fill="#222222"></path>
    </g>
</svg>