<svg xmlns="http://www.w3.org/2000/svg" viewBox="0 0 24 24"><path fill="#5F686D" fill-rule="evenodd" d="M12.7072078.29499905l7 7.002c.1916862.19174099.2837029.42488593.2938495.65647189L20 8.00400482v3.99799998c0 .5522848-.4477153 1-1 1s-1-.4477152-1-1V9.004l-6 .00000482c-.55228475 0-1-.44771525-1-1V2.002l-7 .00000482V22.0020048h7c.55228475 0 1 .4477153 1 1 0 .5522848-.44771525 1-1 1H4c-1.1014753 0-2-.8979054-2-2V2.00200482c0-1.10209455.8985247-2 2-2l7.94161972.00015688c.26627848-.01753713.54368948.0708754.76558808.29283735zM17.001 15.0020048c2.206904 0 3.999 1.793334 3.999 4 0 .7413131-.2017643 1.4355908-.553325 2.0309029l1.2605318 1.2620903c.3905243.3905243.3905243 1.0236893 0 1.4142136-.3905243.3905243-1.0236893.3905243-1.4142136 0l-1.2617971-1.2605696c-.5951639.3515985-1.2892186.5533628-2.0301961.5533628-2.2093725 0-4.001-1.7908028-4.001-4 0-2.2070786 1.7925089-4 4.001-4zm0 2c-1.1038186 0-2.001.8973879-2.001 2 0 1.1044215.8959909 2 2.001 2 .5466913 0 1.0424453-.219972 1.4034978-.5762738l.0094954-.009733a1.0224944 1.0224944 0 01.0095339-.0094096C18.7800279 20.0451957 19 19.5491917 19 19.0020048c0-1.1024056-.8969748-2-1.999-2zM13 3.41670614v3.58729868h3.586274L13 3.41670614z"/></svg>