<?xml version="1.0" encoding="UTF-8"?>
<svg width="24px" height="24px" viewBox="0 0 24 24" version="1.1" xmlns="http://www.w3.org/2000/svg" xmlns:xlink="http://www.w3.org/1999/xlink">
    <title>Icons/Basic Icons/Export_v12</title>
    <g id="Icons/Basic-Icons/Export" stroke="none" stroke-width="1" fill="none" fill-rule="evenodd">
        <path d="M23,15.0098 C23.553,15.0098 24,15.4568 24,16.0098 L24,22.0098 C24,23.1128 23.103,24.0098 22,24.0098 L2,24.0098 C0.897,24.0098 0,23.1128 0,22.0098 L0,16.0098 C0,15.4568 0.447,15.0098 1,15.0098 C1.553,15.0098 2,15.4568 2,16.0098 L2,22.0098 L22,22.0098 L22,16.0098 C22,15.4568 22.447,15.0098 23,15.0098 Z M12,0 C12.3173315,0 12.5997584,0.147191768 12.7828463,0.377140817 L17.706,5.29175 C18.098,5.68275 18.098,6.31575 17.708,6.70575 C17.317,7.09875 16.685,7.09675 16.294,6.70775 L16.294,6.70775 L13,3.42 L13,17 C13,17.553 12.553,18 12,18 C11.447,18 11,17.553 11,17 L11,3.42 L7.706,6.70775 C7.34507692,7.06682692 6.77880473,7.09615237 6.38628949,6.78943411 L6.292,6.70575 C5.902,6.31575 5.902,5.68275 6.294,5.29175 L6.294,5.29175 L11.2148544,0.380039646 C11.3978722,0.148429535 11.6813371,0 12,0 Z" id="Combined-Shape" fill="#292929"></path>
    </g>
</svg>