<svg xmlns="http://www.w3.org/2000/svg" xmlns:xlink="http://www.w3.org/1999/xlink" viewBox="0 0 24 24"><defs><path id="a" d="M23 15.0098c.553 0 1 .447 1 1v6c0 1.103-.897 2-2 2H2c-1.103 0-2-.897-2-2v-6c0-.553.447-1 1-1 .553 0 1 .447 1 1v6h20v-6c0-.553.447-1 1-1zM11.994 18c-.0777546 0-.1590778-.0102536-.2367847-.029576-.0138157-.0036741-.0275391-.0074085-.0411918-.0114394-.0265939-.0075936-.0525388-.0164413-.0779773-.0262984-.0107053-.0044117-.0217541-.0089172-.032734-.0136275-.0304648-.0128145-.0598337-.0271941-.0883488-.0429252-.006528-.003877-.0131977-.0076582-.0198315-.0115218-.030376-.0174-.0595602-.0365131-.0876295-.0570559-.0061147-.0048643-.0130201-.0100598-.0198709-.0153559-.0346917-.0263628-.0668123-.0546307-.0970065-.0848249L6.294 12.718c-.392-.391-.392-1.024-.002-1.414.391-.393 1.023-.391 1.414-.002L11 14.59V1c0-.553.447-1 1-1 .553 0 1 .447 1 1v13.588l3.294-3.286c.391-.389 1.023-.391 1.414.002.39.39.39 1.023-.002 1.414l-4.9901681 4.9808161c-.0326325.0334242-.0675924.0645655-.1046202.0931644L12.706 17.708c-.0367027.0367027-.0756245.0699693-.1163457.0997863-.027226.0203123-.0564102.0394254-.0866028.0570023-.0068172.0036867-.0134869.0074679-.0201909.0111668-.0283391.0159092-.057708.0302888-.0878447.0432309-.011308.0045827-.0223568.0090882-.0334684.0133886-.0250322.0099684-.0509771.0188161-.0773795.0266054-.0135171.0037386-.0269099.0073905-.0403604.0107598C12.165788 17.9896567 12.0841204 18 12 18h-.006z"/></defs><use fill="#5F686D" fill-rule="evenodd" xlink:href="#a"/></svg>