<?xml version="1.0" encoding="UTF-8"?>
<svg  viewBox="0 0 24 24" version="1.1" xmlns="http://www.w3.org/2000/svg" xmlns:xlink="http://www.w3.org/1999/xlink">
    <title>Icons/Basic icons/help</title>
    <g  id="Icons/Basic-icons/help" stroke="none" stroke-width="1" fill="none" fill-rule="evenodd">
        <path d="M12,0 C18.617,0 24,5.383 24,12 C24,18.617 18.617,24 12,24 C5.383,24 0,18.617 0,12 C0,5.383 5.383,0 12,0 Z M12,2 C6.486,2 2,6.486 2,12 C2,17.514 6.486,22 12,22 C17.514,22 22,17.514 22,12 C22,6.486 17.514,2 12,2 Z M12.1652,16.9862 C12.7092,17.0802 13.0792,17.5692 12.9852,18.1132 L12.9752,18.1702 C12.8912,18.6562 12.4692,19.0002 11.9912,19.0002 C11.9352,19.0002 11.8782,18.9952 11.8202,18.9852 C11.2762,18.8912 10.9112,18.3742 11.0052,17.8302 C11.0992,17.2862 11.6172,16.8912 12.1652,16.9862 Z M12.0001,4.9438 C14.2051,4.9438 16.0001,6.7858 16.0001,9.0508 C16.0001,10.4258 15.5031,11.4418 14.3891,12.3438 C13.1064077,13.3823385 13.0014447,14.5179124 12.9963765,14.8042151 L12.9966117,14.8590154 C12.9967923,14.8647305 12.9969846,14.8686846 12.9971,14.8708 C13.0281,15.4148 12.6161,15.8928 12.0721,15.9318 C12.0461,15.9338 12.0211,15.9348 11.9971,15.9348 C11.4841,15.9348 11.0501,15.5508 11.0041,15.0318 C11.0031588,15.0205059 10.9999062,14.9790249 10.9986589,14.9115712 L10.9988315,14.7914379 C11.0116917,14.1448277 11.2285706,12.3288 13.1301,10.7888 C13.7721,10.2698 14.0001,9.8148 14.0001,9.0508 C14.0001,7.8888 13.1031,6.9438 12.0001,6.9438 C10.8601,6.9438 10.0001,7.8028 10.0001,8.9438 C10.0001,9.4958 9.5521,9.9438 9.0001,9.9438 C8.4481,9.9438 8.0001,9.4958 8.0001,8.9438 C8.0001,6.7008 9.7571,4.9438 12.0001,4.9438 Z"  id="Combined-Shape" fill="#292929"></path>
    </g>
</svg>