<?xml version="1.0" encoding="UTF-8"?>
<svg  viewBox="0 0 24 24" version="1.1" xmlns="http://www.w3.org/2000/svg" xmlns:xlink="http://www.w3.org/1999/xlink">
    <title>Icons/Basic icons/remove</title>
    <g  id="Icons/Basic-icons/remove" stroke="none" stroke-width="1" fill="none" fill-rule="evenodd">
        <path d="M13,0 C14.654,0 16,1.346 16,3 L16,4 L21,4 C21.552,4 22,4.448 22,5 C22,5.552 21.552,6 21,6 L19.909,6 L18.105,22.117 C17.987,23.173 17.062,24 16,24 L8,24 C6.937,24 6.013,23.172 5.896,22.115 L4.119,6 L3,6 C2.448,6 2,5.552 2,5 C2,4.448 2.448,4 3,4 L5.005,4 L5.0224785,3.99945736 C5.02787684,3.99947143 5.03326712,3.99952968 5.03864896,3.9996318 L8,4 L8,3 C8,1.346 9.346,0 11,0 L13,0 Z M17.898,6 L6.132,6 L7.885,21.896 C7.889,21.936 7.96,22 8,22 L16,22 C16.041,22 16.113,21.935 16.118,21.895 L17.898,6 Z M13,2 L11,2 C10.449,2 10,2.448 10,3 L10,4 L14,4 L14,3 C14,2.448 13.551,2 13,2 Z"  id="Combined-Shape" fill="#222222"></path>
    </g>
</svg>