<?xml version="1.0" encoding="UTF-8"?>
<svg width="24px" height="24px" viewBox="0 0 24 24" version="1.1" xmlns="http://www.w3.org/2000/svg" xmlns:xlink="http://www.w3.org/1999/xlink">
    <!-- Generator: Sketch 63.1 (92452) - https://sketch.com -->
    <title>Icons/Basic Icons/Control Next_v12</title>
    <desc>Created with Sketch.</desc>
    <defs>
        <path d="M3.0005,2.3979 L19.0575,12.3399 L3.0005,21.6599 L3.0005,2.3979 Z M2.4925,24.0069 C2.7905,24.0069 3.0875,23.9219 3.3755,23.7549 L20.6325,13.7379 C20.7715,13.6579 20.8935,13.5649 21.0005,13.4619 L21.0005,22.9999 C21.0005,23.5519 21.4475,23.9999 22.0005,23.9999 C22.5525,23.9999 23.0005,23.5519 23.0005,22.9999 L23.0005,0.9999 C23.0005,0.4469 22.5525,-9.9999989e-05 22.0005,-9.9999989e-05 C21.4475,-9.9999989e-05 21.0005,0.4469 21.0005,0.9999 L21.0005,11.2459 C20.9015,11.1509 20.7925,11.0629 20.6685,10.9849 L3.3865,0.2839 C3.0885,0.0999 2.7795,0.00590000001 2.4695,0.00590000001 C1.7385,0.00590000001 1.0005,0.5669 1.0005,1.6379 L1.0005,22.3609 C1.0005,23.3149 1.6275,24.0069 2.4925,24.0069 L2.4925,24.0069 Z" id="path-1"></path>
    </defs>
    <g id="Icons/Basic-Icons/Control-Next" stroke="none" stroke-width="1" fill="none" fill-rule="evenodd">
        <mask id="mask-2" fill="white">
            <use xlink:href="#path-1"></use>
        </mask>
        <use id="Mask" fill="#292929" xlink:href="#path-1"></use>
        <g id="*-UI/*-Colors/Depth/depthDark1" mask="url(#mask-2)" fill="#5F686D">
            <rect id="Base" x="0" y="0" width="24" height="24"></rect>
        </g>
    </g>
</svg>