<?xml version="1.0" encoding="UTF-8"?>
<svg  viewBox="0 0 24 24" version="1.1" xmlns="http://www.w3.org/2000/svg" xmlns:xlink="http://www.w3.org/1999/xlink">
    <title>Icons/Basic icons/info-filled</title>
    <g  id="Icons/Basic-icons/info-filled" stroke="none" stroke-width="1" fill="none" fill-rule="evenodd">
        <path d="M11.995875,0.000468750325 C15.2028416,0.000468750325 18.2168102,1.24845575 20.4827866,3.51443215 C22.750763,5.78040854 23.99975,8.79437715 23.99975,12.0003438 C23.99975,15.2063104 22.750763,18.218279 20.4827866,20.4862554 C18.2168102,22.7512318 15.2028416,24.0002188 11.995875,24.0002188 C8.78890845,24.0002188 5.77493984,22.7512318 3.50896345,20.4862554 C-1.16998782,15.8063041 -1.16998782,8.1943834 3.50896345,3.51443215 C5.77493984,1.24845575 8.78890845,0.000468750325 11.995875,0.000468750325 Z M12.002875,10.0003646 L9.99989583,10.0003646 C9.44790158,10.0003646 8.99990625,10.4483599 8.99990625,11.0003542 C8.99990625,11.5523484 9.44790158,12.0003438 9.99989583,12.0003438 L9.99989583,12.0003438 L10.9998854,12.0003438 L10.9998854,17.0002917 L9.99989583,17.0002917 C9.44790158,17.0002917 8.99990625,17.448287 8.99990625,18.0002813 C8.99990625,18.5522755 9.44790158,19.0002708 9.99989583,19.0002708 L9.99989583,19.0002708 L14.0028541,19.0002708 C14.5548484,19.0002708 15.0028437,18.5522755 15.0028437,18.0002813 C15.0028437,17.448287 14.5548484,17.0002917 14.0028541,17.0002917 L14.0028541,17.0002917 L13.0028646,17.0002917 L13.0028646,11.0003542 C13.0028646,10.4483599 12.5548692,10.0003646 12.002875,10.0003646 L12.002875,10.0003646 Z M11.5018802,5.00041667 C10.6708888,5.00041667 9.99989583,5.67240967 9.99989583,6.50040104 C9.99989583,7.32839242 10.6708888,8.00038542 11.4998802,8.00038542 L11.4998802,8.00038542 L11.5017552,8.00038542 L11.6465945,7.99351474 C12.4084901,7.92078763 13.0028646,7.27968704 13.0028646,6.50040104 C13.0028646,5.67240967 12.3318715,5.00041667 11.5018802,5.00041667 L11.5018802,5.00041667 Z"  id="Combined-Shape" fill="#292929"></path>
    </g>
</svg>