<?xml version="1.0" encoding="UTF-8"?>
<svg  viewBox="0 0 24 24" version="1.1" xmlns="http://www.w3.org/2000/svg" xmlns:xlink="http://www.w3.org/1999/xlink">
    <title>Icons/Basic icons/chevron-circle-right</title>
    <g  id="Icons/Basic-icons/chevron-circle-right" stroke="none" stroke-width="1" fill="none" fill-rule="evenodd">
        <path d="M12,0 C18.617,0 24,5.383 24,12 C24,18.617 18.617,24 12,24 C5.383,24 0,18.617 0,12 C0,5.383 5.383,0 12,0 Z M12,2 C6.486,2 2,6.486 2,12 C2,17.514 6.486,22 12,22 C17.514,22 22,17.514 22,12 C22,6.486 17.514,2 12,2 Z M10.707,7.293 L14.707,11.293 C15.098,11.683 15.098,12.317 14.707,12.707 L10.707,16.707 C10.512,16.902 10.256,17 10,17 C9.744,17 9.488,16.902 9.293,16.707 C8.902,16.317 8.902,15.683 9.293,15.293 L12.586,12 L9.293,8.707 C8.902,8.317 8.902,7.683 9.293,7.293 C9.684,6.902 10.316,6.902 10.707,7.293 Z"  id="Shape" fill="#222222"></path>
    </g>
</svg>