<?xml version="1.0" encoding="UTF-8"?>
<svg  viewBox="0 0 24 24" version="1.1" xmlns="http://www.w3.org/2000/svg" xmlns:xlink="http://www.w3.org/1999/xlink">
    <title>Icons/Basic icons/attachment</title>
    <defs>
        <path d="M22.0688,11.1294 C22.0688,10.8734 21.9708,10.6174 21.7758,10.4224 C21.3848,10.0314 20.7518,10.0314 20.3618,10.4224 L9.9858,20.7974 C9.2128,21.5704 8.1838,21.9964 7.0908,21.9964 C5.9968,21.9964 4.9688,21.5714 4.1958,20.7974 C2.5998,19.2004 2.6008,16.6024 4.1958,15.0064 L16.2318,2.9714 C16.9108,2.2924 17.5648,1.9664 18.1758,2.0024 C18.7708,2.0384 19.2298,2.4144 19.4508,2.6354 C19.8238,3.0084 19.9798,3.4114 19.9218,3.8664 C19.8508,4.4354 19.4598,5.0894 18.7888,5.7604 L9.3448,15.2034 C8.9538,15.5944 8.9538,16.2264 9.3448,16.6174 C9.7358,17.0084 10.3678,17.0084 10.7588,16.6174 L20.2038,7.1744 C21.2058,6.1724 21.7778,5.1424 21.9068,4.1134 C22.0408,3.0344 21.6798,2.0354 20.8648,1.2214 C20.1378,0.4934 19.2248,0.0614 18.2948,0.0064 C17.0878,-0.0656 15.9178,0.4564 14.8178,1.5564 L2.7818,13.5924 C0.4058,15.9684 0.4058,19.8354 2.7818,22.2114 C3.9318,23.3624 5.4628,23.9964 7.0908,23.9964 C8.7188,23.9964 10.2488,23.3624 11.4008,22.2114 L21.7758,11.8364 C21.9708,11.6414 22.0688,11.3854 22.0688,11.1294"  id="path-1"></path>
    </defs>
    <g  id="Icons/Basic-icons/attachment" stroke="none" stroke-width="1" fill="none" fill-rule="evenodd">
        <mask id="mask-2" fill="white">
            <use xlink:href="#path-1"></use>
        </mask>
        <use  id="Shape" fill="#292929" xlink:href="#path-1"></use>
    </g>
</svg>