<?xml version="1.0" encoding="UTF-8"?>
<svg  viewBox="0 0 24 24" version="1.1" xmlns="http://www.w3.org/2000/svg" xmlns:xlink="http://www.w3.org/1999/xlink">
    <title>Icons/Basic icons/chat-heart</title>
    <g  id="Icons/Basic-icons/chat-heart" stroke="none" stroke-width="1" fill="none" fill-rule="evenodd">
        <path d="M12,1 C18.6172,1 24,5.244 24,10.4608 C24,15.6363548 18.7894384,19.8617188 12.3192063,19.9966745 L12,20 L10.564,20 C8.65348837,22.7786419 4.42583061,22.9863658 4.0464693,22.9993702 L4.026,23 L4,23 C3.622,23 3.2752,22.786 3.1052,22.446 C2.932,22.098 2.9768,21.6808 3.218,21.376 C3.234,21.356 4.6552,19.5488 4.9372,17.656 C2.446,16.41 -4.79616347e-14,13.7748 -4.79616347e-14,10.4608 C-4.79616347e-14,5.244 5.3832,1 12,1 Z M12,3 C6.486,3 2,6.3472 2,10.4608 C2,13.0248 4.1912,15.24 6.3552,16.1032 C6.7348,16.254 6.984,16.6232 6.984,17.032 C6.984,18.3588 6.512,19.656 6.004,20.6672 C7.16,20.35 8.496,19.734 9.1108,18.5412 C9.26404444,18.2457333 9.55192593,18.0479259 9.87667984,18.0076165 L10,18 L12,18 C17.514,18 22,14.618 22,10.4608 C22,6.3472 17.514,3 12,3 Z M14.49996,5.99984 C16.42996,5.99984 17.99996,7.55504 17.99996,9.46704 C17.99996,10.36584 17.59036,11.30704 16.90516,11.98384 C16.89716,11.99144 16.88836,11.99664 16.87996,12.00424 L16.87291,12.01204 L16.87291,12.01204 L16.86556,12.01984 L12.66356,15.74784 C12.64996,15.76024 12.63476,15.76824 12.62076,15.77944 C12.59796,15.79744 12.57556,15.81424 12.55156,15.83064 C12.51676,15.85344 12.48116,15.87304 12.44476,15.89144 C12.42316,15.90224 12.40196,15.91384 12.37956,15.92304 C12.33636,15.94064 12.29236,15.95384 12.24716,15.96504 C12.22916,15.96984 12.21156,15.97624 12.19356,15.98024 L12.09726,15.99469 L12.09726,15.99469 L12.00036,15.99984 C11.93516,15.99984 11.87036,15.99264 11.80676,15.98024 C11.78836,15.97624 11.77076,15.96984 11.75276,15.96504 C11.70796,15.95384 11.66356,15.94064 11.62036,15.92304 C11.59796,15.91384 11.57716,15.90224 11.55516,15.89144 C11.51876,15.87304 11.48316,15.85344 11.44876,15.83064 C11.42476,15.81424 11.40196,15.79744 11.37916,15.77944 L11.35761,15.76409 L11.35761,15.76409 L11.33636,15.74784 L7.13476,12.01984 L7.11996,12.00424 C7.11196,11.99664 7.10276,11.99144 7.09476,11.98384 C6.40996,11.30704 5.99996,10.36584 5.99996,9.46704 C5.99996,7.55504 7.56996,5.99984 9.49996,5.99984 C10.46596,5.99984 11.35396,6.38064 11.99996,7.00624 C12.64596,6.38064 13.53396,5.99984 14.49996,5.99984 Z M14.49996,7.99984 C13.76516,7.99984 13.11316,8.51104 12.98196,9.18904 C12.98156,9.19144 12.98036,9.19384 12.97996,9.19624 C12.97036,9.24384 12.95476,9.28904 12.93876,9.33424 C12.93236,9.35144 12.92876,9.37024 12.92196,9.38704 C12.90836,9.41984 12.88916,9.44984 12.87196,9.48064 C12.85756,9.50704 12.84516,9.53504 12.82876,9.55944 C12.82316,9.56824 12.81516,9.57544 12.80916,9.58384 L12.76021,9.64829 L12.76021,9.64829 L12.70676,9.70824 L12.63321,9.77399 L12.63321,9.77399 L12.55876,9.82984 L12.52236,9.84944 C12.47876,9.87624 12.43476,9.90184 12.38756,9.92184 C12.37076,9.92864 12.35236,9.93224 12.33476,9.93864 L12.26731,9.96129 L12.26731,9.96129 L12.19836,9.97944 C12.16596,9.98664 12.14236,9.98544 12.11836,9.98824 C12.07916,9.99304 12.04036,9.99864 12.00036,9.99864 C11.96076,9.99864 11.92276,9.99304 11.88436,9.98864 C11.85956,9.98584 11.83516,9.98664 11.81036,9.98184 C11.80716,9.98144 11.80436,9.97984 11.80116,9.97944 C11.75876,9.97064 11.71796,9.95584 11.67716,9.94224 C11.65556,9.93464 11.63236,9.93024 11.61156,9.92144 C11.57276,9.90504 11.53756,9.88304 11.50156,9.86224 C11.48156,9.85064 11.45996,9.84184 11.44076,9.82904 C11.39476,9.79824 11.35276,9.76184 11.31236,9.72384 C11.30676,9.71784 11.29916,9.71384 11.29356,9.70784 C11.25076,9.66504 11.21236,9.61824 11.17796,9.56784 C11.17596,9.56504 11.17316,9.56304 11.17156,9.56024 C11.15196,9.53104 11.13716,9.49824 11.12076,9.46704 C11.10676,9.44064 11.08996,9.41544 11.07836,9.38784 C11.06996,9.36824 11.06596,9.34664 11.05876,9.32624 C11.04396,9.28344 11.02876,9.24104 11.01996,9.19624 C11.01956,9.19384 11.01836,9.19144 11.01796,9.18904 C10.88676,8.51104 10.23516,7.99984 9.49996,7.99984 C8.67276,7.99984 7.99996,8.65784 7.99996,9.46704 C7.99996,9.78414 8.1487975,10.15024 8.38912719,10.4377869 L8.49756,10.55584 L11.99996,13.66344 L15.50236,10.55584 C15.80556,10.25584 15.99996,9.82944 15.99996,9.46704 C15.99996,8.65784 15.32716,7.99984 14.49996,7.99984 Z"  id="Combined-Shape" fill="#292929"></path>
    </g>
</svg>