<svg xmlns="http://www.w3.org/2000/svg" xmlns:xlink="http://www.w3.org/1999/xlink" viewBox="0 0 24 24"><defs><path id="a" d="M22 2v20H2V2h20zm-4.75 9H6.75c-.414 0-.75.448-.75 1s.336 1 .75 1h10.5c.414 0 .75-.448.75-1s-.336-1-.75-1zm6 13H.75c-.414 0-.75-.336-.75-.75V.75C0 .336.336 0 .75 0h22.5c.414 0 .75.336.75.75v22.5c0 .414-.336.75-.75.75z"/></defs><g fill="none" fill-rule="evenodd"><mask id="b" fill="#fff"><use xlink:href="#a"/></mask><use fill="#292929" xlink:href="#a"/><g fill="#5F686D" mask="url(#b)"><path d="M0 0h24v24H0z"/></g></g></svg>