<?xml version="1.0" encoding="UTF-8"?>
<svg  viewBox="0 0 24 24" version="1.1" xmlns="http://www.w3.org/2000/svg" xmlns:xlink="http://www.w3.org/1999/xlink">
    <title>Icons/Basic icons/calendar</title>
    <g  id="Icons/Basic-icons/calendar" stroke="none" stroke-width="1" fill="none" fill-rule="evenodd">
        <path d="M16.0001,0 C16.5136,0 16.935702,0.386285714 16.9933824,0.883431487 L17.0001,1 L17.0001,2 L22.0001,2 C23.0520091,2 23.9180421,2.81730785 23.9945991,3.85093266 L24.0001,4 L24.0001,22 C24.0001,23.0528636 23.181881,23.9180289 22.1490431,23.994505 L22.0001,24 L2.0001,24 C0.947236364,24 0.0820710744,23.1826921 0.00559502254,22.1490673 L0.0001,22 L0.0001,4 C0.0001,2.94713636 0.817407851,2.08197107 1.85103266,2.00549502 L2.0001,2 L7.0001,2 L7.0001,1 C7.0001,0.448 7.4471,0 8.0001,0 C8.5136,0 8.93570204,0.386285714 8.99338243,0.883431487 L9.0001,1 L9.0001,2 L15.0001,2 L15.0001,1 C15.0001,0.448 15.4471,0 16.0001,0 Z M7.0001,4 L2.0001,4 L2.0001,22 L21.9971,22 L22.0001,4 L17.0001,4 L17.0001,5 C17.0001,5.552 16.5531,6 16.0001,6 C15.4866,6 15.064498,5.61371429 15.0068176,5.11656851 L15.0001,5 L15.0001,4 L9.0001,4 L9.0001,5 C9.0001,5.552 8.5531,6 8.0001,6 C7.4866,6 7.06449796,5.61371429 7.00681757,5.11656851 L7.0001,5 L7.0001,4 Z M19,14 C19.5135,14 19.935602,14.3862857 19.9932824,14.8834315 L20,15 L20,17 C20,17.5125714 19.6145765,17.9354694 19.1167533,17.9932682 L19,18 L17,18 C16.4865,18 16.064398,17.6137143 16.0067176,17.1165685 L16,17 L16,15 C16,14.4874286 16.3854235,14.0645306 16.8832467,14.0067318 L17,14 L19,14 Z M7,14 C7.5135,14 7.93560204,14.3862857 7.99328243,14.8834315 L8,15 L8,17 C8,17.5125714 7.61457653,17.9354694 7.11675328,17.9932682 L7,18 L5,18 C4.4865,18 4.06439796,17.6137143 4.00671757,17.1165685 L4,17 L4,15 C4,14.4874286 4.38542347,14.0645306 4.88324672,14.0067318 L5,14 L7,14 Z M13,14 C13.5135,14 13.935602,14.3862857 13.9932824,14.8834315 L14,15 L14,17 C14,17.5125714 13.6145765,17.9354694 13.1167533,17.9932682 L13,18 L11,18 C10.4865,18 10.064398,17.6137143 10.0067176,17.1165685 L10,17 L10,15 C10,14.4874286 10.3854235,14.0645306 10.8832467,14.0067318 L11,14 L13,14 Z M19,8 C19.5135,8 19.935602,8.38628571 19.9932824,8.88343149 L20,9 L20,11 C20,11.5125714 19.6145765,11.9354694 19.1167533,11.9932682 L19,12 L17,12 C16.4865,12 16.064398,11.6137143 16.0067176,11.1165685 L16,11 L16,9 C16,8.48742857 16.3854235,8.06453061 16.8832467,8.00673178 L17,8 L19,8 Z M7,8 C7.5135,8 7.93560204,8.38628571 7.99328243,8.88343149 L8,9 L8,11 C8,11.5125714 7.61457653,11.9354694 7.11675328,11.9932682 L7,12 L5,12 C4.4865,12 4.06439796,11.6137143 4.00671757,11.1165685 L4,11 L4,9 C4,8.48742857 4.38542347,8.06453061 4.88324672,8.00673178 L5,8 L7,8 Z M13,8 C13.5135,8 13.935602,8.38628571 13.9932824,8.88343149 L14,9 L14,11 C14,11.5125714 13.6145765,11.9354694 13.1167533,11.9932682 L13,12 L11,12 C10.4865,12 10.064398,11.6137143 10.0067176,11.1165685 L10,11 L10,9 C10,8.48742857 10.3854235,8.06453061 10.8832467,8.00673178 L11,8 L13,8 Z"  id="Combined-Shape" fill="#292929"></path>
    </g>
</svg>