<svg xmlns="http://www.w3.org/2000/svg" xmlns:xlink="http://www.w3.org/1999/xlink" viewBox="0 0 24 24"><defs><path id="a" d="M22 2v20H2V2h20zM12 6c-.552 0-1 .336-1 .75V11H6.75c-.38215385 0-.69784615.3817278-.74415294.8746181L6 12c0 .552.336 1 .75 1H11v4.25c0 .3821538.3817278.6978462.8746181.7441529L12 18c.552 0 1-.336 1-.75V13h4.25c.3821538 0 .6978462-.3817278.7441529-.8746181L18 12c0-.552-.336-1-.75-1H13V6.75c0-.38215385-.3817278-.69784615-.8746181-.74415294zm11.25 18H.75c-.414 0-.75-.336-.75-.75V.75C0 .336.336 0 .75 0h22.5c.414 0 .75.336.75.75v22.5c0 .414-.336.75-.75.75z"/></defs><g fill="none" fill-rule="evenodd"><mask id="b" fill="#fff"><use xlink:href="#a"/></mask><use fill="#292929" xlink:href="#a"/><g fill="#5F686D" mask="url(#b)"><path d="M0 0h24v24H0z"/></g></g></svg>