<?xml version="1.0" encoding="UTF-8"?>
<svg  viewBox="0 0 24 24" version="1.1" xmlns="http://www.w3.org/2000/svg" xmlns:xlink="http://www.w3.org/1999/xlink">
    <title>Icons/Basic icons/star-filled</title>
    <g  id="Icons/Basic-icons/star-filled" stroke="none" stroke-width="1" fill="none" fill-rule="evenodd">
        <path d="M18.4744,23.7108 L12.0594,19.3228 L11.9244,19.3318 L5.5254,23.7098 C4.8764,24.1538 4.1394,24.0558 3.7544,23.5468 C3.5804,23.3178 3.4094,22.9168 3.5814,22.3118 L5.5174,15.4668 C5.5304,15.3948 5.4864,15.2238 5.4384,15.1668 L0.4554,10.0968 C0.0394,9.6748 -0.1026,9.1328 0.0744,8.6488 C0.2524,8.1648 0.7104,7.8428 1.3004,7.7898 L7.8974,7.1728 C7.9594,7.1598 8.0974,7.0598 8.1314,6.9978 L10.7804,0.8888 C11.0214,0.3328 11.4774,-0.0002 11.9994,-0.0002 C12.5224,-0.0002 12.9784,0.3338 13.2184,0.8928 L15.8704,7.0048 C15.9024,7.0618 16.0394,7.1598 16.1084,7.1738 L22.7004,7.7878 C23.2924,7.8438 23.7484,8.1668 23.9254,8.6508 C24.1014,9.1348 23.9584,9.6748 23.5434,10.0968 L18.5574,15.1698 C18.5124,15.2238 18.4684,15.3948 18.4824,15.4678 L20.4174,22.3118 C20.5894,22.9168 20.4184,23.3178 20.2444,23.5468 C20.0264,23.8348 19.6904,23.9998 19.3234,23.9998 C19.0414,23.9998 18.7554,23.9028 18.4744,23.7108 Z"  id="Combined-Shape" fill="#292929"></path>
    </g>
</svg>