<?xml version="1.0" encoding="UTF-8"?>
<svg  viewBox="0 0 24 24" version="1.1" xmlns="http://www.w3.org/2000/svg" xmlns:xlink="http://www.w3.org/1999/xlink">
    <title>Icons/Basic icons/internet</title>
    <g  id="Icons/Basic-icons/internet" stroke="none" stroke-width="1" fill="none" fill-rule="evenodd">
        <path d="M11.9996,-0.0001 C18.6166,-0.0001 23.9996,5.3829 23.9996,11.9999 C23.9996,18.6169 18.6166,23.9999 11.9996,23.9999 C5.3836,23.9999 -0.0004,18.6169 -0.0004,11.9999 C-0.0004,5.3829 5.3836,-0.0001 11.9996,-0.0001 Z M10.9996,16.9999 L7.9866,16.9999 C8.6656,18.6919 9.6836,20.2409 10.9996,21.5549 L10.9996,21.5549 L10.9996,16.9999 Z M16.0116,16.9999 L12.9996,16.9999 L12.9996,21.5509 C14.3146,20.2379 15.3326,18.6899 16.0116,16.9999 L16.0116,16.9999 Z M20.6466,16.9999 L18.1586,16.9999 C17.6476,18.4879 16.9136,19.8949 15.9746,21.1719 C17.9426,20.3159 19.5776,18.8419 20.6466,16.9999 L20.6466,16.9999 Z M5.8396,16.9999 L3.3526,16.9999 C4.4216,18.8409 6.0546,20.3129 8.0206,21.1689 C7.0826,19.8939 6.3496,18.4869 5.8396,16.9999 L5.8396,16.9999 Z M21.5386,8.9999 L18.6916,8.9999 C18.8866,9.9829 18.9996,10.9839 18.9996,11.9999 C18.9996,13.0159 18.8866,14.0179 18.6906,14.9999 L18.6906,14.9999 L21.5386,14.9999 C21.8376,14.0529 21.9996,13.0449 21.9996,11.9999 C21.9996,10.9549 21.8376,9.9469 21.5386,8.9999 L21.5386,8.9999 Z M16.6526,8.9999 L12.9996,8.9999 L12.9996,14.9999 L16.6526,14.9999 C16.8776,14.0239 16.9996,13.0189 16.9996,11.9999 C16.9996,10.9819 16.8776,9.9769 16.6526,8.9999 L16.6526,8.9999 Z M10.9996,8.9999 L7.3476,8.9999 C7.1226,9.9779 6.9996,10.9829 6.9996,12.0019 C6.9996,13.0199 7.1216,14.0239 7.3466,14.9999 L7.3466,14.9999 L10.9996,14.9999 L10.9996,8.9999 Z M5.3086,8.9999 L2.4606,8.9999 C2.1626,9.9469 1.9996,10.9549 1.9996,11.9999 C1.9996,13.0449 2.1626,14.0529 2.4616,14.9999 L2.4616,14.9999 L5.3076,14.9999 C5.1136,14.0199 4.9996,13.0179 4.9996,12.0019 C4.9996,10.9849 5.1136,9.9829 5.3086,8.9999 L5.3086,8.9999 Z M8.0256,2.8279 C6.0576,3.6849 4.4226,5.1579 3.3526,6.9999 L3.3526,6.9999 L5.8416,6.9999 C6.3516,5.5119 7.0866,4.1049 8.0256,2.8279 Z M15.9766,2.8299 C16.9146,4.1059 17.6486,5.5129 18.1596,6.9999 L18.1596,6.9999 L20.6466,6.9999 C19.5776,5.1579 17.9436,3.6859 15.9766,2.8299 Z M10.9996,2.4509 C9.6846,3.7639 8.6676,5.3109 7.9886,6.9999 L7.9886,6.9999 L10.9996,6.9999 Z M12.9996,2.4469 L12.9996,6.9999 L16.0126,6.9999 C15.3326,5.3109 14.3156,3.7619 12.9996,2.4469 L12.9996,2.4469 Z"  id="Combined-Shape" fill="#222222"></path>
    </g>
</svg>