<?xml version="1.0" encoding="UTF-8"?>
<svg  viewBox="0 0 24 24" version="1.1" xmlns="http://www.w3.org/2000/svg" xmlns:xlink="http://www.w3.org/1999/xlink">
    <title>Icons/Basic icons/map</title>
    <defs>
        <path d="M6,15.0001 C6.553,15.0001 7,15.4481 7,16.0001 C7,16.5521 6.553,17.0001 6,17.0001 L4.659,17.0001 L2.517,22.0001 L21.483,22.0001 L19.341,17.0001 L18,17.0001 C17.447,17.0001 17,16.5521 17,16.0001 C17,15.4481 17.447,15.0001 18,15.0001 L20,15.0001 C20.4,15.0001 20.762,15.2381 20.919,15.6061 L23.919,22.6061 C24.052,22.9151 24.02,23.2701 23.835,23.5501 C23.649,23.8311 23.336,24.0001 23,24.0001 L1,24.0001 C0.664,24.0001 0.351,23.8311 0.165,23.5501 C-0.02,23.2701 -0.052,22.9151 0.081,22.6061 L3.081,15.6061 C3.238,15.2381 3.6,15.0001 4,15.0001 L6,15.0001 Z M12,1.0001 C15.859,1.0001 19,4.0731 19,7.8501 C19,13.4101 12.899,18.5521 12.64,18.7691 C12.454,18.9231 12.228,19.0001 12,19.0001 C11.772,19.0001 11.546,18.9231 11.36,18.7691 C11.101,18.5521 5,13.4101 5,7.8501 C5,4.0731 8.141,1.0001 12,1.0001 Z M12,3.0001 C9.243,3.0001 7,5.1751 7,7.8501 C7,11.5191 10.522,15.2481 12,16.6511 C13.478,15.2481 17,11.5191 17,7.8501 C17,5.1751 14.757,3.0001 12,3.0001 Z M12,6.0001 C13.103,6.0001 14,6.8971 14,8.0001 C14,9.1031 13.103,10.0001 12,10.0001 C10.897,10.0001 10,9.1031 10,8.0001 C10,6.8971 10.897,6.0001 12,6.0001 Z"  id="path-1"></path>
    </defs>
    <g  id="Icons/Basic-icons/map" stroke="none" stroke-width="1" fill="none" fill-rule="evenodd">
        <mask id="mask-2" fill="white">
            <use xlink:href="#path-1"></use>
        </mask>
        <use  id="Combined-Shape" fill="#292929" xlink:href="#path-1"></use>
    </g>
</svg>