<?xml version="1.0" encoding="UTF-8"?>
<svg  viewBox="0 0 24 24" version="1.1" xmlns="http://www.w3.org/2000/svg" xmlns:xlink="http://www.w3.org/1999/xlink">
    <title>Icons/Basic icons/copy</title>
    <g  id="Icons/Basic-icons/copy" stroke="none" stroke-width="1" fill="none" fill-rule="evenodd">
        <path d="M9,3 C9.021,3 9.039,3.011 9.061,3.012 C9.152,3.018 9.24,3.036 9.326,3.066 C9.358,3.077 9.39,3.085 9.42,3.1 C9.522,3.147 9.62,3.208 9.704,3.291 L9.706,3.292125 L15.598,9.184 C15.854,9.365 16.02,9.663 16.02,10 L16.011125,10.049875 L16,10.099 L16,22 C16,23.0528636 15.1826921,23.9180289 14.1490673,23.994505 L14,24 L2,24 C0.947136364,24 0.0819710744,23.1826921 0.00549502254,22.1490673 L-2.14939178e-13,22 L-2.14939178e-13,5 C-2.14939178e-13,3.94713636 0.817307851,3.08197107 1.85093266,3.00549502 L2,3 L9,3 Z M8,5 L2,5 L2,22 L14,22 L14,11 L9,11 C8.48742857,11 8.06453061,10.6137143 8.00673178,10.1165685 L8,10 L8,5 Z M17,0 C17.022,0 17.04,0.011 17.062,0.013 C17.152,0.018 17.24,0.036 17.326,0.066 C17.358,0.077 17.39,0.085 17.42,0.1 C17.523,0.147 17.62,0.208 17.704,0.291 L17.706,0.292125 L23.598,6.184 C23.854,6.365 24.02,6.663 24.02,7 L24.011125,7.049875 L24.011125,7.049875 L24,7.099 L24,19 C24,20.0528636 23.1826921,20.9180289 22.1490673,20.994505 L22,21 L18,21 C17.448,21 17,20.552 17,20 C17,19.4874286 17.3862857,19.0645306 17.8834315,19.0067318 L18,19 L22,19 L22,8 L17,8 C16.4874286,8 16.0645306,7.61371429 16.0067318,7.11656851 L16,7 L16,2 L9,2 C8.448,2 8,1.552 8,1 C8,0.487428571 8.38628571,0.0645306122 8.88343149,0.00673177843 L9,0 L17,0 Z M10,6.414 L10,9 L12.586,9 L10,6.414 Z M18,3.414 L18,6 L20.586,6 L18,3.414 Z"  id="Combined-Shape" fill="#292929"></path>
    </g>
</svg>