<?xml version="1.0" encoding="UTF-8"?>
<svg  viewBox="0 0 24 24" version="1.1" xmlns="http://www.w3.org/2000/svg" xmlns:xlink="http://www.w3.org/1999/xlink">
    <title>Icons/Basic icons/archive</title>
    <g  id="Icons/Basic-icons/archive" stroke="none" stroke-width="1" fill="none" fill-rule="evenodd">
        <path d="M22.998,0 C23.129,0 23.259,0.026 23.382,0.077 C23.5,0.126 23.611,0.197 23.707,0.293 C23.803,0.389 23.874,0.5 23.923,0.617 C23.974,0.74 24,0.87 24,1.001 L24,1.001 L24,18.6 C24,18.848 23.907,19.088 23.74,19.272 L23.74,19.272 L19.74,23.673 C19.735,23.679 19.727,23.681 19.721,23.686 C19.641,23.771 19.547,23.832 19.448,23.882 C19.429,23.892 19.413,23.91 19.393,23.919 C19.268,23.972 19.134,24 19,24 L19,24 L1,24 C0.447,24 0,23.552 0,23 L0,23 L0,5 C0,4.992 0.005,4.985 0.005,4.976 C0.007,4.9 0.03,4.83 0.049,4.759 C0.063,4.704 0.066,4.647 0.088,4.596 C0.11,4.547 0.149,4.508 0.178,4.463 C0.22,4.399 0.257,4.332 0.313,4.279 C0.319,4.274 0.321,4.266 0.327,4.26 L0.327,4.26 L4.728,0.26 C4.912,0.093 5.151,0 5.4,0 L5.4,0 Z M18,6 L2,6 L2,22 L18,22 L18,6 Z M22,3.414 L20,5.414 L20,20.413 L22,18.213 L22,3.414 Z M13,8.0001 C13.553,8.0001 14,8.4481 14,9.0001 C14,9.5521 13.553,10.0001 13,10.0001 L13,10.0001 L7,10.0001 C6.447,10.0001 6,9.5521 6,9.0001 C6,8.4481 6.447,8.0001 7,8.0001 L7,8.0001 Z M11.814,2 L5.787,2 L3.587,4 L9.613,4 L11.814,2 Z M20.586,2 L14.787,2 L12.587,4 L18.586,4 L20.586,2 Z"  id="Combined-Shape" fill="#222222"></path>
    </g>
</svg>