<?xml version="1.0" encoding="UTF-8"?>
<svg width="24px" height="24px" viewBox="0 0 24 24" version="1.1" xmlns="http://www.w3.org/2000/svg" xmlns:xlink="http://www.w3.org/1999/xlink">
    <title>Icons/Basic icons/alert-off</title>
    <g id="Icons/Basic-icons/alert-off" stroke="none" stroke-width="1" fill="none" fill-rule="evenodd">
        <path d="M4,20 L3.647,20 C3.031,20 2.511,19.731 2.222,19.263 C1.933,18.795 1.925,18.21 2.2,17.658 L5.131,12.505 C5.404,12.026 6.015,11.858 6.495,12.131 C6.975,12.404 7.142,13.015 6.869,13.495 L4.282,18.041 C4.697,18.162 5,18.546 5,19 C5,19.552 4.552,20 4,20" id="Fill-4" fill="#222222"></path>
        <path d="M6,8 C5.448,8 5,7.552 5,7 C5,3.14 8.139,0 11.998,0 C15.177,0 17.962,2.144 18.77,5.213 C18.91,5.747 18.591,6.294 18.057,6.435 C17.524,6.576 16.976,6.256 16.835,5.722 C16.259,3.531 14.27,2 11.998,2 C9.242,2 7,4.243 7,7 C7,7.552 6.552,8 6,8" id="Fill-6" fill="#222222"></path>
        <path d="M17.916,7.0002 C17.437,7.0002 17.013,6.6542 16.931,6.1662 C16.906,6.0162 16.874,5.8672 16.835,5.7212 C16.695,5.1872 17.015,4.6412 17.549,4.5002 C18.083,4.3602 18.629,4.6792 18.77,5.2142 C18.823,5.4172 18.868,5.6242 18.903,5.8342 C18.995,6.3782 18.628,6.8942 18.083,6.9862 C18.027,6.9952 17.971,7.0002 17.916,7.0002" id="Fill-8" fill="#222222"></path>
        <path d="M6,14 C5.448,14 5,13.552 5,13 L5,7 C5,6.448 5.448,6 6,6 C6.552,6 7,6.448 7,7 L7,13 C7,13.552 6.552,14 6,14" id="Fill-10" fill="#222222"></path>
        <path d="M18,14 C17.448,14 17,13.552 17,13 L17,11 C17,10.448 17.448,10 18,10 C18.552,10 19,10.448 19,11 L19,13 C19,13.552 18.552,14 18,14" id="Fill-12" fill="#222222"></path>
        <path d="M1,24 C0.744,24 0.488,23.902 0.293,23.707 C-0.098,23.317 -0.098,22.683 0.293,22.293 L22.293,0.293 C22.684,-0.098 23.316,-0.098 23.707,0.293 C24.098,0.683 24.098,1.317 23.707,1.707 L1.707,23.707 C1.512,23.902 1.256,24 1,24" id="Fill-14" fill="#222222"></path>
        <path d="M18.8656952,12.5055543 L21.7716952,17.6115543 C22.0726952,18.2095543 22.0646952,18.7945543 21.7746952,19.2635543 C21.4856952,19.7315543 20.9666952,20.0005543 20.3496952,20.0005543 L15.9966952,20.0005543 C15.9966952,22.2055543 14.2016952,24.0005543 11.9946952,24.0005543 C9.87569517,24.0005543 8.12169517,22.3435543 8.00169517,20.2295543 C7.98669517,19.9725543 8.07169517,19.7205543 8.23869517,19.5245543 L9.23569517,18.3525543 C9.42569517,18.1285543 9.70369517,18.0005543 9.99669517,18.0005543 L19.6926952,18.0005543 L17.1276952,13.4945543 C16.8546952,13.0145543 17.0226952,12.4045543 17.5026952,12.1315543 C17.9826952,11.8575543 18.5926952,12.0255543 18.8656952,12.5055543 Z M13.9966952,20.0005543 L10.4596952,20.0005543 L10.0526952,20.4785543 C10.2676952,21.3555543 11.0606952,22.0005543 11.9946952,22.0005543 C13.0986952,22.0005543 13.9966952,21.1035543 13.9966952,20.0005543 Z" id="Combined-Shape" fill="#222222"></path>
    </g>
</svg>