<?xml version="1.0" encoding="UTF-8"?>
<svg  viewBox="0 0 24 24" version="1.1" xmlns="http://www.w3.org/2000/svg" xmlns:xlink="http://www.w3.org/1999/xlink">
    <title>Icons/Basic icons/link-external</title>
    <g  id="Icons/Basic-icons/link-external" stroke="none" stroke-width="1" fill="none" fill-rule="evenodd">
        <path d="M12,4 C12.552,4 13,4.448 13,5 C13,5.552 12.552,6 12,6 L2,6 L2,22 L18,22 L18,12 C18,11.448 18.448,11 19,11 C19.552,11 20,11.448 20,12 L20,22 C20,23.103 19.103,24 18,24 L2,24 C0.897,24 0,23.103 0,22 L0,6 C0,4.897 0.897,4 2,4 L12,4 Z M23,0 C23.552,0 24,0.448 24,1 L24,7.657 C24,8.209 23.552,8.657 23,8.657 C22.448,8.657 22,8.209 22,7.657 L21.999,3.415 L12.207,13.207 C12.012,13.402 11.756,13.5 11.5,13.5 C11.244,13.5 10.988,13.402 10.793,13.207 C10.402,12.817 10.402,12.183 10.793,11.793 L20.586,2 L16.343,2 C15.791,2 15.343,1.552 15.343,1 C15.343,0.448 15.791,0 16.343,0 L23,0 Z"  id="Combined-Shape" fill="#222222"></path>
    </g>
</svg>