<?xml version="1.0" encoding="UTF-8"?>
<svg  viewBox="0 0 24 24" version="1.1" xmlns="http://www.w3.org/2000/svg" xmlns:xlink="http://www.w3.org/1999/xlink">
    <title>Icons/Basic icons/pin</title>
    <g  id="Icons/Basic-icons/pin" stroke="none" stroke-width="1" fill="none" fill-rule="evenodd">
        <path d="M14.0743,0.029 C14.4163,-0.055 14.7743,0.045 15.0213,0.293 L15.0213,0.293 L23.7073,8.98 C23.9553,9.228 24.0543,9.587 23.9703,9.927 C23.8863,10.267 23.6313,10.538 23.2973,10.642 C22.5313,10.88 21.7353,11 20.9323,11 C20.1913,11 19.4673,10.894 18.7733,10.699 L18.7733,10.699 L15.1953,14.278 C16.1143,16.466 16.2693,18.939 15.5373,21.297 C15.4333,21.631 15.1623,21.887 14.8223,21.971 C14.7423,21.99 14.6623,22 14.5823,22 C14.3203,22 14.0643,21.896 13.8753,21.707 L13.8753,21.707 L8.7913,16.625 L1.7073,23.707 C1.5113,23.902 1.2563,24 1.0003,24 C0.7443,24 0.4883,23.902 0.2933,23.707 C-0.0977,23.316 -0.0977,22.683 0.2933,22.293 L0.2933,22.293 L7.3773,15.211 L2.2933,10.127 C2.0453,9.879 1.9453,9.52 2.0293,9.18 C2.1133,8.841 2.3683,8.569 2.7023,8.465 C3.6943,8.157 4.7233,8 5.7633,8 C7.1473,8 8.4873,8.274 9.7253,8.793 L9.7253,8.793 L13.3053,5.215 C12.8983,3.765 12.8933,2.204 13.3593,0.703 C13.4633,0.369 13.7343,0.113 14.0743,0.029 Z M11.5903,12.412 C9.8603,10.682 7.4533,9.818 5.0273,10.033 L5.0273,10.033 L13.9703,18.974 C14.1873,16.566 13.3403,14.163 11.5903,12.412 Z M14.1653,7.184 L11.5513,9.796 C12.0653,10.149 12.5533,10.548 13.0043,10.998 C13.4543,11.448 13.8383,11.943 14.1903,12.456 L14.1903,12.456 L16.8073,9.837 C16.2763,9.513 15.7753,9.131 15.3243,8.68 C14.8693,8.225 14.4903,7.718 14.1653,7.184 L14.1653,7.184 Z M14.9983,3.098 C15.0063,4.641 15.6123,6.14 16.7383,7.265 C17.8493,8.376 19.3273,8.992 20.8983,9 L20.8983,9 Z"  id="Combined-Shape" fill="#292929"></path>
    </g>
</svg>