<?xml version="1.0" encoding="UTF-8"?>
<svg width="24px" height="24px" viewBox="0 0 24 24" version="1.1" xmlns="http://www.w3.org/2000/svg" xmlns:xlink="http://www.w3.org/1999/xlink">
    <path d="M12,13.4499758 L4.75012083,20.699855 C4.3499275,21.1000483 3.70033833,21.1000483 3.300145,20.699855 C2.89995167,20.2996617 2.89995167,19.6500725 3.300145,19.2498792 L10.5500242,12 L3.300145,4.75012083 C2.89995167,4.3499275 2.89995167,3.70033833 3.300145,3.300145 C3.70033833,2.89995167 4.3499275,2.89995167 4.75012083,3.300145 L12,10.5500242 L19.2498792,3.300145 C19.6500725,2.89995167 20.2996617,2.89995167 20.699855,3.300145 C21.1000483,3.70033833 21.1000483,4.3499275 20.699855,4.75012083 L13.4499758,12 L20.699855,19.2498792 C21.1000483,19.6500725 21.1000483,20.2996617 20.699855,20.699855 C20.2996617,21.1000483 19.6500725,21.1000483 19.2498792,20.699855 L12,13.4499758 Z"></path>
</svg>