<svg xmlns="http://www.w3.org/2000/svg" xmlns:xlink="http://www.w3.org/1999/xlink" viewBox="0 0 24 24"><defs><path id="a" d="M12 2C6.486 2 2 6.486 2 12s4.486 10 10 10 10-4.486 10-10S17.514 2 12 2m0-2c6.617 0 12 5.383 12 12s-5.383 12-12 12S0 18.617 0 12 5.383 0 12 0zm.293 7.293l-4 4c-.391.39-.391 1.024 0 1.414l4 4c.195.195.451.293.707.293.256 0 .512-.098.707-.293.391-.39.391-1.024 0-1.414L10.414 12l3.293-3.293c.391-.39.391-1.024 0-1.414-.391-.391-1.023-.391-1.414 0z"/></defs><g fill="none" fill-rule="evenodd"><mask id="b" fill="#fff"><use xlink:href="#a"/></mask><use fill="#292929" xlink:href="#a"/><g fill="#5F686D" mask="url(#b)"><path d="M24 0H0v24h24z"/></g></g></svg>