<svg xmlns="http://www.w3.org/2000/svg" xmlns:xlink="http://www.w3.org/1999/xlink" viewBox="0 0 24 24"><defs><path id="a" d="M20.9995 21.6089l-16.057-9.942 16.057-9.32v19.262zm.508-21.609c-.298 0-.595.085-.883.252l-17.257 10.017c-.139.08-.261.173-.368.276v-9.538c0-.552-.447-1-1-1-.552 0-1 .448-1 1v22c0 .553.448 1 1 1 .553 0 1-.447 1-1v-10.246c.099.095.208.183.332.261l17.282 10.701c.298.184.607.278.917.278.731 0 1.469-.561 1.469-1.632V1.6459c0-.954-.627-1.646-1.492-1.646z"/></defs><g fill="none" fill-rule="evenodd"><mask id="b" fill="#fff"><use xlink:href="#a"/></mask><use fill="#292929" transform="matrix(-1 0 0 1 23.999 0)" xlink:href="#a"/><g fill="#5F686D" mask="url(#b)"><path d="M0 0h24v24H0z"/></g></g></svg>