<svg xmlns="http://www.w3.org/2000/svg" xmlns:xlink="http://www.w3.org/1999/xlink" viewBox="0 0 24 24"><defs><path id="a" d="M22.0001 12.0258v11.001c0 .552-.448 1-1 1h-20c-.552 0-1-.448-1-1v-20c0-.552.448-1 1-1h11c.552 0 1 .448 1 1s-.448 1-1 1h-10v18h18v-10.001c0-.552.448-1 1-1s1 .448 1 1zm-11.097-.489l9.535-9.535c.375.001.926.071 1.209.375.3.32.374.85.377 1.211l-9.535 9.535-2.114.529.528-2.115zm13.045-7.246c.012-.042.035-.078.042-.123.028-.196.244-1.956-.882-3.157-1.152-1.235-3.038-1.005-3.25-.975-.04.006-.072.029-.11.039-.065.017-.127.036-.188.067-.063.031-.116.07-.169.112-.032.025-.069.036-.098.065l-10 10c-.017.017-.023.04-.039.058-.043.05-.075.105-.108.164-.034.059-.066.117-.087.181-.007.022-.024.039-.029.062l-1 4.001c-.085.341.014.701.263.949.19.19.445.293.707.293.081 0 .162-.01.243-.03l4-1.001c.022-.006.039-.022.061-.029.064-.021.121-.052.18-.086.059-.034.116-.066.166-.11.018-.016.04-.021.057-.038l10-10c.026-.026.036-.06.058-.088.049-.06.095-.122.13-.194.024-.052.038-.105.053-.16z"/></defs><use fill="#5F686D" fill-rule="evenodd" xlink:href="#a"/></svg>