<?xml version="1.0" encoding="UTF-8"?>
<svg width="24px" height="24px" viewBox="0 0 24 24" version="1.1" xmlns="http://www.w3.org/2000/svg" xmlns:xlink="http://www.w3.org/1999/xlink">
    <title>Icons/Basic Icons/Sub-directory</title>
    <g id="Icons/Basic-Icons/Sub-directory" stroke="none" stroke-width="1" fill="none" fill-rule="evenodd">
        <path d="M1,6 C1.552,6 2,6.448 2,7 L2,11 L20.585,10.99975 L17.293,7.707 C16.902,7.317 16.902,6.683 17.293,6.293 C17.684,5.902 18.316,5.902 18.707,6.293 L23.6984353,11.2845371 C23.7300883,11.3154422 23.7597005,11.3484282 23.7870501,11.3832733 L23.707,11.293 C23.7451173,11.3310198 23.7795186,11.3713585 23.8102041,11.413564 C23.8245064,11.4336716 23.8384211,11.4544277 23.8515601,11.4757125 C23.861446,11.4911798 23.8702785,11.5063961 23.878676,11.5217873 C23.8878865,11.5392696 23.8971003,11.5574238 23.9057661,11.5758856 C23.9149328,11.5947717 23.9232398,11.6140708 23.9309103,11.6335631 C23.9370863,11.6498787 23.9431597,11.6665598 23.9487949,11.6834408 C23.9553007,11.7023312 23.9609256,11.7210702 23.9659892,11.7399289 C23.9707207,11.758172 23.9752695,11.7772623 23.9792619,11.7965554 C23.9833393,11.8154698 23.9865929,11.8338266 23.9893313,11.8522453 C23.992182,11.8726695 23.9946377,11.8937177 23.9964289,11.9149542 C23.9981173,11.9322773 23.9991369,11.9496136 23.9997072,11.9669618 C23.9998182,11.9778005 24,11.9888791 24,12 L23.9997072,12.0330382 C23.9991345,12.0504606 23.9981086,12.0678708 23.9966296,12.0852497 L24,12 C24,12.0505942 23.9962364,12.1003147 23.9889741,12.1488966 C23.9865655,12.1662625 23.9834336,12.1839574 23.9798231,12.2015735 C23.9754019,12.2222755 23.97055,12.2426214 23.9650867,12.2627164 C23.9604761,12.280424 23.955054,12.2984102 23.9491145,12.3162615 C23.9433592,12.3328427 23.9375157,12.3489402 23.9312767,12.3648396 C23.9235077,12.3853742 23.9145911,12.4060822 23.9049418,12.4265294 C23.8959049,12.4449655 23.8868386,12.4627205 23.8772675,12.4801596 C23.8702307,12.4936246 23.862355,12.5072201 23.8541324,12.5206627 C23.8410095,12.5415672 23.827398,12.5620896 23.8130689,12.582063 C23.8039883,12.595118 23.7940491,12.6082597 23.7837419,12.6212042 C23.757001,12.6545698 23.7286478,12.6859643 23.6984353,12.7154629 L18.707,17.707 C18.512,17.902 18.256,18 18,18 C17.744,18 17.488,17.902 17.293,17.707 C16.902,17.317 16.902,16.683 17.293,16.293 L20.585,12.99975 L1,13 C0.448,13 0,12.552 0,12 L0,7 C0,6.448 0.448,6 1,6 Z" id="Combined-shape" fill="#292929"></path>
    </g>
</svg>