<?xml version="1.0" encoding="UTF-8"?>
<svg  viewBox="0 0 24 24" version="1.1" xmlns="http://www.w3.org/2000/svg" xmlns:xlink="http://www.w3.org/1999/xlink">
    <title>Icons/Basic icons/basket-add</title>
    <g  id="Icons/Basic-icons/basket-add" stroke="none" stroke-width="1" fill="none" fill-rule="evenodd">
        <path d="M20.0004166,16.0006561 C20.5132524,16.0006561 20.9359237,16.3866963 20.9936888,16.8840349 L21.0004166,17.0006561 L21.0004166,18.9996561 L23.0004166,19.0006561 C23.5527013,19.0006561 24.0004166,19.4483713 24.0004166,20.0006561 C24.0004166,20.5134919 23.6143764,20.9361632 23.1170377,20.9939283 L23.0004166,21.0006561 L21.0004166,20.9996561 L21.0004166,23.0006561 C21.0004166,23.5529408 20.5527013,24.0006561 20.0004166,24.0006561 C19.4875807,24.0006561 19.0649094,23.6146159 19.0071443,23.1172772 L19.0004166,23.0006561 L19.0004166,20.9996561 L17.0004166,21.0006561 C16.4481318,21.0006561 16.0004166,20.5529408 16.0004166,20.0006561 C16.0004166,19.4878202 16.3864568,19.0651489 16.8837954,19.0073838 L17.0004166,19.0006561 L19.0004166,18.9996561 L19.0004166,17.0006561 C19.0004166,16.4483713 19.4481318,16.0006561 20.0004166,16.0006561 Z M16.9246939,0.617801637 L16.9628961,0.728193395 L18.7364166,7.00065606 L23.0004166,7.00065606 C23.5920226,7.00065606 24.0449778,7.50806992 23.9973125,8.08136549 L23.9809972,8.1967722 L22.9809972,13.1967722 C22.8726853,13.738332 22.3458602,14.0895487 21.8043004,13.9812367 C21.3014235,13.8806614 20.9626689,13.4192251 21.0035617,12.9202158 L21.0198359,12.8045399 L21.7804166,9.00065606 L2.25141656,9.00065606 L4.73341656,20.0006561 L13.0004166,20.0006561 C13.5132524,20.0006561 13.9359237,20.3866963 13.9936888,20.8840349 L14.0004166,21.0006561 C14.0004166,21.5134919 13.6143764,21.9361632 13.1170377,21.9939283 L13.0004166,22.0006561 L3.93441656,22.0006561 C3.50591023,22.0006561 3.12981364,21.7285297 2.99083668,21.3319452 L2.95895164,21.220811 L0.0249516415,8.22081099 C-0.107369073,7.63452289 0.302283893,7.07512319 0.882260397,7.00748841 L1.00041656,7.00065606 L5.26341656,7.00065606 L7.03793702,0.728193395 C7.18819309,0.196741083 7.74082692,-0.112279535 8.27227923,0.0379765282 C8.76577066,0.177500015 9.0674715,0.663971678 8.98775039,1.15826625 L8.9624961,1.27231873 L7.34241656,7.00065606 L16.6574166,7.00065606 L15.038337,1.27231873 C14.888081,0.74086642 15.1971016,0.188232591 15.7285539,0.0379765282 C16.1840844,-0.0908143828 16.6551769,0.117822471 16.8751001,0.514736895 L16.9246939,0.617801637 Z"  id="Combined-shape" fill="#292929"></path>
    </g>
</svg>