<?xml version="1.0" encoding="UTF-8"?>
<svg  viewBox="0 0 24 24" version="1.1" xmlns="http://www.w3.org/2000/svg" xmlns:xlink="http://www.w3.org/1999/xlink">
    <title>Icons/Basic icons/control-previous</title>
    <g  id="Icons/Basic-icons/control-previous" stroke="none" stroke-width="1" fill="none" fill-rule="evenodd">
        <path d="M21.5075,-9.99999987e-05 C22.3725,-9.99999987e-05 22.9995,0.6919 22.9995,1.6459 L22.9995,1.6459 L22.9995,22.3689 C22.9995,23.4399 22.2615,24.0009 21.5305,24.0009 C21.2205,24.0009 20.9115,23.9069 20.6135,23.7229 L20.6135,23.7229 L3.3315,13.0219 C3.2075,12.9439 3.0985,12.8559 2.9995,12.7609 L2.9995,12.7609 L2.9995,23.0069 C2.9995,23.5599 2.5525,24.0069 1.9995,24.0069 C1.4475,24.0069 0.9995,23.5599 0.9995,23.0069 L0.9995,23.0069 L0.9995,1.0069 C0.9995,0.4549 1.4475,0.0069 1.9995,0.0069 C2.5525,0.0069 2.9995,0.4549 2.9995,1.0069 L2.9995,1.0069 L2.9995,10.5449 C3.1065,10.4419 3.2285,10.3489 3.3675,10.2689 L3.3675,10.2689 L20.6245,0.2519 C20.9125,0.0849 21.2095,-9.99999987e-05 21.5075,-9.99999987e-05 Z M20.9995,2.3469 L4.9425,11.6669 L20.9995,21.6089 L20.9995,2.3469 Z"  id="Combined-Shape" fill="#292929"></path>
    </g>
</svg>