<?xml version="1.0" encoding="UTF-8"?>
<svg  viewBox="0 0 24 24" version="1.1" xmlns="http://www.w3.org/2000/svg" xmlns:xlink="http://www.w3.org/1999/xlink">
    <title>Icons/Basic icons/arrow-up</title>
    <g  id="Icons/Basic-icons/arrow-up" stroke="none" stroke-width="1" fill="none" fill-rule="evenodd">
        <path d="M12.7075,0.294 C12.5265,0.113 12.2765,0 11.9995,0 C11.7235,0 11.4735,0.113 11.2925,0.294 L5.2925,6.294 C4.9025,6.685 4.9025,7.318 5.2925,7.709 C5.6835,8.099 6.3165,8.099 6.7075,7.708 L10.9995,3.415 L10.9995,23 C10.9995,23.553 11.4475,24 11.9995,24 C12.5525,24 12.9995,23.553 12.9995,23 L12.9995,3.415 L17.2925,7.708 C17.4885,7.904 17.7445,8.001 17.9995,8.001 C18.2555,8.001 18.5115,7.904 18.7075,7.709 C19.0975,7.318 19.0975,6.685 18.7075,6.294 L12.7075,0.294 Z"  id="Shape" fill="#222222"></path>
    </g>
</svg>