<?xml version="1.0" encoding="UTF-8"?>
<svg  viewBox="0 0 24 24" version="1.1" xmlns="http://www.w3.org/2000/svg" xmlns:xlink="http://www.w3.org/1999/xlink">
    <title>Icons/Basic icons/clock</title>
    <g  id="Icons/Basic-icons/clock" stroke="none" stroke-width="1" fill="none" fill-rule="evenodd">
        <path d="M12,0 C18.617,0 24,5.383 24,12 C24,18.617 18.617,24 12,24 C5.383,24 0,18.617 0,12 C0,5.383 5.383,0 12,0 Z M12,2 C6.486,2 2,6.486 2,12 C2,17.514 6.486,22 12,22 C17.514,22 22,17.514 22,12 C22,6.486 17.514,2 12,2 Z M12,4 C12.553,4 13,4.448 13,5 L13,11.586 L16.707,15.293 C17.098,15.684 17.098,16.316 16.707,16.707 C16.512,16.902 16.256,17 16,17 C15.744,17 15.488,16.902 15.293,16.707 L11.293,12.707 L11.2194636,12.6253294 C11.2171742,12.6224746 11.2149002,12.619607 11.2126417,12.6167267 L11.293,12.707 C11.2465446,12.6605446 11.2056086,12.6106871 11.170192,12.558236 C11.1626791,12.5472409 11.1553266,12.5358421 11.1482028,12.5242875 C11.138554,12.5085478 11.1297215,12.4933253 11.121324,12.47793 C11.1117238,12.460364 11.1023449,12.4418299 11.093537,12.4229758 C11.0855334,12.4058833 11.0780417,12.3885847 11.0710623,12.3711303 C11.0623387,12.3492266 11.0544048,12.3271377 11.047241,12.3047052 C11.04311,12.2919202 11.039239,12.2789042 11.0356388,12.2658297 C11.0297915,12.2443426 11.0246046,12.222658 11.020136,12.2007126 C11.0164886,12.1833352 11.0134226,12.1659986 11.0108167,12.1486069 C11.0080401,12.1290364 11.0056609,12.1089858 11.0038833,12.0887631 C11.0016478,12.0658896 11.0003959,12.0427871 10.9999428,12.0196721 C11.0000612,12.012902 11,12.0064581 11,12 L11,5 C11,4.448 11.447,4 12,4 Z"  id="Combined-Shape" fill="#000000"></path>
    </g>
</svg>