<?xml version="1.0" encoding="UTF-8"?>
<svg  viewBox="0 0 24 24" version="1.1" xmlns="http://www.w3.org/2000/svg" xmlns:xlink="http://www.w3.org/1999/xlink">
    <title>Icons/Basic icons/disabled</title>
    <g  id="Icons/Basic-icons/disabled" stroke="none" stroke-width="1" fill="none" fill-rule="evenodd">
        <path d="M11.9998,-0.0003 C18.6168,-0.0003 23.9998,5.3837 23.9998,11.9997 C23.9998,18.6167 18.6168,23.9997 11.9998,23.9997 C5.3828,23.9997 -0.0002,18.6167 -0.0002,11.9997 C-0.0002,5.3837 5.3828,-0.0003 11.9998,-0.0003 Z M4.2608,5.6757 C2.8488,7.3997 1.9998,9.6017 1.9998,11.9997 C1.9998,17.5137 6.4858,22.0007 11.9998,22.0007 C14.3978,22.0007 16.5998,21.1507 18.3248,19.7387 L18.3248,19.7387 Z M11.9998,1.9997 C9.6018,1.9997 7.3998,2.8487 5.6758,4.2617 L5.6758,4.2617 L19.7388,18.3247 C21.1508,16.5997 22.0008,14.3977 22.0008,11.9997 C22.0008,6.4857 17.5138,1.9997 11.9998,1.9997 Z"  id="Combined-Shape" fill="#292929"></path>
    </g>
</svg>