<?xml version="1.0" encoding="UTF-8"?>
<svg  viewBox="0 0 24 24" version="1.1" xmlns="http://www.w3.org/2000/svg" xmlns:xlink="http://www.w3.org/1999/xlink">
    <title>Icons/Basic icons/map-location</title>
    <g  id="Icons/Basic-icons/map-location" stroke="none" stroke-width="1" fill="none" fill-rule="evenodd">
        <path d="M12,0 C16.963,0 21,4.057 21,9.043 C21,16.504 12.992,23.466 12.651,23.759 C12.464,23.919 12.232,24 12,24 C11.768,24 11.536,23.919 11.349,23.759 C11.008,23.466 3,16.504 3,9.043 C3,4.057 7.037,0 12,0 Z M12,2 C8.141,2 5,5.16 5,9.043 C5,14.445 10.148,19.866 11.999,21.64 C13.85,19.864 19,14.435 19,9.043 C19,5.16 15.859,2 12,2 Z M12,5.0742 C14.206,5.0742 16,6.8682 16,9.0742 C16,11.2802 14.206,13.0742 12,13.0742 C9.794,13.0742 8,11.2802 8,9.0742 C8,6.8682 9.794,5.0742 12,5.0742 Z M12,7.0742 C10.897,7.0742 10,7.9712 10,9.0742 C10,10.1772 10.897,11.0742 12,11.0742 C13.103,11.0742 14,10.1772 14,9.0742 C14,7.9712 13.103,7.0742 12,7.0742 Z"  id="Combined-Shape" fill="#292929"></path>
    </g>
</svg>