<?xml version="1.0" encoding="UTF-8"?>
<svg  viewBox="0 0 24 24" version="1.1" xmlns="http://www.w3.org/2000/svg" xmlns:xlink="http://www.w3.org/1999/xlink">
    <title>Icons/Basic icons/edit</title>
    <g  id="Icons/Basic-icons/edit" stroke="none" stroke-width="1" fill="none" fill-rule="evenodd">
        <path d="M12.0001,2.0268 C12.5521,2.0268 13.0001,2.4748 13.0001,3.0268 C13.0001,3.5788 12.5521,4.0268 12.0001,4.0268 L2.0001,4.0268 L2.0001,22.0268 L20.0001,22.0268 L20.0001,12.0258 C20.0001,11.4738 20.4481,11.0258 21.0001,11.0258 C21.5521,11.0258 22.0001,11.4738 22.0001,12.0258 L22.0001,23.0268 C22.0001,23.5788 21.5521,24.0268 21.0001,24.0268 L1.0001,24.0268 C0.4481,24.0268 0.0001,23.5788 0.0001,23.0268 L0.0001,3.0268 C0.0001,2.4748 0.4481,2.0268 1.0001,2.0268 L12.0001,2.0268 Z M23.1081,1.0108 C24.2341,2.2118 24.0181,3.9718 23.9901,4.1678 C23.9831,4.2128 23.9601,4.2488 23.9481,4.2908 C23.9331,4.3458 23.9191,4.3988 23.8951,4.4508 C23.8601,4.5228 23.8141,4.5848 23.7651,4.6448 L23.7376,4.68955 L23.7376,4.68955 L23.7071,4.7328 L13.7071,14.7328 C13.6901,14.7498 13.6681,14.7548 13.6501,14.7708 C13.6001,14.8148 13.5431,14.8468 13.4841,14.8808 C13.4251,14.9148 13.3681,14.9458 13.3041,14.9668 L13.2736,14.981675 L13.2736,14.981675 L13.2431,14.9958 L9.2431,15.9968 C9.1621,16.0168 9.0811,16.0268 9.0001,16.0268 C8.7381,16.0268 8.4831,15.9238 8.2931,15.7338 C8.075225,15.5168 7.97219375,15.21405 8.00678359,14.9133098 L8.0301,14.7848 L9.0301,10.7838 C9.0351,10.7608 9.0521,10.7438 9.0591,10.7218 C9.0801,10.6578 9.1121,10.5998 9.1461,10.5408 C9.1791,10.4818 9.2111,10.4268 9.2541,10.3768 L9.273225,10.347425 L9.273225,10.347425 L9.2931,10.3188 L19.2931,0.3188 C19.3221,0.2898 19.3591,0.2788 19.3911,0.2538 C19.4441,0.2118 19.4971,0.1728 19.5601,0.1418 C19.6211,0.1108 19.6831,0.0918 19.7481,0.0748 C19.7861,0.0648 19.8181,0.0418 19.8581,0.0358 C20.0701,0.0058 21.9561,-0.2242 23.1081,1.0108 Z M20.4381,2.0018 L10.9031,11.5368 L10.3751,13.6518 L12.4891,13.1228 L22.0241,3.5878 C22.0211,3.2268 21.9471,2.6968 21.6471,2.3768 C21.3641,2.0728 20.8131,2.0028 20.4381,2.0018 Z"  id="Combined-Shape" fill="#292929"></path>
    </g>
</svg>