<svg xmlns="http://www.w3.org/2000/svg" xmlns:xlink="http://www.w3.org/1999/xlink" viewBox="0 0 24 24"><defs><path id="a" d="M20.603 10.9758c-2.896-3.003-6.779-3.686-8.603-3.84v-4.136c0-.384-.22-.735-.567-.901-.345-.166-.757-.12-1.058.12l-10 8c-.237.19-.375.477-.375.781 0 .304.138.591.375.781l10 8c.181.145.402.219.625.219.147 0 .295-.032.433-.098.347-.167.567-.517.567-.902v-4.062c3.761.145 6.54 1.104 8.244 2.877 1.823 1.895 1.76 4.049 1.757 4.133-.028.55.394 1.02.943 1.051.019.001.038.001.057.001.525 0 .966-.41.997-.941.279-4.729-.864-8.458-3.395-11.083"/></defs><use fill="#5F686D" fill-rule="evenodd" xlink:href="#a"/></svg>