<svg xmlns="http://www.w3.org/2000/svg" xmlns:xlink="http://www.w3.org/1999/xlink" viewBox="0 0 24 24"><defs><path id="a" d="M12 2C6.486 2 2 6.486 2 12s4.486 10 10 10 10-4.486 10-10S17.514 2 12 2m0-2c6.617 0 12 5.383 12 12s-5.383 12-12 12S0 18.617 0 12 5.383 0 12 0zM9.447 7.1052c-.31-.154-.678-.138-.973.044-.294.182-.474.504-.474.85099589v8.00000001c0 .3470041.18.6680041.474.8500041.161.1.343.1499959.526.1499959.153 0 .306-.0349959.447-.1059959l8-4c.339-.169.553-.515.553-.8940041 0-.3789959-.214-.7249959-.553-.8949959zM10 9.6182l4.764 2.382L10 14.3822v-4.764z"/></defs><g fill="none" fill-rule="evenodd"><mask id="b" fill="#fff"><use xlink:href="#a"/></mask><use fill="#292929" xlink:href="#a"/><g fill="#5F686D" mask="url(#b)"><path d="M0 0h24v24H0z"/></g></g></svg>