<?xml version="1.0" encoding="UTF-8"?>
<svg  viewBox="0 0 24 24" version="1.1" xmlns="http://www.w3.org/2000/svg" xmlns:xlink="http://www.w3.org/1999/xlink">
    <title>Icons/Basic icons/authorise</title>
    <defs>
        <path d="M7.1876,4 C10.0136,4 12.3126,6.299 12.3126,9.125 C12.3126,10.9 11.4046,12.465 10.0296,13.385 C12.5586,14.44 14.3746,16.833 14.3746,19.542 L14.3746,19.542 L14.3746,20 C14.3746,20.552 13.9276,21 13.3746,21 L13.3746,21 L0.9996,21 C0.4476,21 -0.0004,20.552 -0.0004,20 L-0.0004,20 L-0.0004,19.542 C-0.0004,16.833 1.8166,14.44 4.3456,13.385 C2.9706,12.465 2.0626,10.9 2.0626,9.125 C2.0626,6.299 4.3616,4 7.1876,4 Z M7.1876,14.813 C4.5766,14.813 2.3406,16.68 2.0356,19 L2.0356,19 L12.3396,19 C12.0346,16.68 9.7986,14.813 7.1876,14.813 Z M17.5,4 C19.947,4 21.937,5.991 21.937,8.438 C21.937,9.917 21.203,11.22 20.087,12.027 C22.366,12.985 24,15.146 24,17.592 L24,17.592 L24,18 C24,18.552 23.552,19 23,19 L23,19 L16.125,19 C15.573,19 15.125,18.552 15.125,18 C15.125,17.448 15.573,17 16.125,17 L16.125,17 L21.951,17 C21.624,15.05 19.719,13.5 17.5,13.5 C16.457,13.5 15.472,13.83 14.652,14.455 C14.213,14.788 13.585,14.705 13.25,14.265 C12.916,13.826 13,13.199 13.44,12.864 C13.893,12.519 14.398,12.254 14.924,12.036 C13.801,11.23 13.063,9.922 13.063,8.438 C13.063,5.991 15.053,4 17.5,4 Z M7.1876,6 C5.4646,6 4.0626,7.402 4.0626,9.125 C4.0626,10.848 5.4646,12.25 7.1876,12.25 C8.9106,12.25 10.3126,10.848 10.3126,9.125 C10.3126,7.402 8.9106,6 7.1876,6 Z M17.5,6 C16.156,6 15.062,7.093 15.062,8.438 C15.062,9.782 16.156,10.875 17.5,10.875 C18.844,10.875 19.938,9.782 19.938,8.438 C19.938,7.093 18.844,6 17.5,6 Z"  id="path-1"></path>
    </defs>
    <g  id="Icons/Basic-icons/authorise" stroke="none" stroke-width="1" fill="none" fill-rule="evenodd">
        <mask id="mask-2" fill="white">
            <use xlink:href="#path-1"></use>
        </mask>
        <use  id="Combined-Shape" fill="#292929" xlink:href="#path-1"></use>
    </g>
</svg>