<?xml version="1.0" encoding="UTF-8"?>
<svg  viewBox="0 0 24 24" version="1.1" xmlns="http://www.w3.org/2000/svg" xmlns:xlink="http://www.w3.org/1999/xlink">
    <title>Icons/Basic icons/refresh</title>
    <defs>
        <path d="M17.4332304,4.46977692 C16.9954771,4.17026147 16.3974061,4.28449973 16.0988507,4.72225308 C15.8002952,5.16000643 15.9135735,5.75711736 16.3513268,6.05567283 C18.6898513,7.65020861 20.1999084,10.5484046 20.1999084,13.4398807 C20.1999084,18.2033283 16.3234873,22.0797494 11.5600396,22.0797494 C6.79563197,22.0797494 2.92017084,18.2033283 2.92017084,13.4398807 C2.92017084,9.03930751 6.23020056,5.40384273 10.4886959,4.87297079 L9.03431797,6.72670264 C8.70792293,7.14429629 8.77992184,7.74716714 9.19751549,8.07452216 C9.37319282,8.21180008 9.58150966,8.27899906 9.7898265,8.27899906 C10.0739822,8.27899906 10.3552579,8.15324097 10.545335,7.91132464 L13.2745736,4.43233748 C13.4339311,4.22978056 13.5049701,3.96962451 13.4713706,3.71426839 C13.4377711,3.45795228 13.3024131,3.2265958 13.0960163,3.07203815 L9.2560746,0.192081889 C8.83176105,-0.12663327 8.23081018,-0.040234582 7.91209502,0.384078973 C7.59337986,0.808392528 7.67977855,1.4093434 8.1040921,1.72805856 L9.84262569,3.03171876 C4.83534175,3.85634623 1.0002,8.20316021 1.0002,13.4398807 C1.0002,19.2621922 5.73676806,23.9997203 11.5600396,23.9997203 C17.3823512,23.9997203 22.1198792,19.2621922 22.1198792,13.4398807 C22.1198792,9.93113396 20.2795872,6.40990745 17.4332304,4.46977692"  id="path-1"></path>
    </defs>
    <g  id="Icons/Basic-icons/refresh" stroke="none" stroke-width="1" fill="none" fill-rule="evenodd">
        <mask id="mask-2" fill="white">
            <use xlink:href="#path-1"></use>
        </mask>
        <use  id="Shape" fill="#292929" xlink:href="#path-1"></use>
    </g>
</svg>