<?xml version="1.0" encoding="UTF-8"?>
<svg width="24px" height="24px" viewBox="0 0 24 24" version="1.1" xmlns="http://www.w3.org/2000/svg" xmlns:xlink="http://www.w3.org/1999/xlink">
    <path d="M15.9746,21.1719 C16.9136,19.8949 17.6476,18.4879 18.1586,16.9999 L20.6466,16.9999 C19.5776,18.8419 17.9426,20.3159 15.9746,21.1719 Z M3.3526,16.9999 L5.8396,16.9999 C6.3496,18.4869 7.0826,19.8939 8.0206,21.1689 C6.0546,20.3129 4.4216,18.8409 3.3526,16.9999 Z M8.0256,2.8279 C7.0866,4.1049 6.3516,5.5119 5.8416,6.9999 L3.3526,6.9999 C4.4226,5.1579 6.0576,3.6849 8.0256,2.8279 Z M20.6466,6.9999 L18.1596,6.9999 C17.6486,5.5129 16.9146,4.1059 15.9766,2.8299 C17.9436,3.6859 19.5776,5.1579 20.6466,6.9999 Z M18.6916,8.9999 L21.5386,8.9999 C21.8376,9.9469 21.9996,10.9549 21.9996,11.9999 C21.9996,13.0449 21.8376,14.0529 21.5386,14.9999 L18.6906,14.9999 C18.8866,14.0179 18.9996,13.0159 18.9996,11.9999 C18.9996,10.9839 18.8866,9.9829 18.6916,8.9999 Z M12.9996,14.9999 L12.9996,8.9999 L16.6526,8.9999 C16.8776,9.9769 16.9996,10.9819 16.9996,11.9999 C16.9996,13.0189 16.8776,14.0239 16.6526,14.9999 L12.9996,14.9999 Z M12.9996,21.5509 L12.9996,16.9999 L16.0116,16.9999 C15.3326,18.6899 14.3146,20.2379 12.9996,21.5509 Z M10.9996,16.9999 L10.9996,21.5549 C9.6836,20.2409 8.6656,18.6919 7.9866,16.9999 L10.9996,16.9999 Z M10.9996,2.4509 L10.9996,6.9999 L7.9886,6.9999 C8.6676,5.3109 9.6846,3.7639 10.9996,2.4509 Z M16.0126,6.9999 L12.9996,6.9999 L12.9996,2.4469 C14.3156,3.7619 15.3326,5.3109 16.0126,6.9999 Z M6.9996,12.0019 C6.9996,10.9829 7.1226,9.9779 7.3476,8.9999 L10.9996,8.9999 L10.9996,14.9999 L7.3466,14.9999 C7.1216,14.0239 6.9996,13.0199 6.9996,12.0019 Z M1.9996,11.9999 C1.9996,10.9549 2.1626,9.9469 2.4606,8.9999 L5.3086,8.9999 C5.1136,9.9829 4.9996,10.9849 4.9996,12.0019 C4.9996,13.0179 5.1136,14.0199 5.3076,14.9999 L2.4616,14.9999 C2.1626,14.0529 1.9996,13.0449 1.9996,11.9999 Z M11.9996,-0.0001 C5.3836,-0.0001 -0.0004,5.3829 -0.0004,11.9999 C-0.0004,18.6169 5.3836,23.9999 11.9996,23.9999 C18.6166,23.9999 23.9996,18.6169 23.9996,11.9999 C23.9996,5.3829 18.6166,-0.0001 11.9996,-0.0001 Z"></path>
</svg>