<svg xmlns="http://www.w3.org/2000/svg" xmlns:xlink="http://www.w3.org/1999/xlink" viewBox="0 0 38 38"><defs><path id="a" d="M13.501 23c.826 0 1.499.673 1.499 1.5s-.673 1.5-1.499 1.5C12.674 26 12 25.327 12 24.5s.674-1.5 1.501-1.5zm11 0c.826 0 1.499.673 1.499 1.5s-.673 1.5-1.499 1.5C23.674 26 23 25.327 23 24.5s.674-1.5 1.501-1.5zM23 10c.553 0 1 .448 1 1s-.447 1-1 1h-8c-.553 0-1-.448-1-1s.447-1 1-1zM10.5391 9h16.922c.292 0 .539.221.539.481V13h-18V9.481c0-.26.247-.481.539-.481zm-.539 11h18v-5h-18v5zm0 7h18v-5h-18v5zm17.461-20h-16.922c-1.4 0-2.539 1.113-2.539 2.481V28c0 .552.447 1 1 1v1c0 .552.447 1 1 1h4c.553 0 1-.448 1-1v-1h8v1c0 .552.447 1 1 1h4c.553 0 1-.448 1-1v-1c.553 0 1-.448 1-1V9.481c0-1.368-1.139-2.481-2.539-2.481zM19 36C9.626 36 2 28.374 2 19 2 9.626 9.626 2 19 2c9.374 0 17 7.626 17 17 0 9.374-7.626 17-17 17m0-36C8.507 0 0 8.507 0 19s8.507 19 19 19 19-8.507 19-19S29.493 0 19 0"/></defs><g fill="none" fill-rule="evenodd"><mask id="b" fill="#fff"><use xlink:href="#a"/></mask><use fill="#292929" xlink:href="#a"/><g fill="#5F686D" mask="url(#b)"><path d="M0 0h38v38H0z"/></g><text fill="#5F686D" font-family="SourceSansPro-SemiBold, Source Sans Pro" font-size="20" font-weight="500" mask="url(#b)"><tspan x="-33.2" y="26">Icons</tspan></text></g></svg>