<?xml version="1.0" encoding="UTF-8"?>
<svg width="24px" height="24px" viewBox="0 0 24 24" version="1.1" xmlns="http://www.w3.org/2000/svg" xmlns:xlink="http://www.w3.org/1999/xlink">
    <title>Icons/Basic icons/alert</title>
    <g id="Icons/Basic-icons/alert" stroke="none" stroke-width="1" fill="none" fill-rule="evenodd">
        <path d="M20.3533991,20 L3.64839907,20 C3.03239907,20 2.51239907,19.731 2.22339907,19.263 C1.93339907,18.795 1.92539907,18.21 2.20139907,17.658 L5.13139907,12.505 C5.40439907,12.026 6.01539907,11.858 6.49539907,12.131 C6.97539907,12.404 7.14339907,13.015 6.87039907,13.495 L4.30639907,18 L19.6963991,18 L17.1313991,13.495 C16.8583991,13.015 17.0263991,12.404 17.5063991,12.131 C17.9863991,11.858 18.5963991,12.025 18.8703991,12.505 L21.7753991,17.611 C22.0763991,18.21 22.0683991,18.795 21.7783991,19.263 C21.4893991,19.731 20.9693991,20 20.3533991,20" id="Fill-1" fill="#222222"></path>
        <path d="M11.9988991,24 C9.79289907,24 7.99889907,22.206 7.99889907,20 C7.99889907,19.448 8.44689907,19 8.99889907,19 C9.55089907,19 9.99889907,19.448 9.99889907,20 C9.99889907,21.103 10.8958991,22 11.9988991,22 C13.1028991,22 14.0008991,21.103 14.0008991,20 C14.0008991,19.448 14.4488991,19 15.0008991,19 C15.5528991,19 16.0008991,19.448 16.0008991,20 C16.0008991,22.206 14.2058991,24 11.9988991,24" id="Fill-4" fill="#222222"></path>
        <path d="M18.0007991,8 C17.4487991,8 17.0007991,7.552 17.0007991,7 C17.0007991,4.243 14.7567991,2 11.9987991,2 C9.24279907,2 7.00079907,4.243 7.00079907,7 C7.00079907,7.552 6.55279907,8 6.00079907,8 C5.44879907,8 5.00079907,7.552 5.00079907,7 C5.00079907,3.14 8.13979907,0 11.9987991,0 C15.8597991,0 19.0007991,3.14 19.0007991,7 C19.0007991,7.552 18.5527991,8 18.0007991,8" id="Fill-6" fill="#222222"></path>
        <path d="M6.00079907,14 C5.44879907,14 5.00079907,13.552 5.00079907,13 L5.00079907,7 C5.00079907,6.448 5.44879907,6 6.00079907,6 C6.55279907,6 7.00079907,6.448 7.00079907,7 L7.00079907,13 C7.00079907,13.552 6.55279907,14 6.00079907,14" id="Fill-8" fill="#222222"></path>
        <path d="M18.0007991,14 C17.4487991,14 17.0007991,13.552 17.0007991,13 L17.0007991,7 C17.0007991,6.448 17.4487991,6 18.0007991,6 C18.5527991,6 19.0007991,6.448 19.0007991,7 L19.0007991,13 C19.0007991,13.552 18.5527991,14 18.0007991,14" id="Fill-10" fill="#222222"></path>
    </g>
</svg>