<?xml version="1.0" encoding="UTF-8"?>
<svg  viewBox="0 0 24 24" version="1.1" xmlns="http://www.w3.org/2000/svg" xmlns:xlink="http://www.w3.org/1999/xlink">
    <title>Icons/Basic icons/search</title>
    <g  id="Icons/Basic-icons/search" stroke="none" stroke-width="1" fill="none" fill-rule="evenodd">
        <path d="M9,0 C13.962,0 18,4.038 18,9.001 C18,11.1225731 17.2618089,13.0750459 16.0288278,14.6151739 L23.707,22.293 C24.098,22.683 24.098,23.317 23.707,23.707 C23.512,23.902 23.256,24 23,24 C22.744,24 22.488,23.902 22.293,23.707 L14.614566,16.0292199 C13.0742287,17.2619917 11.1215731,18 9,18 C4.038,18 0,13.963 0,9.001 C0,4.038 4.038,0 9,0 Z M9,2 C5.14,2 2,5.141 2,9.001 C2,12.86 5.14,16 9,16 C12.86,16 16,12.86 16,9.001 C16,5.141 12.86,2 9,2 Z"  id="Combined-Shape" fill="#292929"></path>
    </g>
</svg>