<?xml version="1.0" encoding="UTF-8"?>
<svg  viewBox="0 0 24 24" version="1.1" xmlns="http://www.w3.org/2000/svg" xmlns:xlink="http://www.w3.org/1999/xlink">
    <title>Icons/Basic icons/warning</title>
    <g  id="Icons/Basic-icons/warning" stroke="none" stroke-width="1" fill="none" fill-rule="evenodd">
        <path d="M12.8762428,1.47925 L23.7912428,21.32425 C23.9342428,21.49725 24.0202428,21.71925 24.0202428,21.96125 C24.0202428,22.51325 23.5722428,22.96125 23.0202428,22.96125 L1.00024278,22.96125 C0.646242778,22.96125 0.319242778,22.77425 0.139242778,22.47025 C-0.0407572216,22.16625 -0.0467572216,21.78925 0.124242778,21.47925 L11.1242428,1.47925 C11.4742428,0.84025 12.5252428,0.84025 12.8762428,1.47925 Z M12.0002428,4.03625 L2.69124278,20.96125 L21.3082428,20.96125 L12.0002428,4.03625 Z M12.7122428,17.25125 C12.8922428,17.44125 13.0022428,17.70125 13.0022428,17.96125 C13.0022428,18.22125 12.8922428,18.48125 12.7022428,18.67125 C12.5222428,18.85125 12.2622428,18.96125 12.0022428,18.96125 C11.7322428,18.96125 11.4822428,18.85125 11.2922428,18.67125 C11.1022428,18.48125 11.0022428,18.22125 11.0022428,17.96125 C11.0022428,17.70125 11.1022428,17.44125 11.2922428,17.25125 C11.6622428,16.88125 12.3422428,16.88125 12.7122428,17.25125 Z M11.9998428,8.96125 C12.5518428,8.96125 12.9998428,9.40925 12.9998428,9.96125 L12.9998428,14.96125 C12.9998428,15.51325 12.5518428,15.96125 11.9998428,15.96125 C11.4478428,15.96125 10.9998428,15.51325 10.9998428,14.96125 L10.9998428,9.96125 C10.9998428,9.40925 11.4478428,8.96125 11.9998428,8.96125 Z"  id="Shape" fill="#222222"></path>
    </g>
</svg>