<?xml version="1.0" encoding="UTF-8"?>
<svg  viewBox="0 0 38 38" version="1.1" xmlns="http://www.w3.org/2000/svg" xmlns:xlink="http://www.w3.org/1999/xlink">
    <title>Icons/Basic icons/transport-car</title>
    <g  id="Icons/Basic-icons/transport-car" stroke="none" stroke-width="1" fill="none" fill-rule="evenodd">
        <path d="M19,0 C29.493,0 38,8.507 38,19 C38,29.493 29.493,38 19,38 C8.507,38 0,29.493 0,19 C0,8.507 8.507,0 19,0 Z M19,2 C9.626,2 2,9.626 2,19 C2,28.374 9.626,36 19,36 C28.374,36 36,28.374 36,19 C36,9.626 28.374,2 19,2 Z M25.6,9 C26.38375,9 27.1587109,9.54316406 27.465105,10.2858948 L27.52,10.437 L28.956,15.009 L28.978,15.004125 L28.978,15.004125 L29,15 L31,15 C31.553,15 32,15.448 32,16 C32,16.5125714 31.6145765,16.9354694 31.1167533,16.9932682 L31,17 L29.519,17 C29.519,17.009 29.521,17.018 29.521,17.027 C30.3068824,17.1484118 30.9235744,17.812827 30.9934071,18.6425766 L31,18.8 L31,25.2 C31,26.1424 30.2987575,26.91874 29.4089827,26.994018 L29.267,27 L29,27 L29,28 C29,28.5125714 28.6145765,28.9354694 28.1167533,28.9932682 L28,29 L24,29 C23.4865,29 23.064398,28.6137143 23.0067176,28.1165685 L23,28 L23,27 L15,27 L15,28 C15,28.5125714 14.6145765,28.9354694 14.1167533,28.9932682 L14,29 L10,29 C9.4865,29 9.06439796,28.6137143 9.00671757,28.1165685 L9,28 L9,27 L8.733,27 C7.8248,27 7.0781475,26.27078 7.00575275,25.347342 L7,25.2 L7,18.8 C7,17.898 7.644,17.156 8.479,17.027 L8.48,17.0135 L8.48,17.0135 L8.481,17 L7,17 C6.447,17 6,16.552 6,16 C6,15.4874286 6.38542347,15.0645306 6.88324672,15.0067318 L7,15 L9,15 L9.022,15.004125 L9.022,15.004125 L9.044,15.009 L10.48,10.438 C10.721875,9.66925 11.4629688,9.07803906 12.2435034,9.00714062 L12.4,9 L25.6,9 Z M29,19 L9,19 L9,25 L29,25 L29,19 Z M25.5,21 C26.327,21 27,21.673 27,22.501 C27,23.328 26.327,24 25.5,24 C24.673,24 24,23.328 24,22.501 C24,21.673 24.673,21 25.5,21 Z M12.5,21 C13.327,21 14,21.673 14,22.501 C14,23.328 13.327,24 12.5,24 C11.673,24 11,23.328 11,22.501 C11,21.673 11.673,21 12.5,21 Z M12.4,11 L10.516,17 L27.484,17 L25.611,11.037 L12.4,11 Z"  id="Combined-Shape" fill="#222222"></path>
    </g>
</svg>