<?xml version="1.0" encoding="UTF-8"?>
<svg  viewBox="0 0 24 24" version="1.1" xmlns="http://www.w3.org/2000/svg" xmlns:xlink="http://www.w3.org/1999/xlink">
    <title>Icons/Basic icons/map-location-filled</title>
    <g  id="Icons/Basic-icons/map-location-filled" stroke="none" stroke-width="1" fill="none" fill-rule="evenodd">
        <path d="M12,0 C16.963,0 21,4.057 21,9.043 C21,16.504 12.992,23.466 12.651,23.759 C12.464,23.919 12.232,24 12,24 C11.768,24 11.536,23.919 11.349,23.759 C11.008,23.466 3,16.504 3,9.043 C3,4.057 7.037,0 12,0 Z M12,5.0742 C9.794,5.0742 8,6.8682 8,9.0742 C8,11.2802 9.794,13.0742 12,13.0742 C14.206,13.0742 16,11.2802 16,9.0742 C16,6.8682 14.206,5.0742 12,5.0742 Z"  id="Combined-Shape" fill="#222222"></path>
    </g>
</svg>