<?xml version="1.0" encoding="UTF-8"?>
<svg  viewBox="0 0 24 24" version="1.1" xmlns="http://www.w3.org/2000/svg" xmlns:xlink="http://www.w3.org/1999/xlink">
    <title>Icons/Basic icons/star</title>
    <g  id="Icons/Basic-icons/star" stroke="none" stroke-width="1" fill="none" fill-rule="evenodd">
        <path d="M11.9984,17.3208 C12.4354,17.3208 12.8584,17.4458 13.1894,17.6738 L17.9474,20.9278 L16.5584,16.0098 C16.3434,15.2668 16.5844,14.3208 17.1324,13.7658 L21.1744,9.6538 L15.9154,9.1638 C15.1344,9.0898 14.3434,8.5148 14.0344,7.7968 L11.9984,3.1068 L9.9624,7.7998 C9.6504,8.5168 8.8614,9.0908 8.0844,9.1638 L2.8254,9.6548 L6.8674,13.7678 C7.4144,14.3208 7.6554,15.2668 7.4394,16.0148 L6.0514,20.9278 L10.8094,17.6728 C11.1384,17.4458 11.5614,17.3208 11.9984,17.3208 M18.4744,23.7108 L12.0594,19.3228 L11.9244,19.3318 L5.5254,23.7098 C4.8764,24.1538 4.1394,24.0558 3.7544,23.5468 C3.5804,23.3178 3.4094,22.9168 3.5814,22.3118 L5.5174,15.4668 C5.5304,15.3948 5.4864,15.2238 5.4384,15.1668 L0.4554,10.0968 C0.0394,9.6748 -0.1026,9.1328 0.0744,8.6488 C0.2524,8.1648 0.7104,7.8428 1.3004,7.7898 L7.8974,7.1728 C7.9594,7.1598 8.0974,7.0598 8.1314,6.9978 L10.7804,0.8888 C11.0214,0.3328 11.4774,-0.0002 11.9994,-0.0002 C12.5224,-0.0002 12.9784,0.3338 13.2184,0.8928 L15.8704,7.0048 C15.9024,7.0618 16.0394,7.1598 16.1084,7.1738 L22.7004,7.7878 C23.2924,7.8438 23.7484,8.1668 23.9254,8.6508 C24.1014,9.1348 23.9584,9.6748 23.5434,10.0968 L18.5574,15.1698 C18.5124,15.2238 18.4684,15.3948 18.4824,15.4678 L20.4174,22.3118 C20.5894,22.9168 20.4184,23.3178 20.2444,23.5468 C20.0264,23.8348 19.6904,23.9998 19.3234,23.9998 C19.0414,23.9998 18.7554,23.9028 18.4744,23.7108 Z"  id="Combined-Shape" fill="#292929"></path>
    </g>
</svg>