<svg xmlns="http://www.w3.org/2000/svg" xmlns:xlink="http://www.w3.org/1999/xlink" viewBox="0 0 24 24"><defs><path id="a" d="M19.7388 18.3247L5.6758 4.2617c1.724-1.413 3.926-2.262 6.324-2.262 5.514 0 10.001 4.486 10.001 10 0 2.398-.85 4.6-2.262 6.325m-17.739-6.325c0-2.398.849-4.6 2.261-6.324l14.064 14.063c-1.725 1.412-3.927 2.262-6.325 2.262-5.514 0-10-4.487-10-10.001m10-12c-6.617 0-12 5.384-12 12 0 6.617 5.383 12 12 12s12-5.383 12-12c0-6.616-5.383-12-12-12"/></defs><use fill="#5F686D" fill-rule="evenodd" xlink:href="#a"/></svg>