<?xml version="1.0" encoding="UTF-8"?>
<svg width="24px" height="24px" viewBox="0 0 24 24" version="1.1" xmlns="http://www.w3.org/2000/svg" xmlns:xlink="http://www.w3.org/1999/xlink">
    <path d="M12,24 C5.383,24 0,18.617 0,12 C0,5.383 5.383,0 12,0 C18.617,0 24,5.383 24,12 C24,18.617 18.617,24 12,24 Z M16.2407434,8.34920863 L10.9435182,14.5293047 L8.70710678,12.2928932 C8.31658249,11.9023689 7.68341751,11.9023689 7.29289322,12.2928932 C6.90236893,12.6834175 6.90236893,13.3165825 7.29289322,13.7071068 L10.2928932,16.7071068 C10.70479,17.1190036 11.3801641,17.093066 11.7592566,16.6507914 L17.7592566,9.65079137 C18.1186788,9.23146553 18.0701172,8.60016555 17.6507914,8.2407434 C17.2314655,7.88132125 16.6001655,7.92988278 16.2407434,8.34920863 Z"></path>
</svg>