<?xml version="1.0" encoding="UTF-8"?>
<svg width="24px" height="24px" viewBox="0 0 24 24" version="1.1" xmlns="http://www.w3.org/2000/svg" xmlns:xlink="http://www.w3.org/1999/xlink">
    <path d="M17.2991,2.0001 C15.5831,2.0001 13.8671,2.6671 12.5661,4.0011 L11.9911,4.5891 L11.4171,4.0011 C10.1151,2.6671 8.4011,2.0001 6.6851,2.0001 C4.9691,2.0001 3.2531,2.6671 1.9511,4.0011 C-0.6509,6.6691 -0.6509,11.0341 1.9521,13.7021 L10.5601,22.5241 C10.9521,22.9271 11.4721,23.1281 11.9911,23.1281 C12.5111,23.1281 13.0301,22.9271 13.4231,22.5241 L22.0311,13.7021 C24.6341,11.0341 24.6341,6.6691 22.0311,4.0011 C20.7301,2.6671 19.0151,2.0001 17.2991,2.0001 M6.6851,4.0001 C7.9341,4.0001 9.1071,4.4961 9.9861,5.3971 L10.5611,5.9861 L11.9911,7.4531 L13.4231,5.9861 L13.9971,5.3971 C14.8771,4.4971 16.0491,4.0001 17.2991,4.0001 C18.5481,4.0001 19.7211,4.4971 20.6001,5.3981 C22.4581,7.3021 22.4581,10.4011 20.6001,12.3051 L11.9911,21.1281 L3.3841,12.3051 C1.5261,10.4011 1.5261,7.3021 3.3831,5.3981 C4.2631,4.4971 5.4351,4.0001 6.6851,4.0001"></path>
</svg>