<?xml version="1.0" encoding="UTF-8"?>
<svg width="24px" height="24px" viewBox="0 0 24 24" version="1.1" xmlns="http://www.w3.org/2000/svg" xmlns:xlink="http://www.w3.org/1999/xlink">
    <path d="M9,2 C5.14,2 2,5.141 2,9.001 C2,12.86 5.14,16 9,16 C12.86,16 16,12.86 16,9.001 C16,5.141 12.86,2 9,2 M16.0289817,14.6149817 L23.707,22.293 C24.098,22.683 24.098,23.317 23.707,23.707 C23.512,23.902 23.256,24 23,24 C22.744,24 22.488,23.902 22.293,23.707 L14.6149292,16.0289292 C13.0745357,17.2618757 11.1217398,18 9,18 C4.038,18 0,13.963 0,9.001 C0,4.038 4.038,0 9,0 C13.962,0 18,4.038 18,9.001 C18,11.1224848 17.2618704,13.0748835 16.0289817,14.6149817 Z"></path>
</svg>