<?xml version="1.0" encoding="UTF-8"?>
<svg  viewBox="0 0 24 24" version="1.1" xmlns="http://www.w3.org/2000/svg" xmlns:xlink="http://www.w3.org/1999/xlink">
    <title>Icons/Basic icons/basket</title>
    <g  id="Icons/Basic-icons/basket" stroke="none" stroke-width="1" fill="none" fill-rule="evenodd">
        <path d="M16.9242936,1.61714557 L16.9624959,1.72753733 L18.735,7.99934394 L23.0004163,8 C23.6014509,8 24.0569385,8.5227567 23.9952292,9.10339356 L23.9758812,9.22015493 L21.0418812,22.2201549 C20.9389673,22.6761472 20.5338778,23 20.0664163,23 L20.0664163,23 L3.93341632,23 C3.46592747,23 3.06082189,22.67611 2.95793529,22.2200835 L2.95793529,22.2200835 L0.0249352937,9.22008353 C-0.116154415,8.59472853 0.359342864,8 1.00041632,8 L1.00041632,8 L5.264,7.99934394 L7.03753679,1.72753733 C7.18779285,1.19608502 7.74042668,0.887064402 8.27187899,1.03732046 C8.76537043,1.17684395 9.06707126,1.66331561 8.98735016,2.15761018 L8.96209586,2.27166267 L7.343,7.99934394 L16.656,7.99934394 L15.0379368,2.27166267 C14.8876807,1.74021036 15.1967013,1.18757653 15.7281537,1.03732046 C16.2216451,0.897796978 16.7334002,1.15428246 16.9242936,1.61714557 Z M21.7480163,10 L2.25001632,10 L4.73201632,21 L19.2660163,21 L21.7480163,10 Z"  id="Combined-shape" fill="#292929"></path>
    </g>
</svg>