<?xml version="1.0" encoding="UTF-8"?>
<svg width="24px" height="24px" viewBox="0 0 24 24" version="1.1" xmlns="http://www.w3.org/2000/svg" xmlns:xlink="http://www.w3.org/1999/xlink">
    <title>Icons/Basic icons/ISA</title>
    <g id="Icons/Basic-icons/ISA" stroke="none" stroke-width="1" fill="none" fill-rule="evenodd">
        <path d="M10,1.9997 C9.448,1.9997 9,2.4487 9,2.9997 C9,3.5507 9.448,3.9997 10,3.9997 C10.552,3.9997 11,3.5507 11,2.9997 C11,2.4487 10.552,1.9997 10,1.9997 L10,1.9997 Z M10,5.9997 C8.346,5.9997 7,4.6537 7,2.9997 C7,1.3457 8.346,-0.0003 10,-0.0003 C11.654,-0.0003 13,1.3457 13,2.9997 C13,4.6537 11.654,5.9997 10,5.9997 L10,5.9997 Z" id="Fill-1" fill="#222222"></path>
        <path d="M22,19.031 L19,19.031 C18.686,19.031 18.389,18.883 18.2,18.631 L15.5,15.031 L10.066,15.031 C9.514,15.031 9.066,14.583 9.066,14.031 L9.066,5.431 C9.066,4.879 9.514,4.431 10.066,4.431 C10.619,4.431 11.066,4.879 11.066,5.431 L11.066,13.031 L16,13.031 C16.314,13.031 16.611,13.179 16.8,13.431 L19.5,17.031 L22,17.031 C22.553,17.031 23,17.479 23,18.031 C23,18.583 22.553,19.031 22,19.031 L22,19.031 Z" id="Fill-4" fill="#222222"></path>
        <path d="M14.4668,10.031 L10.0668,10.031 C9.5138,10.031 9.0668,9.583 9.0668,9.031 C9.0668,8.479 9.5138,8.031 10.0668,8.031 L14.4668,8.031 C15.0198,8.031 15.4668,8.479 15.4668,9.031 C15.4668,9.583 15.0198,10.031 14.4668,10.031 L14.4668,10.031 Z" id="Fill-6" fill="#222222"></path>
        <path d="M9.333,24.031 C4.738,24.031 1,20.293 1,15.698 C1,12.517 2.853,9.569 5.719,8.187 C6.22,7.947 6.815,8.156 7.054,8.654 C7.294,9.151 7.085,9.749 6.588,9.989 C4.408,11.039 3,13.281 3,15.698 C3,19.19 5.841,22.031 9.333,22.031 C11.417,22.031 13.368,21.006 14.552,19.288 C14.864,18.833 15.489,18.719 15.942,19.032 C16.397,19.345 16.512,19.968 16.198,20.423 C14.642,22.682 12.075,24.031 9.333,24.031 L9.333,24.031 Z" id="Fill-8" fill="#222222"></path>
    </g>
</svg>