<?xml version="1.0" encoding="UTF-8"?>
<svg  viewBox="0 0 24 24" version="1.1" xmlns="http://www.w3.org/2000/svg" xmlns:xlink="http://www.w3.org/1999/xlink">
    <title>Icons/Basic icons/chat-question</title>
    <g  id="Icons/Basic-icons/chat-question" stroke="none" stroke-width="1" fill="none" fill-rule="evenodd">
        <path d="M12,1 C18.617,1 24,5.244 24,10.461 C24,15.6361613 18.7892448,19.8617125 12.319197,19.9966743 L12,20 L10.564,20 C8.65348837,22.7788372 4.42563981,22.9865657 4.04645599,22.9993838 L4.026,23 L4,23 C3.622,23 3.275,22.786 3.106,22.446 C2.932,22.098 2.977,21.681 3.218,21.376 C3.234,21.356 4.655,19.548 4.937,17.656 C2.446,16.409 0,13.774 0,10.461 C0,5.244 5.383,1 12,1 Z M12,3 C6.486,3 2,6.347 2,10.461 C2,13.024 4.191,15.239 6.355,16.103 C6.735,16.254 6.984,16.622 6.984,17.031 C6.984,18.358 6.512,19.656 6.004,20.667 C7.16,20.35 8.496,19.734 9.111,18.541 C9.26388889,18.245 9.55188889,18.0477654 9.87667353,18.0075898 L10,18 L12,18 C17.514,18 22,14.618 22,10.461 C22,6.347 17.514,3 12,3 Z M12.71,14.29 C12.89,14.48 13,14.74 13,15 C13,15.26 12.89,15.52 12.71,15.71 C12.52,15.89 12.26,16 12,16 C11.74,16 11.48,15.89 11.29,15.71 C11.11,15.52 11,15.26 11,15 C11,14.74 11.11,14.48 11.29,14.29 C11.67,13.92 12.34,13.92 12.71,14.29 Z M12,6 C13.654,6 15,7.346 15,9 C15,10.2369 14.243705,11.2905925 13.1718057,11.7478228 L13,11.815 L13,12 C13,12.203 12.925,12.38 12.821,12.538 L12.7516667,12.6560741 C12.7392222,12.6751111 12.7256667,12.6933333 12.71,12.71 C12.659,12.758 12.594,12.786 12.534,12.824 C12.377,12.926 12.201,13 12,13 C11.8,13 11.625,12.926 11.468,12.825 C11.408,12.787 11.341,12.759 11.29,12.71 C11.242,12.659 11.214,12.594 11.176,12.534 C11.0944,12.4084 11.03072,12.27064 11.008512,12.117648 L11,12 L11,11 C11,10.448 11.448,10 12,10 C12.551,10 13,9.551 13,9 C13,8.449 12.551,8 12,8 C11.449,8 11,8.449 11,9 C11,9.552 10.552,10 10,10 C9.448,10 9,9.552 9,9 C9,7.346 10.346,6 12,6 Z"  id="Combined-Shape" fill="#222222"></path>
    </g>
</svg>