<?xml version="1.0" encoding="UTF-8"?>
<svg  viewBox="0 0 24 24" version="1.1" xmlns="http://www.w3.org/2000/svg" xmlns:xlink="http://www.w3.org/1999/xlink">
    <title>Icons/Basic icons/logout</title>
    <g  id="Icons/Basic-icons/logout" stroke="none" stroke-width="1" fill="none" fill-rule="evenodd">
        <path d="M22.0012492,3.55271368e-15 C23.1035603,3.55271368e-15 24,0.897 24,2 L24,2 L24,22 C24,23.103 23.1035603,24 22.0012492,24 L22.0012492,24 L9.99875078,24 C8.89643973,24 8,23.103 8,22 L8,22 L8,17 C8,16.448 8.44772017,16 8.99937539,16 C9.55103061,16 9.99875078,16.448 9.99875078,17 L9.99875078,17 L9.99875078,22 L22.0012492,22 L22.0012492,2 L9.99875078,2 L9.99875078,7 C9.99875078,7.552 9.55103061,8 8.99937539,8 C8.44772017,8 8,7.552 8,7 L8,7 L8,2 C8,0.897 8.89643973,3.55271368e-15 9.99875078,3.55271368e-15 L9.99875078,3.55271368e-15 L22.0012492,3.55271368e-15 Z M4.99909716,7 C5.25511494,7 5.51113272,7.09799755 5.70614626,7.29299268 C6.09717341,7.68298293 6.09717341,8.31696708 5.70614626,8.70695733 L5.70614626,8.70695733 L3.41298701,10.9999 L16.9999306,10.9999 C17.5519689,10.9999 18,11.4478888 18,11.999875 C18,12.5518612 17.5519689,12.99985 16.9999306,12.99985 L16.9999306,12.99985 L3.41298701,12.99985 L5.70614626,15.2927927 C6.09717341,15.6827829 6.09717341,16.3167671 5.70614626,16.7067573 C5.31511911,17.0977476 4.68307521,17.0977476 4.29204806,16.7067573 L4.29204806,16.7067573 L0.291770262,12.7068573 C0.199763872,12.6148596 0.126758803,12.5048624 0.0757552608,12.3818655 C-0.0252517536,12.1378716 -0.0252517536,11.8618785 0.0757552608,11.6178846 C0.126758803,11.4948876 0.199763872,11.3848904 0.291770262,11.2928927 L0.291770262,11.2928927 L4.29204806,7.29299268 C4.4870616,7.09799755 4.74307938,7 4.99909716,7 Z"  id="Shape" fill="#292929" transform="translate(12.000000, 12.000000) rotate(180.000000) translate(-12.000000, -12.000000) "></path>
    </g>
</svg>