<?xml version="1.0" encoding="UTF-8"?>
<svg  viewBox="0 0 24 24" version="1.1" xmlns="http://www.w3.org/2000/svg" xmlns:xlink="http://www.w3.org/1999/xlink">
    <title>Icons/Basic icons/map</title>
    <g  id="Icons/Basic-icons/map" stroke="none" stroke-width="1" fill="none" fill-rule="evenodd">
        <path d="M6.00020793,15 C6.55320793,15 7.00020793,15.448 7.00020793,16 C7.00020793,16.552 6.55320793,17 6.00020793,17 L4.65920793,17 L2.51720793,22 L21.4832079,22 L19.3412079,17 L18.0002079,17 C17.4472079,17 17.0002079,16.552 17.0002079,16 C17.0002079,15.448 17.4472079,15 18.0002079,15 L20.0002079,15 C20.4002079,15 20.7622079,15.238 20.9192079,15.606 L23.9192079,22.606 C24.0522079,22.915 24.0202079,23.27 23.8352079,23.55 C23.6492079,23.831 23.3362079,24 23.0002079,24 L1.00020793,24 C0.664207927,24 0.351207927,23.831 0.165207927,23.55 C-0.0197920733,23.27 -0.0517920733,22.915 0.0812079267,22.606 L3.08120793,15.606 C3.23820793,15.238 3.60020793,15 4.00020793,15 L6.00020793,15 Z M12.0002079,1 C15.8592079,1 19.0002079,4.073 19.0002079,7.85 C19.0002079,13.41 12.8992079,18.552 12.6402079,18.769 C12.4542079,18.923 12.2282079,19 12.0002079,19 C11.7722079,19 11.5462079,18.923 11.3602079,18.769 C11.1012079,18.552 5.00020793,13.41 5.00020793,7.85 C5.00020793,4.073 8.14120793,1 12.0002079,1 Z M12.0002079,3 C9.24320793,3 7.00020793,5.175 7.00020793,7.85 C7.00020793,11.519 10.5222079,15.248 12.0002079,16.651 C13.4782079,15.248 17.0002079,11.519 17.0002079,7.85 C17.0002079,5.175 14.7572079,3 12.0002079,3 Z M12.0002079,6 C13.1032079,6 14.0002079,6.897 14.0002079,8 C14.0002079,9.103 13.1032079,10 12.0002079,10 C10.8972079,10 10.0002079,9.103 10.0002079,8 C10.0002079,6.897 10.8972079,6 12.0002079,6 Z"  id="Shape" fill="#292929"></path>
    </g>
</svg>