<?xml version="1.0" encoding="UTF-8"?>
<svg  viewBox="0 0 24 24" version="1.1" xmlns="http://www.w3.org/2000/svg" xmlns:xlink="http://www.w3.org/1999/xlink">
    <title>Icons/Basic icons/menu</title>
    <g  id="Icons/Basic-icons/menu" stroke="none" stroke-width="1" fill="none" fill-rule="evenodd">
        <path d="M23,18 C23.552,18 24,18.448 24,19 C24,19.552 23.552,20 23,20 L1,20 C0.448,20 0,19.552 0,19 C0,18.448 0.448,18 1,18 L23,18 Z M23,11 C23.552,11 24,11.448 24,12 C24,12.552 23.552,13 23,13 L1,13 C0.448,13 0,12.552 0,12 C0,11.448 0.448,11 1,11 L23,11 Z M23,4 C23.552,4 24,4.448 24,5 C24,5.552 23.552,6 23,6 L1,6 C0.448,6 0,5.552 0,5 C0,4.448 0.448,4 1,4 L23,4 Z"  id="Shape" fill="#292929"></path>
    </g>
</svg>