<?xml version="1.0" encoding="UTF-8"?>
<svg  viewBox="0 0 24 24" version="1.1" xmlns="http://www.w3.org/2000/svg" xmlns:xlink="http://www.w3.org/1999/xlink">
    <title>Icons/Basic icons/refresh</title>
    <g  id="Icons/Basic-icons/refresh" stroke="none" stroke-width="1" fill="none" fill-rule="evenodd">
        <path d="M17.4330304,4.47005664 C16.9952771,4.17054119 16.3972061,4.28477945 16.0986507,4.7225328 C15.8000952,5.16028615 15.9133735,5.75739708 16.3511268,6.05595255 C18.6896513,7.65048833 20.1997084,10.5486843 20.1997084,13.4401604 C20.1997084,18.203608 16.3232873,22.0800291 11.5598396,22.0800291 C6.79543197,22.0800291 2.91997084,18.203608 2.91997084,13.4401604 C2.91997084,9.03958723 6.23000056,5.40412245 10.4884959,4.87325051 L9.03411797,6.72698236 C8.70772293,7.14457601 8.77972184,7.74744686 9.19731549,8.07480188 C9.37299282,8.2120798 9.58130966,8.27927878 9.7896265,8.27927878 C10.0737822,8.27927878 10.3550579,8.15352069 10.545135,7.91160436 L13.2743736,4.4326172 C13.4337311,4.23006028 13.5047701,3.96990423 13.4711706,3.71454811 C13.4375711,3.458232 13.3022131,3.22687552 13.0958163,3.07231787 L9.2558746,0.19236161 C8.83156105,-0.126353549 8.23061018,-0.0399548612 7.91189502,0.384358694 C7.59317986,0.808672249 7.67957855,1.40962312 8.1038921,1.72833828 L9.84242569,3.03199848 C4.83514175,3.85662595 1,8.20343993 1,13.4401604 C1,19.2624719 5.73656806,24 11.5598396,24 C17.3821512,24 22.1196792,19.2624719 22.1196792,13.4401604 C22.1196792,9.93141368 20.2793872,6.41018717 17.4330304,4.47005664"  id="Path" fill="#292929"></path>
    </g>
</svg>