<?xml version="1.0" encoding="UTF-8"?>
<svg  viewBox="0 0 24 24" version="1.1" xmlns="http://www.w3.org/2000/svg" xmlns:xlink="http://www.w3.org/1999/xlink">
    <title>Icons/Basic icons/mail-send</title>
    <g  id="Icons/Basic-icons/mail-send" stroke="none" stroke-width="1" fill="none" fill-rule="evenodd">
        <path d="M19.2929,14.2928 C19.6839,13.9028 20.3169,13.9028 20.7069,14.2928 L20.7069,14.2928 L23.7069,17.2928 C23.7989,17.3848 23.8719,17.4948 23.9229,17.6178 C24.0239,17.8618 24.0239,18.1378 23.9229,18.3818 C23.8719,18.5048 23.7989,18.6148 23.7069,18.7078 L23.7069,18.7078 L20.7069,21.7068 C20.5119,21.9028 20.2559,21.9998 19.9999,21.9998 C19.7439,21.9998 19.4879,21.9028 19.2929,21.7068 C18.9019,21.3168 18.9019,20.6838 19.2929,20.2928 L19.2929,20.2928 L20.5859,18.9998 L14.9999,18.9998 C14.4479,18.9998 13.9999,18.5518 13.9999,17.9998 C13.9999,17.4478 14.4479,16.9998 14.9999,16.9998 L14.9999,16.9998 L20.5859,16.9998 L19.2929,15.7068 C18.9019,15.3168 18.9019,14.6838 19.2929,14.2928 Z M21,2.9999 C22.5949286,2.9999 23.9034643,4.25147398 23.9948968,5.82391157 L24,5.9999 L24,11.9999 C24,12.5519 23.552,12.9999 23,12.9999 C22.4874286,12.9999 22.0645306,12.6136143 22.0067318,12.1164685 L22,11.9999 L22,6.5639 L12.659,14.7519 C12.471,14.9179 12.235,14.9999 12,14.9999 C11.8041667,14.9999 11.6076389,14.9429556 11.4387731,14.8279093 L11.341,14.7519 L2,6.5639 L2,17.9999 C2,18.5115429 2.38714796,18.9352367 2.88361625,18.993154 L3,18.9999 L11,18.9999 C11.552,18.9999 12,19.4479 12,19.9999 C12,20.5124714 11.6137143,20.9353694 11.1165685,20.9931682 L11,20.9999 L3,20.9999 C1.40507143,20.9999 0.0965357143,19.748326 0.00510322522,18.1758884 L0,17.9999 L0,5.9999 C0,4.40497143 1.25157398,3.09643571 2.82401157,3.00500323 L3,2.9999 L21,2.9999 Z M20.75,4.9999 L3.25,4.9999 L12,12.6699 L20.75,4.9999 Z"  id="Combined-Shape" fill="#222222"></path>
    </g>
</svg>