<?xml version="1.0" encoding="UTF-8"?>
<svg  viewBox="0 0 24 24" version="1.1" xmlns="http://www.w3.org/2000/svg" xmlns:xlink="http://www.w3.org/1999/xlink">
    <title>Icons/Basic icons/arrow-down</title>
    <g  id="Icons/Basic-icons/arrow-down" stroke="none" stroke-width="1" fill="none" fill-rule="evenodd">
        <path d="M18.7075707,16.291 C18.3165707,15.901 17.6845707,15.901 17.2935707,16.291 L13.0005707,20.585 L13.0005707,1 C13.0005707,0.447 12.5535707,0 12.0005707,0 C11.4475707,0 11.0005707,0.447 11.0005707,1 L11.0005707,20.585 L6.70757066,16.291 C6.31657066,15.901 5.68457066,15.901 5.29357066,16.291 C4.90257066,16.682 4.90257066,17.315 5.29357066,17.705 L11.2925707,23.706 C11.3845707,23.798 11.4935707,23.871 11.6155707,23.922 C11.7355707,23.972 11.8665707,24 12.0005707,24 C12.1345707,24 12.2645707,23.972 12.3855707,23.922 C12.5075707,23.871 12.6165707,23.798 12.7085707,23.706 L18.7075707,17.705 C19.0985707,17.315 19.0985707,16.682 18.7075707,16.291"  id="Shape" fill="#222222" fill-rule="nonzero"></path>
    </g>
</svg>