<?xml version="1.0" encoding="UTF-8"?>
<svg  viewBox="0 0 24 24" version="1.1" xmlns="http://www.w3.org/2000/svg" xmlns:xlink="http://www.w3.org/1999/xlink">
    <title>Icons/Basic icons/map-layers</title>
    <g  id="Icons/Basic-icons/map-layers" stroke="none" stroke-width="1" fill="none" fill-rule="evenodd">
        <path d="M22.5512,13.16525 L23.5512,13.82625 C23.8512,14.02425 24.0212,14.36725 23.9982,14.72625 C23.9752,15.08425 23.7602,15.40325 23.4372,15.56025 L12.4372,20.90025 C12.2992,20.96725 12.1492,21.00025 12.0002,21.00025 C11.8512,21.00025 11.7012,20.96725 11.5632,20.90025 L0.5632,15.56025 C0.2402,15.40325 0.0252,15.08425 0.0022,14.72625 C-0.0208,14.36725 0.1492,14.02425 0.4492,13.82625 L1.4492,13.16525 C1.9092,12.86225 2.5282,12.98725 2.8342,13.44825 C3.0422,13.76325 3.0492,14.15125 2.8872,14.46325 L12.0002,18.88825 L21.1142,14.46425 C20.9512,14.15225 20.9582,13.76425 21.1652,13.44925 C21.4702,12.98825 22.0892,12.86125 22.5512,13.16525 Z M12.479,2.12225 L23.479,8.12225 C23.8,8.29725 24,8.63425 24,9.00025 C24,9.36625 23.8,9.70225 23.479,9.87825 L12.479,15.87825 C12.33,15.95925 12.165,16.00025 12,16.00025 C11.835,16.00025 11.67,15.95925 11.522,15.87825 L0.522,9.87825 C0.2,9.70225 -1.91846539e-13,9.36625 -1.91846539e-13,9.00025 C-1.91846539e-13,8.63425 0.2,8.29725 0.522,8.12225 L11.522,2.12225 C11.819,1.95925 12.182,1.95925 12.479,2.12225 Z M12,4.13925 L3.09,9.00025 L12,13.86125 L20.912,9.00025 L12,4.13925 Z"  id="Shape" fill="#222222"></path>
    </g>
</svg>