<?xml version="1.0" encoding="UTF-8"?>
<svg  viewBox="0 0 24 24" version="1.1" xmlns="http://www.w3.org/2000/svg" xmlns:xlink="http://www.w3.org/1999/xlink">
    <title>Icons/Basic icons/calendar-checked</title>
    <g  id="Icons/Basic-icons/calendar-checked" stroke="none" stroke-width="1" fill="none" fill-rule="evenodd">
        <path d="M17,0 C17.5128358,0 17.9355072,0.38604019 17.9932723,0.883378875 L18,1 L18,2 L22,2 C23.0521809,2 23.9179669,2.81795956 23.9945007,3.85102153 L24,4 L24,22 C24,23.0521809 23.1820404,23.9179669 22.1489785,23.9945007 L22,24 L2,24 C0.947819102,24 0.0820331415,23.1820404 0.00549925439,22.1489785 L0,22 L0,4 C0,2.9478191 0.817959556,2.08203314 1.85102153,2.00549925 L2,2 L6,2 L6,1 C6,0.44771525 6.44771525,0 7,0 C7.51283584,0 7.93550716,0.38604019 7.99327227,0.883378875 L8,1 L8,2 L16,2 L16,1 C16,0.44771525 16.4477153,0 17,0 Z M6,4 L2,4 L2,22 L22,22 L22,4 L18,4 L18,5 C18,5.55228475 17.5522847,6 17,6 C16.4871642,6 16.0644928,5.61395981 16.0067277,5.11662113 L16,5 L16,4 L8,4 L8,5 C8,5.55228475 7.55228475,6 7,6 C6.48716416,6 6.06449284,5.61395981 6.00672773,5.11662113 L6,5 L6,4 Z M16.6516758,10.2415024 C17.0383589,10.5737276 17.1088547,11.1372437 16.8343326,11.551454 L16.7584976,11.6516758 L11.6034976,17.6516758 C11.2442576,18.0698019 10.6221903,18.1135188 10.209001,17.7718717 L10.1175723,17.6861843 L7.27257228,14.6701843 C6.89360315,14.2684371 6.91206845,13.6355414 7.31381569,13.2565723 C7.6846593,12.9067546 8.25245777,12.8955793 8.63568653,13.2119151 L8.72742772,13.2978157 L10.81,15.505 L15.2415024,10.3483242 C15.601413,9.9294175 16.2327692,9.88159178 16.6516758,10.2415024 Z"  id="Combined-Shape" fill="#222222"></path>
    </g>
</svg>