<?xml version="1.0" encoding="UTF-8"?>
<svg  viewBox="0 0 24 24" version="1.1" xmlns="http://www.w3.org/2000/svg" xmlns:xlink="http://www.w3.org/1999/xlink">
    <title>Icons/Basic icons/list-numbered</title>
    <g  id="Icons/Basic-icons/list-numbered" stroke="none" stroke-width="1" fill="none" fill-rule="evenodd">
        <path d="M4.3929,17.6191506 C4.7899,17.9751506 4.9999,18.4541506 4.9999,19.0041506 C4.9999,19.3701506 4.9019,19.7081506 4.7149,19.9981506 C4.9019,20.2901506 4.9999,20.6311506 4.9999,21.0041506 C4.9999,21.5721506 4.7829,22.0631506 4.3719,22.4221506 C3.7959,22.9271506 2.9759,23.0261506 2.4219,23.0261506 C2.1579,23.0261506 1.9549,23.0041506 1.8679,22.9921506 C1.3209,22.9191506 0.9359,22.4171506 1.0089,21.8691506 C1.0819,21.3231506 1.5809,20.9361506 2.1279,21.0091506 C2.2989,21.0301506 2.5029,21.0281506 2.6789,21.0111506 C2.6139,21.0051506 2.5449,21.0051506 2.4959,21.0041506 L2.4479,21.0041506 L2.4479,21.0041506 C1.9079,20.9921506 1.4739,20.5541506 1.4689,20.0141506 C1.4639,19.4731506 1.8879,19.0261506 2.4279,19.0051506 C2.4549,19.0041506 2.5009,19.0051506 2.5469,19.0031506 C2.5699,19.0021506 2.5929,19.0001506 2.6169,18.9981506 C2.4519,18.9821506 2.2669,18.9791506 2.1049,18.9951506 C1.5639,19.0511506 1.0649,18.6521506 1.0079,18.1051506 C0.9499,17.5571506 1.3439,17.0671506 1.8909,17.0061506 C2.1619,16.9761506 3.5539,16.8671506 4.3929,17.6191506 Z M23,19.0007506 C23.552,19.0007506 24,19.4487506 24,20.0007506 C24,20.5527506 23.552,21.0007506 23,21.0007506 L9,21.0007506 C8.448,21.0007506 8,20.5527506 8,20.0007506 C8,19.4487506 8.448,19.0007506 9,19.0007506 L23,19.0007506 Z M4.494,9.51965061 C4.948,9.97065061 5,10.5826506 5,11.0036506 C5,11.6226506 4.623,12.3506506 4.156,13.0156506 C4.634,13.0906506 5,13.5036506 5,14.0036506 C5,14.5556506 4.552,15.0036506 4,15.0036506 L2,15.0036506 C1.596,15.0036506 1.231,14.7596506 1.077,14.3866506 C0.921,14.0126506 1.007,13.5836506 1.292,13.2966506 C2.125,12.4626506 2.925,11.3866506 2.998,11.0066506 C2.818,10.9996506 2.575,11.0006506 2.363,11.0026506 L2,11.0036506 C1.448,11.0036506 1,10.5556506 1,10.0036506 C1,9.45165061 1.448,9.00365061 2,9.00365061 L2.35,9.00265061 C3.25,8.99865061 3.962,8.99265061 4.494,9.51965061 Z M23,11.0007506 C23.552,11.0007506 24,11.4487506 24,12.0007506 C24,12.5527506 23.552,13.0007506 23,13.0007506 L9,13.0007506 C8.448,13.0007506 8,12.5527506 8,12.0007506 C8,11.4487506 8.448,11.0007506 9,11.0007506 L23,11.0007506 Z M3.374,1.07275061 C3.752,1.22575061 4,1.59275061 4,2.00075061 L4,6.00075061 C4,6.55275061 3.552,7.00075061 3,7.00075061 C2.448,7.00075061 2,6.55275061 2,6.00075061 L2,4.00075061 C1.763,3.99075061 1.529,3.89875061 1.345,3.72175061 C0.947,3.33875061 0.935,2.70575061 1.317,2.30775061 L2.279,1.30775061 C2.563,1.01275061 2.995,0.919750606 3.374,1.07275061 Z M23,3.00075061 C23.552,3.00075061 24,3.44875061 24,4.00075061 C24,4.55275061 23.552,5.00075061 23,5.00075061 L9,5.00075061 C8.448,5.00075061 8,4.55275061 8,4.00075061 C8,3.44875061 8.448,3.00075061 9,3.00075061 L23,3.00075061 Z"  id="Combined-Shape" fill="#222222"></path>
    </g>
</svg>