<?xml version="1.0" encoding="UTF-8"?>
<svg  viewBox="0 0 24 24" version="1.1" xmlns="http://www.w3.org/2000/svg" xmlns:xlink="http://www.w3.org/1999/xlink">
    <title>Icons/Basic icons/reply</title>
    <g  id="Icons/Basic-icons/reply" stroke="none" stroke-width="1" fill="none" fill-rule="evenodd">
        <path d="M10.3749,2.2197 C10.6759,1.9787 11.0879,1.9327 11.4329,2.0987 C11.7799,2.2647 11.9999,2.6157 11.9999,2.9997 L11.9999,2.9997 L11.9999,7.1357 C13.8239,7.2897 17.7069,7.9727 20.6029,10.9757 C23.1339,13.6007 24.2769,17.3297 23.9979,22.0587 C23.9669,22.5897 23.5259,22.9997 23.0009,22.9997 C22.9819,22.9997 22.9629,22.9997 22.9439,22.9987 C22.3949,22.9677 21.9729,22.4977 22.0009,21.9477 C22.0009937,21.945075 22.0011461,21.9404295 22.0012976,21.9338345 L22.0010367,21.8237586 C21.9901812,21.3294656 21.839025,19.4737 20.2439,17.8147 C18.5399,16.0417 15.7609,15.0827 11.9999,14.9387 L11.9999,14.9387 L11.9999,18.9997 C11.9999,19.3847 11.7799,19.7347 11.4329,19.9017 C11.2949,19.9677 11.1469,19.9997 10.9999,19.9997 C10.7769,19.9997 10.5559,19.9257 10.3749,19.7807 L10.3749,19.7807 L0.3749,11.7807 C0.1379,11.5907 -0.000100000001,11.3037 -0.000100000001,10.9997 C-0.000100000001,10.6967 0.1379,10.4087 0.3749,10.2197 L0.3749,10.2197 Z M9.9999,5.0807 L2.6009,10.9997 L9.9999,16.9197 L9.9999,13.9087 C9.9999,13.3567 10.4479,12.9087 10.9999,12.9087 C15.6309,12.9087 19.1189,13.9897 21.3779,16.1237 C20.9009,14.6597 20.1659,13.4087 19.1759,12.3777 C16.15944,9.23622 11.6549976,9.0963292 11.0813028,9.09085163 L11.0209,9.0907 C11.0169,9.0907 11.0139,9.0887 11.0099,9.0887 C11.0059,9.0887 11.0029,9.0907 10.9999,9.0907 C10.9579,9.0907 10.9229,9.0717 10.8829,9.0667 C10.7919,9.0567 10.7019,9.0487 10.6199,9.0137 C10.5629,8.9907 10.5199,8.9497 10.4689,8.9167 C10.4149,8.8807 10.3549,8.8547 10.3089,8.8087 C10.2359,8.7387 10.1849,8.6527 10.1359,8.5647 C10.1219,8.5397 10.1009,8.5217 10.0889,8.4957 C10.0509,8.4097 10.0379,8.3127 10.0249,8.2167 C10.0209,8.1797 10.0019,8.1487 10.0009,8.1117 C10.0009,8.1087 10.0029,8.1067 10.0029,8.1047 C10.0029,8.0997 9.9999,8.0957 9.9999,8.0907 L9.9999,8.0907 L9.9999,5.0807 Z"  id="Combined-Shape" fill="#222222"></path>
    </g>
</svg>