<?xml version="1.0" encoding="UTF-8"?>
<svg  viewBox="0 0 24 24" version="1.1" xmlns="http://www.w3.org/2000/svg" xmlns:xlink="http://www.w3.org/1999/xlink">
    <title>Icons/Basic icons/compare-remove</title>
    <g  id="Icons/Basic-icons/compare-remove" stroke="none" stroke-width="1" fill="none" fill-rule="evenodd">
        <path d="M15.5076671,1 C16.8367388,1 18.0370397,1.55998061 18.9309151,2.45908742 L19.1055519,2.64336502 L20.2693286,1.41479588 C20.5939874,1.07118319 21.1209335,1.07118319 21.4464247,1.41479588 C21.7440285,1.72977417 21.7688289,2.22345499 21.5208256,2.56754014 L21.4464247,2.6574259 L2.4205901,22.7425102 C2.25826073,22.9138771 2.0451514,23 1.83204208,23 C1.61893275,23 1.40665588,22.9138771 1.24349405,22.7425102 C0.94589021,22.4275319 0.92108989,21.9338511 1.16909309,21.5897659 L1.24349405,21.4998802 L3.02079254,19.6236319 L3.02079254,8.90924343 C3.02079254,8.46226977 3.33785571,8.09167414 3.74871197,8.03730424 L3.85325084,8.0304386 L8.01554237,8.0304386 C8.44048032,8.0304386 8.79023103,8.36665165 8.84152441,8.79923002 L8.84800068,8.90924343 L8.84800068,13.4719981 L12.0687819,10.0719022 C11.1164496,9.11224734 10.5129173,7.77031238 10.5129173,6.27282895 C10.5129173,3.36574259 12.7530626,1 15.5076671,1 Z M21.3348753,16.8184869 C21.7598132,16.8184869 22.1095639,17.1546999 22.1608573,17.5872783 L22.1673336,17.6972917 L22.1673336,21.2423903 C22.1673336,21.689364 21.8502704,22.0599596 21.4394142,22.1143295 L21.3348753,22.1211952 L17.1725837,22.1211952 C16.7476458,22.1211952 16.3978951,21.7849821 16.3466017,21.3524038 L16.3401254,21.2423903 L16.3401254,17.6972917 C16.3401254,17.250318 16.6571886,16.8797224 17.0680449,16.8253525 L17.1725837,16.8184869 L21.3348753,16.8184869 Z M8.84800068,18.4082448 L8.84800068,21.212511 C8.84800068,21.6976112 8.47589182,22.0913158 8.01554237,22.0913158 L5.35916792,22.0913158 L7.02408453,20.3337062 L7.18308407,20.3337062 L7.18308407,20.1658544 L8.84800068,18.4082448 Z M14.6752088,13.3032676 C15.1355583,13.3032676 15.5076671,13.6978509 15.5076671,14.1820724 L15.5076671,21.212511 C15.5076671,21.6976112 15.1355583,22.0913158 14.6752088,22.0913158 L10.5129173,22.0913158 C10.0525679,22.0913158 9.68045899,21.6976112 9.68045899,21.212511 L9.68045899,17.52944 L11.3453756,15.7718303 L11.3453756,20.3337062 L13.8427505,20.3337062 L13.8427505,15.0608772 L12.0188344,15.0608772 L13.6829185,13.3032676 L14.6752088,13.3032676 Z M20.502417,18.5769753 L18.005042,18.5769753 L18.005042,20.3635855 L20.502417,20.3635855 L20.502417,18.5769753 Z M7.18308407,9.78804825 L4.68570915,9.78804825 L4.68570915,17.8660222 L7.18308407,15.2296077 L7.18308407,9.78804825 Z M20.4940924,6.11288647 L20.502417,6.27282895 L20.502417,6.27282895 C20.502417,7.63409763 20.0062718,8.87233363 19.2021171,9.80913957 L22.7558816,13.5607574 C23.0813728,13.9043701 23.0813728,14.4606535 22.7558816,14.8033874 C22.5935522,14.9756331 22.3804429,15.0608772 22.1673336,15.0608772 C21.9542243,15.0608772 21.7411149,14.9756331 21.5787856,14.8033874 L17.8876654,10.9076456 C17.1800759,11.3145322 16.368429,11.5456579 15.5076671,11.5456579 C15.4560547,11.5456579 15.4061072,11.5395063 15.3553273,11.5386275 L20.4940924,6.11288647 Z M15.5076671,2.75760965 C13.6712641,2.75760965 12.1778339,4.33418551 12.1778339,6.27282895 C12.1778339,7.20814769 12.5289441,8.05286113 13.0956311,8.68047897 L13.2417156,8.83278741 L17.9326182,3.88160102 C17.3265885,3.19349684 16.4666591,2.75760965 15.5076671,2.75760965 Z"  id="Combined-Shape" fill="#222222"></path>
    </g>
</svg>