<?xml version="1.0" encoding="UTF-8"?>
<svg  viewBox="0 0 24 24" version="1.1" xmlns="http://www.w3.org/2000/svg" xmlns:xlink="http://www.w3.org/1999/xlink">
    <title>Icons/Basic icons/arrow-left</title>
    <g  id="Icons/Basic-icons/arrow-left" stroke="none" stroke-width="1" fill="none" fill-rule="evenodd">
        <path d="M22.99875,11.00025 L3.41275,11.00025 L7.70575,6.70725 C8.09675,6.31725 8.09675,5.68325 7.70575,5.29325 C7.31475,4.90225 6.68275,4.90225 6.29175,5.29325 L0.29175,11.29225 C0.19975,11.38525 0.12675,11.49525 0.07575,11.61825 C-0.02525,11.86225 -0.02525,12.13825 0.07575,12.38225 C0.12675,12.50525 0.19975,12.61525 0.29175,12.70825 L6.29175,18.70725 C6.48675,18.90225 6.74275,19.00025 6.99875,19.00025 C7.25475,19.00025 7.51075,18.90225 7.70575,18.70725 C8.09675,18.31725 8.09675,17.68325 7.70575,17.29325 L3.41275,13.00025 L22.99875,13.00025 C23.55075,13.00025 23.99875,12.55225 23.99875,12.00025 C23.99875,11.44825 23.55075,11.00025 22.99875,11.00025"  id="Shape" fill="#222222"></path>
    </g>
</svg>