<?xml version="1.0" encoding="UTF-8"?>
<svg width="24px" height="24px" viewBox="0 0 24 24" xmlns="http://www.w3.org/2000/svg" fill-rule="evenodd" clip-rule="evenodd" stroke-linejoin="round" stroke-miterlimit="1.41"><path d="M21.95 13A10.02 10.02 0 0 1 13 21.95V23a1 1 0 0 1-1 1 1 1 0 0 1-1-1v-1.05A10.02 10.02 0 0 1 2.05 13H1a1 1 0 0 1-1-1 1 1 0 0 1 1-1h1.05A10.02 10.02 0 0 1 11 2.05V1a1 1 0 0 1 1-1 1 1 0 0 1 1 1v1.05c4.72.47 8.48 4.23 8.95 8.95H23a1 1 0 0 1 1 1 1 1 0 0 1-1 1h-1.05zM12 4a8 8 0 0 0 0 16 8 8 0 0 0 0-16z"/><path d="M12 17a5 5 0 1 1 .01-10.01A5 5 0 0 1 12 17zm0-8a3 3 0 1 0 0 6 3 3 0 0 0 0-6z"/></svg>