<?xml version="1.0" encoding="UTF-8"?>
<svg width="24px" height="24px" viewBox="0 0 24 24" version="1.1" xmlns="http://www.w3.org/2000/svg" xmlns:xlink="http://www.w3.org/1999/xlink">
    <path d="M21,19 L3,19 C2.449,19 2,18.551 2,18 L2,6.203 L11.372,13.778 C11.555,13.926 11.777,14 12,14 C12.223,14 12.445,13.926 12.628,13.778 L22,6.203 L22,18 C22,18.551 21.551,19 21,19 Z M20.307,5 L12,11.714 L3.693,5 L20.307,5 Z M21,3 L3,3 C1.346,3 0,4.346 0,6 L0,18 C0,19.654 1.346,21 3,21 L21,21 C22.654,21 24,19.654 24,18 L24,6 C24,4.346 22.654,3 21,3 Z"></path>
</svg>