<svg xmlns="http://www.w3.org/2000/svg" viewBox="0 0 24 24"><path fill="#5F686D" fill-rule="evenodd" d="M16.7383 7.265c-1.126-1.125-1.732-2.624-1.74-4.167l5.9 5.902c-1.571-.008-3.049-.624-4.16-1.735zm-2.548 5.191c-.352-.513-.736-1.008-1.186-1.458-.451-.45-.939-.849-1.453-1.202l2.614-2.612c.325.534.704 1.041 1.159 1.496.451.451.952.833 1.483 1.157l-2.617 2.619zm-.22 6.518l-8.943-8.941c2.426-.215 4.833.649 6.563 2.379 1.75 1.751 2.597 4.154 2.38 6.562zm9.737-9.994L15.0213.293c-.247-.248-.605-.348-.947-.264-.34.084-.611.34-.715.674-.466 1.501-.461 3.062-.054 4.512l-3.58 3.578C8.4873 8.274 7.1473 8 5.7633 8c-1.04 0-2.069.157-3.061.465-.334.104-.589.376-.673.715-.084.34.016.699.264.947l5.084 5.084-7.084 7.082c-.391.39-.391 1.023 0 1.414.195.195.451.293.707.293.256 0 .511-.098.707-.293l7.084-7.082 5.084 5.082c.189.189.445.293.707.293.08 0 .16-.01.24-.029.34-.084.611-.34.715-.674.732-2.358.577-4.831-.342-7.019l3.578-3.579c.694.195 1.418.301 2.159.301.803 0 1.599-.12 2.365-.358.334-.104.589-.375.673-.715.084-.34-.015-.699-.263-.947z"/></svg>