<?xml version="1.0" encoding="UTF-8"?>
<svg width="80px" height="80px" viewBox="0 0 80 80" version="1.1" xmlns="http://www.w3.org/2000/svg" xmlns:xlink="http://www.w3.org/1999/xlink">
    <!-- Generator: Sketch 49.3 (51167) - http://www.bohemiancoding.com/sketch -->
    <title>Ikonit / Kuvitukset / Kauppa</title>
    <desc>Created with Sketch.</desc>
    <defs></defs>
    <g id="Ikonit-/-Kuvitukset-/-Kauppa" stroke="none" stroke-width="1" fill="none" fill-rule="evenodd">
        <g id="Group-2" transform="translate(8.000000, 16.000000)">
            <polygon id="Fill-296" fill="#A5ACB0" points="4 22 6 22 6 15 4 15"></polygon>
            <polyline id="Fill-297" fill="#A5ACB0" points="60 44 18 44 18 42 58 42 58 15 60 15 60 44"></polyline>
            <path d="M1,12 L1,0 L57,0 L57,2 L3,2 L3,12 C3,13.103 3.897,14 5,14 C6.103,14 7,13.103 7,12 L7,7 L9,7 L9,12 C9,14.206 7.206,16 5,16 C2.794,16 1,14.206 1,12 Z" id="Fill-298" fill="#EA7125"></path>
            <path d="M11,16 C8.794,16 7,14.206 7,12 L9,12 C9,13.103 9.897,14 11,14 C12.103,14 13,13.103 13,12 L13,7 L15,7 L15,12 C15,14.206 13.206,16 11,16" id="Fill-299" fill="#EA7125"></path>
            <path d="M17,16 C14.794,16 13,14.206 13,12 L15,12 C15,13.103 15.897,14 17,14 C18.103,14 19,13.103 19,12 L19,7 L21,7 L21,12 C21,14.206 19.206,16 17,16" id="Fill-300" fill="#A5ACB0"></path>
            <path d="M17,16 C14.794,16 13,14.206 13,12 L15,12 C15,13.103 15.897,14 17,14 C18.103,14 19,13.103 19,12 L19,7 L21,7 L21,12 C21,14.206 19.206,16 17,16" id="Fill-301" fill="#EA7125"></path>
            <path d="M23,16 C20.794,16 19,14.206 19,12 L21,12 C21,13.103 21.897,14 23,14 C24.103,14 25,13.103 25,12 L25,7 L27,7 L27,12 C27,14.206 25.206,16 23,16" id="Fill-302" fill="#A5ACB0"></path>
            <path d="M23,16 C20.794,16 19,14.206 19,12 L21,12 C21,13.103 21.897,14 23,14 C24.103,14 25,13.103 25,12 L25,7 L27,7 L27,12 C27,14.206 25.206,16 23,16" id="Fill-303" fill="#EA7125"></path>
            <path d="M29,16 C26.794,16 25,14.206 25,12 L27,12 C27,13.103 27.897,14 29,14 C30.103,14 31,13.103 31,12 L31,7 L33,7 L33,12 C33,14.206 31.206,16 29,16" id="Fill-304" fill="#A5ACB0"></path>
            <path d="M29,16 C26.794,16 25,14.206 25,12 L27,12 C27,13.103 27.897,14 29,14 C30.103,14 31,13.103 31,12 L31,7 L33,7 L33,12 C33,14.206 31.206,16 29,16" id="Fill-305" fill="#EA7125"></path>
            <path d="M35,16 C32.794,16 31,14.206 31,12 L33,12 C33,13.103 33.897,14 35,14 C36.103,14 37,13.103 37,12 L37,7 L39,7 L39,12 C39,14.206 37.206,16 35,16" id="Fill-306" fill="#A5ACB0"></path>
            <path d="M35,16 C32.794,16 31,14.206 31,12 L33,12 C33,13.103 33.897,14 35,14 C36.103,14 37,13.103 37,12 L37,7 L39,7 L39,12 C39,14.206 37.206,16 35,16" id="Fill-307" fill="#EA7125"></path>
            <path d="M41,16 C38.794,16 37,14.206 37,12 L39,12 C39,13.103 39.897,14 41,14 C42.103,14 43,13.103 43,12 L43,7 L45,7 L45,12 C45,14.206 43.206,16 41,16" id="Fill-308" fill="#A5ACB0"></path>
            <path d="M41,16 C38.794,16 37,14.206 37,12 L39,12 C39,13.103 39.897,14 41,14 C42.103,14 43,13.103 43,12 L43,7 L45,7 L45,12 C45,14.206 43.206,16 41,16" id="Fill-309" fill="#EA7125"></path>
            <path d="M47,16 C44.794,16 43,14.206 43,12 L45,12 C45,13.103 45.897,14 47,14 C48.103,14 49,13.103 49,12 L49,7 L51,7 L51,12 C51,14.206 49.206,16 47,16" id="Fill-310" fill="#A5ACB0"></path>
            <path d="M47,16 C44.794,16 43,14.206 43,12 L45,12 C45,13.103 45.897,14 47,14 C48.103,14 49,13.103 49,12 L49,7 L51,7 L51,12 C51,14.206 49.206,16 47,16" id="Fill-311" fill="#EA7125"></path>
            <path d="M53,16 C50.794,16 49,14.206 49,12 L51,12 C51,13.103 51.897,14 53,14 C54.103,14 55,13.103 55,12 L55,7 L57,7 L57,12 C57,14.206 55.206,16 53,16" id="Fill-312" fill="#A5ACB0"></path>
            <path d="M53,16 C50.794,16 49,14.206 49,12 L51,12 C51,13.103 51.897,14 53,14 C54.103,14 55,13.103 55,12 L55,7 L57,7 L57,12 C57,14.206 55.206,16 53,16" id="Fill-313" fill="#EA7125"></path>
            <polyline id="Fill-314" fill="#A5ACB0" points="54 43 52 43 52 24 42 24 42 43 40 43 40 22 54 22 54 43"></polyline>
            <polygon id="Fill-315" fill="#A5ACB0" points="22 37 24 37 24 23 22 23"></polygon>
            <polygon id="Fill-316" fill="#A5ACB0" points="41 34 44 34 44 32 41 32"></polygon>
            <polyline id="Fill-317" fill="#A5ACB0" points="34 38 20 38 20 36 32 36 32 24 14 24 14 22 34 22 34 38"></polyline>
            <path d="M59,16 C56.794,16 55,14.206 55,12 L57,12 C57,13.103 57.897,14 59,14 C60.103,14 61,13.103 61,12 L61,2 L57,2 L57,0 L63,0 L63,12 C63,14.206 61.206,16 59,16" id="Fill-325" fill="#EA7125"></path>
            <polygon id="Fill-326" fill="#A5ACB0" points="8 47 10 47 10 35 8 35"></polygon>
            <path d="M9,24.586 C6.511,27.72 2,34.019 2,37 C2,40.318 4.355,42 9,42 C13.645,42 16,40.318 16,37 C16,34.016 11.489,27.719 9,24.586 Z M9,44 C3.28,44 0,41.449 0,37 C0,32.354 7.39,23.368 8.232,22.359 C8.612,21.904 9.388,21.904 9.768,22.359 C10.61,23.368 18,32.354 18,37 C18,41.449 14.72,44 9,44 L9,44 Z" id="Fill-327" fill="#A5ACB0"></path>
            <polygon id="Fill-328" fill="#A5ACB0" points="0 48 64 48 64 46 0 46"></polygon>
        </g>
        <rect id="bounding-box" x="0" y="0" width="80" height="80"></rect>
    </g>
</svg>