<?xml version="1.0" encoding="UTF-8"?>
<svg width="24px" height="24px" viewBox="0 0 24 24" version="1.1" xmlns="http://www.w3.org/2000/svg" xmlns:xlink="http://www.w3.org/1999/xlink">
    <path fill-rule="evenodd" d="M2,22 L2,5 L8,5 L8,10 C8,10.552 8.448,11 9,11 L14,11 L14,22 L2,22 Z M10,6.414 L12.586,9 L10,9 L10,6.414 Z M15.598,9.184 C15.854,9.365 16.02,9.663 16.02,10 C16.02,10.035 16.003,10.065 16,10.099 L16,22 C16,23.103 15.103,24 14,24 L2,24 C0.897,24 0,23.103 0,22 L0,5 C0,3.897 0.897,3 2,3 L9,3 C9.021,3 9.039,3.011 9.061,3.012 C9.152,3.018 9.24,3.036 9.326,3.066 C9.358,3.077 9.39,3.085 9.42,3.1 C9.522,3.147 9.62,3.208 9.704,3.291 C9.705,3.292 9.707,3.292 9.708,3.294 L15.598,9.184 Z M24.02,7 C24.02,7.035 24.003,7.065 24,7.099 L24,19 C24,20.103 23.103,21 22,21 L18,21 C17.448,21 17,20.552 17,20 C17,19.448 17.448,19 18,19 L22,19 L22,8 L17,8 C16.448,8 16,7.552 16,7 L16,2 L9,2 C8.448,2 8,1.552 8,1 C8,0.448 8.448,0 9,0 L17,0 C17.022,0 17.04,0.011 17.062,0.013 C17.152,0.018 17.24,0.036 17.326,0.066 C17.358,0.077 17.39,0.085 17.42,0.1 C17.523,0.147 17.62,0.208 17.704,0.291 C17.705,0.292 17.707,0.292 17.708,0.294 L23.598,6.184 C23.854,6.365 24.02,6.663 24.02,7 Z M18,6 L20.586,6 L18,3.414 L18,6 Z"></path>
</svg>