<?xml version="1.0" encoding="UTF-8"?>
<svg width="24px" height="24px" viewBox="0 0 24 24" version="1.1" xmlns="http://www.w3.org/2000/svg" xmlns:xlink="http://www.w3.org/1999/xlink">
    <path d="M12,2 C6.486,2 2,6.486 2,12 C2,17.514 6.486,22 12,22 C17.514,22 22,17.514 22,12 C22,6.486 17.514,2 12,2 M12,24 C5.383,24 0,18.617 0,12 C0,5.383 5.383,0 12,0 C18.617,0 24,5.383 24,12 C24,18.617 18.617,24 12,24 Z M11.9971,15.9348 C12.0211,15.9348 12.0461,15.9338 12.0721,15.9318 C12.6161,15.8928 13.0281,15.4148 12.9971,14.8708 C12.9941,14.8158 12.9391,13.5178 14.3891,12.3438 C15.5031,11.4418 16.0001,10.4258 16.0001,9.0508 C16.0001,6.7858 14.2051,4.9438 12.0001,4.9438 C9.7571,4.9438 8.0001,6.7008 8.0001,8.9438 C8.0001,9.4958 8.4481,9.9438 9.0001,9.9438 C9.5521,9.9438 10.0001,9.4958 10.0001,8.9438 C10.0001,7.8028 10.8601,6.9438 12.0001,6.9438 C13.1031,6.9438 14.0001,7.8888 14.0001,9.0508 C14.0001,9.8148 13.7721,10.2698 13.1301,10.7888 C10.8211,12.6588 10.9961,14.9358 11.0041,15.0318 C11.0501,15.5508 11.4841,15.9348 11.9971,15.9348 Z M11.9912,19.0002 C12.4692,19.0002 12.8912,18.6562 12.9752,18.1702 L12.9852,18.1132 C13.0792,17.5692 12.7092,17.0802 12.1652,16.9862 C11.6172,16.8912 11.0992,17.2862 11.0052,17.8302 C10.9112,18.3742 11.2762,18.8912 11.8202,18.9852 C11.8782,18.9952 11.9352,19.0002 11.9912,19.0002 Z"></path>
</svg>