<?xml version="1.0" encoding="UTF-8"?>
<svg width="24px" height="24px" viewBox="0 0 24 24" version="1.1" xmlns="http://www.w3.org/2000/svg" xmlns:xlink="http://www.w3.org/1999/xlink">
    <path d="M23.9229,18.3818 C24.0239,18.1378 24.0239,17.8618 23.9229,17.6178 C23.8719,17.4948 23.7989,17.3848 23.7069,17.2928 L20.7069,14.2928 C20.3169,13.9028 19.6839,13.9028 19.2929,14.2928 C18.9019,14.6838 18.9019,15.3168 19.2929,15.7068 L20.5859,16.9998 L16.9999,16.9998 L14.9999,16.9998 C14.4479,16.9998 13.9999,17.4478 13.9999,17.9998 C13.9999,18.5518 14.4479,18.9998 14.9999,18.9998 L16.9999,18.9998 L20.5859,18.9998 L19.2929,20.2928 C18.9019,20.6838 18.9019,21.3168 19.2929,21.7068 C19.4879,21.9028 19.7439,21.9998 19.9999,21.9998 C20.2559,21.9998 20.5119,21.9028 20.7069,21.7068 L23.7069,18.7078 C23.7989,18.6148 23.8719,18.5048 23.9229,18.3818 M12,12.6699 L3.25,4.9999 L20.75,4.9999 L12,12.6699 Z M22,11.9999 C22,12.5519 22.448,12.9999 23,12.9999 C23.552,12.9999 24,12.5519 24,11.9999 L24,5.9999 C24,4.3459 22.654,2.9999 21,2.9999 L3,2.9999 C1.346,2.9999 0,4.3459 0,5.9999 L0,17.9999 C0,19.6539 1.346,20.9999 3,20.9999 L11,20.9999 C11.552,20.9999 12,20.5519 12,19.9999 C12,19.4479 11.552,18.9999 11,18.9999 L3,18.9999 C2.449,18.9999 2,18.5509 2,17.9999 L2,6.5639 L11.341,14.7519 C11.529,14.9179 11.765,14.9999 12,14.9999 C12.235,14.9999 12.471,14.9179 12.659,14.7519 L22,6.5639 L22,11.9999 Z"></path>
</svg>