<?xml version="1.0" encoding="UTF-8"?>
<svg width="24px" height="24px" viewBox="0 0 24 24" version="1.1" xmlns="http://www.w3.org/2000/svg" xmlns:xlink="http://www.w3.org/1999/xlink">
    <path d="M2.1243,4.601 C1.9593,4.836 1.8403,5.792 3.0813,8.042 C4.2823,10.221 6.2813,12.758 8.7093,15.185 C13.1333,19.613 17.3153,22.001 19.0033,22.001 C19.2233,22.001 19.3453,21.958 19.3823,21.921 L21.5893,19.409 L17.8583,16.192 L14.4543,17.894 C14.0683,18.087 13.6033,18.011 13.3003,17.707 L6.3003,10.707 C5.9963,10.403 5.9203,9.938 6.1123,9.553 L7.8133,6.15 L4.5803,2.42 L2.1243,4.601 Z M19.0033,24.001 C16.4243,24.001 11.7193,21.027 7.2953,16.6 C4.7383,14.043 2.6193,11.347 1.3293,9.008 C-0.1897,6.253 -0.4077,4.304 0.6813,3.215 L4.0083,0.252 C4.2083,0.075 4.4723,-0.015 4.7373,0.002 C5.0043,0.019 5.2533,0.143 5.4283,0.345 L9.7623,5.345 C10.0273,5.65 10.0823,6.085 9.9013,6.447 L8.2243,9.803 L14.2043,15.783 L17.5603,14.105 C17.9213,13.925 18.3533,13.978 18.6603,14.243 L23.6603,18.553 C23.8623,18.727 23.9863,18.975 24.0043,19.242 C24.0233,19.508 23.9343,19.77 23.7583,19.971 L20.8593,23.268 C20.4913,23.64 19.9343,24.001 19.0033,24.001 Z"></path>
</svg>