<?xml version="1.0" encoding="UTF-8"?>
<svg width="24px" height="24px" viewBox="0 0 24 24" version="1.1" xmlns="http://www.w3.org/2000/svg" xmlns:xlink="http://www.w3.org/1999/xlink">
    <path d="M22.0001,2 C23.1021,2 24.0001,2.897 24.0001,4 L24.0001,22 C24.0001,23.103 23.1021,24 22.0001,24 L2.0001,24 C0.8971,24 0.0001,23.103 0.0001,22 L0.0001,4 C0.0001,2.897 0.8971,2 2.0001,2 L7.0001,2 L7.0001,1 C7.0001,0.448 7.4471,0 8.0001,0 C8.5531,0 9.0001,0.448 9.0001,1 L9.0001,2 L15.0001,2 L15.0001,1 C15.0001,0.448 15.4471,0 16.0001,0 C16.5531,0 17.0001,0.448 17.0001,1 L17.0001,2 L22.0001,2 Z M21.9971,22 L22.0001,4 L17.0001,4 L17.0001,5 C17.0001,5.552 16.5531,6 16.0001,6 C15.4471,6 15.0001,5.552 15.0001,5 L15.0001,4 L9.0001,4 L9.0001,5 C9.0001,5.552 8.5531,6 8.0001,6 C7.4471,6 7.0001,5.552 7.0001,5 L7.0001,4 L2.0001,4 L2.0001,22 L21.9971,22 Z M17,8 L19,8 C19.553,8 20,8.448 20,9 L20,11 C20,11.552 19.553,12 19,12 L17,12 C16.447,12 16,11.552 16,11 L16,9 C16,8.448 16.447,8 17,8 Z M19,14 C19.553,14 20,14.448 20,15 L20,17 C20,17.552 19.553,18 19,18 L17,18 C16.447,18 16,17.552 16,17 L16,15 C16,14.448 16.447,14 17,14 L19,14 Z M7,8 C7.553,8 8,8.448 8,9 L8,11 C8,11.552 7.553,12 7,12 L5,12 C4.447,12 4,11.552 4,11 L4,9 C4,8.448 4.447,8 5,8 L7,8 Z M7,14 C7.553,14 8,14.448 8,15 L8,17 C8,17.552 7.553,18 7,18 L5,18 C4.447,18 4,17.552 4,17 L4,15 C4,14.448 4.447,14 5,14 L7,14 Z M13,8 C13.553,8 14,8.448 14,9 L14,11 C14,11.552 13.553,12 13,12 L11,12 C10.447,12 10,11.552 10,11 L10,9 C10,8.448 10.447,8 11,8 L13,8 Z M13,14 C13.553,14 14,14.448 14,15 L14,17 C14,17.552 13.553,18 13,18 L11,18 C10.447,18 10,17.552 10,17 L10,15 C10,14.448 10.447,14 11,14 L13,14 Z"></path>
</svg>