<?xml version="1.0" encoding="UTF-8"?>
<svg width="24px" height="24px" viewBox="0 0 25 24" xmlns="http://www.w3.org/2000/svg" fill-rule="evenodd" clip-rule="evenodd" stroke-linejoin="round" stroke-miterlimit="1.41"><path d="M14 24H2a2 2 0 0 1-2-2V2C0 .9.9 0 2 0h12c1.1 0 2 .9 2 2v5a1 1 0 0 1-1 .97A1 1 0 0 1 14 7V2H2v20h12v-5a1 1 0 0 1 1-1 1 1 0 0 1 1 1v5a2 2 0 0 1-2 2z"/><path d="M18.3 15.3l2.29-2.3H7a1 1 0 0 1-1-1 1 1 0 0 1 1-1h13.59l-2.3-2.3a1 1 0 0 1 1.42-1.4l4 4a1 1 0 0 1 0 1.4l-4 4a1 1 0 1 1-1.42-1.4z"/></svg>