<svg xmlns="http://www.w3.org/2000/svg" xmlns:xlink="http://www.w3.org/1999/xlink" viewBox="0 0 38 38"><defs><path d="M26 26.5c-1.654 0-3-1.346-3-3s1.346-3 3-3 3 1.346 3 3-1.346 3-3 3M19 0c10.493 0 19 8.507 19 19s-8.507 19-19 19S0 29.493 0 19 8.507 0 19 0zm0 2C9.626 2 2 9.626 2 19c0 9.374 7.626 17 17 17 9.374 0 17-7.626 17-17 0-9.374-7.626-17-17-17zm7 16.5c2.757 0 5 2.243 5 5s-2.243 5-5 5-5-2.243-5-5 2.243-5 5-5zm-14 0c2.757 0 5 2.243 5 5s-2.243 5-5 5-5-2.243-5-5 2.243-5 5-5zm0 2c-1.654 0-3 1.346-3 3s1.346 3 3 3 3-1.346 3-3-1.346-3-3-3zm8.3748-9.7805c.433-.345 1.061-.275 1.406.156l3.7 4.624h.519c.553 0 1 .448 1 1 0 .553-.447 1-1 1h-1c-.303 0-.591-.138-.781-.375l-3.375-4.219-3.462 2.77 2.418 3.224c.13.174.2.384.2.6v5c0 .553-.447 1-1 1-.552 0-1-.447-1-1v-4.666l-2.8-3.733c-.324-.433-.247-1.044.175-1.381zM25 7.5c1.103 0 2 .897 2 2s-.897 2-2 2-2-.897-2-2 .897-2 2-2z" id="a"/></defs><g fill="none" fill-rule="evenodd"><mask id="b" fill="#fff"><use xlink:href="#a"/></mask><use fill="#292929" xlink:href="#a"/><g mask="url(#b)" fill="#5F686D"><path d="M0 0h38v38H0z"/></g></g></svg>