<?xml version="1.0" encoding="UTF-8"?>
<svg width="24px" height="24px" viewBox="0 0 25 24" xmlns="http://www.w3.org/2000/svg" fill-rule="evenodd" clip-rule="evenodd" stroke-linejoin="round" stroke-miterlimit="1.41"><path d="M12 18a1 1 0 0 1-.64-.23C11.1 17.55 5 12.41 5 6.85A6.93 6.93 0 0 1 12 0c3.86 0 7 3.07 7 6.85 0 5.56-6.1 10.7-6.36 10.92A1 1 0 0 1 12 18zm0-16C9.24 2 7 4.17 7 6.85c0 3.67 3.52 7.4 5 8.8 1.48-1.4 5-5.13 5-8.8A4.93 4.93 0 0 0 12 2z"/><circle cx="12" cy="7" r="2"/><path d="M23 23H1a1 1 0 0 1-.92-1.4l3-7A1 1 0 0 1 4 14h2a1 1 0 0 1 1 1 1 1 0 0 1-1 1H4.66l-2.14 5h18.96l-2.14-5H18a1 1 0 0 1-1-1 1 1 0 0 1 1-1h2a1 1 0 0 1 .92.6l3 7A1 1 0 0 1 23 23H23z"/></svg>