<svg xmlns="http://www.w3.org/2000/svg" xmlns:xlink="http://www.w3.org/1999/xlink" viewBox="0 0 24 24"><defs><path id="a" d="M12 2C6.486 2 2 6.486 2 12s4.486 10 10 10 10-4.486 10-10S17.514 2 12 2m0-2c6.617 0 12 5.383 12 12s-5.383 12-12 12S0 18.617 0 12 5.383 0 12 0zM8.706875 9.292875c-.39-.391-1.024-.391-1.414 0-.195.195-.293.451-.293.707 0 .256.098.512.293.707l4 4c.39.391 1.024.391 1.414 0l4-4c.391-.391.391-1.023 0-1.414-.39-.391-1.024-.391-1.414 0l-3.293 3.293z"/></defs><g fill="none" fill-rule="evenodd"><mask id="b" fill="#fff"><use xlink:href="#a"/></mask><use fill="#292929" xlink:href="#a"/><g fill="#5F686D" mask="url(#b)"><path d="M0 0h24v24H0z"/></g></g></svg>