<?xml version="1.0" encoding="UTF-8"?>
<svg width="24px" height="24px" viewBox="0 0 25 20" xmlns="http://www.w3.org/2000/svg" fill-rule="evenodd" clip-rule="evenodd" stroke-linejoin="round" stroke-miterlimit="1.41"><path d="M12 14a1 1 0 0 1-.48-.12l-11-6a1 1 0 0 1 0-1.76l11-6a1 1 0 0 1 .96 0l11 6a1 1 0 0 1 0 1.76l-11 6A1 1 0 0 1 12 14zM3.09 7L12 11.86 20.91 7 12 2.14 3.09 7z"/><path d="M12 19a1 1 0 0 1-.44-.1l-11-5.34a1 1 0 0 1-.11-1.73l1-.66a1 1 0 0 1 1.44 1.3L12 16.88l9.11-4.43a1 1 0 0 1 .9-1.46 1 1 0 0 1 .54.16l1 .67a1 1 0 0 1-.11 1.73l-11 5.34-.44.1z"/></svg>