<?xml version="1.0" encoding="UTF-8"?>
<svg width="24px" height="24px" viewBox="0 0 24 24" xmlns="http://www.w3.org/2000/svg" fill-rule="evenodd" clip-rule="evenodd" stroke-linejoin="round" stroke-miterlimit="1.41"><path d="M11.94 23.82a.99.99 0 0 1-.17-.02l-9.99-2C.78 21.6 0 20.64 0 19.62V1.82C0 1.26.24.74.65.4c.43-.34 1-.47 1.53-.36l9.59 1.92a1 1 0 0 1 .46 0l9.6-1.92c.54-.11 1.1.02 1.51.36.42.34.66.86.66 1.42v17.8c0 1.02-.78 1.98-1.78 2.18l-9.99 2c-.1.02-.2.03-.29.02l-.17-.02h.03l.14.02zM11 21.6V3.84l-9-1.8v17.58c0 .08.1.2.18.22L11 21.6zm2-17.76V21.6l8.82-1.76c.08-.02.18-.14.18-.22V2.04l-9 1.8z"/><path d="M9 7.82a1 1 0 0 1-.2-.02l-5-1a1 1 0 0 1 .4-1.96l5 1a1 1 0 0 1 .78 1.18c-.09.44-.46.76-.98.8zM9 12.82a1 1 0 0 1-.2-.02l-5-1a1 1 0 0 1 .4-1.96l5 1a1 1 0 0 1 .78 1.18c-.09.44-.46.76-.98.8zM9 17.82a1 1 0 0 1-.2-.02l-5-1a1 1 0 0 1 .4-1.96l5 1a1 1 0 0 1 .78 1.18c-.09.44-.46.76-.98.8zM15 17.82a1 1 0 0 1-.2-1.98l5-1a1 1 0 0 1 1.2.98 1 1 0 0 1-.8.98l-5 1-.2.02zM15 12.82a1 1 0 0 1-.2-1.98l5-1a1 1 0 0 1 1.2.98 1 1 0 0 1-.8.98l-5 1-.2.02zM15 7.82a1 1 0 0 1-.2-1.98l5-1a1 1 0 0 1 1.2.98 1 1 0 0 1-.8.98l-5 1-.2.02z"/></svg>