<?xml version="1.0" encoding="UTF-8"?>
<svg width="24px" height="24px" viewBox="0 0 24 24" version="1.1" xmlns="http://www.w3.org/2000/svg" xmlns:xlink="http://www.w3.org/1999/xlink">
    <path d="M21.7071,18.293 C22.0981,18.683 22.0981,19.317 21.7071,19.707 L17.7071,23.706 C17.6151,23.799 17.5041,23.872 17.3821,23.923 C17.2601,23.973 17.1301,24 17.0001,24 C16.8701,24 16.7401,23.973 16.6181,23.923 C16.4961,23.872 16.3851,23.799 16.2921,23.706 L12.2931,19.707 C11.9021,19.317 11.9021,18.683 12.2931,18.293 C12.6841,17.902 13.3161,17.902 13.7071,18.293 L16.0001,20.586 L16.0001,1 C16.0001,0.448 16.4481,0 17.0001,0 C17.5521,0 18.0001,0.448 18.0001,1 L18.0001,20.586 L20.2931,18.293 C20.6841,17.902 21.3161,17.902 21.7071,18.293 Z M11.7071,4.293 C12.0981,4.683 12.0981,5.317 11.7071,5.707 C11.5121,5.902 11.2561,6 11.0001,6 C10.7441,6 10.4881,5.902 10.2931,5.707 L8.0001,3.414 L8.0001,23 C8.0001,23.552 7.5521,24 7.0001,24 C6.4481,24 6.0001,23.552 6.0001,23 L6.0001,3.414 L3.7071,5.707 C3.3161,6.098 2.6841,6.098 2.2931,5.707 C1.9021,5.317 1.9021,4.683 2.2931,4.293 L6.2921,0.294 C6.3851,0.201 6.4951,0.128 6.6181,0.077 C6.8621,-0.024 7.1381,-0.024 7.3821,0.077 C7.5051,0.128 7.6151,0.201 7.7071,0.294 L11.7071,4.293 Z"></path>
</svg>