<svg xmlns="http://www.w3.org/2000/svg" xmlns:xlink="http://www.w3.org/1999/xlink" viewBox="0 0 38 38"><defs><path id="a" d="M25.5 21c.827 0 1.5.673 1.5 1.501 0 .827-.673 1.499-1.5 1.499s-1.5-.672-1.5-1.499c0-.828.673-1.501 1.5-1.501zm-13 0c.827 0 1.5.673 1.5 1.501 0 .827-.673 1.499-1.5 1.499s-1.5-.672-1.5-1.499c0-.828.673-1.501 1.5-1.501zM9 25h20v-6H9v6zm3.4-14l13.211.037L27.484 17H10.516l1.884-6zM29 15c-.016 0-.028.008-.044.009l-1.436-4.572C27.262 9.618 26.436 9 25.6 9H12.4c-.836 0-1.662.618-1.92 1.438l-1.436 4.571C9.028 15.008 9.016 15 9 15H7c-.553 0-1 .448-1 1s.447 1 1 1h1.481c0 .009-.002.018-.002.027C7.644 17.156 7 17.898 7 18.8v6.4c0 .992.777 1.8 1.733 1.8H9v1c0 .552.447 1 1 1h4c.553 0 1-.448 1-1v-1h8v1c0 .552.447 1 1 1h4c.553 0 1-.448 1-1v-1h.267c.956 0 1.733-.808 1.733-1.8v-6.4c0-.902-.644-1.644-1.479-1.773 0-.009-.002-.018-.002-.027H31c.553 0 1-.448 1-1s-.447-1-1-1h-2zM19 36C9.626 36 2 28.374 2 19 2 9.626 9.626 2 19 2c9.374 0 17 7.626 17 17 0 9.374-7.626 17-17 17m0-36C8.507 0 0 8.507 0 19s8.507 19 19 19 19-8.507 19-19S29.493 0 19 0"/></defs><g fill="none" fill-rule="evenodd"><mask id="b" fill="#fff"><use xlink:href="#a"/></mask><use fill="#292929" xlink:href="#a"/><g fill="#5F686D" mask="url(#b)"><path d="M0 0h38v38H0z"/></g></g></svg>