<?xml version="1.0" encoding="UTF-8"?>
<svg width="24px" height="24px" viewBox="0 0 25 20" xmlns="http://www.w3.org/2000/svg" fill-rule="evenodd" clip-rule="evenodd" stroke-linejoin="round" stroke-miterlimit="1.41"><path d="M2.73 6.22A9.87 9.87 0 0 1 12 0c4.58 0 8.67 2.96 9.96 7.19A1 1 0 0 1 21 8.47a1 1 0 0 1-.96-.7A8.37 8.37 0 0 0 12 2a7.79 7.79 0 0 0-7.49 5.12L6.55 6.1a1 1 0 0 1 .9 1.8l-4 2a1 1 0 0 1-1.34-.45l-2-4A1 1 0 0 1 1 4a1 1 0 0 1 .89.55l.83 1.67zM21.27 13.78A9.88 9.88 0 0 1 12 20c-4.58 0-8.67-2.96-9.96-7.2A1 1 0 0 1 3 11.53a1 1 0 0 1 .96.7A8.36 8.36 0 0 0 12 18a7.79 7.79 0 0 0 7.48-5.12l-2.03 1.01A1 1 0 0 1 16 13a1 1 0 0 1 .55-.9l4-2a1 1 0 0 1 1.34.45l2 4A1 1 0 0 1 23 16a1 1 0 0 1-.9-.55l-.83-1.67z"/></svg>