<svg xmlns="http://www.w3.org/2000/svg" xmlns:xlink="http://www.w3.org/1999/xlink" viewBox="0 0 24 24"><defs><path id="a" d="M11.6248997 6.24279116c0-1.92759955 1.5697337-3.49519411 3.4999636-3.49519411s3.4999635 1.56759456 3.4999635 3.49519411c0 1.92759955-1.5697336 3.49519411-3.4999635 3.49519411-1.9302299 0-3.4999636-1.56759456-3.4999636-3.49519411zm11.1185092 7.24641114l-3.7353361-3.73111966c.8461162-.93059543 1.3667358-2.16177756 1.3667358-3.51529148C20.3748086 3.35139184 18.0202081 1 15.1248633 1c-2.8953449 0-5.24994533 2.35139184-5.24994533 5.24279116 0 2.89139933 2.35460043 5.24279114 5.24994533 5.24279114.9056155 0 1.7578567-.2306828 2.5015989-.6352515l3.8797096 3.8744227c.1706232.1703907.3946209.2560229.6186186.2560229.2239976 0 .4479953-.0856322.6186185-.2560229.3421215-.3416553.3421215-.8938959 0-1.2355512zm-4.993573 6.7632006h2.6249727v-1.7764324h-2.6249727v1.7764324zm3.4999636-3.5240294h-4.3749544c-.48387 0-.8749909.3914617-.8749909.8737985v3.5240295c0 .4823368.3911209.8737985.8749909.8737985h4.3749544c.4838699 0 .8749909-.3914617.8749909-.8737985V17.602172c0-.4823368-.391121-.8737985-.8749909-.8737985zm-10.4998906 3.4951941h2.6249726v-5.2427912h-2.6249726v5.2427912zm3.4999635-6.9903882H9.87491797c-.48386996 0-.87499089.3914617-.87499089.8737985v6.9903882c0 .4823368.39112093.8737985.87499089.8737985h4.37495443c.48387 0 .8749909-.3914617.8749909-.8737985v-6.9903882c0-.4823368-.3911209-.8737985-.8749909-.8737985zM3.74998177 20.2235676h2.62497266V9.73798527H3.74998177V20.2235676zM7.24994531 7.99038822H2.87499089C2.39112093 7.99038822 2 8.38184996 2 8.86418674V21.0973661c0 .4823368.39112093.8737985.87499089.8737985h4.37495442c.48386996 0 .87499089-.3914617.87499089-.8737985V8.86418674c0-.48233678-.39112093-.87379852-.87499089-.87379852z"/></defs><use fill="#5F686D" fill-rule="evenodd" xlink:href="#a"/></svg>