<?xml version="1.0" encoding="UTF-8"?>
<svg width="24px" height="24px" viewBox="0 0 24 24" xmlns="http://www.w3.org/2000/svg" fill-rule="evenodd" clip-rule="evenodd" stroke-linejoin="round" stroke-miterlimit="1.41"><path d="M12 24a3.4 3.4 0 0 1-2.41-1L1 14.4a3.97 3.97 0 0 1-.98-2.98c.07-.74.44-1.42 1.02-1.9L9.59.97a3.5 3.5 0 0 1 4.83 0L23 9.57a3.45 3.45 0 0 1 0 4.83L14.42 23c-.64.64-1.5 1-2.42 1zM2.46 13.03L11 21.58c.54.54 1.47.54 2 0l8.59-8.6c.55-.54.55-1.45 0-2L13 2.38a1.45 1.45 0 0 0-2 0l-8.59 8.6-.1.09a.84.84 0 0 0-.31.59c-.05.4.1.87.45 1.37z"/><path d="M14.59 12.97H9.02l-.02 2a1 1 0 0 1-1 1 1 1 0 0 1-1-1v-1.99c0-1.1.9-2.01 2.02-2.01h5.57l-1.3-1.3a1 1 0 0 1 .71-1.7 1 1 0 0 1 .71.29l3 3a1 1 0 0 1 0 1.41l-3 3a1 1 0 0 1-1.41 0 1 1 0 0 1 0-1.41l1.29-1.3z"/></svg>