<?xml version="1.0" encoding="UTF-8"?>
<svg width="80px" height="80px" viewBox="0 0 80 80" version="1.1" xmlns="http://www.w3.org/2000/svg" xmlns:xlink="http://www.w3.org/1999/xlink">
    <title>Icons/Illustrative Icons/User 2</title>
    <g id="Icons/Illustrative-Icons/User-2" stroke="none" stroke-width="1" fill="none" fill-rule="evenodd">
        <g id="Group-2" transform="translate(8.000000, 8.000000)">
            <polygon id="Fill-226" fill="#E97025" points="25 44 27 44 27 38 25 38"></polygon>
            <polygon id="Fill-227" fill="#E97025" points="37 44 39 44 39 38 37 38"></polygon>
            <path d="M43,25 L42,25 C40.346,25 39,23.654 39,22 L39,20 C39,19.448 38.552,19 38,19 L37,19 L37,17.618 L34.236,19 L26,19 C25.448,19 25,19.448 25,20 L25,22 C25,23.654 23.654,25 22,25 L22,23 C22.552,23 23,22.552 23,22 L23,20 C23,18.346 24.346,17 26,17 L33.764,17 L39,14.382 L39,17.171 C40.164,17.584 41,18.696 41,20 L41,22 C41,22.552 41.448,23 42,23 L43,23 L43,25" id="Fill-228" fill="#E97025"></path>
            <polygon id="Fill-229" fill="#A5ADB1" points="21 25 22 25 22 23 21 23"></polygon>
            <path d="M22,26.586 L23,27.586 L23,28 C23,32.253 25.443,39 32,39 C38.557,39 41,32.253 41,28 L41,27.586 L42,26.586 L42,14 C42,12.346 40.654,11 39,11 L28,11 C26.897,11 26,11.897 26,13 L26,14 L24,14 C22.897,14 22,14.897 22,16 L22,26.586 Z M32,41 C24.206,41 21.168,33.459 21.007,28.421 L20,27.414 L20,16 C20,13.794 21.794,12 24,12 L24.127,12 C24.571,10.276 26.14,9 28,9 L39,9 C41.757,9 44,11.243 44,14 L44,27.414 L42.993,28.421 C42.832,33.459 39.794,41 32,41 L32,41 Z" id="Fill-230" fill="#E97025"></path>
            <path d="M20.908,47.754 L27.778,50.808 L31,47.586 L31,46.781 L24.238,45.09 L20.908,47.754 Z M28.222,53.192 L17.092,48.246 L23.762,42.91 L33,45.219 L33,48.414 L28.222,53.192 L28.222,53.192 Z" id="Fill-231" fill="#E97025"></path>
            <path d="M33,47.586 L36.222,50.808 L43.092,47.754 L39.762,45.09 L33,46.781 L33,47.586 Z M35.778,53.192 L31,48.414 L31,45.219 L40.238,42.91 L46.908,48.246 L35.778,53.192 L35.778,53.192 Z" id="Fill-232" fill="#E97025"></path>
            <polygon id="Fill-233" fill="#A5ADB1" points="31 59 33 59 33 57 31 57"></polygon>
            <polygon id="Fill-234" fill="#A5ADB1" points="31 55 33 55 33 53 31 53"></polygon>
            <path d="M9.877,53.479 L8.105,52.553 C8.304,52.157 9.599,50.079 15.684,48.052 L18.684,47.052 L19.316,48.948 L16.316,49.948 C10.969,51.731 9.888,53.463 9.877,53.479" id="Fill-235" fill="#E97025"></path>
            <path d="M54.105,53.447 C54.104,53.447 53.008,51.724 47.684,49.948 L44.684,48.948 L45.316,47.052 L48.316,48.052 C54.401,50.079 55.696,52.157 55.895,52.553 L54.105,53.447" id="Fill-236" fill="#E97025"></path>
            <path d="M32,2 C15.458,2 2,15.458 2,32 C2,48.542 15.458,62 32,62 C48.542,62 62,48.542 62,32 C62,15.458 48.542,2 32,2 Z M32,64 C14.355,64 0,49.645 0,32 C0,14.355 14.355,0 32,0 C49.645,0 64,14.355 64,32 C64,49.645 49.645,64 32,64 L32,64 Z" id="Fill-225" fill="#A5ADB1"></path>
        </g>
        <rect id="bounding-box" x="0" y="0" width="80" height="80"></rect>
    </g>
</svg>