<?xml version="1.0" encoding="UTF-8"?>
<svg width="80px" height="80px" viewBox="0 0 80 80" version="1.1" xmlns="http://www.w3.org/2000/svg" xmlns:xlink="http://www.w3.org/1999/xlink">
    <title>Icons/Illustrative Icons/ Chat</title>
    <g id="Icons/Illustrative-Icons/-Chat" stroke="none" stroke-width="1" fill="none" fill-rule="evenodd">
        <g id="Group-24" transform="translate(8.000000, 11.000000)">
            <polyline id="Fill-309" fill="#A5ADB1" points="64 42 61.586 42 49.586 30 45 30 45 28 50.414 28 62 39.586 62 2 19 2 19 14 17 14 17 0 64 0 64 42"></polyline>
            <polygon id="Fill-310" class="fi-icon-illustative-highlight-fill" points="27 24 29 24 29 22 27 22"></polygon>
            <polygon id="Fill-311" class="fi-icon-illustative-highlight-fill" points="31 24 33 24 33 22 31 22"></polygon>
            <polygon id="Fill-312" class="fi-icon-illustative-highlight-fill" points="35 24 37 24 37 22 35 22"></polygon>
            <polygon id="Fill-313" fill="#A5ADB1" points="23 8 25 8 25 6 23 6"></polygon>
            <polygon id="Fill-314" fill="#A5ADB1" points="27 8 29 8 29 6 27 6"></polygon>
            <polygon id="Fill-315" fill="#A5ADB1" points="31 8 33 8 33 6 31 6"></polygon>
            <polygon id="Fill-316" class="fi-icon-illustative-highlight-fill" points="6 24 23 24 23 22 6 22"></polygon>
            <polygon id="Fill-317" class="fi-icon-illustative-highlight-fill" points="6 28 37 28 37 26 6 26"></polygon>
            <polygon id="Fill-318" fill="#A5ADB1" points="45 18 58 18 58 16 45 16"></polygon>
            <polygon id="Fill-319" fill="#A5ADB1" points="45 22 58 22 58 20 45 20"></polygon>
            <path d="M2,18 L2,55.586 L13.586,44 L41,44 L41,18 L2,18 L2,18 Z M2.414,58 L0,58 L0,16 L43,16 L43,46 L14.414,46 L2.414,58 L2.414,58 Z" id="Fill-320" class="fi-icon-illustative-highlight-fill"></path>
            <polygon id="Fill-321" fill="#A5ADB1" points="23 12 58 12 58 10 23 10"></polygon>
            <polygon id="Fill-322" fill="#A5ADB1" points="37 8 58 8 58 6 37 6"></polygon>
            <polygon id="Fill-323" class="fi-icon-illustative-highlight-fill" points="6 38 27 38 27 36 6 36"></polygon>
            <polygon id="Fill-324" class="fi-icon-illustative-highlight-fill" points="6 34 37 34 37 32 6 32"></polygon>
        </g>
    </g>
</svg>