<?xml version="1.0" encoding="UTF-8"?>
<svg width="80px" height="80px" viewBox="0 0 80 80" version="1.1" xmlns="http://www.w3.org/2000/svg" xmlns:xlink="http://www.w3.org/1999/xlink">
    <title>Icons/Illustrative Icons/Organisation </title>
    <g id="Icons/Illustrative-Icons/Organisation-" stroke="none" stroke-width="1" fill="none" fill-rule="evenodd">
        <g id="Group-2" transform="translate(8.000000, 10.000000)">
            <path d="M32,2 C28.972,2 28,3.094 28,6.5 C28,9.166 29.402,12 32,12 C34.598,12 36,9.166 36,6.5 C36,3.094 35.028,2 32,2 Z M32,14 C28.579,14 26,10.775 26,6.5 C26,3.474 26.682,0 32,0 C37.318,0 38,3.474 38,6.5 C38,10.775 35.421,14 32,14 L32,14 Z" id="Fill-119" class="fi-icon-illustative-highlight-fill"></path>
            <path d="M40,22 L24,22 C22.374,22 21,20.168 21,18 L21,15.42 L28.504,11.132 L29.496,12.868 L23,16.58 L23,18 C23,19.224 23.703,20 24,20 L40,20 C40.297,20 41,19.224 41,18 L41,16.58 L34.504,12.868 L35.496,11.132 L43,15.42 L43,18 C43,20.168 41.626,22 40,22" id="Fill-120" class="fi-icon-illustative-highlight-fill"></path>
            <path d="M11,40 C7.972,40 7,41.094 7,44.5 C7,47.166 8.402,50 11,50 C13.598,50 15,47.166 15,44.5 C15,41.094 14.028,40 11,40 Z M11,52 C7.579,52 5,48.775 5,44.5 C5,41.474 5.682,38 11,38 C16.318,38 17,41.474 17,44.5 C17,48.775 14.421,52 11,52 L11,52 Z" id="Fill-121" class="fi-icon-illustative-highlight-fill"></path>
            <path d="M19,60 L3,60 C1.374,60 0,58.168 0,56 L0,53.42 L7.504,49.132 L8.496,50.868 L2,54.58 L2,56 C2,57.224 2.703,58 3,58 L19,58 C19.297,58 20,57.224 20,56 L20,54.58 L13.504,50.868 L14.496,49.132 L22,53.42 L22,56 C22,58.168 20.626,60 19,60" id="Fill-122" class="fi-icon-illustative-highlight-fill"></path>
            <path d="M53,40 C49.972,40 49,41.094 49,44.5 C49,47.166 50.402,50 53,50 C55.598,50 57,47.166 57,44.5 C57,41.094 56.028,40 53,40 Z M53,52 C49.579,52 47,48.775 47,44.5 C47,41.474 47.682,38 53,38 C58.318,38 59,41.474 59,44.5 C59,48.775 56.421,52 53,52 L53,52 Z" id="Fill-123" class="fi-icon-illustative-highlight-fill"></path>
            <path d="M61,60 L45,60 C43.374,60 42,58.168 42,56 L42,53.42 L49.504,49.132 L50.496,50.868 L44,54.58 L44,56 C44,57.224 44.703,58 45,58 L61,58 C61.297,58 62,57.224 62,56 L62,54.58 L55.504,50.868 L56.496,49.132 L64,53.42 L64,56 C64,58.168 62.626,60 61,60" id="Fill-124" class="fi-icon-illustative-highlight-fill"></path>
            <polygon id="Fill-125" fill="#A5ADB1" points="31 36 33 36 33 26 31 26"></polygon>
            <polygon id="Fill-126" fill="#A5ADB1" points="21.375 43.219 31.375 35.219 32.625 36.781 22.625 44.781"></polygon>
            <polygon id="Fill-127" fill="#A5ADB1" points="31.375 36.781 32.625 35.219 42.625 43.219 41.375 44.781"></polygon>
        </g>
        <rect id="bounding-box" x="0" y="0" width="80" height="80"></rect>
    </g>
</svg>