<?xml version="1.0" encoding="UTF-8"?>
<svg width="80px" height="80px" viewBox="0 0 80 80" version="1.1" xmlns="http://www.w3.org/2000/svg" xmlns:xlink="http://www.w3.org/1999/xlink">
    <title>Icons/Illustrative Icons/Rocket</title>
    <g id="Icons/Illustrative-Icons/Rocket" stroke="none" stroke-width="1" fill="none" fill-rule="evenodd">
        <g id="Yritystoiminnan-aloittaminen" transform="translate(8.000000, 8.000000)">
            <path d="M11.272,41.858 L22.142,52.728 C27.325,49.401 61.073,26.805 61.981,2.019 C37.195,2.927 14.599,36.675 11.272,41.858 Z M22,55 C21.742,55 21.486,54.9 21.293,54.707 L9.293,42.707 C8.966,42.381 8.906,41.873 9.146,41.479 C10.179,39.786 34.763,0 63,0 C63.552,0 64,0.447 64,1 C64,29.237 24.214,53.821 22.521,54.854 C22.359,54.952 22.179,55 22,55 L22,55 Z" id="Fill-234" fill="#A5ADB1"></path>
            <path d="M17,56 C16.744,56 16.488,55.902 16.293,55.707 L8.293,47.707 C7.902,47.316 7.902,46.684 8.293,46.293 L11.293,43.293 L12.707,44.707 L10.414,47 L17,53.586 L19.293,51.293 L20.707,52.707 L17.707,55.707 C17.512,55.902 17.256,56 17,56" id="Fill-235" fill="#A5ADB1"></path>
            <path d="M1,64 C0.448,64 0,63.553 0,63 C0,62.697 0.071,55.515 6.293,49.293 L7.707,50.707 C3.456,54.958 2.371,59.785 2.094,61.906 C4.213,61.63 9.041,60.545 13.293,56.293 L14.707,57.707 C8.486,63.929 1.303,64 1,64" id="Fill-236" fill="#E97025"></path>
            <path d="M46,15 C44.346,15 43,16.346 43,18 C43,19.654 44.346,21 46,21 C47.654,21 49,19.654 49,18 C49,16.346 47.654,15 46,15 Z M46,23 C43.243,23 41,20.757 41,18 C41,15.243 43.243,13 46,13 C48.757,13 51,15.243 51,18 C51,20.757 48.757,23 46,23 L46,23 Z" id="Fill-237" fill="#A5ADB1"></path>
            <path d="M37,24 C35.346,24 34,25.346 34,27 C34,28.654 35.346,30 37,30 C38.654,30 40,28.654 40,27 C40,25.346 38.654,24 37,24 Z M37,32 C34.243,32 32,29.757 32,27 C32,24.243 34.243,22 37,22 C39.757,22 42,24.243 42,27 C42,29.757 39.757,32 37,32 L37,32 Z" id="Fill-238" fill="#A5ADB1"></path>
            <path d="M28,33 C26.346,33 25,34.346 25,36 C25,37.654 26.346,39 28,39 C29.654,39 31,37.654 31,36 C31,34.346 29.654,33 28,33 Z M28,41 C25.243,41 23,38.757 23,36 C23,33.243 25.243,31 28,31 C30.757,31 33,33.243 33,36 C33,38.757 30.757,41 28,41 L28,41 Z" id="Fill-239" fill="#A5ADB1"></path>
            <path d="M37,64 L27,64 C26.448,64 26,63.553 26,63 L26,55 L28,55 L28,62 L36.352,62 L53.087,24.592 L54.913,25.408 L37.913,63.408 C37.752,63.769 37.395,64 37,64" id="Fill-240" fill="#A5ADB1"></path>
            <path d="M9,38 L1,38 C0.448,38 0,37.553 0,37 L0,27 C0,26.605 0.232,26.248 0.592,26.087 L38.592,9.087 L39.408,10.913 L2,27.648 L2,36 L9,36 L9,38" id="Fill-241" fill="#A5ADB1"></path>
            <path d="M61,12 C56.038,12 52,7.963 52,3 L54,3 C54,6.859 57.14,10 61,10 L61,12" id="Fill-242" fill="#A5ADB1"></path>
        </g>
        <rect id="bounding-box" x="0" y="0" width="80" height="80"></rect>
    </g>
</svg>