<?xml version="1.0" encoding="UTF-8"?>
<svg width="80px" height="80px" viewBox="0 0 80 80" version="1.1" xmlns="http://www.w3.org/2000/svg" xmlns:xlink="http://www.w3.org/1999/xlink">
    <title>Icons/Illustrative Icons/Internationalization</title>
    <g id="Icons/Illustrative-Icons/Internationalization" stroke="none" stroke-width="1" fill="none" fill-rule="evenodd">
        <g id="Kansainvälistyminen" transform="translate(8.000000, 8.000000)">
            <polygon id="Fill-512" fill="#A5ADB1" points="7 33 14 33 14 31 7 31"></polygon>
            <path d="M4,30 C2.897,30 2,30.897 2,32 C2,33.104 2.897,34 4,34 C5.103,34 6,33.104 6,32 C6,30.897 5.103,30 4,30 Z M4,36 C1.794,36 0,34.206 0,32 C0,29.795 1.794,28 4,28 C6.206,28 8,29.795 8,32 C8,34.206 6.206,36 4,36 L4,36 Z" id="Fill-513" fill="#A5ADB1"></path>
            <polyline id="Fill-514" fill="#A5ADB1" points="15.445 23.833 9.445 19.833 10.555 18.168 16.555 22.168 15.445 23.833"></polyline>
            <path d="M8,16 C6.897,16 6,16.897 6,18 C6,19.104 6.897,20 8,20 C9.103,20 10,19.104 10,18 C10,16.897 9.103,16 8,16 Z M8,22 C5.794,22 4,20.206 4,18 C4,15.795 5.794,14 8,14 C10.206,14 12,15.795 12,18 C12,20.206 10.206,22 8,22 L8,22 Z" id="Fill-515" fill="#A5ADB1"></path>
            <path d="M18,6 C16.897,6 16,6.897 16,8 C16,9.104 16.897,10 18,10 C19.103,10 20,9.104 20,8 C20,6.897 19.103,6 18,6 Z M18,12 C15.794,12 14,10.206 14,8 C14,5.795 15.794,4 18,4 C20.206,4 22,5.795 22,8 C22,10.206 20.206,12 18,12 L18,12 Z" id="Fill-516" fill="#A5ADB1"></path>
            <polyline id="Fill-517" fill="#A5ADB1" points="22.168 16.555 18.168 10.555 19.832 9.446 23.832 15.446 22.168 16.555"></polyline>
            <polygon id="Fill-518" fill="#A5ADB1" points="50 33 57 33 57 31 50 31"></polygon>
            <path d="M60,30 C58.897,30 58,30.897 58,32 C58,33.104 58.897,34 60,34 C61.103,34 62,33.104 62,32 C62,30.897 61.103,30 60,30 Z M60,36 C57.794,36 56,34.206 56,32 C56,29.795 57.794,28 60,28 C62.206,28 64,29.795 64,32 C64,34.206 62.206,36 60,36 L60,36 Z" id="Fill-519" fill="#A5ADB1"></path>
            <polyline id="Fill-520" fill="#A5ADB1" points="48.555 23.833 47.445 22.168 53.445 18.168 54.555 19.833 48.555 23.833"></polyline>
            <path d="M56,16 C54.897,16 54,16.897 54,18 C54,19.104 54.897,20 56,20 C57.103,20 58,19.104 58,18 C58,16.897 57.103,16 56,16 Z M56,22 C53.794,22 52,20.206 52,18 C52,15.795 53.794,14 56,14 C58.206,14 60,15.795 60,18 C60,20.206 58.206,22 56,22 L56,22 Z" id="Fill-521" fill="#A5ADB1"></path>
            <path d="M46,6 C44.897,6 44,6.897 44,8 C44,9.104 44.897,10 46,10 C47.103,10 48,9.104 48,8 C48,6.897 47.103,6 46,6 Z M46,12 C43.794,12 42,10.206 42,8 C42,5.795 43.794,4 46,4 C48.206,4 50,5.795 50,8 C50,10.206 48.206,12 46,12 L46,12 Z" id="Fill-522" fill="#A5ADB1"></path>
            <polygon id="Fill-523" fill="#A5ADB1" points="31 14 33 14 33 7 31 7"></polygon>
            <polyline id="Fill-524" fill="#A5ADB1" points="41.832 16.555 40.168 15.446 44.168 9.446 45.832 10.555 41.832 16.555"></polyline>
            <path d="M32,2 C30.897,2 30,2.897 30,4 C30,5.104 30.897,6 32,6 C33.103,6 34,5.104 34,4 C34,2.897 33.103,2 32,2 Z M32,8 C29.794,8 28,6.206 28,4 C28,1.795 29.794,0 32,0 C34.206,0 36,1.795 36,4 C36,6.206 34.206,8 32,8 L32,8 Z" id="Fill-525" fill="#A5ADB1"></path>
            <polyline id="Fill-526" fill="#A5ADB1" points="53.445 45.833 47.445 41.833 48.555 40.168 54.555 44.168 53.445 45.833"></polyline>
            <path d="M56,44 C54.897,44 54,44.897 54,46 C54,47.104 54.897,48 56,48 C57.103,48 58,47.104 58,46 C58,44.897 57.103,44 56,44 Z M56,50 C53.794,50 52,48.206 52,46 C52,43.795 53.794,42 56,42 C58.206,42 60,43.795 60,46 C60,48.206 58.206,50 56,50 L56,50 Z" id="Fill-527" fill="#A5ADB1"></path>
            <path d="M46,54 C44.897,54 44,54.897 44,56 C44,57.104 44.897,58 46,58 C47.103,58 48,57.104 48,56 C48,54.897 47.103,54 46,54 Z M46,60 C43.794,60 42,58.206 42,56 C42,53.795 43.794,52 46,52 C48.206,52 50,53.795 50,56 C50,58.206 48.206,60 46,60 L46,60 Z" id="Fill-528" fill="#A5ADB1"></path>
            <polyline id="Fill-529" fill="#A5ADB1" points="44.168 54.555 40.168 48.555 41.832 47.446 45.832 53.446 44.168 54.555"></polyline>
            <polyline id="Fill-530" fill="#A5ADB1" points="10.555 45.833 9.445 44.168 15.445 40.168 16.555 41.833 10.555 45.833"></polyline>
            <path d="M8,44 C6.897,44 6,44.897 6,46 C6,47.104 6.897,48 8,48 C9.103,48 10,47.104 10,46 C10,44.897 9.103,44 8,44 Z M8,50 C5.794,50 4,48.206 4,46 C4,43.795 5.794,42 8,42 C10.206,42 12,43.795 12,46 C12,48.206 10.206,50 8,50 L8,50 Z" id="Fill-531" fill="#A5ADB1"></path>
            <path d="M18,54 C16.897,54 16,54.897 16,56 C16,57.104 16.897,58 18,58 C19.103,58 20,57.104 20,56 C20,54.897 19.103,54 18,54 Z M18,60 C15.794,60 14,58.206 14,56 C14,53.795 15.794,52 18,52 C20.206,52 22,53.795 22,56 C22,58.206 20.206,60 18,60 L18,60 Z" id="Fill-532" fill="#A5ADB1"></path>
            <polygon id="Fill-533" fill="#A5ADB1" points="31 57 33 57 33 50 31 50"></polygon>
            <polyline id="Fill-534" fill="#A5ADB1" points="19.832 54.555 18.168 53.446 22.168 47.446 23.832 48.555 19.832 54.555"></polyline>
            <path d="M32,58 C30.897,58 30,58.897 30,60 C30,61.104 30.897,62 32,62 C33.103,62 34,61.104 34,60 C34,58.897 33.103,58 32,58 Z M32,64 C29.794,64 28,62.206 28,60 C28,57.795 29.794,56 32,56 C34.206,56 36,57.795 36,60 C36,62.206 34.206,64 32,64 L32,64 Z" id="Fill-535" fill="#A5ADB1"></path>
            <path d="M32,18 C24.28,18 18,24.281 18,32 C18,39.72 24.28,46 32,46 C39.72,46 46,39.72 46,32 C46,24.281 39.72,18 32,18 Z M16,32 C16,23.178 23.178,16 32,16 C40.822,16 48,23.178 48,32 C48,40.823 40.822,48 32,48 C23.178,48 16,40.823 16,32 Z" id="Fill-536" fill="#E97025"></path>
            <polygon id="Fill-537" fill="#E97025" points="17 33 47 33 47 31 17 31"></polygon>
            <polygon id="Fill-538" fill="#E97025" points="20 24 44 24 44 22 20 22"></polygon>
            <polygon id="Fill-539" fill="#E97025" points="20 42 44 42 44 40 20 40"></polygon>
            <path d="M32,18 C28.206,18 25,24.412 25,32 C25,39.589 28.206,46 32,46 C35.794,46 39,39.589 39,32 C39,24.412 35.794,18 32,18 Z M32,48 C26.953,48 23,40.973 23,32 C23,23.028 26.953,16 32,16 C37.047,16 41,23.028 41,32 C41,40.973 37.047,48 32,48 L32,48 Z" id="Fill-540" fill="#E97025"></path>
            <polygon id="Fill-541" fill="#E97025" points="31 47 33 47 33 17 31 17"></polygon>
        </g>
    </g>
</svg>