<?xml version="1.0" encoding="UTF-8"?>
<svg width="80px" height="80px" viewBox="0 0 80 80" version="1.1" xmlns="http://www.w3.org/2000/svg" xmlns:xlink="http://www.w3.org/1999/xlink">
    <!-- Generator: Sketch 49.3 (51167) - http://www.bohemiancoding.com/sketch -->
    <title>Ikonit / Kuvitukset / Lääkäri</title>
    <desc>Created with Sketch.</desc>
    <defs></defs>
    <g id="Ikonit-/-Kuvitukset-/-Lääkäri" stroke="none" stroke-width="1" fill="none" fill-rule="evenodd">
        <g id="Terveys-ja-sairaanhoito" transform="translate(11.000000, 8.000000)">
            <polygon id="Fill-125" fill="#A5ACB0" points="10 64 12 64 12 56 10 56"></polygon>
            <polygon id="Fill-126" fill="#A5ACB0" points="46 64 48 64 48 59 46 60"></polygon>
            <path d="M2,64 L0,64 L0,49 C0,42.512 6.871,39.328 13.616,37.074 L19.496,34.134 C20.654,33.354 21.814,32.331 22,31.928 L22,29 L24,29 L24,32 C24,33.269 22.126,34.784 20.555,35.832 C20.521,35.855 20.484,35.876 20.447,35.895 L14.447,38.895 C14.405,38.916 14.361,38.934 14.316,38.948 C8.226,40.979 2,43.761 2,49" id="Fill-127" fill="#A5ACB0"></path>
            <path d="M58,64 L56,64 L56,49 C56,43.761 49.774,40.979 43.684,38.948 C43.639,38.934 43.595,38.916 43.553,38.895 L37.553,35.895 C37.516,35.876 37.479,35.855 37.445,35.832 C35.874,34.784 34,33.269 34,32 L34,29 L36,29 L36,31.928 C36.186,32.331 37.346,33.354 38.504,34.134 L44.384,37.074 C51.129,39.328 58,42.512 58,49" id="Fill-128" fill="#A5ACB0"></path>
            <polygon id="Fill-129" fill="#A5ACB0" points="18 18 19 18 19 16 18 16"></polygon>
            <path d="M29,33 C21.68,33 18.174,25.051 18.006,19.421 L17.293,18.707 C17.105,18.52 17,18.266 17,18 L17,14 L19,14 L19,17.586 L19.707,18.293 C19.895,18.48 20,18.734 20,19 C20,23.84 22.86,31 29,31 C35.14,31 38,23.84 38,19 C38,18.734 38.105,18.48 38.293,18.293 L39,17.586 L39,14 L41,14 L41,18 C41,18.266 40.895,18.52 40.707,18.707 L39.994,19.421 C39.826,25.051 36.32,33 29,33" id="Fill-130" fill="#A5ACB0"></path>
            <path d="M18.4139082,12 L39.5859082,12 L39.9389082,11.646 L39.0099082,5.142 C38.8809082,4.433 38.2659082,2 35.9999082,2 L21.9999082,2 C19.9999082,2 19.2459082,4.018 18.9759082,5.22 L18.0609082,11.646 L18.4139082,12 Z M39.9999082,14 L17.9999082,14 C17.7339082,14 17.4799082,13.895 17.2929082,13.707 L16.2929082,12.707 C16.0699082,12.484 15.9659082,12.17 16.0099082,11.858 L17.0099082,4.858 C17.6989082,1.787 19.5589082,0 21.9999082,0 L35.9999082,0 C38.5369082,0 40.4469082,1.848 40.9839082,4.822 L41.9899082,11.858 C42.0339082,12.17 41.9299082,12.484 41.7069082,12.707 L40.7069082,13.707 C40.5199082,13.895 40.2659082,14 39.9999082,14 L39.9999082,14 Z" id="Fill-131" fill="#A5ACB0"></path>
            <polygon id="Fill-132" fill="#EA7125" points="28 10 30 10 30 4 28 4"></polygon>
            <polygon id="Fill-133" fill="#EA7125" points="26 8 32 8 32 6 26 6"></polygon>
            <path d="M29,40 C23.299,40 19,37.851 19,35 L21,35 C21,36.224 24.116,38 29,38 C33.884,38 37,36.224 37,35 L39,35 C39,37.851 34.701,40 29,40" id="Fill-136" fill="#A5ACB0"></path>
            <path d="M28.53,47.883 C27.855,47.524 13,37.968 13,27 L13,20 C13,17.243 14.243,16 17,16 L17,18 C15.346,18 15,18.346 15,20 L15,27 C15,35.792 26.409,44.369 29,45.854 C31.591,44.369 43,35.792 43,27 L43,20 C43,18.346 42.654,18 41,18 L41,16 C43.757,16 45,17.243 45,20 L45,27 C45,37.968 30.145,47.524 29.47,47.883 C29.322,47.961 29.161,48 29,48 C28.839,48 28.678,47.961 28.53,47.883 Z" id="Fill-304" fill="#EA7125"></path>
            <path d="M40.5,57.5 C46.014,57.5 50.5,53.014 50.5,47.5 C50.5,41.986 46.014,37.5 40.5,37.5 L27.5,37.5 L27.5,35.5 L40.5,35.5 C47.117,35.5 52.5,40.883 52.5,47.5 C52.5,54.117 47.117,59.5 40.5,59.5 L40.5,57.5 Z" id="Fill-308" fill="#EA7125" transform="translate(40.000000, 47.500000) rotate(90.000000) translate(-40.000000, -47.500000) "></path>
            <path d="M51,30 C49.897,30 49,30.897 49,32 C49,33.103 49.897,34 51,34 C52.103,34 53,33.103 53,32 C53,30.897 52.103,30 51,30 Z M51,36 C48.794,36 47,34.206 47,32 C47,29.794 48.794,28 51,28 C53.206,28 55,29.794 55,32 C55,34.206 53.206,36 51,36 L51,36 Z" id="Fill-305" fill="#EA7125"></path>
        </g>
        <rect id="bounding-box" x="0" y="0" width="80" height="80"></rect>
    </g>
</svg>