<?xml version="1.0" encoding="UTF-8"?>
<svg width="80px" height="80px" viewBox="0 0 80 80" version="1.1" xmlns="http://www.w3.org/2000/svg" xmlns:xlink="http://www.w3.org/1999/xlink">
    <title>Icons/Illustrative Icons/Woman 2</title>
    <g id="Icons/Illustrative-Icons/Woman-2" stroke="none" stroke-width="1" fill="none" fill-rule="evenodd">
        <g id="Group-2" transform="translate(13.000000, 8.000000)">
            <polygon id="Fill-60" fill="#A5ADB1" points="10 64 12 64 12 56 10 56"></polygon>
            <polygon id="Fill-61" fill="#A5ADB1" points="42 64 44 64 44 56 42 56"></polygon>
            <path d="M41,41 L39,41 L39,11 C39,6.375 35.494,2.555 31,2.056 L31,3 C31,3.321 30.846,3.623 30.585,3.812 C30.323,3.998 29.988,4.051 29.684,3.948 L23.842,2.001 C18.952,2.086 15,6.09 15,11 L15,41 L13,41 L13,11 C13,4.935 17.935,0 24,0 C24.107,0 24.214,0.018 24.316,0.052 L29,1.612 L29,1 C29,0.447 29.447,0 30,0 C36.065,0 41,4.935 41,11 L41,41" id="Fill-62" fill="#A5ADB1"></path>
            <path d="M22,9.618 L22,11 C22,11.553 21.553,12 21,12 C19.897,12 19,12.897 19,14 L19,17 C19,23.261 21.504,30 27,30 C32.496,30 35,23.261 35,17 L35,14 C35,12.897 34.103,12 33,12 L27,12 C26.845,12 26.691,11.964 26.553,11.895 L22,9.618 Z M27,32 C20.129,32 17,24.225 17,17 L17,14 C17,12.14 18.276,10.571 20,10.127 L20,8 C20,7.653 20.18,7.332 20.475,7.149 C20.769,6.967 21.137,6.951 21.447,7.105 L27.236,10 L33,10 C35.206,10 37,11.794 37,14 L37,17 C37,24.225 33.871,32 27,32 L27,32 Z" id="Fill-63" fill="#A5ADB1"></path>
            <polygon id="Fill-65" fill="#E97025" points="26 49 28 49 28 47 26 47"></polygon>
            <polygon id="Fill-66" fill="#E97025" points="26 45 28 45 28 43 26 43"></polygon>
            <polygon id="Fill-67" fill="#E97025" points="26 53 28 53 28 51 26 51"></polygon>
            <polygon id="Fill-68" fill="#E97025" points="26 57 28 57 28 55 26 55"></polygon>
            <polygon id="Fill-69" fill="#E97025" points="26 61 28 61 28 59 26 59"></polygon>
            <polygon id="Fill-70" fill="#E97025" points="32 53 40 53 40 51 32 51"></polygon>
            <path d="M2,64 L0,64 L0,53 C0,46.503 3.23,44.213 9.596,42.081 L18.515,37.126 L19.485,38.874 L10.316,43.948 C4.451,45.903 2,47.594 2,53 L2,64" id="Fill-71" fill="#A5ADB1"></path>
            <path d="M54,64 L52,64 L52,53 C52,47.594 49.549,45.903 43.684,43.948 L43.515,43.874 L34.515,38.874 L35.485,37.126 L44.404,42.081 C50.77,44.213 54,46.503 54,53 L54,64" id="Fill-72" fill="#A5ADB1"></path>
            <polygon id="Fill-73" fill="#A5ADB1" points="20 36 22 36 22 28 20 28"></polygon>
            <polygon id="Fill-74" fill="#A5ADB1" points="32 36 34 36 34 28 32 28"></polygon>
            <path d="M20.391,36.806 L18.709,41.291 L23.194,39.609 L20.391,36.806 Z M30.806,39.609 L35.291,41.291 L33.609,36.806 L30.806,39.609 Z M37,44 C36.882,44 36.764,43.979 36.648,43.937 L28.818,41 L25.182,41 L17.352,43.937 C16.985,44.074 16.569,43.985 16.293,43.707 C16.016,43.43 15.926,43.016 16.063,42.648 L19.063,34.648 C19.183,34.33 19.456,34.095 19.788,34.022 C20.121,33.952 20.467,34.053 20.707,34.293 L25.414,39 L28.586,39 L33.293,34.293 C33.533,34.053 33.88,33.953 34.212,34.022 C34.544,34.095 34.817,34.33 34.937,34.648 L37.937,42.648 C38.074,43.016 37.984,43.43 37.707,43.707 C37.517,43.898 37.261,44 37,44 L37,44 Z" id="Fill-64" fill="#A5ADB1"></path>
        </g>
        <rect id="bounding-box" x="0" y="0" width="80" height="80"></rect>
    </g>
</svg>