<?xml version="1.0" encoding="UTF-8"?>
<svg width="80px" height="80px" viewBox="0 0 80 80" version="1.1" xmlns="http://www.w3.org/2000/svg" xmlns:xlink="http://www.w3.org/1999/xlink">
    <!-- Generator: Sketch 49.3 (51167) - http://www.bohemiancoding.com/sketch -->
    <title>Ikonit / Kuvitukset / Koti</title>
    <desc>Created with Sketch.</desc>
    <defs></defs>
    <g id="Ikonit-/-Kuvitukset-/-Koti" stroke="none" stroke-width="1" fill="none" fill-rule="evenodd">
        <g id="Group-2" transform="translate(8.000000, 8.000000)">
            <polygon id="Fill-425" fill="#A5ACB0" points="28 38 36 38 36 36 28 36"></polygon>
            <polygon id="Fill-426" fill="#A5ACB0" points="28 34 36 34 36 32 28 32"></polygon>
            <polyline id="Fill-427" fill="#A5ACB0" points="6 64 0 64 0 32 8 32 8 34 2 34 2 62 4 62 4 36 8 36 8 38 6 38 6 64"></polyline>
            <polygon id="Fill-428" fill="#A5ACB0" points="10 44 12 44 12 26 10 26"></polygon>
            <polygon id="Fill-429" fill="#A5ACB0" points="10 64 12 64 12 47 10 47"></polygon>
            <polygon id="Fill-430" fill="#A5ACB0" points="8 48 28 48 28 46 8 46"></polygon>
            <polygon id="Fill-431" fill="#A5ACB0" points="24 44 26 44 26 26 24 26"></polygon>
            <polygon id="Fill-432" fill="#A5ACB0" points="24 64 26 64 26 47 24 47"></polygon>
            <polygon id="Fill-433" fill="#A5ACB0" points="11 30 25 30 25 28 11 28"></polygon>
            <polygon id="Fill-434" fill="#A5ACB0" points="11 34 25 34 25 32 11 32"></polygon>
            <polygon id="Fill-435" fill="#A5ACB0" points="11 38 25 38 25 36 11 36"></polygon>
            <polygon id="Fill-436" fill="#A5ACB0" points="11 42 25 42 25 40 11 40"></polygon>
            <polygon id="Fill-437" fill="#A5ACB0" points="11 52 25 52 25 50 11 50"></polygon>
            <polygon id="Fill-438" fill="#A5ACB0" points="38 44 40 44 40 26 38 26"></polygon>
            <polygon id="Fill-439" fill="#A5ACB0" points="38 64 40 64 40 47 38 47"></polygon>
            <polygon id="Fill-440" fill="#A5ACB0" points="36 48 56 48 56 46 36 46"></polygon>
            <polygon id="Fill-441" fill="#A5ACB0" points="52 44 54 44 54 26 52 26"></polygon>
            <polygon id="Fill-442" fill="#A5ACB0" points="52 64 54 64 54 47 52 47"></polygon>
            <polygon id="Fill-443" fill="#A5ACB0" points="39 30 53 30 53 28 39 28"></polygon>
            <polygon id="Fill-444" fill="#A5ACB0" points="39 34 53 34 53 32 39 32"></polygon>
            <polygon id="Fill-445" fill="#A5ACB0" points="39 38 53 38 53 36 39 36"></polygon>
            <polygon id="Fill-446" fill="#A5ACB0" points="39 42 53 42 53 40 39 40"></polygon>
            <polygon id="Fill-447" fill="#A5ACB0" points="39 52 53 52 53 50 39 50"></polygon>
            <polyline id="Fill-448" fill="#A5ACB0" points="64 64 58 64 58 38 56 38 56 36 60 36 60 62 62 62 62 34 56 34 56 32 64 32 64 64"></polyline>
            <polygon id="Fill-449" fill="#A5ACB0" points="1 38 5 38 5 36 1 36"></polygon>
            <polygon id="Fill-450" fill="#A5ACB0" points="59 38 63 38 63 36 59 36"></polygon>
            <polygon id="Fill-451" fill="#EA7125" points="31 4 33 4 33 0 31 0"></polygon>
            <path d="M22.414,15 L41.586,15 L32,5.414 L22.414,15 Z M46.414,17 L17.586,17 L32,2.586 L46.414,17 L46.414,17 Z" id="Fill-452" fill="#EA7125"></path>
            <path d="M32,22 C29.794,22 28,20.206 28,18 L30,18 C30,19.103 30.897,20 32,20 C33.103,20 34,19.103 34,18 L36,18 C36,20.206 34.206,22 32,22" id="Fill-453" fill="#EA7125"></path>
        </g>
        <rect id="bounding-box" x="0" y="0" width="80" height="80"></rect>
    </g>
</svg>