<?xml version="1.0" encoding="UTF-8"?>
<svg  viewBox="0 0 80 80" version="1.1" xmlns="http://www.w3.org/2000/svg" xmlns:xlink="http://www.w3.org/1999/xlink">
    <title>Icons/Illustrative icons/messages</title>
    <g  id="Icons/Illustrative-icons/messages" stroke="none" stroke-width="1" fill="none" fill-rule="evenodd">
        <g  id="icon-messaging" transform="translate(4.000000, 22.000000)">
            <path d="M1,34 C0.447,34 0,33.553 0,33 L0,1 C0,0.447 0.447,0 1,0 L47,0 C47.553,0 48,0.447 48,1 L48,4 L46,4 L46,2 L2,2 L2,32 L4,32 L4,34 L1,34 Z"  id="Fill-259" fill="#A5ADB1"></path>
            <g  id="Group-4" transform="translate(5.000000, 5.000000)" fill="#E97025">
                <path d="M2,30 L46,30 L46,2 L2,2 L2,30 Z M47,32 L1,32 C0.447,32 0,31.553 0,31 L0,1 C0,0.447 0.447,0 1,0 L47,0 C47.553,0 48,0.447 48,1 L48,31 C48,31.553 47.553,32 47,32 L47,32 Z"  id="Fill-246"></path>
                <path d="M24,23 C23.759,23 23.517,22.913 23.326,22.738 L0.326,1.738 L1.674,0.262 L24,20.646 L46.326,0.262 L47.674,1.738 L24.674,22.738 C24.483,22.913 24.241,23 24,23"  id="Fill-247"></path>
                <polyline  id="Fill-248" points="1.707 31.707 0.293 30.293 13.293 17.293 14.707 18.707 1.707 31.707"></polyline>
                <polyline  id="Fill-249" points="46.293 31.707 33.293 18.707 34.707 17.293 47.707 30.293 46.293 31.707"></polyline>
            </g>
            <g  id="Group-11" transform="translate(65.500000, 20.000000) rotate(-90.000000) translate(-65.500000, -20.000000) translate(55.500000, 12.500000)" fill="#A5ADB1">
                <g  id="Group-12" transform="translate(10.000000, 7.500000) rotate(-180.000000) translate(-10.000000, -7.500000) ">
                    <g  id="Group-13" transform="translate(5.000000, 7.500000) scale(-1, 1) translate(-5.000000, -7.500000) ">
                        <polyline  id="Fill-549" points="4 15 4 1 6 1 6 15"></polyline>
                        <path d="M8,5.7075 L4.707,2.4145 L1.414,5.7075 L-1.8e-15,4.2925 L4,0.2925 C4.391,-0.0975 5.023,-0.0975 5.414,0.2925 L9.414,4.2925 L8,5.7075"  id="Fill-550"></path>
                    </g>
                    <g  id="Group-13" transform="translate(15.000000, 7.500000) scale(-1, 1) translate(-15.000000, -7.500000) translate(10.000000, 0.000000)">
                        <g  id="Group-6" transform="translate(5.000000, 7.500000) scale(1, -1) translate(-5.000000, -7.500000) translate(0.000000, -0.000000)">
                            <polyline  id="Fill-549" points="4 15 4 1 6 1 6 15"></polyline>
                            <path d="M8,5.7075 L4.707,2.4145 L1.414,5.7075 L-7.1e-15,4.2925 L4,0.2925 C4.391,-0.0975 5.023,-0.0975 5.414,0.2925 L9.414,4.2925 L8,5.7075"  id="Fill-550"></path>
                        </g>
                    </g>
                </g>
            </g>
            <g  id="Group-14" transform="translate(24.000000, 11.000000)" fill="#A5ADB1">
                <polygon  id="Fill-279" points="0 2 2 2 2 0 0 0"></polygon>
                <polygon  id="Fill-280" points="4 2 6 2 6 0 4 0"></polygon>
                <polygon  id="Fill-281" points="8 2 10 2 10 0 8 0"></polygon>
            </g>
        </g>
        <rect   id="bounding-box" x="0" y="0" width="80" height="80"></rect>
    </g>
</svg>