<?xml version="1.0" encoding="UTF-8"?>
<svg width="80px" height="80px" viewBox="0 0 80 80" version="1.1" xmlns="http://www.w3.org/2000/svg" xmlns:xlink="http://www.w3.org/1999/xlink">
    <title>Icons/Illustrative Icons/Enviroment </title>
    <g id="Icons/Illustrative-Icons/Enviroment-" stroke="none" stroke-width="1" fill="none" fill-rule="evenodd">
        <g id="Luonto" transform="translate(8.000000, 15.000000)" fill-rule="nonzero">
            <path d="M64,57.1 L0,57.1 L0,33 L1.3,33 C21,33 39.6,44 46.1,54.3 L61.3,54.3 L61.3,27.8 C54.2,27.9 51.9,28.6 51.2,29 L50,26.6 C52,25.6 56.2,25.1 62.6,25.1 L64,25.1 L64,57.1 Z M2.7,54.3 L42.9,54.3 C36.8,46.1 20.9,36.1 2.7,35.7 C2.7,35.7 2.7,54.3 2.7,54.3 Z" id="Shape" fill="#A5ADB1"></path>
            <path d="M24.9,39.3 L23,37.4 C28.1,32.3 37,29 39.9,29 L39.9,31.7 C37.8,31.8 29.6,34.6 24.9,39.3 Z" id="Shape" fill="#A5ADB1"></path>
            <path d="M17.3,14.3 C13.6,14.3 10.6,11.3 10.6,7.6 C10.6,3.9 13.6,0.9 17.3,0.9 C21,1 24,4 24,7.7 C24,11.4 21,14.3 17.3,14.3 Z M17.3,3.8 C15.1,3.8 13.3,5.6 13.3,7.8 C13.3,10 15.1,11.8 17.3,11.8 C19.5,11.8 21.3,10 21.3,7.8 C21.3,5.6 19.5,3.8 17.3,3.8 Z" id="Shape" fill="#E97025"></path>
            <path d="M45.3,37 C40.6,37 38.6,35.1 38.6,30.3 C38.6,25.7 43.5,16.1 44.1,15 L45.3,12.7 L46.5,15 C47.1,16.1 52,25.7 52,30.3 C52,35.1 50.1,37 45.3,37 Z M45.3,18.8 C43.6,22.4 41.3,27.8 41.3,30.5 C41.3,33.8 42,34.5 45.3,34.5 C48.6,34.5 49.3,33.8 49.3,30.5 C49.3,27.8 47,22.2 45.3,18.8 Z" id="Shape" fill="#E97025"></path>
            <polygon id="Rectangle-path" fill="#E97025" points="44 29 46.7 29 46.7 42.3 44 42.3"></polygon>
        </g>
        <rect id="bounding-box" x="0" y="0" width="80" height="80"></rect>
    </g>
</svg>