<?xml version="1.0" encoding="UTF-8"?>
<svg width="80px" height="80px" viewBox="0 0 80 80" version="1.1" xmlns="http://www.w3.org/2000/svg" xmlns:xlink="http://www.w3.org/1999/xlink">
    <title>Icons/Illustrative Icons/Phone 2</title>
    <g id="Icons/Illustrative-Icons/Phone-2" stroke="none" stroke-width="1" fill="none" fill-rule="evenodd">
        <g id="Group-2" transform="translate(21.000000, 8.000000)">
            <path d="M6,2 C3.794,2 2,3.794 2,6 L2,58 C2,60.206 3.794,62 6,62 L32,62 C34.206,62 36,60.206 36,58 L36,6 C36,3.794 34.206,2 32,2 L6,2 Z M32,64 L6,64 C2.691,64 0,61.309 0,58 L0,6 C0,2.691 2.691,0 6,0 L32,0 C35.309,0 38,2.691 38,6 L38,58 C38,61.309 35.309,64 32,64 L32,64 Z" id="Fill-122" fill="#A5ADB1"></path>
            <path d="M2,54 L36,54 L36,12 L2,12 L2,54 Z M0,56 L38,56 L38,10 L0,10 L0,56 Z" id="Fill-123" fill="#A5ADB1"></path>
            <polygon id="Fill-124" class="fi-icon-illustative-highlight-fill" points="17 60 21 60 21 58 17 58"></polygon>
            <polygon id="Fill-125" class="fi-icon-illustative-highlight-fill" points="12 7 14 7 14 5 12 5"></polygon>
            <polygon id="Fill-126" class="fi-icon-illustative-highlight-fill" points="16 7 26 7 26 5 16 5"></polygon>
        </g>
        <rect id="bounding-box" x="0" y="0" width="80" height="80"></rect>
    </g>
</svg>