<?xml version="1.0" encoding="UTF-8"?>
<svg width="80px" height="80px" viewBox="0 0 80 80" version="1.1" xmlns="http://www.w3.org/2000/svg" xmlns:xlink="http://www.w3.org/1999/xlink">
    <title>Icons/Illustrative Icons/Interaction</title>
    <g id="Icons/Illustrative-Icons/Interaction" stroke="none" stroke-width="1" fill="none" fill-rule="evenodd">
        <g id="Group-2" transform="translate(10.000000, 8.000000)">
            <polygon id="Fill-382" fill="#A5ADB1" points="42 38 44 38 44 35 42 35"></polygon>
            <polygon id="Fill-383" fill="#A5ADB1" points="37 37 39 37 39 34 37 34"></polygon>
            <polygon id="Fill-384" fill="#A5ADB1" points="32 36 34 36 34 32 32 32"></polygon>
            <path d="M49,64 L47,64 L47,60 L28,60 L28,64 L26,64 L26,60 C26,58.897 26.897,58 28,58 L47,58 C48.103,58 49,58.897 49,60 L49,64" id="Fill-385" fill="#A5ADB1"></path>
            <path d="M47,59 L45,59 L45,56 C45,55.176 45.261,54.167 45.591,52.89 C46.186,50.588 47,47.435 47,43 L47,36 C47,34.897 46.103,34 45,34 L45,32 C47.206,32 49,33.794 49,36 L49,43 C49,47.688 48.114,51.119 47.527,53.39 C47.232,54.53 47,55.431 47,56 L47,59" id="Fill-386" fill="#A5ADB1"></path>
            <path d="M44,36 L42,36 L42,34 C42,32.897 41.103,32 40,32 L40,30 C42.206,30 44,31.794 44,34 L44,36" id="Fill-387" fill="#A5ADB1"></path>
            <path d="M39,34 L37,34 L37,32 C37,30.897 36.103,30 35,30 L35,28 C37.206,28 39,29.794 39,32 L39,34" id="Fill-388" fill="#A5ADB1"></path>
            <path d="M30,59 L28,59 L28,56.333 L22.2,48.6 C22.124,48.498 22.067,48.382 22.034,48.259 C20.543,42.693 18.73,36.51 18.238,35.65 C17.588,34.957 17.427,33.95 17.819,33.005 C18.323,31.787 19.572,31 21,31 C23.52,31 24.709,34.003 24.924,34.611 L27.895,40.553 L26.105,41.447 L23.105,35.447 C23.084,35.405 23.066,35.361 23.051,35.316 C22.848,34.717 22.034,33 21,33 C20.251,33 19.813,33.415 19.667,33.771 C19.614,33.897 19.549,34.135 19.707,34.293 C20.297,34.884 21.713,39.345 23.916,47.555 L29.8,55.4 C29.93,55.573 30,55.783 30,56 L30,59" id="Fill-390" fill="#A5ADB1"></path>
            <path d="M26.575,27.231 C23.796,25.913 22,23.074 22,20 C22,15.589 25.589,12 30,12 C34.411,12 38,15.589 38,20 C38,23.073 36.206,25.911 33.429,27.229 L32.571,25.423 C34.654,24.434 36,22.306 36,20 C36,16.691 33.309,14 30,14 C26.691,14 24,16.691 24,20 C24,22.306 25.347,24.436 27.433,25.425 L26.575,27.231" id="Fill-391" class="fi-icon-illustative-highlight-fill"></path>
            <path d="M40.059,26.546 L38.383,25.454 C39.441,23.831 40,21.945 40,20 C40,14.486 35.514,10 30,10 C24.486,10 20,14.486 20,20 C20,21.945 20.559,23.831 21.616,25.453 L19.94,26.545 C18.671,24.598 18,22.334 18,20 C18,13.383 23.383,8 30,8 C36.617,8 42,13.383 42,20 C42,22.334 41.329,24.598 40.059,26.546" id="Fill-392" class="fi-icon-illustative-highlight-fill"></path>
            <path d="M27,42 C26.448,42 26,41.553 26,41 L26,20 C26,17.794 27.794,16 30,16 C32.206,16 34,17.794 34,20 L34,32 C34,32.553 33.552,33 33,33 C32.448,33 32,32.553 32,32 L32,20 C32,18.897 31.103,18 30,18 C28.897,18 28,18.897 28,20 L28,41 C28,41.553 27.552,42 27,42" id="Fill-389" fill="#A5ADB1"></path>
            <path d="M46,20 L44,20 C44,12.28 37.72,6 30,6 C22.28,6 16,12.28 16,20 L14,20 C14,11.178 21.178,4 30,4 C38.822,4 46,11.178 46,20" id="Fill-393" class="fi-icon-illustative-highlight-fill"></path>
            <path d="M58,40 L51,40 L51,38 L58,38 L58,2 L2,2 L2,38 L15,38 L15,40 L2,40 C0.897,40 0,39.103 0,38 L0,2 C0,0.897 0.897,0 2,0 L58,0 C59.103,0 60,0.897 60,2 L60,38 C60,39.103 59.103,40 58,40" id="Fill-394" fill="#A5ADB1"></path>
            <polygon id="Fill-395" fill="#A5ADB1" points="4 39 6 39 6 4 4 4"></polygon>
            <polygon id="Fill-396" fill="#A5ADB1" points="54 36 56 36 56 1 54 1"></polygon>
        </g>
    </g>
</svg>