<?xml version="1.0" encoding="UTF-8"?>
<svg width="80px" height="80px" viewBox="0 0 80 80" version="1.1" xmlns="http://www.w3.org/2000/svg" xmlns:xlink="http://www.w3.org/1999/xlink">
    <title>Icons/Illustrative Icons/Content creation</title>
    <g id="Icons/Illustrative-Icons/Content-creation" stroke="none" stroke-width="1" fill="none" fill-rule="evenodd">
        <g id="Page-1" transform="translate(8.000000, 7.000000)">
            <polygon id="Fill-1" fill="#A5ADB1" points="61.0072397 39 42.0011577 39 41.0008376 39 39.0082 39 39.0082 41.002 39.4133296 41.002 39.4133296 41.001 41.0008376 41.001 42.0011577 41.001 61.0072397 41.001 62.0075598 41.001 62.0075598 41.587 61.5934273 42.001 58.5914666 45 42.0011577 45 41.0008376 45 39.0082 45 39.0082 47 41.0008376 47 42.0011577 47 59.420732 47 64.0082 42.415 64.0082 39"></polygon>
            <g id="Group-15" transform="translate(0.000000, 0.062500)">
                <path d="M42,2.9375 L56,2.9375 C57.103,2.9375 58,3.8345 58,4.9375 L58,33.9375 L58,36.9375 L60,36.9375 L60,33.9375 L60,4.9375 C60,2.7315 58.206,0.9375 56,0.9375 L42,0.9375 L41,0.9375 L39,0.9375 L39,2.9375 L41,2.9375 L42,2.9375 Z" id="Fill-2" fill="#A5ADB1"></path>
                <polygon id="Fill-6" fill="#A5ADB1" points="22 38.9375 3 38.9375 0 38.9375 0 41.9375 0 42.3515 4.586 46.9375 22 46.9375 23 46.9375 24.999 46.9375 24.999 44.9375 23 44.9375 22 44.9375 5.414 44.9375 2.414 41.9375 2 41.5235 2 40.9375 3 40.9375 22 40.9375 23 40.9375 24.586 40.9375 24.587 40.9395 24.999 40.9395 24.999 38.9375 23 38.9375"></polygon>
                <polygon id="Fill-8" fill="#A5ADB1" points="22 4.9375 8 4.9375 8 33.9375 8 36.9375 22 36.9375 24.999 36.9375 25 34.9375 22 34.9375 10 34.9375 10 33.9375 10 6.9375 22 6.9375 45 6.9375 45 4.9375 23 4.9375"></polygon>
                <polygon id="Fill-8-Copy" fill="#A5ADB1" transform="translate(37.500000, 20.937500) scale(-1, 1) translate(-37.500000, -20.937500) " points="33 4.9375 19 4.9375 19 33.9375 19 36.9375 33 36.9375 35.999 36.9375 36 34.9375 33 34.9375 21 34.9375 21 33.9375 21 6.9375 33 6.9375 56 6.9375 56 4.9375 34 4.9375"></polygon>
                <polygon id="Fill-357" class="fi-icon-illustative-highlight-fill" points="12 16.9375 36 16.9375 36 14.9375 12 14.9375"></polygon>
                <polygon id="Fill-358" class="fi-icon-illustative-highlight-fill" points="12 20.9375 25 20.9375 25 18.9375 12 18.9375"></polygon>
                <polygon id="Fill-394" class="fi-icon-illustative-highlight-fill" points="12 10.9375 36 10.9375 36 8.9375 12 8.9375"></polygon>
                <path d="M22,0.9375 L8,0.9375 C5.794,0.9375 4,2.7315 4,4.9375 L4,33.9375 L4,36.9375 L6,36.9375 L6,33.9375 L6,4.9375 C6,3.8345 6.897,2.9375 8,2.9375 L22,2.9375 L23,2.9375 L45,2.9375 L45,0.9375 L23,0.9375 L22,0.9375 Z" id="Fill-10" fill="#A5ADB1"></path>
                <g id="Group-14" transform="translate(32.000000, 42.000000) scale(1, -1) translate(-32.000000, -42.000000) translate(27.000000, 18.000000)" class="fi-icon-illustative-highlight-fill">
                    <path d="M8,7.0625 L7,7.0625 L3,7.0625 L2,7.0625 L2,6.0615 C2,5.7085 2.072,5.3755 2.184,5.0605 C2.599,3.8985 3.698,3.0585 5,3.0585 C6.302,3.0585 7.401,3.8985 7.816,5.0605 C7.928,5.3755 8,5.7085 8,6.0615 L8,7.0625 Z M8,25.0622729 L8,30.0623865 L8,32.0624319 L8,33.0624546 L8,34.0624773 L8,35.0625 L6,35.0625 L6,34.0644753 L6,32.0624319 L6,31.0644072 L6,30.0623865 L6,25.0622729 L6,9.0625 L8,9.0625 L8,25.0622729 Z M8,38.0535 L8,39.7515 L7.131,41.0565 L6.465,42.0575 L5.798,43.0585 L5,44.2565 L4.202,43.0585 L3.535,42.0575 L2.869,41.0565 L2,39.7515 L2,38.0535 L2,37.0525 L8,37.0525 L8,38.0535 Z M2,34.0644753 L2,33.0624546 L2,32.0644299 L2,30.0623865 L2,25.0622729 L2,9.0625 L4,9.0625 L4,25.0622729 L4,30.0623865 L4,31.0644072 L4,32.0624319 L4,34.0644753 L4,35.0625 L2,35.0625 L2,34.0644753 Z M8.975,3.0015 C8.687,2.6215 8.351,2.2855 7.969,2.0005 C7.136,1.3805 6.116,0.9995 5,0.9995 C3.884,0.9995 2.864,1.3805 2.031,2.0005 C1.649,2.2855 1.313,2.6215 1.025,3.0015 C0.583,3.5865 0.253,4.2595 0.101,5.0035 C0.035,5.3275 0,5.6615 0,6.0045 L0,9.0075 L0,40.0555 C0,40.2525 0.059,40.4465 0.168,40.6105 L0.465,41.0565 L1.131,42.0575 L1.798,43.0585 L4.168,46.6165 C4.354,46.8945 4.666,47.0625 5,47.0625 C5.334,47.0625 5.646,46.8945 5.832,46.6165 L8.202,43.0585 L8.869,42.0575 L9.535,41.0565 L9.832,40.6105 C9.941,40.4465 10,40.2525 10,40.0555 L10,9.0075 L10,6.0045 C10,5.6615 9.965,5.3275 9.899,5.0035 C9.747,4.2595 9.417,3.5865 8.975,3.0015 Z" id="Fill-12"></path>
                </g>
            </g>
        </g>
    </g>
</svg>