<?xml version="1.0" encoding="UTF-8"?>
<svg width="80px" height="80px" viewBox="0 0 80 80" version="1.1" xmlns="http://www.w3.org/2000/svg" xmlns:xlink="http://www.w3.org/1999/xlink">
    <title>Icons/Illustrative Icons/Entrepreneur</title>
    <g id="Icons/Illustrative-Icons/Entrepreneur" stroke="none" stroke-width="1" fill="none" fill-rule="evenodd">
        <g id="tyo-ja-yrittaminen" transform="translate(8.000000, 8.000000)">
            <path d="M16,34 L14,34 L14,23 C14,18.038 18.037,14 23,14 L23,16 C19.141,16 16,19.14 16,23 L16,34" id="Fill-41" fill="#A5ADB1"></path>
            <path d="M50,34 L48,34 L48,23 C48,19.14 44.859,16 41,16 L41,14 C45.963,14 50,18.038 50,23 L50,34" id="Fill-42" fill="#A5ADB1"></path>
            <path d="M16,62 L48,62 L48,42 C48,40.897 47.103,40 46,40 L18,40 C16.897,40 16,40.897 16,42 L16,62 Z M49,64 L15,64 C14.447,64 14,63.552 14,63 L14,42 C14,39.794 15.794,38 18,38 L46,38 C48.206,38 50,39.794 50,42 L50,63 C50,63.552 49.553,64 49,64 L49,64 Z" id="Fill-45" fill="#A5ADB1"></path>
            <path d="M49.895,63.447 L48.105,62.553 L51,56.764 L51,52 L49,52 L49,50 L52,50 C52.553,50 53,50.448 53,51 L53,57 C53,57.155 52.964,57.309 52.895,57.447 L49.895,63.447" id="Fill-46" fill="#A5ADB1"></path>
            <path d="M14.105,63.447 L11.105,57.447 C11.036,57.309 11,57.155 11,57 L11,51 C11,50.448 11.447,50 12,50 L15,50 L15,52 L13,52 L13,56.764 L15.895,62.553 L14.105,63.447" id="Fill-47" fill="#A5ADB1"></path>
            <path d="M32,49 C30.897,49 30,49.897 30,51 C30,52.103 30.897,53 32,53 C33.103,53 34,52.103 34,51 C34,49.897 33.103,49 32,49 Z M32,55 C29.794,55 28,53.206 28,51 C28,48.794 29.794,47 32,47 C34.206,47 36,48.794 36,51 C36,53.206 34.206,55 32,55 L32,55 Z" id="Fill-48" fill="#A5ADB1"></path>
            <path d="M11,45 L9,45 L9,43 C9,34.99 13.445,33.3 18.152,31.511 C19.895,30.85 21.696,30.165 23.504,29.132 L24.496,30.868 C22.553,31.979 20.593,32.724 18.863,33.381 C14.128,35.181 11,36.369 11,43 L11,45" id="Fill-49" class="fi-icon-illustative-highlight-fill"></path>
            <path d="M55,45 L53,45 L53,42 C53,35.699 50.27,34.833 45.746,33.399 C43.837,32.794 41.674,32.108 39.504,30.868 L40.496,29.132 C42.48,30.266 44.448,30.89 46.351,31.493 C50.799,32.903 55,34.235 55,42 L55,45" id="Fill-50" class="fi-icon-illustative-highlight-fill"></path>
            <path d="M53,64 L53,62 L60.0026083,62 C61.1057373,62 62,61.1054862 62,60.0059397 L62,47.9940603 C62,46.8927712 61.1064574,46 59.9972399,46 L49,46 L49,44 L59.9999798,44 C62.2091299,44 64,45.7924676 64,47.99923 L64,60.00077 C64,62.2094838 62.2081782,64 59.9976305,64 L53,64 Z" id="Fill-43" fill="#A5ADB1"></path>
            <path d="M4.00236948,64 C1.79192185,64 0,62.2075324 0,60.00077 L0,47.99923 C0,45.7905162 1.79445134,44 4.00002024,44 L15,44 L15,46 L4.00276013,46 C2.89666625,46 2,46.8945138 2,47.9940603 L2,60.0059397 C2,61.1072288 2.89585781,62 3.9973917,62 L11,62 L11,64 L4.00236948,64 Z" id="Fill-44" fill="#A5ADB1"></path>
            <path d="M32,30.882 L35.803,32.783 L38.713,29.873 L37.526,28.093 L32,29.014 L26.474,28.093 L25.287,29.873 L28.197,32.783 L32,30.882 Z M36.197,35.217 L32,33.118 L27.803,35.217 L22.713,30.127 L25.526,25.907 L32,26.986 L38.474,25.907 L41.287,30.127 L36.197,35.217 L36.197,35.217 Z" id="Fill-51" class="fi-icon-illustative-highlight-fill"></path>
            <polygon id="Fill-52" class="fi-icon-illustative-highlight-fill" points="36 27 38 27 38 23 36 23"></polygon>
            <polygon id="Fill-53" class="fi-icon-illustative-highlight-fill" points="26 27 28 27 28 23 26 23"></polygon>
            <path d="M32,25 C31.868,25 28.739,24.987 26.553,23.895 L26.445,23.832 C26.308,23.74 23.062,21.5 22.01,14.142 L22,14 L22,10 L24,10 L24,13.928 C24.861,19.845 27.2,21.889 27.519,22.141 C29.281,22.986 31.974,23 32.001,23 C32.026,23 34.718,22.986 36.479,22.141 C36.792,21.892 39.14,19.837 40,13.928 L40,10 L42,10 L41.99,14.142 C40.938,21.5 37.692,23.74 37.555,23.832 L37.447,23.895 C35.261,24.987 32.132,25 32,25" id="Fill-54" class="fi-icon-illustative-highlight-fill"></path>
            <path d="M42,10 L40,10 C40,4.467 37.532,2 32,2 C26.468,2 24,4.467 24,10 L22,10 C22,3.364 25.364,0 32,0 C38.636,0 42,3.364 42,10" id="Fill-55" class="fi-icon-illustative-highlight-fill"></path>
            <polyline id="Fill-56" class="fi-icon-illustative-highlight-fill" points="37.046 13.095 27.046 9.095 23.447 10.895 22.553 9.105 26.954 6.905 36.954 10.905 40.553 9.105 41.447 10.895 37.046 13.095"></polyline>
        </g>
        <rect id="bounding-box" x="0" y="0" width="80" height="80"></rect>
    </g>
</svg>