<?xml version="1.0" encoding="UTF-8"?>
<svg width="80px" height="80px" viewBox="0 0 80 80" version="1.1" xmlns="http://www.w3.org/2000/svg" xmlns:xlink="http://www.w3.org/1999/xlink">
    <title>Icons/Illustrative Icons/Employer</title>
    <g id="Icons/Illustrative-Icons/Employer" stroke="none" stroke-width="1" fill="none" fill-rule="evenodd">
        <g id="Työnantajuus" transform="translate(8.000000, 14.000000)">
            <path d="M53,15 C49.972,15 49,16.094 49,19.5 C49,22.166 50.402,25 53,25 C55.598,25 57,22.166 57,19.5 C57,16.094 56.028,15 53,15 Z M53,27 C49.58,27 47,23.775 47,19.5 C47,16.474 47.682,13 53,13 C58.318,13 59,16.474 59,19.5 C59,23.775 56.42,27 53,27 L53,27 Z" id="Fill-219" fill="#A5ADB1"></path>
            <polyline id="Fill-220" fill="#A5ADB1" points="45.515 28.857 44.485 27.143 49.485 24.143 50.515 25.857 45.515 28.857"></polyline>
            <path d="M61,35 L55,35 L55,33 L61,33 C61.297,33 62,32.224 62,31 L62,29.58 L55.504,25.868 L56.496,24.132 L64,28.42 L64,31 C64,33.168 62.626,35 61,35" id="Fill-221" fill="#A5ADB1"></path>
            <path d="M11,15 C7.972,15 7,16.094 7,19.5 C7,22.166 8.402,25 11,25 C13.598,25 15,22.166 15,19.5 C15,16.094 14.028,15 11,15 Z M11,27 C7.58,27 5,23.775 5,19.5 C5,16.474 5.682,13 11,13 C16.318,13 17,16.474 17,19.5 C17,23.775 14.42,27 11,27 L11,27 Z" id="Fill-222" fill="#A5ADB1"></path>
            <polyline id="Fill-223" fill="#A5ADB1" points="18.485 28.857 13.485 25.857 14.515 24.143 19.515 27.143 18.485 28.857"></polyline>
            <path d="M9,35 L3,35 C1.374,35 0,33.168 0,31 L0,28.42 L7.504,24.132 L8.496,25.868 L2,29.58 L2,31 C2,32.224 2.703,33 3,33 L9,33 L9,35" id="Fill-224" fill="#A5ADB1"></path>
            <path d="M11,52 L9,52 L9,43 C9,34.99 13.446,33.3 18.152,31.512 C19.895,30.85 21.696,30.165 23.504,29.132 L24.496,30.868 C22.553,31.979 20.592,32.724 18.863,33.381 C14.128,35.181 11,36.369 11,43 L11,52" id="Fill-225" fill="#E97025"></path>
            <path d="M55,52 L53,52 L53,43 C53,36.369 49.872,35.181 45.137,33.381 C43.408,32.724 41.447,31.979 39.504,30.868 L40.496,29.132 C42.304,30.165 44.105,30.85 45.848,31.512 C50.554,33.3 55,34.99 55,43 L55,52" id="Fill-226" fill="#E97025"></path>
            <path d="M32,30.882 L35.803,32.783 L38.713,29.873 L37.526,28.093 L32,29.014 L26.474,28.093 L25.287,29.873 L28.197,32.783 L32,30.882 Z M36.197,35.217 L32,33.118 L27.803,35.217 L22.713,30.127 L25.526,25.907 L32,26.986 L38.474,25.907 L41.287,30.127 L36.197,35.217 L36.197,35.217 Z" id="Fill-227" fill="#E97025"></path>
            <polygon id="Fill-228" fill="#E97025" points="36 27 38 27 38 23 36 23"></polygon>
            <polygon id="Fill-229" fill="#E97025" points="26 27 28 27 28 23 26 23"></polygon>
            <polygon id="Fill-230" fill="#E97025" points="31 42 33 42 33 40 31 40"></polygon>
            <polygon id="Fill-231" fill="#E97025" points="31 38 33 38 33 36 31 36"></polygon>
            <path d="M32,25 C31.868,25 28.739,24.987 26.553,23.895 L26.445,23.832 C26.308,23.74 23.061,21.499 22.01,14.142 L22,14 L22,10 L24,10 L24,13.929 C24.861,19.846 27.201,21.889 27.519,22.141 C29.281,22.985 31.974,23 32.001,23 C32.026,23 34.718,22.985 36.479,22.142 C36.792,21.892 39.14,19.837 40,13.929 L40,10 L42,10 L41.99,14.142 C40.939,21.499 37.692,23.74 37.555,23.832 L37.447,23.895 C35.261,24.987 32.132,25 32,25" id="Fill-232" fill="#E97025"></path>
            <path d="M42,10 L40,10 C40,4.468 37.533,2 32,2 C26.467,2 24,4.468 24,10 L22,10 C22,3.364 25.364,0 32,0 C38.636,0 42,3.364 42,10" id="Fill-233" fill="#E97025"></path>
            <polyline id="Fill-234" fill="#E97025" points="37.045 13.096 27.045 9.096 23.447 10.895 22.553 9.105 26.955 6.904 36.955 10.904 40.553 9.105 41.447 10.895 37.045 13.096"></polyline>
            <polygon id="Fill-235" fill="#E97025" points="17 52 19 52 19 44 17 44"></polygon>
            <polygon id="Fill-236" fill="#E97025" points="45 52 47 52 47 44 45 44"></polygon>
        </g>
        <rect id="bounding-box" x="0" y="0" width="80" height="80"></rect>
    </g>
</svg>