<?xml version="1.0" encoding="UTF-8"?>
<svg width="80px" height="80px" viewBox="0 0 80 80" version="1.1" xmlns="http://www.w3.org/2000/svg" xmlns:xlink="http://www.w3.org/1999/xlink">
    <title>Icons/Illustrative Icons/Woman </title>
    <g id="Icons/Illustrative-Icons/Woman-" stroke="none" stroke-width="1" fill="none" fill-rule="evenodd">
        <g id="Group" transform="translate(13.000000, 8.000000)">
            <polygon id="Fill-225" fill="#A5ADB1" points="10 64 12 64 12 56 10 56"></polygon>
            <polygon id="Fill-226" fill="#A5ADB1" points="42 64 44 64 44 56 42 56"></polygon>
            <path d="M54,64 L52,64 L52,51 C52,45.778 47.916,44.025 41.684,41.948 C37.266,40.477 32,38.249 32,36 L32,29 L34,29 L34,36 C34.294,36.746 38.185,38.674 42.316,40.052 C47.793,41.877 54,43.946 54,51 L54,64" id="Fill-227" fill="#A5ADB1"></path>
            <path d="M2,64 L0,64 L0,51 C0,43.946 6.207,41.877 11.684,40.052 C15.815,38.674 19.706,36.746 20.01,35.928 L20,29 L22,29 L22,36 C22,38.249 16.734,40.477 12.316,41.948 C6.084,44.025 2,45.778 2,51 L2,64" id="Fill-228" fill="#A5ADB1"></path>
            <path d="M19,14.899 L19,17 C19,25.025 20.338,30 27,30 C33.662,30 35,25.025 35,17 L35,13.645 C33.628,14.259 31.461,15 29,15 C26.107,15 23.618,14.087 22.216,12.687 C21.499,13.808 20.347,14.625 19,14.899 Z M27,32 C17,32 17,21.869 17,17 L17,14 C17,13.447 17.448,13 18,13 C19.654,13 21,11.654 21,10 C21,9.447 21.448,9 22,9 C22.552,9 23,9.447 23,10 C23,11.419 25.464,13 29,13 C32.533,13 35.433,11.176 35.462,11.157 C35.77,10.961 36.161,10.948 36.48,11.123 C36.801,11.299 37,11.635 37,12 L37,17 C37,21.869 37,32 27,32 L27,32 Z" id="Fill-229" fill="#A5ADB1"></path>
            <path d="M35,33 L35,31 C38.86,31 42,27.859 42,24 C42,22.671 41.709,21.493 41.134,20.501 L42.866,19.499 C43.618,20.8 44,22.314 44,24 C44,28.963 39.962,33 35,33" id="Fill-230" fill="#A5ADB1"></path>
            <path d="M39,23 L39,21 C41.154,21 43,18.251 43,16 C43,13.749 41.154,11 39,11 C38.448,11 38,10.553 38,10 C38,5.29 34.299,2 29,2 L25,2 C19.701,2 16,5.29 16,10 C16,10.553 15.552,11 15,11 C12.846,11 11,13.749 11,16 C11,18.251 12.846,21 15,21 L15,23 C11.621,23 9,19.237 9,16 C9,13.078 11.136,9.727 14.038,9.103 C14.489,3.776 18.96,0 25,0 L29,0 C35.04,0 39.511,3.776 39.962,9.103 C42.864,9.727 45,13.078 45,16 C45,19.237 42.379,23 39,23" id="Fill-231" fill="#A5ADB1"></path>
            <path d="M19,33 C14.038,33 10,28.963 10,24 C10,22.314 10.382,20.8 11.134,19.499 L12.866,20.501 C12.291,21.493 12,22.671 12,24 C12,27.859 15.14,31 19,31 L19,33" id="Fill-232" fill="#A5ADB1"></path>
            <path d="M27,56 C26.861,56 26.721,55.971 26.591,55.913 C26.077,55.683 14,50.192 14,43 L14,40 L16,40 L16,43 C16,47.706 23.583,52.281 27,53.898 C30.417,52.278 38,47.699 38,43 L38,40 L40,40 L40,43 C40,50.192 27.923,55.683 27.409,55.913 C27.279,55.971 27.139,56 27,56" id="Fill-233" fill="#A5ADB1"></path>
            <polygon id="Fill-234" class="fi-icon-illustative-highlight-fill" points="20 41 22 41 22 39 20 39"></polygon>
            <polygon id="Fill-235" class="fi-icon-illustative-highlight-fill" points="23 42 25 42 25 40 23 40"></polygon>
            <polygon id="Fill-236" class="fi-icon-illustative-highlight-fill" points="26 43 28 43 28 41 26 41"></polygon>
            <polygon id="Fill-237" class="fi-icon-illustative-highlight-fill" points="26 46 28 46 28 44 26 44"></polygon>
            <polygon id="Fill-238" class="fi-icon-illustative-highlight-fill" points="29 42 31 42 31 40 29 40"></polygon>
            <polygon id="Fill-239" class="fi-icon-illustative-highlight-fill" points="32 41 34 41 34 39 32 39"></polygon>
        </g>
        <rect id="bounding-box" x="0" y="0" width="80" height="80"></rect>
    </g>
</svg>