<?xml version="1.0" encoding="UTF-8"?>
<svg width="80px" height="80px" viewBox="0 0 80 80" version="1.1" xmlns="http://www.w3.org/2000/svg" xmlns:xlink="http://www.w3.org/1999/xlink">
    <title>Icons/Illustrative Icons/Growth development</title>
    <g id="Icons/Illustrative-Icons/Growth-development" stroke="none" stroke-width="1" fill="none" fill-rule="evenodd">
        <g id="Kasvu-ja-kehittäminen" transform="translate(8.000000, 8.000000)">
            <polyline id="Fill-204" fill="#A5ADB1" points="22 64 20 64 20 60 2 60 2 64 0 64 0 58 22 58 22 64"></polyline>
            <polyline id="Fill-205" fill="#A5ADB1" points="42 64 40 64 40 54 22 54 22 56 20 56 20 52 42 52 42 64"></polyline>
            <polyline id="Fill-206" fill="#A5ADB1" points="64 64 62 64 62 48 42 48 42 50 40 50 40 46 64 46 64 64"></polyline>
            <path d="M29,2 C27.346,2 26,3.346 26,5 C26,6.654 27.346,8 29,8 C30.654,8 32,6.654 32,5 C32,3.346 30.654,2 29,2 Z M29,10 C26.243,10 24,7.757 24,5 C24,2.243 26.243,0 29,0 C31.757,0 34,2.243 34,5 C34,7.757 31.757,10 29,10 L29,10 Z" id="Fill-207" fill="#E97025"></path>
            <path d="M10,24 C9.744,24 9.488,23.902 9.293,23.707 L6.293,20.707 C5.902,20.316 5.902,19.684 6.293,19.293 L13.293,12.293 C13.416,12.17 13.569,12.081 13.737,12.035 L24.737,9.035 L25.263,10.965 L14.519,13.895 L8.414,20 L10,21.586 L15.293,16.293 C15.421,16.165 15.581,16.074 15.757,16.03 L23.757,14.03 L24.243,15.97 L16.511,17.903 L10.707,23.707 C10.512,23.902 10.256,24 10,24" id="Fill-208" fill="#E97025"></path>
            <path d="M39,43 C38.66,43 38.329,42.825 38.143,42.515 L32.355,32.87 L24.757,30.97 L25.243,29.03 L33.243,31.03 C33.5,31.094 33.721,31.258 33.857,31.485 L39.381,40.691 L41.691,39.537 L37.236,29.736 L27.553,24.895 C27.123,24.679 26.906,24.188 27.039,23.725 L29.039,16.725 C29.15,16.335 29.486,16.051 29.89,16.006 L38.541,15.045 L44.586,9 L43,7.414 L37.707,12.707 C37.52,12.895 37.265,13 37,13 L30,13 L30,11 L36.586,11 L42.293,5.293 C42.684,4.902 43.316,4.902 43.707,5.293 L46.707,8.293 C47.098,8.684 47.098,9.316 46.707,9.707 L39.707,16.707 C39.546,16.868 39.336,16.969 39.11,16.994 L30.777,17.92 L29.189,23.477 L38.447,28.105 C38.652,28.208 38.815,28.377 38.91,28.586 L43.91,39.586 C44.133,40.076 43.928,40.654 43.447,40.895 L39.447,42.895 C39.304,42.966 39.151,43 39,43" id="Fill-209" fill="#E97025"></path>
            <path d="M12,48 C11.743,48 11.487,47.901 11.293,47.707 L8.293,44.707 C7.902,44.316 7.902,43.684 8.293,43.293 L16.126,35.46 L19.015,26.793 L20.039,15.65 L22.03,15.833 L20.996,27.091 C20.989,27.168 20.973,27.243 20.949,27.316 L17.949,36.316 C17.899,36.463 17.817,36.597 17.707,36.707 L10.414,44 L12.067,45.653 L22.13,37.42 L25.042,27.713 L26.958,28.287 L23.958,38.287 C23.9,38.479 23.788,38.648 23.633,38.774 L12.633,47.774 C12.448,47.925 12.224,48 12,48" id="Fill-210" fill="#E97025"></path>
        </g>
        <rect id="bounding-box" x="0" y="0" width="80" height="80"></rect>
    </g>
</svg>