<?xml version="1.0" encoding="UTF-8"?>
<svg width="80px" height="80px" viewBox="0 0 80 80" version="1.1" xmlns="http://www.w3.org/2000/svg" xmlns:xlink="http://www.w3.org/1999/xlink">
    <title>Icons/Illustrative icons/smartwatch</title>
    <g id="Icons/Illustrative-icons/smartwatch" stroke="none" stroke-width="1" fill="none" fill-rule="evenodd">
        <g id="Group-2" transform="translate(12.000000, 8.000000)">
            <path d="M13,14 C11.346,14 10,15.346 10,17 L10,47 C10,48.654 11.346,50 13,50 L43,50 C44.654,50 46,48.654 46,47 L46,17 C46,15.346 44.654,14 43,14 L13,14 Z M43,52 L13,52 C10.243,52 8,49.757 8,47 L8,17 C8,14.243 10.243,12 13,12 L43,12 C45.757,12 48,14.243 48,17 L48,47 C48,49.757 45.757,52 43,52 L43,52 Z" id="Fill-257" fill="#A5ADB1"></path>
            <polygon id="Fill-258" fill="#A5ADB1" points="41 10 43 10 43 0 41 0"></polygon>
            <polygon id="Fill-259" fill="#A5ADB1" points="13 10 15 10 15 0 13 0"></polygon>
            <polygon id="Fill-260" fill="#A5ADB1" points="41 64 43 64 43 54 41 54"></polygon>
            <polygon id="Fill-261" fill="#A5ADB1" points="13 64 15 64 15 54 13 54"></polygon>
            <polygon id="Fill-262" fill="#A5ADB1" points="14 58 42 58 42 56 14 56"></polygon>
            <polygon id="Fill-263" fill="#A5ADB1" points="14 8 42 8 42 6 14 6"></polygon>
            <path d="M23,20 C21.897,20 21,20.897 21,22 C21,23.103 21.897,24 23,24 C24.103,24 25,23.103 25,22 C25,20.897 24.103,20 23,20 Z M23,26 C20.794,26 19,24.206 19,22 C19,19.794 20.794,18 23,18 C25.206,18 27,19.794 27,22 C27,24.206 25.206,26 23,26 L23,26 Z" id="Fill-264" fill="#E97025"></path>
            <path d="M33,20 C31.897,20 31,20.897 31,22 C31,23.103 31.897,24 33,24 C34.103,24 35,23.103 35,22 C35,20.897 34.103,20 33,20 Z M33,26 C30.794,26 29,24.206 29,22 C29,19.794 30.794,18 33,18 C35.206,18 37,19.794 37,22 C37,24.206 35.206,26 33,26 L33,26 Z" id="Fill-265" fill="#E97025"></path>
            <path d="M18,30 C16.897,30 16,30.897 16,32 C16,33.103 16.897,34 18,34 C19.103,34 20,33.103 20,32 C20,30.897 19.103,30 18,30 Z M18,36 C15.794,36 14,34.206 14,32 C14,29.794 15.794,28 18,28 C20.206,28 22,29.794 22,32 C22,34.206 20.206,36 18,36 L18,36 Z" id="Fill-266" fill="#E97025"></path>
            <path d="M38,30 C36.897,30 36,30.897 36,32 C36,33.103 36.897,34 38,34 C39.103,34 40,33.103 40,32 C40,30.897 39.103,30 38,30 Z M38,36 C35.794,36 34,34.206 34,32 C34,29.794 35.794,28 38,28 C40.206,28 42,29.794 42,32 C42,34.206 40.206,36 38,36 L38,36 Z" id="Fill-267" fill="#E97025"></path>
            <path d="M28,30 C26.897,30 26,30.897 26,32 C26,33.103 26.897,34 28,34 C29.103,34 30,33.103 30,32 C30,30.897 29.103,30 28,30 Z M28,36 C25.794,36 24,34.206 24,32 C24,29.794 25.794,28 28,28 C30.206,28 32,29.794 32,32 C32,34.206 30.206,36 28,36 L28,36 Z" id="Fill-268" fill="#E97025"></path>
            <path d="M23,40 C21.897,40 21,40.897 21,42 C21,43.103 21.897,44 23,44 C24.103,44 25,43.103 25,42 C25,40.897 24.103,40 23,40 Z M23,46 C20.794,46 19,44.206 19,42 C19,39.794 20.794,38 23,38 C25.206,38 27,39.794 27,42 C27,44.206 25.206,46 23,46 L23,46 Z" id="Fill-269" fill="#E97025"></path>
            <path d="M33,40 C31.897,40 31,40.897 31,42 C31,43.103 31.897,44 33,44 C34.103,44 35,43.103 35,42 C35,40.897 34.103,40 33,40 Z M33,46 C30.794,46 29,44.206 29,42 C29,39.794 30.794,38 33,38 C35.206,38 37,39.794 37,42 C37,44.206 35.206,46 33,46 L33,46 Z" id="Fill-270" fill="#E97025"></path>
            <path d="M49,30 L47,30 L47,28 L48,28 L48,26 L47,26 L47,24 L49,24 C49.552,24 50,24.447 50,25 L50,29 C50,29.553 49.552,30 49,30" id="Fill-271" fill="#A5ADB1"></path>
            <path d="M49,42 L47,42 L47,40 L48,40 L48,36 L47,36 L47,34 L49,34 C49.552,34 50,34.447 50,35 L50,41 C50,41.553 49.552,42 49,42" id="Fill-272" fill="#A5ADB1"></path>
            <polygon id="Fill-273" fill="#A5ADB1" points="17 4 39 4 39 2 17 2"></polygon>
            <polygon id="Fill-274" fill="#A5ADB1" points="17 62 39 62 39 60 17 60"></polygon>
            <path d="M6,14 L4,14 C4,10.691 6.691,8 10,8 L10,10 C7.794,10 6,11.794 6,14" id="Fill-275" fill="#E97025"></path>
            <path d="M2,14 L0,14 C0,8.486 4.486,4 10,4 L10,6 C5.589,6 2,9.589 2,14" id="Fill-276" fill="#E97025"></path>
            <path d="M46,56 L46,54 C48.206,54 50,52.206 50,50 L52,50 C52,53.309 49.309,56 46,56" id="Fill-277" fill="#E97025"></path>
            <path d="M46,60 L46,58 C50.411,58 54,54.411 54,50 L56,50 C56,55.514 51.514,60 46,60" id="Fill-278" fill="#E97025"></path>
            <polygon id="Fill-279" fill="#A5ADB1" points="12 18 14 18 14 16 12 16"></polygon>
            <polygon id="Fill-280" fill="#A5ADB1" points="42 18 44 18 44 16 42 16"></polygon>
            <polygon id="Fill-281" fill="#A5ADB1" points="12 48 14 48 14 46 12 46"></polygon>
            <polygon id="Fill-282" fill="#A5ADB1" points="42 48 44 48 44 46 42 46"></polygon>
        </g>
        <path d="M80,80 L0,80 L80,80 Z" id="bounding-box"></path>
    </g>
</svg>