<?xml version="1.0" encoding="UTF-8"?>
<svg width="80px" height="80px" viewBox="0 0 80 80" version="1.1" xmlns="http://www.w3.org/2000/svg" xmlns:xlink="http://www.w3.org/1999/xlink">
    <title>Icons/Illustrative Icons/Suomifi Services/Service Catalogue</title>
    <g id="Icons/Illustrative-Icons/Suomifi-Services/Service-Catalogue" stroke="none" stroke-width="1" fill="none" fill-rule="evenodd">
        <g id="Page-1" transform="translate(8.000000, 12.000000)">
            <path d="M2,38.0024 L2,52.6690667 C2,53.4050667 2.448,54.0024 3,54.0024 L61,54.0024 C61.552,54.0024 62,53.4050667 62,52.6690667 L62,38.0024 L2,38.0024 Z M61,56.0024 L3,56.0024 C1.346,56.0024 0,54.6564 0,53.0024 L0,37.0024 C0,36.4494 0.447,36.0024 1,36.0024 L63,36.0024 C63.553,36.0024 64,36.4494 64,37.0024 L64,53.0024 C64,54.6564 62.654,56.0024 61,56.0024 Z" id="Fill-1" fill="#A5ADB1"></path>
            <path d="M2,36.0024 L62,36.0024 L62,20.0024 L2,20.0024 L2,36.0024 Z M1,38.0024 C0.447,38.0024 0,37.5554 0,37.0024 L0,19.0024 C0,18.4494 0.447,18.0024 1,18.0024 L63,18.0024 C63.553,18.0024 64,18.4494 64,19.0024 L64,37.0024 C64,37.5554 63.553,38.0024 63,38.0024 L1,38.0024 Z" id="Fill-3" fill="#A5ADB1"></path>
            <path d="M2.3877,18.0024 L61.6847,18.0024 L57.2397,2.0004 L7.7207,2.0004 L2.3877,18.0024 Z M62.9997,20.0024 L0.9997,20.0024 C0.6787,20.0024 0.3767,19.8484 0.1887,19.5864 C0.000700000001,19.3264 -0.0503,18.9914 0.0517,18.6864 L5.8247,1.3674 C6.0957,0.5504 6.8577,0.0004 7.7207,0.0004 L57.2407,0.0004 C58.1347,0.0004 58.9267,0.6024 59.1667,1.4644 L63.9637,18.7344 C64.0467,19.0364 63.9857,19.3584 63.7957,19.6074 C63.6077,19.8564 63.3127,20.0024 62.9997,20.0024 L62.9997,20.0024 Z" id="Fill-6" fill="#A5ADB1"></path>
            <path d="M24,45.0034 L24,46.0034 C24,46.5554 24.448,47.0034 25,47.0034 L39,47.0034 C39.552,47.0034 40,46.5554 40,46.0034 L40,45.0034 L24,45.0034 Z M39,49.0034 L25,49.0034 C23.346,49.0034 22,47.6574 22,46.0034 L22,44.0034 C22,43.4504 22.447,43.0034 23,43.0034 L41,43.0034 C41.553,43.0034 42,43.4504 42,44.0034 L42,46.0034 C42,47.6574 40.654,49.0034 39,49.0034 L39,49.0034 Z" id="Fill-7" fill="#A5ADB1"></path>
            <polygon id="Fill-8" fill="#A5ADB1" points="18.001 47.0024 20.001 47.0024 20.001 45.0024 18.001 45.0024"></polygon>
            <polygon id="Fill-9" fill="#A5ADB1" points="44.001 47.0024 46.001 47.0024 46.001 45.0024 44.001 45.0024"></polygon>
            <path d="M24,26.9917 L24,27.9917 C24,28.5437 24.448,28.9917 25,28.9917 L39,28.9917 C39.552,28.9917 40,28.5437 40,27.9917 L40,26.9917 L24,26.9917 Z M39,30.9917 L25,30.9917 C23.346,30.9917 22,29.6457 22,27.9917 L22,25.9917 C22,25.4387 22.447,24.9917 23,24.9917 L41,24.9917 C41.553,24.9917 42,25.4387 42,25.9917 L42,27.9917 C42,29.6457 40.654,30.9917 39,30.9917 L39,30.9917 Z" id="Fill-10" fill="#A5ADB1"></path>
            <polygon id="Fill-11" fill="#A5ADB1" points="18.001 28.9914 20.001 28.9914 20.001 26.9914 18.001 26.9914"></polygon>
            <polygon id="Fill-12" fill="#A5ADB1" points="44.001 28.9914 46.001 28.9914 46.001 26.9914 44.001 26.9914"></polygon>
            <polyline id="Fill-16" fill="#E97025" points="54.0018 8.9968 52.0018 8.9968 52.0018 6.0028 12.0038 5.9968 12.0038 8.9968 10.0038 8.9968 10.0038 3.9968 54.0018 3.9968"></polyline>
            <polyline id="Fill-16-Copy" fill="#E97025" points="56.0018 15.9968 54.0018 15.9968 54.0018 13.0028 10.0038 12.9968 10.0038 15.9968 8.0038 15.9968 8.0038 10.9968 56.0018 10.9968"></polyline>
        </g>
        <rect id="bounding-box" x="0" y="0" width="80" height="80"></rect>
    </g>
</svg>