<?xml version="1.0" encoding="UTF-8"?>
<svg width="80px" height="80px" viewBox="0 0 80 80" version="1.1" xmlns="http://www.w3.org/2000/svg" xmlns:xlink="http://www.w3.org/1999/xlink">
    <title>Icons/Illustrative Icons/Growth</title>
    <g id="Icons/Illustrative-Icons/Growth" stroke="none" stroke-width="1" fill="none" fill-rule="evenodd">
        <g id="Group-2" transform="translate(8.000000, 12.000000)">
            <path d="M51.963,2.037 C46.125,2.456 42,6.336 42,9 C42,10.458 43.542,12 45,12 C47.664,12 51.544,7.875 51.963,2.037 Z M45,14 C42.43,14 40,11.57 40,9 C40,4.838 45.679,0 53,0 L54,0 L54,1 C54,8.321 49.162,14 45,14 L45,14 Z" id="Fill-574" class="fi-icon-illustative-highlight-fill"></path>
            <path d="M22.037,10.037 C22.456,15.875 26.336,20 29,20 C30.458,20 32,18.458 32,17 C32,14.336 27.875,10.456 22.037,10.037 Z M29,22 C24.838,22 20,16.321 20,9 L20,8 L21,8 C28.321,8 34,12.838 34,17 C34,19.57 31.57,22 29,22 L29,22 Z" id="Fill-575" class="fi-icon-illustative-highlight-fill"></path>
            <polygon id="Fill-576" class="fi-icon-illustative-highlight-fill" points="36 30 38 30 38 9 36 9"></polygon>
            <path d="M38,20 L36,20 C36,16.625 38.199,14.387 38.293,14.293 L44.293,8.293 L45.707,9.707 L39.707,15.707 C39.693,15.722 38,17.474 38,20" id="Fill-577" class="fi-icon-illustative-highlight-fill"></path>
            <path d="M38,28 L36,28 C36,25.444 34.31,23.724 34.293,23.707 L28.293,17.707 L29.707,16.293 L35.707,22.293 C35.801,22.387 38,24.625 38,28" id="Fill-578" class="fi-icon-illustative-highlight-fill"></path>
            <path d="M52,40 L50,40 C50,35.038 44.168,31 37,31 C33.118,31 29.257,32.398 26.671,34.741 L25.329,33.259 C28.316,30.552 32.57,29 37,29 C45.271,29 52,33.935 52,40" id="Fill-579" class="fi-icon-illustative-highlight-fill"></path>
            <path d="M29,46 L27,46 C27,43.794 28.794,42 31,42 L42,42 C43.103,42 44,41.103 44,40 C44,38.897 43.103,38 42,38 L32.824,38 L21.824,34 L13,34 L13,32 L22.176,32 L33.176,36 L42,36 C44.206,36 46,37.794 46,40 C46,42.206 44.206,44 42,44 L31,44 C29.897,44 29,44.897 29,46" id="Fill-580" fill="#A5ADB1"></path>
            <path d="M37.244,56 L34.829,56 L17.829,50 L14,50 L14,48 L18.171,48 L35.171,54 L36.756,54 L61.386,41.192 C61.66,40.878 62,40.349 62,40 C62,38.943 61.177,38.076 60.138,38.005 L44.298,42.955 L43.702,41.045 L60,36 C62.206,36 64,37.794 64,40 C64,41.371 62.841,42.573 62.708,42.706 L62.461,42.887 L37.244,56" id="Fill-581" fill="#A5ADB1"></path>
            <polygon id="Fill-582" fill="#A5ADB1" points="8 48 10 48 10 46 8 46"></polygon>
            <polygon id="Fill-583" fill="#A5ADB1" points="4 48 6 48 6 46 4 46"></polygon>
            <path d="M12,52 L0,52 L0,50 L12,50 L12,32 L0,32 L0,30 L12,30 C13.103,30 14,30.897 14,32 L14,50 C14,51.103 13.103,52 12,52" id="Fill-584" fill="#A5ADB1"></path>
        </g>
        <rect id="bounding-box" x="0" y="0" width="80" height="80"></rect>
    </g>
</svg>