<?xml version="1.0" encoding="UTF-8"?>
<svg width="80px" height="80px" viewBox="0 0 80 80" version="1.1" xmlns="http://www.w3.org/2000/svg" xmlns:xlink="http://www.w3.org/1999/xlink">
    <title>Icons/Illustrative Icons/Service</title>
    <g id="Icons/Illustrative-Icons/Service" stroke="none" stroke-width="1" fill="none" fill-rule="evenodd">
        <g id="Group-2" transform="translate(8.000000, 8.000000)">
            <path d="M26.00025,52.884 C25.77425,52.884 25.54725,52.798 25.37525,52.625 C25.03025,52.28 25.03025,51.72 25.37525,51.375 L39.31325,37.437 L45.20825,28.595 L48.17225,20.689 C48.34425,20.233 48.85325,20.002 49.31125,20.172 C49.76825,20.344 49.99925,20.854 49.82825,21.311 L46.73525,29.49 L40.62525,38.625 L26.62525,52.625 C26.45325,52.798 26.22625,52.884 26.00025,52.884" id="Fill-206" fill="#A5ADB1"></path>
            <path d="M16.00125,43 C15.94725,43 15.89125,42.996 15.83525,42.986 C15.29125,42.896 14.92325,42.38 15.01425,41.836 L16.10525,35.553 L19.00025,29.764 L19.00025,25.123 L18.03025,21.242 C17.89625,20.707 18.22225,20.164 18.75725,20.03 C19.29225,19.896 19.83625,20.222 19.97025,20.758 L21.00025,25 L21.00025,30.236 L17.96125,36.313 L16.98625,42.164 C16.90525,42.653 16.48125,43 16.00125,43" id="Fill-207" fill="#A5ADB1"></path>
            <path d="M30.88425,34.06 L26.09725,31.667 L25.01425,25.164 L24.03025,21.242 C23.89625,20.707 24.22225,20.164 24.75725,20.03 C25.29225,19.896 25.83625,20.222 25.97025,20.758 L26.97025,24.758 L27.90225,30.333 L31.11625,31.94 L34.54625,31.083 L39.22725,27.338 L43.13225,20.504 C43.40625,20.024 44.01725,19.857 44.49625,20.132 C44.97625,20.406 45.14225,21.017 44.86825,21.496 L40.77325,28.662 L35.45425,32.917 L30.88425,34.06" id="Fill-208" fill="#A5ADB1"></path>
            <path d="M1.00025,56 C0.74425,56 0.48825,55.902 0.29325,55.707 C-0.09775,55.316 -0.09775,54.684 0.29325,54.293 L7.29325,47.293 C7.68425,46.902 8.31625,46.902 8.70725,47.293 C9.09825,47.684 9.09825,48.316 8.70725,48.707 L1.70725,55.707 C1.51225,55.902 1.25625,56 1.00025,56" id="Fill-209" fill="#A5ADB1"></path>
            <path d="M17.00025,64 C16.74425,64 16.48825,63.902 16.29325,63.707 C15.90225,63.316 15.90225,62.684 16.29325,62.293 L19.29325,59.293 C19.68425,58.902 20.31625,58.902 20.70725,59.293 C21.09825,59.684 21.09825,60.316 20.70725,60.707 L17.70725,63.707 C17.51225,63.902 17.25625,64 17.00025,64" id="Fill-210" fill="#A5ADB1"></path>
            <path d="M8.41425,47 L21.00025,59.586 L26.58625,54 L14.00025,41.414 L8.41425,47 Z M21.00025,62 C20.74425,62 20.48825,61.902 20.29325,61.707 L6.29325,47.707 C5.90225,47.316 5.90225,46.684 6.29325,46.293 L13.29325,39.293 C13.68425,38.902 14.31625,38.902 14.70725,39.293 L28.70725,53.293 C29.09825,53.684 29.09825,54.316 28.70725,54.707 L21.70725,61.707 C21.51225,61.902 21.25625,62 21.00025,62 L21.00025,62 Z" id="Fill-211" fill="#A5ADB1"></path>
            <path d="M22.00025,55 C21.74425,55 21.48825,54.902 21.29325,54.707 L19.29325,52.707 C18.90225,52.316 18.90225,51.684 19.29325,51.293 C19.68425,50.902 20.31625,50.902 20.70725,51.293 L22.70725,53.293 C23.09825,53.684 23.09825,54.316 22.70725,54.707 C22.51225,54.902 22.25625,55 22.00025,55" id="Fill-212" fill="#A5ADB1"></path>
            <path d="M31.00025,34 C30.74425,34 30.48825,33.902 30.29325,33.707 C29.90225,33.316 29.90225,32.684 30.29325,32.293 L35.15725,27.429 L38.08125,20.606 C38.29725,20.098 38.88625,19.859 39.39425,20.081 C39.90125,20.299 40.13725,20.887 39.91925,21.394 L36.84325,28.571 L31.70725,33.707 C31.51225,33.902 31.25625,34 31.00025,34" id="Fill-213" fill="#A5ADB1"></path>
            <polygon id="Fill-204" class="fi-icon-illustative-highlight-fill" points="4.00025 18 64.00025 18 64.00025 16 4.00025 16"></polygon>
            <path d="M55.35125,22 L12.64925,22 L7.37525,17.781 C6.94425,17.436 6.87425,16.807 7.21925,16.375 C7.56325,15.945 8.19425,15.875 8.62525,16.219 L13.35125,20 L54.64925,20 L59.37525,16.219 C59.80625,15.874 60.43625,15.943 60.78125,16.375 C61.12625,16.807 61.05625,17.436 60.62525,17.781 L55.35125,22" id="Fill-205" class="fi-icon-illustative-highlight-fill"></path>
            <polyline id="Fill-214" class="fi-icon-illustative-highlight-fill" points="15.29325 11.707 12.29325 8.707 13.70725 7.293 16.70725 10.293 15.29325 11.707"></polyline>
            <polyline id="Fill-215" class="fi-icon-illustative-highlight-fill" points="24.10525 6.447 22.10525 2.447 23.89525 1.553 25.89525 5.553 24.10525 6.447"></polyline>
            <polyline id="Fill-216" class="fi-icon-illustative-highlight-fill" points="52.70725 11.707 51.29325 10.293 54.29325 7.293 55.70725 8.707 52.70725 11.707"></polyline>
            <polyline id="Fill-217" class="fi-icon-illustative-highlight-fill" points="43.89525 6.447 42.10525 5.553 44.10525 1.553 45.89525 2.447 43.89525 6.447"></polyline>
            <polygon id="Fill-218" class="fi-icon-illustative-highlight-fill" points="33.00025 4 35.00025 4 35.00025 0 33.00025 0"></polygon>
        </g>
        <rect id="bounding-box" x="0" y="0" width="80" height="80"></rect>
    </g>
</svg>