<?xml version="1.0" encoding="UTF-8"?>
<svg width="80px" height="80px" viewBox="0 0 80 80" version="1.1" xmlns="http://www.w3.org/2000/svg" xmlns:xlink="http://www.w3.org/1999/xlink">
    <title>Icons/Illustrative Icons/Settings</title>
    <g id="Icons/Illustrative-Icons/Settings" stroke="none" stroke-width="1" fill="none" fill-rule="evenodd">
        <g id="Group-2" transform="translate(8.000000, 8.000000)">
            <path d="M33.407,57.905 L35.1,61.777 C36.517,61.632 37.922,61.385 39.29,61.045 L39.556,56.833 L40.195,56.62 C40.664,56.464 41.125,56.296 41.581,56.115 L42.207,55.866 L45.12,58.922 C46.394,58.3 47.628,57.587 48.802,56.792 L47.611,52.741 L48.138,52.322 C48.522,52.017 48.899,51.703 49.265,51.378 L49.77,50.928 L53.553,52.806 C54.536,51.791 55.452,50.699 56.288,49.549 L53.785,46.152 L54.139,45.577 C54.397,45.159 54.646,44.736 54.88,44.301 L55.201,43.709 L59.397,44.177 C59.977,42.883 60.464,41.546 60.853,40.186 L57.337,37.848 L57.471,37.188 C57.569,36.709 57.651,36.224 57.722,35.735 L57.819,35.066 L61.922,34.072 C61.974,33.344 62,32.643 62,31.945 C62,31.247 61.974,30.546 61.922,29.818 L57.819,28.824 L57.722,28.155 C57.651,27.666 57.569,27.181 57.471,26.702 L57.337,26.042 L60.853,23.704 C60.464,22.344 59.977,21.008 59.397,19.713 L55.201,20.181 L54.88,19.589 C54.646,19.154 54.397,18.731 54.139,18.313 L53.785,17.738 L56.288,14.341 C55.452,13.191 54.536,12.099 53.553,11.084 L49.77,12.962 L49.265,12.512 C48.899,12.187 48.522,11.873 48.138,11.568 L47.611,11.149 L48.802,7.098 C47.628,6.303 46.394,5.59 45.12,4.968 L42.207,8.024 L41.581,7.775 C41.125,7.594 40.664,7.426 40.195,7.27 L39.556,7.057 L39.29,2.845 C37.922,2.505 36.517,2.258 35.1,2.113 L33.407,5.985 L32.536,5.958 C32.18,5.946 31.82,5.946 31.464,5.958 L30.593,5.985 L28.9,2.113 C27.483,2.258 26.078,2.505 24.71,2.845 L24.444,7.057 L23.805,7.27 C23.336,7.426 22.875,7.594 22.419,7.775 L21.792,8.024 L18.88,4.968 C17.606,5.59 16.372,6.303 15.198,7.098 L16.389,11.149 L15.862,11.568 C15.477,11.873 15.101,12.187 14.735,12.512 L14.23,12.962 L10.447,11.084 C9.464,12.099 8.548,13.191 7.712,14.341 L10.215,17.738 L9.861,18.313 C9.603,18.731 9.354,19.154 9.12,19.589 L8.799,20.181 L4.602,19.713 C4.023,21.008 3.536,22.344 3.147,23.704 L6.663,26.042 L6.529,26.702 C6.431,27.181 6.349,27.666 6.278,28.155 L6.181,28.824 L2.078,29.818 C2.026,30.546 2,31.247 2,31.945 C2,32.643 2.026,33.344 2.078,34.072 L6.181,35.066 L6.278,35.735 C6.349,36.224 6.431,36.709 6.529,37.188 L6.663,37.848 L3.147,40.186 C3.536,41.546 4.023,42.883 4.602,44.177 L8.799,43.709 L9.12,44.301 C9.354,44.736 9.603,45.159 9.861,45.577 L10.215,46.152 L7.712,49.549 C8.548,50.699 9.464,51.791 10.447,52.806 L14.23,50.928 L14.735,51.378 C15.101,51.703 15.477,52.017 15.862,52.322 L16.389,52.741 L15.198,56.792 C16.372,57.587 17.606,58.3 18.88,58.922 L21.792,55.866 L22.419,56.115 C22.875,56.296 23.336,56.464 23.805,56.62 L24.444,56.833 L24.71,61.045 C26.078,61.385 27.483,61.632 28.9,61.777 L30.593,57.905 L31.464,57.932 C31.82,57.944 32.18,57.944 32.536,57.932 L33.407,57.905 Z M33.841,63.89 L32.116,59.944 C32.039,59.946 31.961,59.946 31.884,59.944 L30.159,63.89 L29.449,63.835 C27.427,63.675 25.422,63.324 23.492,62.792 L22.804,62.602 L22.532,58.296 C22.46,58.269 22.388,58.243 22.315,58.216 L19.338,61.341 L18.689,61.044 C16.857,60.205 15.097,59.185 13.455,58.015 L12.875,57.602 L14.093,53.462 C14.035,53.414 13.977,53.365 13.919,53.316 L10.051,55.236 L9.544,54.735 C8.113,53.326 6.805,51.768 5.656,50.105 L5.25,49.518 L7.809,46.047 C7.769,45.979 7.73,45.912 7.691,45.844 L3.4,46.325 L3.094,45.681 C2.226,43.859 1.53,41.949 1.025,40.004 L0.846,39.314 L4.443,36.923 C4.43,36.846 4.416,36.77 4.403,36.693 L0.212,35.677 L0.146,34.966 C0.049,33.932 0,32.916 0,31.945 C0,30.974 0.049,29.958 0.146,28.924 L0.212,28.213 L4.403,27.197 C4.416,27.12 4.43,27.044 4.443,26.967 L0.846,24.576 L1.025,23.886 C1.53,21.941 2.226,20.031 3.094,18.209 L3.4,17.565 L7.691,18.046 C7.73,17.978 7.769,17.911 7.809,17.843 L5.25,14.372 L5.656,13.785 C6.805,12.122 8.113,10.564 9.544,9.155 L10.051,8.654 L13.919,10.574 C13.977,10.525 14.035,10.476 14.093,10.428 L12.875,6.288 L13.455,5.875 C15.097,4.705 16.857,3.685 18.689,2.846 L19.338,2.549 L22.315,5.674 C22.388,5.647 22.46,5.621 22.532,5.594 L22.804,1.288 L23.492,1.098 C25.422,0.566 27.427,0.215 29.449,0.055 L30.159,0 L31.884,3.946 C31.961,3.944 32.039,3.944 32.116,3.946 L33.841,0 L34.551,0.055 C36.573,0.215 38.578,0.566 40.508,1.098 L41.196,1.288 L41.468,5.594 C41.54,5.621 41.612,5.647 41.685,5.674 L44.662,2.549 L45.311,2.846 C47.143,3.685 48.903,4.705 50.545,5.875 L51.125,6.288 L49.907,10.428 C49.965,10.476 50.023,10.525 50.081,10.574 L53.949,8.654 L54.457,9.155 C55.887,10.564 57.195,12.122 58.344,13.785 L58.75,14.372 L56.191,17.843 C56.231,17.911 56.27,17.978 56.309,18.046 L60.6,17.565 L60.906,18.209 C61.774,20.031 62.47,21.941 62.975,23.886 L63.154,24.576 L59.557,26.967 C59.57,27.044 59.583,27.12 59.597,27.197 L63.788,28.213 L63.854,28.924 C63.951,29.958 64,30.974 64,31.945 C64,32.916 63.951,33.932 63.854,34.966 L63.788,35.677 L59.597,36.693 C59.583,36.77 59.57,36.846 59.557,36.923 L63.154,39.314 L62.975,40.004 C62.47,41.949 61.774,43.859 60.906,45.681 L60.6,46.325 L56.309,45.844 C56.27,45.912 56.231,45.979 56.191,46.047 L58.75,49.518 L58.344,50.105 C57.195,51.768 55.887,53.326 54.457,54.735 L53.949,55.236 L50.081,53.316 C50.023,53.365 49.965,53.414 49.907,53.462 L51.125,57.602 L50.545,58.015 C48.903,59.185 47.143,60.205 45.311,61.044 L44.662,61.341 L41.685,58.216 C41.612,58.243 41.54,58.269 41.468,58.296 L41.196,62.602 L40.508,62.792 C38.578,63.324 36.573,63.675 34.551,63.835 L33.841,63.89 L33.841,63.89 Z" id="Fill-342" fill="#A5ADB1"></path>
            <path d="M12,31.945 L10,31.945 C10,19.814 19.869,9.945 32,9.945 L32,11.945 C20.972,11.945 12,20.917 12,31.945" id="Fill-343" fill="#A5ADB1"></path>
            <path d="M32,53.945 L32,51.945 C43.028,51.945 52,42.973 52,31.945 L54,31.945 C54,44.076 44.131,53.945 32,53.945" id="Fill-344" fill="#A5ADB1"></path>
            <path d="M33.371,42.862 L33.732,43.334 L35.253,45.555 C35.967,45.383 36.675,45.151 37.367,44.862 L37.277,41.601 L37.767,41.299 C38.26,40.994 38.714,40.666 39.117,40.323 L39.557,39.949 L42.624,41.041 C43.117,40.469 43.558,39.87 43.941,39.249 L41.952,36.663 L42.171,36.13 C42.371,35.644 42.537,35.124 42.679,34.541 L42.814,33.98 L45.947,33.057 C45.983,32.659 46,32.296 46,31.945 C46,31.594 45.983,31.231 45.947,30.833 L42.814,29.91 L42.679,29.349 C42.537,28.766 42.371,28.246 42.171,27.76 L41.952,27.227 L43.941,24.641 C43.558,24.02 43.117,23.421 42.624,22.849 L39.557,23.941 L39.117,23.567 C38.714,23.224 38.26,22.896 37.767,22.591 L37.277,22.289 L37.367,19.028 C36.675,18.739 35.967,18.507 35.253,18.335 L33.406,21.031 L32.832,20.988 C32.233,20.943 31.731,20.946 31.204,20.985 L30.629,21.028 L30.268,20.556 L28.747,18.335 C28.033,18.507 27.325,18.739 26.633,19.028 L26.723,22.289 L26.233,22.591 C25.74,22.896 25.286,23.224 24.883,23.567 L24.443,23.941 L21.375,22.849 C20.883,23.421 20.443,24.02 20.06,24.641 L22.048,27.225 L21.829,27.758 C21.628,28.248 21.462,28.767 21.322,29.348 L21.186,29.909 L18.053,30.833 C18.017,31.231 18,31.594 18,31.945 C18,32.296 18.017,32.659 18.053,33.057 L21.186,33.981 L21.322,34.542 C21.462,35.123 21.628,35.642 21.829,36.132 L22.048,36.665 L20.06,39.249 C20.443,39.87 20.883,40.469 21.375,41.041 L24.443,39.949 L24.883,40.323 C25.286,40.666 25.74,40.994 26.233,41.299 L26.723,41.601 L26.633,44.862 C27.325,45.151 28.033,45.383 28.747,45.555 L30.594,42.859 L31.168,42.902 C31.767,42.947 32.269,42.944 32.796,42.905 L33.371,42.862 Z M32.404,44.934 C32.131,44.947 31.862,44.947 31.596,44.934 L29.648,47.778 L29.007,47.656 C27.706,47.41 26.421,46.989 25.187,46.407 L24.597,46.128 L24.692,42.683 C24.468,42.531 24.251,42.375 24.042,42.215 L20.8,43.368 L20.352,42.892 C19.412,41.892 18.614,40.803 17.981,39.654 L17.665,39.081 L19.77,36.344 C19.683,36.096 19.602,35.841 19.526,35.577 L16.22,34.602 L16.139,33.953 C16.044,33.199 16,32.561 16,31.945 C16,31.329 16.044,30.691 16.139,29.937 L16.22,29.288 L19.526,28.313 C19.602,28.049 19.683,27.794 19.77,27.546 L17.665,24.809 L17.981,24.236 C18.614,23.087 19.412,21.998 20.352,20.998 L20.8,20.522 L24.042,21.675 C24.251,21.515 24.468,21.359 24.692,21.207 L24.597,17.762 L25.187,17.483 C26.421,16.901 27.706,16.48 29.007,16.234 L29.648,16.112 L31.596,18.956 C31.868,18.941 32.137,18.941 32.404,18.956 L34.352,16.112 L34.993,16.234 C36.294,16.48 37.579,16.901 38.812,17.483 L39.403,17.762 L39.308,21.207 C39.532,21.359 39.749,21.515 39.958,21.675 L43.2,20.522 L43.648,20.998 C44.588,21.998 45.386,23.088 46.02,24.236 L46.335,24.809 L44.229,27.546 C44.317,27.794 44.398,28.049 44.474,28.314 L47.78,29.288 L47.861,29.937 C47.956,30.691 48,31.329 48,31.945 C48,32.561 47.956,33.199 47.861,33.953 L47.78,34.602 L44.474,35.576 C44.398,35.841 44.317,36.096 44.229,36.344 L46.335,39.081 L46.02,39.654 C45.386,40.802 44.588,41.892 43.648,42.892 L43.2,43.368 L39.958,42.215 C39.749,42.375 39.532,42.531 39.308,42.683 L39.403,46.128 L38.812,46.407 C37.579,46.989 36.294,47.41 34.993,47.656 L34.352,47.778 L32.404,44.934 Z" id="Fill-345" class="fi-icon-illustative-highlight-fill"></path>
            <path d="M32,26.945 C29.243,26.945 27,29.188 27,31.945 C27,34.702 29.243,36.945 32,36.945 C34.757,36.945 37,34.702 37,31.945 C37,29.188 34.757,26.945 32,26.945 Z M32,38.945 C28.14,38.945 25,35.804 25,31.945 C25,28.086 28.14,24.945 32,24.945 C35.86,24.945 39,28.086 39,31.945 C39,35.804 35.86,38.945 32,38.945 L32,38.945 Z" id="Fill-346" class="fi-icon-illustative-highlight-fill"></path>
        </g>
    </g>
</svg>