<?xml version="1.0" encoding="UTF-8"?>
<svg width="80px" height="80px" viewBox="0 0 80 80" version="1.1" xmlns="http://www.w3.org/2000/svg" xmlns:xlink="http://www.w3.org/1999/xlink">
    <title>Icons/Illustrative Icons/Scale</title>
    <g id="Icons/Illustrative-Icons/Scale" stroke="none" stroke-width="1" fill="none" fill-rule="evenodd">
        <g id="Taloushallinto-julkinen-talous-ja-hankinnat" transform="translate(8.000000, 9.000000)">
            <polyline id="Fill-111" fill="#A5ADB1" points="36.481 12.876 35.519 11.124 55.519 0.124 56.481 1.876 36.481 12.876"></polyline>
            <polyline id="Fill-112" fill="#A5ADB1" points="8.481 27.876 7.519 26.124 27.519 15.124 28.481 16.876 8.481 27.876"></polyline>
            <path d="M2.083,47 C2.561,49.834 5.032,52 8,52 C10.968,52 13.439,49.834 13.917,47 L2.083,47 Z M8,54 C3.589,54 0,50.411 0,46 L0,45 L16,45 L16,46 C16,50.411 12.411,54 8,54 L8,54 Z" id="Fill-113" fill="#E97025"></path>
            <path d="M14,43 L12,43 L12,41.173 L8,29.973 L4,41.173 L4,43 L2,43 L2,41 C2,40.885 2.02,40.771 2.059,40.664 L7.059,26.664 C7.2,26.266 7.577,26 8,26 C8.423,26 8.8,26.266 8.941,26.664 L13.941,40.664 C13.98,40.771 14,40.885 14,41 L14,43" id="Fill-114" fill="#A5ADB1"></path>
            <path d="M50.083,21 C50.561,23.834 53.032,26 56,26 C58.968,26 61.439,23.834 61.917,21 L50.083,21 Z M56,28 C51.589,28 48,24.411 48,20 L48,19 L64,19 L64,20 C64,24.411 60.411,28 56,28 L56,28 Z" id="Fill-115" fill="#E97025"></path>
            <path d="M62,17 L60,17 L60,15.173 L56,3.973 L52,15.173 L52,17 L50,17 L50,15 C50,14.885 50.02,14.771 50.059,14.664 L55.059,0.664 C55.2,0.266 55.577,0 56,0 C56.423,0 56.8,0.266 56.941,0.664 L61.941,14.664 C61.98,14.771 62,14.885 62,15 L62,17" id="Fill-116" fill="#A5ADB1"></path>
            <path d="M50,62 L14,62 C13.447,62 13,61.552 13,61 C13,58.243 15.243,56 18,56 L29,56 L29,19 L31,19 L31,57 C31,57.552 30.553,58 30,58 L18,58 C16.696,58 15.584,58.836 15.171,60 L48.829,60 C48.416,58.836 47.304,58 46,58 L34,58 C33.447,58 33,57.552 33,57 L33,19 L35,19 L35,56 L46,56 C48.757,56 51,58.243 51,61 C51,61.552 50.553,62 50,62" id="Fill-117" fill="#A5ADB1"></path>
            <polygon id="Fill-118" fill="#A5ADB1" points="31 15 33 15 33 13 31 13"></polygon>
            <path d="M32,10 C29.794,10 28,11.794 28,14 C28,16.206 29.794,18 32,18 C34.206,18 36,16.206 36,14 C36,11.794 34.206,10 32,10 Z M32,20 C28.691,20 26,17.309 26,14 C26,10.691 28.691,8 32,8 C35.309,8 38,10.691 38,14 C38,17.309 35.309,20 32,20 L32,20 Z" id="Fill-125" fill="#A5ADB1"></path>
            <polygon id="Fill-126" fill="#A5ADB1" points="0 62 64 62 64 60 0 60"></polygon>
        </g>
        <rect id="bounding-box" x="0" y="0" width="80" height="80"></rect>
    </g>
</svg>