<?xml version="1.0" encoding="UTF-8"?>
<svg width="80px" height="80px" viewBox="0 0 80 80" version="1.1" xmlns="http://www.w3.org/2000/svg" xmlns:xlink="http://www.w3.org/1999/xlink">
    <title>Icons/Illustrative Icons/Traffic</title>
    <g id="Icons/Illustrative-Icons/Traffic" stroke="none" stroke-width="1" fill="none" fill-rule="evenodd">
        <g id="Liikenne-ja-ympäristö" transform="translate(8.000000, 8.000000)">
            <path d="M55,37 L42,37 L42,35 L55,35 C57.921,35 60.936,33.185 62,32.477 L62,31.523 C60.936,30.815 57.921,29 55,29 L12,29 C11.734,29 11.48,28.895 11.293,28.707 L6.586,24 L5.257,24 L7.796,35 L19,35 L19,37 L7,37 C6.534,37 6.13,36.679 6.025,36.225 L3.025,23.225 C2.957,22.928 3.027,22.616 3.218,22.377 C3.407,22.139 3.695,22 4,22 L7,22 C7.266,22 7.52,22.105 7.707,22.293 L12.414,27 L55,27 C59.284,27 63.426,30.069 63.6,30.2 C63.852,30.389 64,30.685 64,31 L64,33 C64,33.315 63.852,33.611 63.6,33.8 C63.426,33.931 59.284,37 55,37" id="Fill-38" fill="#E97025"></path>
            <path d="M27.414,27 L39.141,27 L24.741,19 L19.414,19 L27.414,27 Z M43,29 L27,29 C26.734,29 26.48,28.895 26.293,28.707 L16.293,18.707 C16.007,18.421 15.921,17.991 16.076,17.617 C16.23,17.244 16.596,17 17,17 L25,17 C25.17,17 25.337,17.043 25.485,17.126 L43.485,27.126 C43.884,27.347 44.082,27.81 43.968,28.251 C43.854,28.692 43.456,29 43,29 L43,29 Z" id="Fill-39" fill="#E97025"></path>
            <path d="M19.414,41 L24.741,41 L39.141,33 L27.414,33 L19.414,41 Z M25,43 L17,43 C16.596,43 16.23,42.756 16.076,42.383 C15.921,42.009 16.007,41.579 16.293,41.293 L26.293,31.293 C26.48,31.105 26.734,31 27,31 L43,31 C43.456,31 43.854,31.308 43.968,31.749 C44.082,32.19 43.884,32.653 43.485,32.874 L25.485,42.874 C25.337,42.957 25.17,43 25,43 L25,43 Z" id="Fill-40" fill="#E97025"></path>
            <polygon id="Fill-41" fill="#A5ADB1" points="50 33 52 33 52 31 50 31"></polygon>
            <polygon id="Fill-42" fill="#A5ADB1" points="46 33 48 33 48 31 46 31"></polygon>
            <polygon id="Fill-43" fill="#A5ADB1" points="20 33 22 33 22 31 20 31"></polygon>
            <polygon id="Fill-44" fill="#A5ADB1" points="16 33 18 33 18 31 16 31"></polygon>
            <polygon id="Fill-45" fill="#A5ADB1" points="12 33 14 33 14 31 12 31"></polygon>
            <polygon id="Fill-46" fill="#A5ADB1" points="6 43 14 43 14 41 6 41"></polygon>
            <polygon id="Fill-47" fill="#A5ADB1" points="0 43 4 43 4 41 0 41"></polygon>
            <polygon id="Fill-48" fill="#A5ADB1" points="10 19 14 19 14 17 10 17"></polygon>
            <polygon id="Fill-49" fill="#A5ADB1" points="0 19 8 19 8 17 0 17"></polygon>
            <path d="M57,23 L55,23 L55,22 C55,17.589 51.411,14 47,14 L43.998,14 L45.2,12.399 C45.724,11.703 46,10.874 46,10 C46,7.794 44.206,6 42,6 C41.126,6 40.296,6.276 39.601,6.799 L38.821,7.386 L38.216,6.62 C35.791,3.555 32.69,2 29,2 C22.935,2 18,6.935 18,13 L16,13 C16,5.832 21.832,0 29,0 C32.983,0 36.494,1.617 39.206,4.688 C40.062,4.236 41.012,4 42,4 C45.309,4 48,6.691 48,10 C48,10.699 47.882,11.379 47.652,12.021 C52.863,12.358 57,16.705 57,22 L57,23" id="Fill-50" fill="#A5ADB1"></path>
            <path d="M32.94,48.339 L31.06,47.661 C31.78,45.658 34.29,41 42,41 C46.063,41 49.868,42.599 52.713,45.501 L51.285,46.901 C48.819,44.385 45.521,43 42,43 C35.79,43 33.659,46.345 32.94,48.339" id="Fill-51" fill="#A5ADB1"></path>
            <path d="M19,60 L17,60 C17,54.486 21.486,50 27,50 C29.465,50 31.833,50.905 33.669,52.548 L32.335,54.038 C30.867,52.724 28.972,52 27,52 C22.589,52 19,55.589 19,60" id="Fill-52" fill="#A5ADB1"></path>
            <path d="M56,60 L56,58 C59.309,58 62,55.309 62,52 C62,48.691 59.309,46 56,46 C52.691,46 50,48.691 50,52 L48,52 C48,47.589 51.589,44 56,44 C60.411,44 64,47.589 64,52 C64,56.411 60.411,60 56,60" id="Fill-53" fill="#A5ADB1"></path>
            <polygon id="Fill-54" fill="#A5ADB1" points="42 60 56 60 56 58 42 58"></polygon>
            <polygon id="Fill-55" fill="#A5ADB1" points="36 60 40 60 40 58 36 58"></polygon>
            <polygon id="Fill-56" fill="#A5ADB1" points="6 64 10 64 10 62 6 62"></polygon>
            <path d="M6,64 C2.691,64 0,61.309 0,58 C0,54.929 2.318,52.39 5.297,52.041 C6.653,48.914 9.921,47 14,47 C18.432,47 22,50.282 22,53 L20,53 C20,51.595 17.525,49 14,49 C10.538,49 7.836,50.654 6.948,53.316 L6.721,54 L6,54 C3.794,54 2,55.794 2,58 C2,60.206 3.794,62 6,62 L6,64" id="Fill-57" fill="#A5ADB1"></path>
        </g>
        <rect id="bounding-box" x="0" y="0" width="80" height="80"></rect>
    </g>
</svg>