<?xml version="1.0" encoding="UTF-8"?>
<svg width="80px" height="80px" viewBox="0 0 80 80" version="1.1" xmlns="http://www.w3.org/2000/svg" xmlns:xlink="http://www.w3.org/1999/xlink">
    <title>Icons/Illustrative Icons/Success</title>
    <g id="Icons/Illustrative-Icons/Success" stroke="none" stroke-width="1" fill="none" fill-rule="evenodd">
        <g id="Group-2" transform="translate(8.000000, 8.000000)">
            <path d="M17.414,31 L29,42.586 L46.586,25 L43,21.414 L29.707,34.707 C29.316,35.098 28.684,35.098 28.293,34.707 L21,27.414 L17.414,31 Z M29,45 C28.744,45 28.488,44.902 28.293,44.707 L15.293,31.707 C14.902,31.316 14.902,30.684 15.293,30.293 L20.293,25.293 C20.684,24.902 21.316,24.902 21.707,25.293 L29,32.586 L42.293,19.293 C42.684,18.902 43.316,18.902 43.707,19.293 L48.707,24.293 C49.098,24.684 49.098,25.316 48.707,25.707 L29.707,44.707 C29.512,44.902 29.256,45 29,45 L29,45 Z" id="Fill-116" class="fi-icon-illustative-highlight-fill"></path>
            <polygon id="Fill-117" fill="#A5ADB1" points="31 58 33 58 33 56 31 56"></polygon>
            <polygon id="Fill-118" fill="#A5ADB1" points="31 8 33 8 33 6 31 6"></polygon>
            <polygon id="Fill-119" fill="#A5ADB1" points="6 33 8 33 8 31 6 31"></polygon>
            <polygon id="Fill-120" fill="#A5ADB1" points="56 33 58 33 58 31 56 31"></polygon>
            <path d="M32,2 C15.458,2 2,15.458 2,32 C2,48.542 15.458,62 32,62 C48.542,62 62,48.542 62,32 C62,15.458 48.542,2 32,2 Z M32,64 C14.355,64 0,49.645 0,32 C0,14.355 14.355,0 32,0 C49.645,0 64,14.355 64,32 C64,49.645 49.645,64 32,64 L32,64 Z" id="Fill-121" fill="#A5ADB1"></path>
        </g>
        <rect id="bounding-box" x="0" y="0" width="80" height="80"></rect>
    </g>
</svg>