<?xml version="1.0" encoding="UTF-8"?>
<svg width="80px" height="80px" viewBox="0 0 80 80" version="1.1" xmlns="http://www.w3.org/2000/svg" xmlns:xlink="http://www.w3.org/1999/xlink">
    <title>Icons/Illustrative Icons/Suomifi Services/Web Services</title>
    <g id="Icons/Illustrative-Icons/Suomifi-Services/Web-Services" stroke="none" stroke-width="1" fill="none" fill-rule="evenodd">
        <g id="Group-2" transform="translate(8.000000, 11.000000)">
            <path d="M4,2 C2.897,2 2,2.897 2,4 L2,44 C2,45.103 2.897,46 4,46 L60,46 C61.103,46 62,45.103 62,44 L62,4 C62,2.897 61.103,2 60,2 L4,2 Z M60,48 L4,48 C1.794,48 0,46.206 0,44 L0,4 C0,1.794 1.794,0 4,0 L60,0 C62.206,0 64,1.794 64,4 L64,44 C64,46.206 62.206,48 60,48 L60,48 Z" id="Fill-645" fill="#A5ADB1"></path>
            <polyline id="Fill-646" fill="#A5ADB1" points="40.042 57.287 37.042 47.287 38.958 46.713 41.958 56.713 40.042 57.287"></polyline>
            <polyline id="Fill-647" fill="#A5ADB1" points="23.958 57.287 22.042 56.713 25.042 46.713 26.958 47.287 23.958 57.287"></polyline>
            <polygon id="Fill-648" fill="#A5ADB1" points="19 58 45 58 45 56 19 56"></polygon>
            <polygon id="Fill-649" fill="#A5ADB1" points="31 44 33 44 33 42 31 42"></polygon>
            <path d="M6,38 L58,38 L58,6 L6,6 L6,38 Z M59,40 L5,40 C4.447,40 4,39.553 4,39 L4,5 C4,4.447 4.447,4 5,4 L59,4 C59.553,4 60,4.447 60,5 L60,39 C60,39.553 59.553,40 59,40 L59,40 Z" id="Fill-650" fill="#A5ADB1"></path>
            <path d="M24,26.412 L31,30.3 L31,22.588 L24,18.7 L24,26.412 Z M32.485,11.126 L41.4833949,16.1244991 C41.4913103,16.1288843 41.4991795,16.1333846 41.507,16.138 C41.813,16.318 42,16.646 42,17 L42,27 C42,27.363 41.803,27.698 41.485,27.874 L32.5143378,32.8576416 C32.5118996,32.8591039 32.5094536,32.8605567 32.507,32.862 L32.492,32.869 L32.3867188,32.922375 C32.2634375,32.974125 32.132,33 32,33 C31.833,33 31.665,32.958 31.515,32.874 L22.515,27.874 C22.197,27.698 22,27.363 22,27 L22,17 C22,16.646 22.188,16.318 22.493,16.138 L22.516,16.125 L31.515,11.126 C31.815,10.958 32.185,10.958 32.485,11.126 Z M40,18.7 L33,22.586 L33,30.299 L40,26.412 L40,18.7 Z M32,13.144 L25.058,16.999 L32,20.855 L38.941,16.999 L32,13.144 Z" id="Combined-Shape" fill="#E97025"></path>
        </g>
        <rect id="bounding-box" x="0" y="0" width="80" height="80"></rect>
    </g>
</svg>