<?xml version="1.0" encoding="UTF-8"?>
<svg width="80px" height="80px" viewBox="0 0 80 80" version="1.1" xmlns="http://www.w3.org/2000/svg" xmlns:xlink="http://www.w3.org/1999/xlink">
    <title>Icons/Illustrative Icons/Justice </title>
    <g id="Icons/Illustrative-Icons/Justice-" stroke="none" stroke-width="1" fill="none" fill-rule="evenodd">
        <g id="Oikeudet-ja-velvollisuudet" transform="translate(8.000000, 15.000000)">
            <path d="M46,26 L54,26 L54,8 L46,8 L46,26 Z M44,28 L56,28 L56,6 L44,6 L44,28 Z" id="Fill-154" fill="#E97025"></path>
            <path d="M56,34 L44,34 C41.794,34 40,32.206 40,30 C40,27.794 41.794,26 44,26 L44,28 C42.897,28 42,28.897 42,30 C42,31.103 42.897,32 44,32 L56,32 C57.103,32 58,31.103 58,30 C58,28.897 57.103,28 56,28 L56,26 C58.206,26 60,27.794 60,30 C60,32.206 58.206,34 56,34" id="Fill-155" fill="#E97025"></path>
            <path d="M56,8 L56,6 C57.103,6 58,5.103 58,4 C58,2.897 57.103,2 56,2 L44,2 C42.897,2 42,2.897 42,4 C42,5.103 42.897,6 44,6 L44,8 C41.794,8 40,6.206 40,4 C40,1.794 41.794,0 44,0 L56,0 C58.206,0 60,1.794 60,4 C60,6.206 58.206,8 56,8" id="Fill-156" fill="#E97025"></path>
            <polyline id="Fill-163" fill="#E97025" points="45 16 41.764 16 39.764 15 10 15 10 13 40.236 13 42.236 14 45 14 45 16"></polyline>
            <polyline id="Fill-164" fill="#E97025" points="40.236 21 10 21 10 19 39.764 19 41.764 18 45 18 45 20 42.236 20 40.236 21"></polyline>
            <path d="M6,13 C3.794,13 2,14.794 2,17 C2,19.206 3.794,21 6,21 C8.206,21 10,19.206 10,17 C10,14.794 8.206,13 6,13 Z M6,23 C2.691,23 0,20.309 0,17 C0,13.691 2.691,11 6,11 C9.309,11 12,13.691 12,17 C12,20.309 9.309,23 6,23 L6,23 Z" id="Fill-165" fill="#E97025"></path>
            <path d="M62,43 L60,43 L60,41 C60,40.448 59.552,40 59,40 L41,40 C40.448,40 40,40.448 40,41 L40,43 L38,43 L38,41 C38,39.346 39.346,38 41,38 L59,38 C60.654,38 62,39.346 62,41 L62,43" id="Fill-169" fill="#A5ADB1"></path>
            <path d="M39,44 C38.448,44 38,44.448 38,45 L38,47 C38,47.552 38.448,48 39,48 L61,48 C61.552,48 62,47.552 62,47 L62,45 C62,44.448 61.552,44 61,44 L39,44 Z M61,50 L39,50 C37.346,50 36,48.654 36,47 L36,45 C36,43.346 37.346,42 39,42 L61,42 C62.654,42 64,43.346 64,45 L64,47 C64,48.654 62.654,50 61,50 L61,50 Z" id="Fill-170" fill="#A5ADB1"></path>
            <polygon id="Fill-171" fill="#A5ADB1" points="0 50 39 50 39 48 0 48"></polygon>
            <polygon id="Fill-172" fill="#A5ADB1" points="49 14 51 14 51 12 49 12"></polygon>
            <polygon id="Fill-173" fill="#A5ADB1" points="49 18 51 18 51 16 49 16"></polygon>
            <polygon id="Fill-174" fill="#A5ADB1" points="49 22 51 22 51 20 49 20"></polygon>
        </g>
        <rect id="bounding-box" x="0" y="0" width="80" height="80"></rect>
    </g>
</svg>