<?xml version="1.0" encoding="UTF-8"?>
<svg width="80px" height="80px" viewBox="0 0 80 80" version="1.1" xmlns="http://www.w3.org/2000/svg" xmlns:xlink="http://www.w3.org/1999/xlink">
    <title>Icons/Illustrative Icons/Statistics 2</title>
    <g id="Icons/Illustrative-Icons/Statistics-2" stroke="none" stroke-width="1" fill="none" fill-rule="evenodd">
        <g id="Group-2" transform="translate(8.000000, 11.000000)">
            <polygon id="Fill-91" fill="#A5ADB1" points="31 51 33 51 33 45 31 45"></polygon>
            <path d="M6,44 L58,44 L58,12 L6,12 L6,44 Z M4,46 L60,46 L60,10 L4,10 L4,46 Z" id="Fill-92" fill="#A5ADB1"></path>
            <polyline id="Fill-93" fill="#A5ADB1" points="64 12 59 12 59 10 62 10 62 6 38.586 6 34.586 2 29.414 2 25.414 6 2 6 2 10 5 10 5 12 0 12 0 4 24.586 4 28.586 0 35.414 0 39.414 4 64 4 64 12"></polyline>
            <path d="M32,52 C30.897,52 30,52.897 30,54 C30,55.103 30.897,56 32,56 C33.103,56 34,55.103 34,54 C34,52.897 33.103,52 32,52 Z M32,58 C29.794,58 28,56.206 28,54 C28,51.794 29.794,50 32,50 C34.206,50 36,51.794 36,54 C36,56.206 34.206,58 32,58 L32,58 Z" id="Fill-94" fill="#A5ADB1"></path>
            <polyline id="Fill-95" class="fi-icon-illustative-highlight-fill" points="16.4935664 35 15 33.5064336 24.5064336 24 26 25.4935664 16.4935664 35"></polyline>
            <polyline id="Fill-96" class="fi-icon-illustative-highlight-fill" points="39.4935664 32 38 30.5064336 47.5064336 21 49 22.4935664 39.4935664 32"></polyline>
            <polyline id="Fill-97" class="fi-icon-illustative-highlight-fill" points="34.4742379 32 28 25.5257621 29.5257621 24 36 30.4742379 34.4742379 32"></polyline>
            <path d="M27,21 C25.897,21 25,21.897 25,23 C25,24.103 25.897,25 27,25 C28.103,25 29,24.103 29,23 C29,21.897 28.103,21 27,21 Z M27,27 C24.794,27 23,25.206 23,23 C23,20.794 24.794,19 27,19 C29.206,19 31,20.794 31,23 C31,25.206 29.206,27 27,27 L27,27 Z" id="Fill-99" class="fi-icon-illustative-highlight-fill"></path>
            <path d="M37,31 C35.897,31 35,31.897 35,33 C35,34.103 35.897,35 37,35 C38.103,35 39,34.103 39,33 C39,31.897 38.103,31 37,31 Z M37,37 C34.794,37 33,35.206 33,33 C33,30.794 34.794,29 37,29 C39.206,29 41,30.794 41,33 C41,35.206 39.206,37 37,37 L37,37 Z" id="Fill-101" class="fi-icon-illustative-highlight-fill"></path>
            <polygon id="Fill-102" fill="#A5ADB1" points="31 6 33 6 33 4 31 4"></polygon>
            <polygon id="Fill-103" fill="#A5ADB1" points="10 18 12 18 12 16 10 16"></polygon>
            <polygon id="Fill-104" fill="#A5ADB1" points="52 40 54 40 54 38 52 38"></polygon>
            <path d="M14,34 C12.897,34 12,34.897 12,36 C12,37.103 12.897,38 14,38 C15.103,38 16,37.103 16,36 C16,34.897 15.103,34 14,34 Z M14,40 C11.794,40 10,38.206 10,36 C10,33.794 11.794,32 14,32 C16.206,32 18,33.794 18,36 C18,38.206 16.206,40 14,40 L14,40 Z" id="Fill-98" class="fi-icon-illustative-highlight-fill"></path>
            <path d="M50,18 C48.897,18 48,18.897 48,20 C48,21.103 48.897,22 50,22 C51.103,22 52,21.103 52,20 C52,18.897 51.103,18 50,18 Z M50,24 C47.794,24 46,22.206 46,20 C46,17.794 47.794,16 50,16 C52.206,16 54,17.794 54,20 C54,22.206 52.206,24 50,24 L50,24 Z" id="Fill-100" class="fi-icon-illustative-highlight-fill"></path>
        </g>
    </g>
</svg>