<?xml version="1.0" encoding="UTF-8"?>
<svg width="80px" height="80px" viewBox="0 0 80 80" version="1.1" xmlns="http://www.w3.org/2000/svg" xmlns:xlink="http://www.w3.org/1999/xlink">
    <title>Icons/Illustrative Icons/Collaboration</title>
    <g id="Icons/Illustrative-Icons/Collaboration" stroke="none" stroke-width="1" fill="none" fill-rule="evenodd">
        <g id="Group-2" transform="translate(8.000000, 8.000000)">
            <polygon id="Fill-527" fill="#A5ADB1" points="10 33 12 33 12 31 10 31"></polygon>
            <polygon id="Fill-528" class="fi-icon-illustative-highlight-fill" points="6 5 8 5 8 0 6 0"></polygon>
            <path d="M20,37 L8,37 C6.897,37 6,36.103 6,35 L6,21 L8,21 L8,35 L20,35 L20,22 L22,22 L22,35 C22,36.103 21.103,37 20,37" id="Fill-529" class="fi-icon-illustative-highlight-fill"></path>
            <polygon id="Fill-530" class="fi-icon-illustative-highlight-fill" points="20 6 22 6 22 0 20 0"></polygon>
            <path d="M14,22 L5,22 C3.346,22 2,20.654 2,19 C2,18.61 2.075,18.237 2.211,17.895 C0.938,17.547 0,16.381 0,15 C0,13.619 0.938,12.453 2.211,12.105 C2.075,11.763 2,11.39 2,11 C2,9.619 2.938,8.453 4.211,8.105 C4.075,7.763 4,7.39 4,7 C4,5.346 5.346,4 7,4 L16.287,4.042 L26.146,7 L28,7 L28,9 L25.713,8.958 L15.854,6 L7,6 C6.448,6 6,6.449 6,7 C6,7.551 6.448,8 7,8 L7,10 L5,10 C4.448,10 4,10.449 4,11 C4,11.551 4.448,12 5,12 L5,14 L3,14 C2.448,14 2,14.449 2,15 C2,15.551 2.448,16 3,16 L5,16 L5,18 C4.448,18 4,18.449 4,19 C4,19.551 4.448,20 5,20 L14,20 L14,22" id="Fill-531" fill="#A5ADB1"></path>
            <polygon id="Fill-532" fill="#A5ADB1" points="5 18 11 18 11 16 5 16"></polygon>
            <polygon id="Fill-533" fill="#A5ADB1" points="5 14 11 14 11 12 5 12"></polygon>
            <polygon id="Fill-534" fill="#A5ADB1" points="7 10 11 10 11 8 7 8"></polygon>
            <path d="M16.236,26 L12,26 C10.346,26 9,24.654 9,23 L9,21 L11,21 L11,23 C11,23.551 11.448,24 12,24 L15.764,24 L19.472,22.146 L23.667,19 L28,19 L28,21 L24.333,21 L20.447,23.895 L16.236,26" id="Fill-535" fill="#A5ADB1"></path>
            <polygon id="Fill-536" fill="#A5ADB1" points="31 12 33 12 33 10 31 10"></polygon>
            <polygon id="Fill-537" fill="#A5ADB1" points="59 8 64 8 64 6 59 6"></polygon>
            <path d="M42,22 L29,22 C27.897,22 27,21.103 27,20 L27,8 C27,6.897 27.897,6 29,6 L43,6 L43,8 L29,8 L29,20 L42,20 L42,22" id="Fill-538" fill="#A5ADB1"></path>
            <polygon id="Fill-539" fill="#A5ADB1" points="58 22 64 22 64 20 58 20"></polygon>
            <path d="M57,28 L55,28 L55.042,25.713 L58,15.853 L58,7 C58,6.449 57.552,6 57,6 C56.448,6 56,6.449 56,7 L54,7 L54,5 C54,4.449 53.552,4 53,4 C52.448,4 52,4.449 52,5 L50,5 L50,3 C50,2.449 49.552,2 49,2 C48.448,2 48,2.449 48,3 L48,5 L46,5 C46,4.449 45.552,4 45,4 C44.448,4 44,4.449 44,5 L44,14 L42,14 L42,5 C42,3.346 43.346,2 45,2 C45.39,2 45.763,2.075 46.105,2.211 C46.452,0.938 47.619,0 49,0 C50.381,0 51.548,0.938 51.895,2.211 C52.237,2.075 52.61,2 53,2 C54.381,2 55.548,2.938 55.895,4.211 C56.237,4.075 56.61,4 57,4 C58.654,4 60,5.346 60,7 L59.958,16.287 L57,26.147 L57,28" id="Fill-540" class="fi-icon-illustative-highlight-fill"></path>
            <polygon id="Fill-541" class="fi-icon-illustative-highlight-fill" points="46 11 48 11 48 5 46 5"></polygon>
            <polygon id="Fill-542" class="fi-icon-illustative-highlight-fill" points="50 11 52 11 52 5 50 5"></polygon>
            <polygon id="Fill-543" class="fi-icon-illustative-highlight-fill" points="54 11 56 11 56 7 54 7"></polygon>
            <path d="M45,28 L43,28 L43,24.333 L40.105,20.447 L38,16.236 L38,12 C38,10.346 39.346,9 41,9 L43,9 L43,11 L41,11 C40.448,11 40,11.449 40,12 L40,15.764 L41.854,19.472 L45,23.667 L45,28" id="Fill-544" class="fi-icon-illustative-highlight-fill"></path>
            <polygon id="Fill-545" fill="#A5ADB1" points="52 33 54 33 54 31 52 31"></polygon>
            <polygon id="Fill-546" class="fi-icon-illustative-highlight-fill" points="42 64 44 64 44 58 42 58"></polygon>
            <path d="M44,42 L42,42 L42,29 C42,27.897 42.897,27 44,27 L56,27 C57.103,27 58,27.897 58,29 L58,41 L56,41 L56,29 L44,29 L44,42" id="Fill-547" class="fi-icon-illustative-highlight-fill"></path>
            <polygon id="Fill-548" class="fi-icon-illustative-highlight-fill" points="56 64 58 64 58 57 56 57"></polygon>
            <path d="M59,58 L50,58 L50,56 L59,56 C59.552,56 60,55.551 60,55 C60,54.449 59.552,54 59,54 L59,52 L61,52 C61.552,52 62,51.551 62,51 C62,50.449 61.552,50 61,50 L59,50 L59,48 C59.552,48 60,47.551 60,47 C60,46.449 59.552,46 59,46 L57,46 L57,44 C57.552,44 58,43.551 58,43 C58,42.449 57.552,42 57,42 L48.146,42 L38,45 L36,45 L36,43 L37.854,43 L48,40 L57,40 C58.654,40 60,41.346 60,43 C60,43.39 59.925,43.763 59.789,44.105 C61.062,44.453 62,45.619 62,47 C62,47.39 61.925,47.763 61.789,48.105 C63.062,48.453 64,49.619 64,51 C64,52.381 63.062,53.547 61.789,53.895 C61.925,54.237 62,54.61 62,55 C62,56.654 60.654,58 59,58" id="Fill-549" fill="#A5ADB1"></path>
            <polygon id="Fill-550" fill="#A5ADB1" points="53 54 59 54 59 52 53 52"></polygon>
            <polygon id="Fill-551" fill="#A5ADB1" points="53 50 59 50 59 48 53 48"></polygon>
            <polygon id="Fill-552" fill="#A5ADB1" points="53 46 57 46 57 44 53 44"></polygon>
            <path d="M52,62 L47.764,62 L43.4,59.8 L39.667,57 L36,57 L36,55 L40.333,55 L44.528,58.146 L48.236,60 L52,60 C52.552,60 53,59.551 53,59 L53,57 L55,57 L55,59 C55,60.654 53.654,62 52,62" id="Fill-553" fill="#A5ADB1"></path>
            <polygon id="Fill-554" fill="#A5ADB1" points="31 48 33 48 33 46 31 46"></polygon>
            <polygon id="Fill-555" fill="#A5ADB1" points="0 44 7 44 7 42 0 42"></polygon>
            <path d="M35,58 L21,58 L21,56 L35,56 L35,44 L23,44 L23,42 L35,42 C36.103,42 37,42.897 37,44 L37,56 C37,57.103 36.103,58 35,58" id="Fill-556" fill="#A5ADB1"></path>
            <polygon id="Fill-557" fill="#A5ADB1" points="0 58 5 58 5 56 0 56"></polygon>
            <path d="M15,64 C13.619,64 12.452,63.062 12.105,61.789 C11.763,61.925 11.39,62 11,62 C9.619,62 8.452,61.062 8.105,59.789 C7.763,59.925 7.39,60 7,60 C5.346,60 4,58.654 4,57 L4.042,47.713 L7,37.853 L7,36 L9,36 L8.958,38.287 L6,48.147 L6,57 C6,57.551 6.448,58 7,58 C7.552,58 8,57.551 8,57 L10,57 L10,59 C10,59.551 10.448,60 11,60 C11.552,60 12,59.551 12,59 L14,59 L14,61 C14,61.551 14.448,62 15,62 C15.552,62 16,61.551 16,61 L16,59 L18,59 C18,59.551 18.448,60 19,60 C19.552,60 20,59.551 20,59 L20,50 L22,50 L22,59 C22,60.654 20.654,62 19,62 C18.61,62 18.237,61.925 17.895,61.789 C17.548,63.062 16.381,64 15,64" id="Fill-558" class="fi-icon-illustative-highlight-fill"></path>
            <polygon id="Fill-559" class="fi-icon-illustative-highlight-fill" points="16 59 18 59 18 53 16 53"></polygon>
            <polygon id="Fill-560" class="fi-icon-illustative-highlight-fill" points="12 59 14 59 14 53 12 53"></polygon>
            <polygon id="Fill-561" class="fi-icon-illustative-highlight-fill" points="8 57 10 57 10 53 8 53"></polygon>
            <path d="M23,55 L21,55 L21,53 L23,53 C23.552,53 24,52.551 24,52 L24,48.236 L22.146,44.528 L19,40.333 L19,36 L21,36 L21,39.667 L23.895,43.553 L26,47.764 L26,52 C26,53.654 24.654,55 23,55" id="Fill-562" class="fi-icon-illustative-highlight-fill"></path>
            <polygon id="Fill-563" class="fi-icon-illustative-highlight-fill" points="7 37 21 37 21 35 7 35"></polygon>
        </g>
        <rect id="bounding-box" x="0" y="0" width="80" height="80"></rect>
    </g>
</svg>