<?xml version="1.0" encoding="UTF-8"?>
<svg width="80px" height="80px" viewBox="0 0 80 80" version="1.1" xmlns="http://www.w3.org/2000/svg" xmlns:xlink="http://www.w3.org/1999/xlink">
    <title>Icons/Illustrative Icons/Laptop</title>
    <g id="Icons/Illustrative-Icons/Laptop" stroke="none" stroke-width="1" fill="none" fill-rule="evenodd">
        <g id="Group" transform="translate(8.000000, 17.000000)">
            <path d="M5.414,44 L58.586,44 L62,40.586 L62,40 L39.414,40 L37.414,42 L26.586,42 L24.586,40 L2,40 L2,40.586 L5.414,44 Z M59.414,46 L4.586,46 L0,41.414 L0,38 L25.414,38 L27.414,40 L36.586,40 L38.586,38 L64,38 L64,41.414 L59.414,46 L59.414,46 Z" id="Fill-60" fill="#A5ADB1"></path>
            <path d="M60,36 L58,36 L58,4 C58,2.897 57.103,2 56,2 L8,2 C6.897,2 6,2.897 6,4 L6,36 L4,36 L4,4 C4,1.794 5.794,0 8,0 L56,0 C58.206,0 60,1.794 60,4 L60,36" id="Fill-61" fill="#A5ADB1"></path>
            <polygon id="Fill-62" fill="#E97025" points="27 34 29 34 29 32 27 32"></polygon>
            <polygon id="Fill-63" fill="#E97025" points="23 34 25 34 25 32 23 32"></polygon>
            <polygon id="Fill-64" fill="#E97025" points="31 34 33 34 33 32 31 32"></polygon>
            <polygon id="Fill-65" fill="#E97025" points="35 34 37 34 37 32 35 32"></polygon>
            <polygon id="Fill-66" fill="#E97025" points="39 34 41 34 41 32 39 32"></polygon>
            <polyline id="Fill-67" fill="#A5ADB1" points="56 34 43 34 43 32 54 32 54 6 10 6 10 32 21 32 21 34 8 34 8 4 56 4 56 34"></polyline>
        </g>
    </g>
</svg>