<?xml version="1.0" encoding="UTF-8"?>
<svg width="80px" height="80px" viewBox="0 0 80 80" version="1.1" xmlns="http://www.w3.org/2000/svg" xmlns:xlink="http://www.w3.org/1999/xlink">
    <title>Icons/Illustrative Icons/Suomifi Services/ UKK</title>
    <g id="Icons/Illustrative-Icons/Suomifi-Services/-UKK" stroke="none" stroke-width="1" fill="none" fill-rule="evenodd">
        <g id="Group-8" transform="translate(8.000000, 8.000000)">
            <path d="M32,49 C28.691,49 26,46.309 26,43 C26,38.094 24.539,36.403 22.993,34.614 C21.521,32.911 20,31.15 20,27 C20,20.384 25.383,15 32,15 C38.617,15 44,20 44,27 L42,27 C42,21 37.514,17 32,17 C26.486,17 22,21.486 22,27 C22,30.405 23.162,31.75 24.506,33.306 C26.144,35.201 28,37.35 28,43 C28,45.206 29.794,47 32,47 C34.206,47 36,45 36,43 L38,43 C38,46 35.309,49 32,49" id="Fill-503" fill="#E97025"></path>
            <path d="M34,41 C31.794,41 30,39 30,37 L32,37 C32,38 32.897,39 34,39 C35.103,39 36,38.103 36,37 C36,35.897 35.103,35 34,35 L32,35 C27.589,35 24,31.411 24,27 C24,22.589 27.589,19 32,19 C36.411,19 40,23 40,27 L38,27 C38,24 35.309,21 32,21 C28.691,21 26,23.692 26,27 C26,30.309 28.691,33 32,33 L34,33 C36.206,33 38,34.794 38,37 C38,39.206 36.206,41 34,41" id="Fill-504" fill="#E97025"></path>
            <polygon id="Fill-505" fill="#A5ADB1" points="13 23 15 23 15 21 13 21"></polygon>
            <polygon id="Fill-506" fill="#A5ADB1" points="8 20 10 20 10 18 8 18"></polygon>
            <polygon id="Fill-507" fill="#A5ADB1" points="3 17 5 17 5 15 3 15"></polygon>
            <polygon id="Fill-508" fill="#A5ADB1" points="21 15 23 15 23 13 21 13"></polygon>
            <polygon id="Fill-509" fill="#A5ADB1" points="18 10 20 10 20 8 18 8"></polygon>
            <polygon id="Fill-510" fill="#A5ADB1" points="15 5 17 5 17 3 15 3"></polygon>
            <polygon id="Fill-511" fill="#A5ADB1" points="31 7 33 7 33 5 31 5"></polygon>
            <polygon id="Fill-512" fill="#A5ADB1" points="31 12 33 12 33 10 31 10"></polygon>
            <polygon id="Fill-513" fill="#A5ADB1" points="31 2 33 2 33 0 31 0"></polygon>
            <polygon id="Fill-514" fill="#A5ADB1" points="49 23 51 23 51 21 49 21"></polygon>
            <polygon id="Fill-515" fill="#A5ADB1" points="54 20 56 20 56 18 54 18"></polygon>
            <polygon id="Fill-516" fill="#A5ADB1" points="59 17 61 17 61 15 59 15"></polygon>
            <polygon id="Fill-517" fill="#A5ADB1" points="41 15 43 15 43 13 41 13"></polygon>
            <polygon id="Fill-518" fill="#A5ADB1" points="44 10 46 10 46 8 44 8"></polygon>
            <polygon id="Fill-519" fill="#A5ADB1" points="47 5 49 5 49 3 47 3"></polygon>
            <polygon id="Fill-520" fill="#A5ADB1" points="5 33 7 33 7 31 5 31"></polygon>
            <polygon id="Fill-521" fill="#A5ADB1" points="10 33 12 33 12 31 10 31"></polygon>
            <polygon id="Fill-522" fill="#A5ADB1" points="0 33 2 33 2 31 0 31"></polygon>
            <polygon id="Fill-523" fill="#A5ADB1" points="13 43 15 43 15 41 13 41"></polygon>
            <polygon id="Fill-524" fill="#A5ADB1" points="8 46 10 46 10 44 8 44"></polygon>
            <polygon id="Fill-525" fill="#A5ADB1" points="3 49 5 49 5 47 3 47"></polygon>
            <polygon id="Fill-526" fill="#A5ADB1" points="21 51 23 51 23 49 21 49"></polygon>
            <polygon id="Fill-527" fill="#A5ADB1" points="18 56 20 56 20 54 18 54"></polygon>
            <polygon id="Fill-528" fill="#A5ADB1" points="15 61 17 61 17 59 15 59"></polygon>
            <polygon id="Fill-529" fill="#A5ADB1" points="31 59 33 59 33 57 31 57"></polygon>
            <polygon id="Fill-530" fill="#A5ADB1" points="31 54 33 54 33 52 31 52"></polygon>
            <polygon id="Fill-531" fill="#A5ADB1" points="31 64 33 64 33 62 31 62"></polygon>
            <polygon id="Fill-532" fill="#A5ADB1" points="57 33 59 33 59 31 57 31"></polygon>
            <polygon id="Fill-533" fill="#A5ADB1" points="52 33 54 33 54 31 52 31"></polygon>
            <polygon id="Fill-534" fill="#A5ADB1" points="62 33 64 33 64 31 62 31"></polygon>
            <polygon id="Fill-535" fill="#A5ADB1" points="49 43 51 43 51 41 49 41"></polygon>
            <polygon id="Fill-536" fill="#A5ADB1" points="54 46 56 46 56 44 54 44"></polygon>
            <polygon id="Fill-537" fill="#A5ADB1" points="59 49 61 49 61 47 59 47"></polygon>
            <polygon id="Fill-538" fill="#A5ADB1" points="41 51 43 51 43 49 41 49"></polygon>
            <polygon id="Fill-539" fill="#A5ADB1" points="44 56 46 56 46 54 44 54"></polygon>
            <polygon id="Fill-540" fill="#A5ADB1" points="47 61 49 61 49 59 47 59"></polygon>
        </g>
        <rect id="bounding-box" x="0" y="0" width="80" height="80"></rect>
    </g>
</svg>