<?xml version="1.0" encoding="UTF-8"?>
<svg width="80px" height="80px" viewBox="0 0 80 80" version="1.1" xmlns="http://www.w3.org/2000/svg" xmlns:xlink="http://www.w3.org/1999/xlink">
    <title>Icons/Illustrative icons/house</title>
    <g id="Icons/Illustrative-icons/house" stroke="none" stroke-width="1" fill="none" fill-rule="evenodd">
        <g id="Asuminen-ja-muttaminen" transform="translate(8.000000, 10.000000)">
            <polyline id="Fill-35" fill="#A5ADB1" points="46 60 4 60 4 16 6 16 6 58 44 58 44 50 46 50 46 60"></polyline>
            <polygon id="Fill-36" fill="#A5ADB1" points="44 24 46 24 46 16 44 16"></polygon>
            <path d="M25,5 C25.153,5 25.307,5.035 25.447,5.105 L48,16.382 L48,13.618 L25,2.118 L2,13.618 L2,16.382 L24.553,5.105 C24.693,5.035 24.847,5 25,5 Z M49,19 C48.847,19 48.694,18.965 48.553,18.895 L25,7.118 L1.447,18.895 C1.137,19.049 0.769,19.033 0.474,18.851 C0.18,18.668 0,18.347 0,18 L0,13 C0,12.621 0.214,12.275 0.553,12.105 L24.553,0.105 C24.834,-0.035 25.166,-0.035 25.447,0.105 L49.447,12.105 C49.786,12.275 50,12.621 50,13 L50,18 C50,18.347 49.82,18.668 49.526,18.851 C49.365,18.95 49.183,19 49,19 L49,19 Z" id="Fill-37" fill="#A5ADB1"></path>
            <path d="M25,17 C22.794,17 21,18.794 21,21 C21,23.206 22.794,25 25,25 C27.206,25 29,23.206 29,21 C29,18.794 27.206,17 25,17 Z M25,27 C21.691,27 19,24.309 19,21 C19,17.691 21.691,15 25,15 C28.309,15 31,17.691 31,21 C31,24.309 28.309,27 25,27 L25,27 Z" id="Fill-38" fill="#E97025"></path>
            <path d="M15,35 L35,35 L35,58 L33,58 L33,37 L17,37 L17,58 L15,58 L15,35 Z" id="Combined-Shape" fill="#E97025"></path>
            <polyline id="Fill-42" fill="#A5ADB1" points="10 9 8 9 8 0 14 0 14 7 12 7 12 2 10 2 10 9"></polyline>
            <polygon id="Fill-43" fill="#A5ADB1" points="0 60 50 60 50 58 0 58"></polygon>
            <polygon id="Fill-44" fill="#A5ADB1" points="45 60 64 60 64 58 45 58"></polygon>
            <polygon id="Fill-45" fill="#A5ADB1" points="29 49 31 49 31 47 29 47"></polygon>
            <polygon id="Fill-46" fill="#A5ADB1" points="51 59 53 59 53 33 51 33"></polygon>
            <path d="M52,27 C46.486,27 42,31.486 42,37 C42,42.514 46.486,47 52,47 C57.514,47 62,42.514 62,37 C62,31.486 57.514,27 52,27 Z M52,49 C45.383,49 40,43.617 40,37 C40,30.383 45.383,25 52,25 C58.617,25 64,30.383 64,37 C64,43.617 58.617,49 52,49 L52,49 Z" id="Fill-47" fill="#A5ADB1"></path>
            <polyline id="Fill-48" fill="#A5ADB1" points="51.293 40.707 45.293 34.707 46.707 33.293 52.707 39.293 51.293 40.707"></polyline>
            <polyline id="Fill-49" fill="#A5ADB1" points="52.707 44.707 51.293 43.293 57.293 37.293 58.707 38.707 52.707 44.707"></polyline>
        </g>
    </g>
</svg>