<?xml version="1.0" encoding="UTF-8"?>
<svg width="80px" height="80px" viewBox="0 0 80 80" version="1.1" xmlns="http://www.w3.org/2000/svg" xmlns:xlink="http://www.w3.org/1999/xlink">
    <title>Icons/Illustrative icons/train</title>
    <g id="Icons/Illustrative-icons/train" stroke="none" stroke-width="1" fill="none" fill-rule="evenodd">
        <g id="Group-2" transform="translate(22.000000, 7.000000)" stroke-linejoin="round" stroke-width="2">
            <path d="M11,45.5 C11,46.328 10.328,47 9.5,47 C8.672,47 8,46.328 8,45.5 C8,44.672 8.672,44 9.5,44 C10.328,44 11,44.672 11,45.5 Z" id="Stroke-1" stroke="#A5ADB1" stroke-linecap="round"></path>
            <path d="M30,45.5 C30,46.328 29.328,47 28.5,47 C27.672,47 27,46.328 27,45.5 C27,44.672 27.672,44 28.5,44 C29.328,44 30,44.672 30,45.5 Z" id="Stroke-3" stroke="#A5ADB1" stroke-linecap="round"></path>
            <line x1="29" y1="60.2311437" x2="37" y2="54.5163574" id="Stroke-7" stroke="#A5ADB1" stroke-linecap="square" transform="translate(33.000000, 57.373751) scale(1, -1) translate(-33.000000, -57.373751) "></line>
            <line x1="0" y1="60.2311437" x2="8" y2="54.5163574" id="Stroke-7" stroke="#A5ADB1" stroke-linecap="square"></line>
            <path d="M29.6014851,54 L7.39851485,54 C3.31435644,54 0,50.6418659 0,46.5037619 L0,16.4962381 C0,12.3581341 3.31435644,9 7.39851485,9 L29.6014851,9 C33.6881188,9 37,12.3581341 37,16.4962381 L37,46.5037619 C37,50.6418659 33.6881188,54 29.6014851,54 Z" id="Stroke-9" stroke="#E97025" stroke-linecap="round"></path>
            <line x1="1" y1="36.5" x2="37" y2="36.5" id="Stroke-11" stroke="#E97025" stroke-linecap="round"></line>
            <line x1="1" y1="19.5" x2="37" y2="19.5" id="Stroke-13" stroke="#E97025" stroke-linecap="round"></line>
            <line x1="10" y1="1.5" x2="27" y2="1.5" id="Stroke-15" stroke="#A5ADB1" stroke-linecap="square"></line>
        </g>
        <rect id="bounding-box" x="0" y="0" width="80" height="80"></rect>
    </g>
</svg>