<?xml version="1.0" encoding="UTF-8"?>
<svg width="80px" height="80px" viewBox="0 0 80 80" version="1.1" xmlns="http://www.w3.org/2000/svg" xmlns:xlink="http://www.w3.org/1999/xlink">
    <!-- Generator: Sketch 49.3 (51167) - http://www.bohemiancoding.com/sketch -->
    <title>Ikonit / Kuvitukset / Lapsi</title>
    <desc>Created with Sketch.</desc>
    <defs></defs>
    <g id="Ikonit-/-Kuvitukset-/-Lapsi" stroke="none" stroke-width="1" fill="none" fill-rule="evenodd">
        <g id="Group" transform="translate(13.000000, 8.000000)">
            <path d="M54,64 L52,64 L52,51 C52,44.376 45.536,41.233 41.684,39.949 C41.639,39.934 41.595,39.916 41.553,39.895 L35.553,36.895 C34.991,36.644 32,35.193 32,33 L32,29 L34,29 L34,33 C34,33.649 35.424,34.646 36.409,35.087 L42.384,38.074 C49.768,40.555 54,45.264 54,51 L54,64" id="Fill-104" fill="#A5ACB0"></path>
            <path d="M2,64 L0,64 L0,51 C0,45.264 4.232,40.555 11.616,38.074 L17.553,35.105 C18.729,34.574 20,33.589 20,33 L20,29 L22,29 L22,33 C22,35.193 19.009,36.644 18.409,36.913 L12.447,39.895 C12.405,39.916 12.361,39.934 12.316,39.949 C8.464,41.233 2,44.376 2,51 L2,64" id="Fill-105" fill="#A5ACB0"></path>
            <polygon id="Fill-106" fill="#A5ACB0" points="10 64 12 64 12 56 10 56"></polygon>
            <polygon id="Fill-107" fill="#A5ACB0" points="42 64 44 64 44 56 42 56"></polygon>
            <path d="M32,51 L40,51 L40,59 L36,60 L32,59 L32,51 Z M34,53 L34.0015043,57.5003761 L36,58 L38,57.5003761 L38,53 L34,53 Z" id="Combined-Shape" fill="#EA7125"></path>
            <path d="M17.009,15.646 C17.167,21.269 19.404,30 27,30 C34.499,30 36.774,21.492 36.983,15.864 C34.358,15.462 28.491,14.361 24.928,12.126 L17.009,15.646 Z M27,32 C18.711,32 15,23.462 15,15 C15,14.605 15.232,14.247 15.594,14.086 L23.175,10.717 C22.439,9.922 22,9.02 22,8 L24,8 C24,10.845 32.264,13.227 38.132,14.009 C38.629,14.075 39,14.499 39,15 C39,23.462 35.289,32 27,32 L27,32 Z" id="Fill-108" fill="#A5ACB0"></path>
            <path d="M38.707,18.707 L37.293,17.293 L39,15.586 L39,11 C39,6.038 34.963,2 30,2 L24,2 C19.037,2 15,6.038 15,11 L15,15.586 L16.707,17.293 L15.293,18.707 L13.293,16.707 C13.105,16.52 13,16.265 13,16 L13,11 C13,4.935 17.935,0 24,0 L30,0 C36.065,0 41,4.935 41,11 L41,16 C41,16.265 40.895,16.52 40.707,16.707 L38.707,18.707" id="Fill-109" fill="#A5ACB0"></path>
            <path d="M27,46 C21.486,46 17,41.514 17,36 L19,36 C19,40.411 22.589,44 27,44 C31.411,44 35,40.411 35,36 L37,36 C37,41.514 32.514,46 27,46" id="Fill-110" fill="#A5ACB0"></path>
        </g>
        <rect id="bounding-box" x="0" y="0" width="80" height="80"></rect>
    </g>
</svg>