<?xml version="1.0" encoding="UTF-8"?>
<svg width="80px" height="80px" viewBox="0 0 80 80" version="1.1" xmlns="http://www.w3.org/2000/svg" xmlns:xlink="http://www.w3.org/1999/xlink">
    <!-- Generator: Sketch 49.3 (51167) - http://www.bohemiancoding.com/sketch -->
    <title>Ikonit / Kuvitukset / Virhe</title>
    <desc>Created with Sketch.</desc>
    <defs></defs>
    <g id="Ikonit-/-Kuvitukset-/-Virhe" stroke="none" stroke-width="1" fill="none" fill-rule="evenodd">
        <g id="Group-2" transform="translate(8.000000, 8.000000)">
            <path d="M32,36 C32.256,36 32.512,36.098 32.707,36.293 L39,42.586 L42.586,39 L36.293,32.707 C35.902,32.316 35.902,31.684 36.293,31.293 L42.586,25 L39,21.414 L32.707,27.707 C32.316,28.098 31.684,28.098 31.293,27.707 L25,21.414 L21.414,25 L27.707,31.293 C28.098,31.684 28.098,32.316 27.707,32.707 L21.414,39 L25,42.586 L31.293,36.293 C31.488,36.098 31.744,36 32,36 Z M39,45 C38.744,45 38.488,44.902 38.293,44.707 L32,38.414 L25.707,44.707 C25.316,45.098 24.684,45.098 24.293,44.707 L19.293,39.707 C18.902,39.316 18.902,38.684 19.293,38.293 L25.586,32 L19.293,25.707 C18.902,25.316 18.902,24.684 19.293,24.293 L24.293,19.293 C24.684,18.902 25.316,18.902 25.707,19.293 L32,25.586 L38.293,19.293 C38.684,18.902 39.316,18.902 39.707,19.293 L44.707,24.293 C45.098,24.684 45.098,25.316 44.707,25.707 L38.414,32 L44.707,38.293 C45.098,38.684 45.098,39.316 44.707,39.707 L39.707,44.707 C39.512,44.902 39.256,45 39,45 L39,45 Z" id="Fill-122" fill="#EA7125"></path>
            <polygon id="Fill-123" fill="#A5ACB0" points="31 58 33 58 33 56 31 56"></polygon>
            <polygon id="Fill-124" fill="#A5ACB0" points="31 8 33 8 33 6 31 6"></polygon>
            <polygon id="Fill-125" fill="#A5ACB0" points="6 33 8 33 8 31 6 31"></polygon>
            <polygon id="Fill-126" fill="#A5ACB0" points="56 33 58 33 58 31 56 31"></polygon>
            <path d="M32,2 C15.458,2 2,15.458 2,32 C2,48.542 15.458,62 32,62 C48.542,62 62,48.542 62,32 C62,15.458 48.542,2 32,2 Z M32,64 C14.355,64 0,49.645 0,32 C0,14.355 14.355,0 32,0 C49.645,0 64,14.355 64,32 C64,49.645 49.645,64 32,64 L32,64 Z" id="Fill-127" fill="#A5ACB0"></path>
        </g>
        <rect id="bounding-box" x="0" y="0" width="80" height="80"></rect>
    </g>
</svg>