<?xml version="1.0" encoding="UTF-8"?>
<svg width="80px" height="80px" viewBox="0 0 80 80" version="1.1" xmlns="http://www.w3.org/2000/svg" xmlns:xlink="http://www.w3.org/1999/xlink">
    <!-- Generator: Sketch 49.3 (51167) - http://www.bohemiancoding.com/sketch -->
    <title>Ikonit / Kuvitukset / Asiakaspalvelu</title>
    <desc>Created with Sketch.</desc>
    <defs></defs>
    <g id="Ikonit-/-Kuvitukset-/-Asiakaspalvelu" stroke="none" stroke-width="1" fill="none" fill-rule="evenodd">
        <g id="Group-23" transform="translate(8.000000, 8.000000)">
            <path d="M8.894,51.447 L7.105,50.553 C7.237,50.29 10.387,44.103 15.804,43.02 L22.652,41.06 C23.776,40.538 25,39.579 25,39 L25,34 L27,34 L27,39 C27,41.193 24.008,42.644 23.409,42.913 C23.365,42.932 23.32,42.948 23.275,42.962 L16.275,44.962 C11.727,45.874 8.922,51.392 8.894,51.447" id="Fill-145" fill="#EA7125"></path>
            <path d="M55.106,51.448 C55.078,51.393 52.255,45.871 47.804,44.98 L40.725,42.962 C40.68,42.948 40.635,42.932 40.591,42.913 C39.992,42.644 37,41.193 37,39 L37,34 L39,34 L39,39 C39,39.636 40.365,40.604 41.346,41.059 L48.275,43.038 C53.613,44.103 56.763,50.29 56.895,50.553 L55.106,51.448" id="Fill-146" fill="#EA7125"></path>
            <path d="M27,15.618 L27,17 C27,17.553 26.552,18 26,18 C24.897,18 24,18.897 24,20 L24,23 C24,29.261 26.503,36 32,36 C37.497,36 40,29.261 40,23 L40,20 C40,18.897 39.103,18 38,18 L32,18 C31.845,18 31.691,17.964 31.553,17.895 L27,15.618 L27,15.618 Z M32,37.9999959 C25.129,37.9999959 22,30.2249972 22,22.9999984 L22,19.9999988 C22,18.1399992 23.277,16.5709994 25,16.1269995 L25,13.9999998 C25,13.6529999 25.18,13.3319999 25.474,13.149 C25.769,12.967 26.137,12.951 26.447,13.105 L32.236,15.9999995 L38,15.9999995 C40.206,15.9999995 42,17.7939992 42,19.9999988 L42,22.9999984 C42,30.2249972 38.871,37.9999959 32,37.9999959 L32,37.9999959 Z" id="Fill-147" fill="#EA7125"></path>
            <path d="M34,47 L30,47 C29.735,47 29.48,46.895 29.293,46.707 L25.586,43 L23,43 L23,41 L26,41 C26.265,41 26.519,41.105 26.707,41.293 L30.414,45 L33.586,45 L37.293,41.293 C37.48,41.105 37.735,41 38,41 L41,41 L41,43 L38.414,43 L34.707,46.707 C34.52,46.895 34.265,47 34,47" id="Fill-148" fill="#EA7125"></path>
            <polygon id="Fill-149" fill="#A5ACB0" points="31 56 33 56 33 54 31 54"></polygon>
            <polygon id="Fill-150" fill="#A5ACB0" points="31 52 33 52 33 50 31 50"></polygon>
            <polygon id="Fill-151" fill="#A5ACB0" points="31 60 33 60 33 58 31 58"></polygon>
            <polygon id="Fill-152" fill="#A5ACB0" points="37 54 45 54 45 52 37 52"></polygon>
            <path d="M46,18 L44,18 L44,17 C44,12.375 40.494,8.555 36,8.056 L36,9 C36,9.321 35.846,9.623 35.584,9.812 C35.323,9.999 34.987,10.051 34.684,9.948 L28.842,8.001 C23.952,8.086 20,12.09 20,17 L20,18 L18,18 L18,17 C18,10.935 22.935,6 29,6 C29.107,6 29.214,6.018 29.316,6.052 L34,7.612 L34,7 C34,6.447 34.448,6 35,6 C41.065,6 46,10.935 46,17 L46,18" id="Fill-153" fill="#EA7125"></path>
            <path d="M22,30 C18.14,30 15,26.859 15,23 C15,19.141 18.14,16 22,16 L22,18 C19.243,18 17,20.243 17,23 C17,25.757 19.243,28 22,28 L22,30" id="Fill-154" fill="#EA7125"></path>
            <path d="M42,30 L42,28 C44.757,28 47,25.757 47,23 C47,20.243 44.757,18 42,18 L42,16 C45.86,16 49,19.141 49,23 C49,26.859 45.86,30 42,30" id="Fill-155" fill="#EA7125"></path>
            <path d="M44,34 L33,34 C31.346,34 30,32.654 30,31 L32,31 C32,31.552 32.449,32 33,32 L44,32 C44.551,32 45,31.552 45,31 L45,27 L47,27 L47,31 C47,32.654 45.654,34 44,34" id="Fill-156" fill="#EA7125"></path>
            <path d="M32,2 C15.458,2 2,15.458 2,32 C2,48.542 15.458,62 32,62 C48.542,62 62,48.542 62,32 C62,15.458 48.542,2 32,2 L32,2 Z M32,64 C14.355,64 0,49.645 0,32 C0,14.355 14.355,0 32,0 C49.645,0 64,14.355 64,32 C64,49.645 49.645,64 32,64 L32,64 Z" id="Fill-157" fill="#A5ACB0"></path>
        </g>
        <rect id="bounding-box" x="0" y="0" width="80" height="80"></rect>
    </g>
</svg>