<?xml version="1.0" encoding="UTF-8"?>
<svg width="80px" height="80px" viewBox="0 0 80 80" version="1.1" xmlns="http://www.w3.org/2000/svg" xmlns:xlink="http://www.w3.org/1999/xlink">
    <title>Icons/Illustrative Icons/Economic situation</title>
    <g id="Icons/Illustrative-Icons/Economic-situation" stroke="none" stroke-width="1" fill="none" fill-rule="evenodd">
        <g id="Group-2" transform="translate(9.000000, 8.000000)">
            <polyline id="Fill-135" fill="#A5ADB1" points="54.0000107 28 52.0000107 28 52.0000107 9.414 44.5860107 2 10.0000107 2 10.0000107 28 8.00001071 28 8.00001071 0 45.4140107 0 54.0000107 8.586 54.0000107 28"></polyline>
            <path d="M6.00001071,55 L4.00001071,55 L4.00001071,52.162 L0.0510107143,40.316 C-0.0179892857,40.109 -0.0169892857,39.884 0.0540107143,39.677 L3.12401071,30.677 C3.20001071,30.456 3.35101071,30.268 3.55001071,30.146 L8.48001071,27.146 L9.52001071,28.854 L4.90001071,31.666 L2.05501071,40.004 L5.94901071,51.684 C5.98301071,51.786 6.00001071,51.893 6.00001071,52 L6.00001071,55" id="Fill-136" fill="#A5ADB1"></path>
            <path d="M18.0000107,56 L16.0000107,56 L16.0000107,43.11 L14.0000107,34 L14.0000107,28 C14.0000107,26.86 13.1810107,26 12.0940107,26 C10.9590107,26 10.0000107,26.916 10.0000107,28 L9.99001071,36.142 L8.99001071,43.142 L7.01001071,42.858 L8.00001071,35.929 L8.00001071,28 C8.00001071,25.832 9.87501071,24 12.0940107,24 C14.2840107,24 16.0000107,25.757 16.0000107,28 L16.0000107,33.89 L18.0000107,43 L18.0000107,56" id="Fill-137" fill="#A5ADB1"></path>
            <path d="M20.0000107,64 L18.0000107,64 L18.0000107,56 L4.00001071,56 L4.00001071,64 L2.00001071,64 L2.00001071,55 C2.00001071,54.448 2.44801071,54 3.00001071,54 L19.0000107,54 C19.5520107,54 20.0000107,54.448 20.0000107,55 L20.0000107,64" id="Fill-138" fill="#A5ADB1"></path>
            <polygon id="Fill-139" fill="#A5ADB1" points="14.0000107 60 16.0000107 60 16.0000107 58 14.0000107 58"></polygon>
            <path d="M58.0000107,55 L56.0000107,55 L56.0000107,52 C56.0000107,51.893 56.0170107,51.786 56.0510107,51.684 L59.9450107,40.004 L57.1000107,31.666 L52.4800107,28.854 L53.5200107,27.146 L58.4500107,30.146 C58.6490107,30.268 58.8000107,30.456 58.8760107,30.677 L61.9460107,39.677 C62.0170107,39.884 62.0180107,40.109 61.9490107,40.316 L58.0000107,52.162 L58.0000107,55" id="Fill-140" fill="#A5ADB1"></path>
            <path d="M46.0000107,55 L44.0000107,55 L44.0240107,42.783 L46.0000107,33.89 L46.0000107,28 C46.0000107,25.757 47.7160107,24 49.9060107,24 C52.1250107,24 54.0000107,25.832 54.0000107,28 L54.0000107,35.929 L54.9900107,42.858 L53.0100107,43.142 L52.0000107,36 L52.0000107,28 C52.0000107,26.916 51.0410107,26 49.9060107,26 C48.8190107,26 48.0000107,26.86 48.0000107,28 L47.9760107,34.217 L46.0000107,43.11 L46.0000107,55" id="Fill-141" fill="#A5ADB1"></path>
            <polygon id="Fill-142" fill="#A5ADB1" points="46.0000107 60 48.0000107 60 48.0000107 58 46.0000107 58"></polygon>
            <path d="M59.0000107,64 L57.0000107,64 L57.0000107,56 L44.0000107,56 L44.0000107,64 L42.0000107,64 L42.0000107,56 C42.0000107,54.897 42.8970107,54 44.0000107,54 L57.0000107,54 C58.1030107,54 59.0000107,54.897 59.0000107,56 L59.0000107,64" id="Fill-143" fill="#A5ADB1"></path>
            <polyline id="Fill-144" fill="#A5ADB1" points="53.0000107 10 44.0000107 10 44.0000107 1 46.0000107 1 46.0000107 8 53.0000107 8 53.0000107 10"></polyline>
            <polygon id="Fill-145" fill="#A5ADB1" points="14.0000107 8 16.0000107 8 16.0000107 6 14.0000107 6"></polygon>
            <polygon id="Fill-146" fill="#A5ADB1" points="18.0000107 8 20.0000107 8 20.0000107 6 18.0000107 6"></polygon>
            <polygon id="Fill-147" fill="#A5ADB1" points="22.0000107 8 24.0000107 8 24.0000107 6 22.0000107 6"></polygon>
            <polygon id="Fill-148" fill="#E97025" points="12.0000107 14 50.0000107 14 50.0000107 12 12.0000107 12"></polygon>
            <polygon id="Fill-149" fill="#A5ADB1" points="12.0000107 18 50.0000107 18 50.0000107 16 12.0000107 16"></polygon>
            <polygon id="Fill-150" fill="#A5ADB1" points="12.0000107 22 50.0000107 22 50.0000107 20 12.0000107 20"></polygon>
            <polygon id="Fill-151" fill="#A5ADB1" points="36.0000107 46 38.0000107 46 38.0000107 26 36.0000107 26"></polygon>
            <polygon id="Fill-152" fill="#E97025" points="40.0000107 46 42.0000107 46 42.0000107 30 40.0000107 30"></polygon>
            <polygon id="Fill-153" fill="#E97025" points="32.0000107 46 34.0000107 46 34.0000107 32 32.0000107 32"></polygon>
            <polygon id="Fill-154" fill="#A5ADB1" points="28.0000107 46 30.0000107 46 30.0000107 28 28.0000107 28"></polygon>
            <polygon id="Fill-155" fill="#A5ADB1" points="20.0000107 46 22.0000107 46 22.0000107 30 20.0000107 30"></polygon>
            <polygon id="Fill-156" fill="#A5ADB1" points="20.0000107 50 22.0000107 50 22.0000107 48 20.0000107 48"></polygon>
            <polygon id="Fill-157" fill="#E97025" points="24.0000107 46 26.0000107 46 26.0000107 34 24.0000107 34"></polygon>
            <polygon id="Fill-158" fill="#E97025" points="24.0000107 50 26.0000107 50 26.0000107 48 24.0000107 48"></polygon>
            <polygon id="Fill-159" fill="#A5ADB1" points="28.0000107 50 30.0000107 50 30.0000107 48 28.0000107 48"></polygon>
            <polygon id="Fill-160" fill="#E97025" points="32.0000107 50 34.0000107 50 34.0000107 48 32.0000107 48"></polygon>
            <polygon id="Fill-161" fill="#A5ADB1" points="36.0000107 50 38.0000107 50 38.0000107 48 36.0000107 48"></polygon>
            <polygon id="Fill-162" fill="#E97025" points="40.0000107 50 42.0000107 50 42.0000107 48 40.0000107 48"></polygon>
        </g>
        <rect id="bounding-box" x="0" y="0" width="80" height="80"></rect>
    </g>
</svg>