<?xml version="1.0" encoding="UTF-8"?>
<svg width="182px" height="29px" viewBox="0 0 182 29" version="1.1" xmlns="http://www.w3.org/2000/svg" xmlns:xlink="http://www.w3.org/1999/xlink">
    <title>DS / Suomi.fi -logo / horizontal invert</title>
    <g id="DS-/-Suomi.fi--logo-/-horizontal-invert" stroke="none" stroke-width="1" fill="none" fill-rule="evenodd">
        <path d="M0,2.002 L0,7.002 L7,7.002 L7,0.002 L2,0.002 C0.9,0.002 0,0.902 0,2.002" id="Fill-64" fill="#FFFFFF"></path>
        <path d="M0,28.002 C0,28.552 0.45,29.002 1,29.002 L6,29.002 C6.55,29.002 7,28.552 7,28.002 L7,14.002 L0,14.002 L0,28.002 Z" id="Fill-65" fill="#FFFFFF"></path>
        <path d="M27,0.002 L14,0.002 L14,7.002 L28,7.002 L28,1.002 C28,0.452 27.55,0.002 27,0.002" id="Fill-66" fill="#FFFFFF"></path>
        <path d="M14,21.002 L27,21.002 C27.553,21.002 28,20.554 28,20.002 L28,14.002 L14,14.002 L14,21.002 Z" id="Fill-67" fill="#FFFFFF"></path>
        <path d="M57.1074,29.3379 C53.9564,29.3379 51.1414,28.5819 49.0004,27.4479 L49.5874,23.4149 C51.5624,24.7169 54.2934,25.8939 57.1914,25.8939 C60.2154,25.8939 62.3584,24.2969 62.3584,21.4829 C62.3584,18.8359 61.1814,17.7439 56.8124,15.7699 C51.3514,13.2909 49.2944,11.4849 49.2944,7.3259 C49.2944,2.6629 52.8644,-0.3191 58.1154,-0.3191 C60.9294,-0.3191 63.0304,0.3529 64.7104,1.3189 L64.0804,5.2679 C62.4844,4.0489 60.2994,3.1259 57.9894,3.1259 C54.6704,3.1259 53.2004,4.8899 53.2004,7.0319 C53.2004,9.2579 54.2934,10.3089 58.7034,12.3249 C64.3324,14.8879 66.2644,16.8199 66.2644,21.1889 C66.2644,26.1879 62.5264,29.3379 57.1074,29.3379" id="Fill-95" fill="#FFFFFF"></path>
        <path d="M74.0322,8.9644 L74.0322,22.6164 C74.0322,24.6754 74.9142,26.0614 77.0982,26.0614 C79.0732,26.0614 81.0892,24.7594 82.8952,22.8264 L82.8952,8.9644 L86.6342,8.9644 L86.6342,29.0024 L83.6512,29.0024 L83.1892,26.1034 C81.2992,27.8674 78.9052,29.4224 76.0902,29.4224 C72.2672,29.4224 70.2932,27.1534 70.2932,23.5414 L70.2932,8.9644 L74.0322,8.9644 Z" id="Fill-96" fill="#FFFFFF"></path>
        <path d="M99.7363,11.6528 C96.1243,11.6528 94.3173,14.8028 94.3173,19.0048 C94.3173,23.1208 96.2083,26.3138 99.7363,26.3138 C103.4333,26.3138 105.2813,23.2048 105.2813,19.0048 C105.2813,14.8878 103.3493,11.6528 99.7363,11.6528 M99.7363,29.4218 C94.4013,29.4218 90.5373,25.5988 90.5373,19.0048 C90.5373,12.4088 94.4013,8.5448 99.7363,8.5448 C105.1133,8.5448 109.0623,12.4088 109.0623,19.0048 C109.0623,25.5988 105.1133,29.4218 99.7363,29.4218" id="Fill-97" fill="#FFFFFF"></path>
        <path d="M137.665,29.002 L137.665,15.35 C137.665,13.291 136.909,11.905 134.725,11.905 C132.75,11.905 130.86,13.207 129.054,15.14 L129.054,29.002 L125.314,29.002 L125.314,15.35 C125.314,13.291 124.559,11.905 122.374,11.905 C120.4,11.905 118.51,13.207 116.703,15.14 L116.703,29.002 L112.965,29.002 L112.965,8.964 L115.947,8.964 L116.409,11.863 C118.3,10.141 120.568,8.544 123.383,8.544 C126.323,8.544 127.919,9.805 128.676,11.863 C130.481,10.141 132.918,8.544 135.732,8.544 C139.556,8.544 141.403,10.813 141.403,14.425 L141.403,29.002 L137.665,29.002 Z" id="Fill-98" fill="#FFFFFF"></path>
        <polygon id="Path" fill="#FFFFFF" points="146.648 29.002 150.386 29.002 150.386 8.964 146.648 8.964"></polygon>
        <path d="M148.539,4.747 C147.236,4.747 146.145,3.697 146.145,2.395 C146.145,1.092 147.236,2.06057393e-13 148.539,2.06057393e-13 C149.841,2.06057393e-13 150.892,1.092 150.892,2.395 C150.892,3.697 149.841,4.747 148.539,4.747 L148.539,4.747 Z" id="Path" fill="#FFFFFF"></path>
        <path d="M171.9756,3.3179 C170.2526,3.3179 169.2036,4.0319 169.2036,5.8809 L169.2036,8.9639 L173.2356,8.9639 L173.6976,12.1149 L169.2036,12.1149 L169.2036,29.0019 L165.5476,29.0019 L165.5476,12.1149 L162.5236,12.1149 L162.5236,8.9639 L165.5476,8.9639 L165.5476,5.5029 C165.5476,1.5119 168.1946,-0.0001 171.7656,-0.0001 C172.3536,-0.0001 172.8576,0.0419 173.3616,0.0839 L173.9076,3.4859 C173.4876,3.4019 172.7316,3.3179 171.9756,3.3179" id="Fill-100" fill="#FFFFFF"></path>
        <polygon id="Path" fill="#FFFFFF" points="176.929 29.002 180.668 29.002 180.668 8.964 176.929 8.964"></polygon>
        <path d="M178.819,4.747 C177.518,4.747 176.425,3.697 176.425,2.395 C176.425,1.092 177.518,2.06057393e-13 178.819,2.06057393e-13 C180.122,2.06057393e-13 181.172,1.092 181.172,2.395 C181.172,3.697 180.122,4.747 178.819,4.747 L178.819,4.747 Z" id="Path" fill="#FFFFFF"></path>
        <path d="M157.5684,29.0005 C156.2654,29.0005 155.1734,27.9505 155.1734,26.6475 C155.1734,25.3455 156.2654,24.2535 157.5684,24.2535 C158.8704,24.2535 159.9214,25.3455 159.9214,26.6475 C159.9214,27.9505 158.8704,29.0005 157.5684,29.0005" id="Fill-102" fill="#FFFFFF"></path>
    </g>
</svg>