<?xml version="1.0" encoding="UTF-8"?>
<svg width="90px" height="96px" viewBox="0 0 90 96" version="1.1" xmlns="http://www.w3.org/2000/svg" xmlns:xlink="http://www.w3.org/1999/xlink">
    <title>DS / Suomi.fi -logo / vertical</title>
    <g id="DS-/-Suomi.fi--logo-/-vertical" stroke="none" stroke-width="1" fill="none" fill-rule="evenodd">
        <path d="M70,-0.0005 L19,-0.0005 C17.9,-0.0005 17,0.8995 17,1.9995 L17,52.9995 C17,54.0995 17.9,54.9995 19,54.9995 L70,54.9995 C71.1,54.9995 72,54.0995 72,52.9995 L72,1.9995 C72,0.8995 71.1,-0.0005 70,-0.0005" id="Fill-51" fill="#003479"></path>
        <path d="M31,19.9995 L31,14.9995 C31,13.8995 31.9,12.9995 33,12.9995 L38,12.9995 L38,19.9995" id="Fill-52" fill="#FFFFFF"></path>
        <path d="M31,26.9995 L38,26.9995 L38,40.9995 C38,41.5495 37.55,41.9995 37,41.9995 L32,41.9995 C31.45,41.9995 31,41.5495 31,40.9995" id="Fill-53" fill="#FFFFFF"></path>
        <path d="M45,12.9995 L58,12.9995 C58.55,12.9995 59,13.4495 59,13.9995 L59,19.9995 L45,19.9995" id="Fill-54" fill="#FFFFFF"></path>
        <path d="M58,33.9995 L45,33.9995 L45,26.9995 L59,26.9995 L59,32.9995 C59,33.5515 58.552,33.9995 58,33.9995" id="Fill-55" fill="#FFFFFF"></path>
        <polygon id="Path" fill="#003479" points="66.042 95.546 68.534 95.546 68.534 82.188 66.042 82.188"></polygon>
        <path d="M67.302,79.377 C66.434,79.377 65.706,78.677 65.706,77.809 C65.706,76.94 66.434,76.213 67.302,76.213 C68.17,76.213 68.871,76.94 68.871,77.809 C68.871,78.677 68.17,79.377 67.302,79.377 L67.302,79.377 Z" id="Path" fill="#003479"></path>
        <path d="M82.9263,78.4243 C81.7783,78.4243 81.0783,78.9003 81.0783,80.1323 L81.0783,82.1883 L83.7663,82.1883 L84.0743,84.2893 L81.0783,84.2893 L81.0783,95.5473 L78.6413,95.5473 L78.6413,84.2893 L76.6253,84.2893 L76.6253,82.1883 L78.6413,82.1883 L78.6413,79.8813 C78.6413,77.2203 80.4053,76.2123 82.7863,76.2123 C83.1783,76.2123 83.5143,76.2403 83.8503,76.2683 L84.2143,78.5363 C83.9343,78.4803 83.4303,78.4243 82.9263,78.4243" id="Fill-61" fill="#003479"></path>
        <polygon id="Path" fill="#003479" points="86.229 95.546 88.722 95.546 88.722 82.188 86.229 82.188"></polygon>
        <path d="M87.489,79.377 C86.621,79.377 85.893,78.677 85.893,77.809 C85.893,76.94 86.621,76.213 87.489,76.213 C88.357,76.213 89.057,76.94 89.057,77.809 C89.057,78.677 88.357,79.377 87.489,79.377 L87.489,79.377 Z" id="Path" fill="#003479"></path>
        <path d="M73.3218,95.5459 C72.4528,95.5459 71.7248,94.8459 71.7248,93.9779 C71.7248,93.1089 72.4528,92.3819 73.3218,92.3819 C74.1898,92.3819 74.8898,93.1089 74.8898,93.9779 C74.8898,94.8459 74.1898,95.5459 73.3218,95.5459" id="Fill-63" fill="#003479"></path>
        <path d="M6.3477,95.771 C4.2467,95.771 2.3707,95.267 0.9427,94.511 L1.3347,91.822 C2.6507,92.69 4.4717,93.475 6.4037,93.475 C8.4197,93.475 9.8477,92.41 9.8477,90.534 C9.8477,88.77 9.0637,88.042 6.1507,86.726 C2.5107,85.073 1.1387,83.869 1.1387,81.097 C1.1387,77.988 3.5187,76 7.0197,76 C8.8957,76 10.2967,76.448 11.4157,77.092 L10.9957,79.724 C9.9317,78.912 8.4757,78.296 6.9357,78.296 C4.7227,78.296 3.7427,79.472 3.7427,80.9 C3.7427,82.385 4.4717,83.085 7.4117,84.429 C11.1637,86.138 12.4527,87.426 12.4527,90.338 C12.4527,93.671 9.9607,95.771 6.3477,95.771" id="Fill-56" fill="#003479"></path>
        <path d="M17.6309,82.1885 L17.6309,91.2905 C17.6309,92.6625 18.2189,93.5865 19.6749,93.5865 C20.9919,93.5865 22.3359,92.7185 23.5399,91.4305 L23.5399,82.1885 L26.0319,82.1885 L26.0319,95.5465 L24.0439,95.5465 L23.7359,93.6145 C22.4749,94.7915 20.8799,95.8275 19.0029,95.8275 C16.4549,95.8275 15.1379,94.3145 15.1379,91.9065 L15.1379,82.1885 L17.6309,82.1885 Z" id="Fill-57" fill="#003479"></path>
        <path d="M34.7671,83.981 C32.3591,83.981 31.1541,86.081 31.1541,88.882 C31.1541,91.627 32.4141,93.755 34.7671,93.755 C37.2321,93.755 38.4631,91.683 38.4631,88.882 C38.4631,86.138 37.1761,83.981 34.7671,83.981 M34.7671,95.827 C31.2101,95.827 28.6341,93.278 28.6341,88.882 C28.6341,84.485 31.2101,81.909 34.7671,81.909 C38.3511,81.909 40.9841,84.485 40.9841,88.882 C40.9841,93.278 38.3511,95.827 34.7671,95.827" id="Fill-58" fill="#003479"></path>
        <path d="M60.0527,95.5469 L60.0527,86.4449 C60.0527,85.0729 59.5487,84.1489 58.0927,84.1489 C56.7757,84.1489 55.5157,85.0169 54.3117,86.3059 L54.3117,95.5469 L51.8187,95.5469 L51.8187,86.4449 C51.8187,85.0729 51.3147,84.1489 49.8587,84.1489 C48.5427,84.1489 47.2827,85.0169 46.0777,86.3059 L46.0777,95.5469 L43.5857,95.5469 L43.5857,82.1889 L45.5737,82.1889 L45.8827,84.1209 C47.1427,82.9729 48.6547,81.9089 50.5317,81.9089 C52.4917,81.9089 53.5547,82.7489 54.0597,84.1209 C55.2637,82.9729 56.8877,81.9089 58.7637,81.9089 C61.3127,81.9089 62.5447,83.4209 62.5447,85.8289 L62.5447,95.5469 L60.0527,95.5469 Z" id="Fill-59" fill="#003479"></path>
    </g>
</svg>