<?xml version="1.0" encoding="UTF-8"?>
<svg width="89px" height="70px" viewBox="0 0 89 70" version="1.1" xmlns="http://www.w3.org/2000/svg" xmlns:xlink="http://www.w3.org/1999/xlink">
    <title>DS / Suomi.fi -logo / vertical invert</title>
    <g id="DS-/-Suomi.fi--logo-/-vertical-invert" stroke="none" stroke-width="1" fill="none" fill-rule="evenodd">
        <path d="M30.248,6.9995 L30.248,1.9995 C30.248,0.8995 31.148,-0.0005 32.248,-0.0005 L37.248,-0.0005 L37.248,6.9995" id="Fill-68" fill="#FFFFFF"></path>
        <path d="M30.248,13.9995 L37.248,13.9995 L37.248,27.9995 C37.248,28.5495 36.798,28.9995 36.248,28.9995 L31.248,28.9995 C30.698,28.9995 30.248,28.5495 30.248,27.9995" id="Fill-69" fill="#FFFFFF"></path>
        <path d="M44.248,-0.0005 L57.248,-0.0005 C57.798,-0.0005 58.248,0.4495 58.248,0.9995 L58.248,6.9995 L44.248,6.9995" id="Fill-70" fill="#FFFFFF"></path>
        <path d="M57.248,20.9995 L44.248,20.9995 L44.248,13.9995 L58.248,13.9995 L58.248,19.9995 C58.248,20.5515 57.8,20.9995 57.248,20.9995" id="Fill-71" fill="#FFFFFF"></path>
        <path d="M5.5957,69.771 C3.4947,69.771 1.6177,69.267 0.1907,68.511 L0.5827,65.822 C1.8997,66.69 3.7197,67.475 5.6517,67.475 C7.6677,67.475 9.0967,66.41 9.0967,64.534 C9.0967,62.77 8.3117,62.042 5.3997,60.726 C1.7587,59.073 0.3867,57.869 0.3867,55.097 C0.3867,51.988 2.7667,50 6.2677,50 C8.1437,50 9.5437,50.448 10.6637,51.092 L10.2437,53.724 C9.1807,52.912 7.7237,52.296 6.1837,52.296 C3.9717,52.296 2.9917,53.472 2.9917,54.9 C2.9917,56.385 3.7197,57.085 6.6587,58.429 C10.4117,60.138 11.6997,61.426 11.6997,64.338 C11.6997,67.671 9.2077,69.771 5.5957,69.771" id="Fill-72" fill="#FFFFFF"></path>
        <path d="M16.8789,56.1885 L16.8789,65.2905 C16.8789,66.6625 17.4669,67.5865 18.9229,67.5865 C20.2389,67.5865 21.5829,66.7185 22.7879,65.4305 L22.7879,56.1885 L25.2799,56.1885 L25.2799,69.5465 L23.2919,69.5465 L22.9829,67.6145 C21.7239,68.7915 20.1279,69.8275 18.2509,69.8275 C15.7019,69.8275 14.3859,68.3145 14.3859,65.9065 L14.3859,56.1885 L16.8789,56.1885 Z" id="Fill-73" fill="#FFFFFF"></path>
        <path d="M34.0146,57.981 C31.6066,57.981 30.4026,60.081 30.4026,62.882 C30.4026,65.627 31.6626,67.755 34.0146,67.755 C36.4796,67.755 37.7116,65.683 37.7116,62.882 C37.7116,60.138 36.4236,57.981 34.0146,57.981 M34.0146,69.827 C30.4576,69.827 27.8816,67.278 27.8816,62.882 C27.8816,58.485 30.4576,55.909 34.0146,55.909 C37.5996,55.909 40.2326,58.485 40.2326,62.882 C40.2326,67.278 37.5996,69.827 34.0146,69.827" id="Fill-74" fill="#FFFFFF"></path>
        <path d="M59.3008,69.5469 L59.3008,60.4449 C59.3008,59.0729 58.7968,58.1489 57.3408,58.1489 C56.0248,58.1489 54.7648,59.0169 53.5598,60.3059 L53.5598,69.5469 L51.0678,69.5469 L51.0678,60.4449 C51.0678,59.0729 50.5638,58.1489 49.1068,58.1489 C47.7908,58.1489 46.5298,59.0169 45.3258,60.3059 L45.3258,69.5469 L42.8338,69.5469 L42.8338,56.1889 L44.8218,56.1889 L45.1298,58.1209 C46.3908,56.9729 47.9038,55.9089 49.7798,55.9089 C51.7388,55.9089 52.8038,56.7489 53.3078,58.1209 C54.5118,56.9729 56.1358,55.9089 58.0128,55.9089 C60.5618,55.9089 61.7928,57.4209 61.7928,59.8289 L61.7928,69.5469 L59.3008,69.5469 Z" id="Fill-75" fill="#FFFFFF"></path>
        <polygon id="Path" fill="#FFFFFF" points="65.29 69.546 67.782 69.546 67.782 56.188 65.29 56.188"></polygon>
        <path d="M66.55,53.377 C65.682,53.377 64.954,52.677 64.954,51.809 C64.954,50.94 65.682,50.213 66.55,50.213 C67.418,50.213 68.118,50.94 68.118,51.809 C68.118,52.677 67.418,53.377 66.55,53.377 L66.55,53.377 Z" id="Path" fill="#FFFFFF"></path>
        <path d="M82.1748,52.4243 C81.0268,52.4243 80.3258,52.9003 80.3258,54.1323 L80.3258,56.1883 L83.0148,56.1883 L83.3218,58.2893 L80.3258,58.2893 L80.3258,69.5473 L77.8898,69.5473 L77.8898,58.2893 L75.8728,58.2893 L75.8728,56.1883 L77.8898,56.1883 L77.8898,53.8813 C77.8898,51.2203 79.6538,50.2123 82.0338,50.2123 C82.4268,50.2123 82.7628,50.2403 83.0988,50.2683 L83.4618,52.5363 C83.1828,52.4803 82.6788,52.4243 82.1748,52.4243" id="Fill-77" fill="#FFFFFF"></path>
        <polygon id="Path" fill="#FFFFFF" points="85.477 69.546 87.97 69.546 87.97 56.188 85.477 56.188"></polygon>
        <path d="M86.737,53.377 C85.869,53.377 85.141,52.677 85.141,51.809 C85.141,50.94 85.869,50.213 86.737,50.213 C87.605,50.213 88.306,50.94 88.306,51.809 C88.306,52.677 87.605,53.377 86.737,53.377 L86.737,53.377 Z" id="Path" fill="#FFFFFF"></path>
        <path d="M72.5693,69.5459 C71.7013,69.5459 70.9733,68.8459 70.9733,67.9779 C70.9733,67.1089 71.7013,66.3819 72.5693,66.3819 C73.4373,66.3819 74.1373,67.1089 74.1373,67.9779 C74.1373,68.8459 73.4373,69.5459 72.5693,69.5459" id="Fill-79" fill="#FFFFFF"></path>
    </g>
</svg>