<?xml version="1.0" encoding="UTF-8"?>
<svg width="80px" height="80px" viewBox="0 0 80 80" version="1.1" xmlns="http://www.w3.org/2000/svg" xmlns:xlink="http://www.w3.org/1999/xlink">
    <title>Icons/Illustrative icons/map</title>
    <g id="Icons/Illustrative-icons/map" stroke="none" stroke-width="1" fill="none" fill-rule="evenodd">
        <g id="Group-10" transform="translate(8.000000, 8.000000)">
            <polygon id="Fill-189" fill="#A5ADB1" points="16 57 18 57 18 29 16 29"></polygon>
            <polygon id="Fill-190" fill="#A5ADB1" points="46 57 48 57 48 29 46 29"></polygon>
            <path d="M63,64 C62.882,64 62.763,63.979 62.648,63.937 L47.012,58.072 L32.371,63.929 C32.133,64.024 31.867,64.024 31.629,63.929 L16.988,58.072 L1.352,63.937 C1.043,64.054 0.699,64.008 0.431,63.822 C0.161,63.635 0,63.328 0,63 L0,35 C0,34.583 0.259,34.21 0.648,34.063 L16.648,28.063 C16.882,27.977 17.14,27.979 17.371,28.071 L22.371,30.071 L21.629,31.929 L16.988,30.072 L2,35.693 L2,61.557 L16.648,56.063 C16.882,55.978 17.14,55.978 17.371,56.071 L32,61.923 L46.629,56.071 C46.861,55.979 47.119,55.978 47.352,56.063 L62,61.557 L62,35.693 L47.012,30.072 L42.371,31.929 L41.629,30.071 L46.629,28.071 C46.861,27.979 47.119,27.978 47.352,28.063 L63.352,34.063 C63.741,34.21 64,34.583 64,35 L64,63 C64,63.328 63.839,63.635 63.569,63.822 C63.4,63.939 63.201,64 63,64" id="Fill-191" fill="#A5ADB1"></path>
            <path d="M32,2 C25.383,2 20,7.383 20,14 C20,19.765 29.187,33.274 32,37.276 C34.813,33.274 44,19.765 44,14 C44,7.383 38.617,2 32,2 L32,2 Z M32,40 C31.681,40 31.38,39.848 31.192,39.589 C30.653,38.851 18,21.42 18,14 C18,6.28 24.28,0 32,0 C39.72,0 46,6.28 46,14 C46,21.42 33.347,38.851 32.808,39.589 C32.62,39.848 32.319,40 32,40 L32,40 Z" id="Fill-192" fill="#E97025"></path>
            <polygon id="Fill-193" fill="#A5ADB1" points="31 63 33 63 33 54 31 54"></polygon>
            <path d="M32,8 C28.691,8 26,10.691 26,14 C26,17.309 28.691,20 32,20 C35.309,20 38,17.309 38,14 C38,10.691 35.309,8 32,8 L32,8 Z M32,22 C27.589,22 24,18.411 24,14 C24,9.589 27.589,6 32,6 C36.411,6 40,9.589 40,14 C40,18.411 36.411,22 32,22 L32,22 Z" id="Fill-194" fill="#E97025"></path>
            <polygon id="Fill-195" fill="#A5ADB1" points="31 44 33 44 33 42 31 42"></polygon>
            <polygon id="Fill-196" fill="#A5ADB1" points="31 48 33 48 33 46 31 46"></polygon>
            <polygon id="Fill-197" fill="#A5ADB1" points="31 52 33 52 33 50 31 50"></polygon>
        </g>
        <rect id="bounding-box" x="0" y="0" width="80" height="80"></rect>
    </g>
</svg>