<?xml version="1.0" encoding="UTF-8"?>
<svg  viewBox="0 0 80 80" version="1.1" xmlns="http://www.w3.org/2000/svg" xmlns:xlink="http://www.w3.org/1999/xlink">
    <title>Icons/Illustrative icons/steering </title>
    <g  id="Icons/Illustrative-icons/steering-" stroke="none" stroke-width="1" fill="none" fill-rule="evenodd">
        <g  id="Vastuullisuus" transform="translate(10.000000, 8.000000)">
            <path d="M38.502,44.725 L37.5,42.994 C42.126,40.317 45,35.338 45,30 C45,21.729 38.271,15 30,15 C21.729,15 15,21.729 15,30 C15,35.338 17.874,40.317 22.5,42.994 L21.498,44.725 C16.256,41.691 13,36.05 13,30 C13,20.626 20.626,13 30,13 C39.374,13 47,20.626 47,30 C47,36.05 43.744,41.691 38.502,44.725"  id="Fill-238" fill="#E97025"></path>
            <polygon  id="Fill-239" fill="#E97025" points="29 22 31 22 31 14 29 14"></polygon>
            <polygon  id="Fill-240" fill="#E97025" points="29 6 31 6 31 0 29 0"></polygon>
            <polyline  id="Fill-241" fill="#E97025" points="15.866 56.48 14.134 55.48 17.132 50.287 18.864 51.287 15.866 56.48"></polyline>
            <polyline  id="Fill-242" fill="#E97025" points="34.864 23.575 33.132 22.575 37.136 15.642 38.868 16.642 34.864 23.575"></polyline>
            <polyline  id="Fill-243" fill="#E97025" points="42.868 9.713 41.136 8.713 44.134 3.52 45.866 4.52 42.868 9.713"></polyline>
            <polyline  id="Fill-244" fill="#E97025" points="44.134 56.48 41.134 51.285 42.866 50.285 45.866 55.48 44.134 56.48"></polyline>
            <polyline  id="Fill-245" fill="#E97025" points="25.134 23.572 21.134 16.645 22.866 15.645 26.866 22.572 25.134 23.572"></polyline>
            <polyline  id="Fill-246" fill="#E97025" points="17.131 9.71 14.134 4.52 15.866 3.52 18.863 8.71 17.131 9.71"></polyline>
            <polygon  id="Fill-247" fill="#E97025" points="54 31 60 31 60 29 54 29"></polygon>
            <polygon  id="Fill-248" fill="#E97025" points="38 31 46 31 46 29 38 29"></polygon>
            <polygon  id="Fill-249" fill="#E97025" points="14 31 22 31 22 29 14 29"></polygon>
            <polygon  id="Fill-250" fill="#E97025" points="0 31 6 31 6 29 0 29"></polygon>
            <polyline  id="Fill-251" fill="#E97025" points="55.48 45.866 50.289 42.869 51.289 41.137 56.48 44.134 55.48 45.866"></polyline>
            <polyline  id="Fill-252" fill="#E97025" points="43.353 38.863 37.494 35.48 38.494 33.748 44.353 37.131 43.353 38.863"></polyline>
            <polyline  id="Fill-253" fill="#E97025" points="22.573 26.866 15.645 22.866 16.645 21.134 23.573 25.134 22.573 26.866"></polyline>
            <polyline  id="Fill-254" fill="#E97025" points="8.715 18.865 3.52 15.866 4.52 14.134 9.715 17.133 8.715 18.865"></polyline>
            <polyline  id="Fill-255" fill="#E97025" points="51.287 18.864 50.287 17.132 55.48 14.134 56.48 15.866 51.287 18.864"></polyline>
            <polyline  id="Fill-256" fill="#E97025" points="37.425 26.868 36.425 25.136 43.357 21.134 44.357 22.866 37.425 26.868"></polyline>
            <polyline  id="Fill-257" fill="#E97025" points="16.643 38.866 15.643 37.134 21.5 33.752 22.5 35.484 16.643 38.866"></polyline>
            <polyline  id="Fill-258" fill="#E97025" points="4.519 45.866 3.519 44.134 8.713 41.136 9.713 42.868 4.519 45.866"></polyline>
            <path d="M38.333,53.576 L37.667,51.691 C46.838,48.449 53,39.732 53,30 C53,17.317 42.682,7 30,7 C17.318,7 7,17.317 7,30 C7,39.732 13.161,48.449 22.332,51.691 L21.665,53.576 C11.697,50.053 5,40.578 5,30 C5,16.215 16.215,5 30,5 C43.785,5 55,16.215 55,30 C55,40.578 48.302,50.053 38.333,53.576"  id="Fill-259" fill="#E97025"></path>
            <path d="M39,63 L37,63 L37,30 C37,26.141 33.86,23 30,23 C26.14,23 23,26.141 23,30 L23,63 L21,63 L21,30 C21,25.037 25.038,21 30,21 C34.962,21 39,25.037 39,30 L39,63"  id="Fill-260" fill="#A5ADB1"></path>
            <polygon  id="Fill-261" fill="#A5ADB1" points="0 64 60 64 60 62 0 62"></polygon>
            <path d="M33,63 L31,63 L31,32 C31,31.448 30.551,31 30,31 C29.449,31 29,31.448 29,32 L29,63 L27,63 L27,32 C27,30.346 28.346,29 30,29 C31.654,29 33,30.346 33,32 L33,63"  id="Fill-262" fill="#A5ADB1"></path>
        </g>
        <rect   id="bounding-box" x="0" y="0" width="80" height="80"></rect>
    </g>
</svg>