<?xml version="1.0" encoding="UTF-8"?>
<svg width="80px" height="80px" viewBox="0 0 80 80" version="1.1" xmlns="http://www.w3.org/2000/svg" xmlns:xlink="http://www.w3.org/1999/xlink">
    <title>Icons/Illustrative icons/man-glasses</title>
    <g id="Icons/Illustrative-icons/man-glasses" stroke="none" stroke-width="1" fill="none" fill-rule="evenodd">
        <g id="Group-2" transform="translate(12.000000, 8.000000)">
            <polygon id="Fill-88" fill="#A5ADB1" points="33 35 35 35 35 28 33 28"></polygon>
            <polygon id="Fill-89" fill="#A5ADB1" points="21 35 23 35 23 28 21 28"></polygon>
            <polygon id="Fill-90" fill="#A5ADB1" points="10 64 12 64 12 56 10 56"></polygon>
            <polygon id="Fill-91" fill="#A5ADB1" points="44 64 46 64 46 56 44 56"></polygon>
            <path d="M28,32 C21.654,32 17.192,24.93 17.006,18.42 L16.293,17.707 C16.105,17.52 16,17.266 16,17 L16,12 L18,12 L18,16.586 L18.707,17.293 C18.895,17.48 19,17.734 19,18 C19,23.676 22.696,30 28,30 C33.304,30 37,23.676 37,18 C37,17.734 37.105,17.48 37.293,17.293 L38,16.586 L38,12 L40,12 L40,17 C40,17.266 39.895,17.52 39.707,17.707 L38.994,18.42 C38.808,24.93 34.346,32 28,32" id="Fill-92" fill="#A5ADB1"></path>
            <path d="M23,12 C21.897,12 21,12.897 21,14 C21,15.103 21.897,16 23,16 C24.103,16 25,15.103 25,14 C25,12.897 24.103,12 23,12 Z M23,18 C20.794,18 19,16.206 19,14 C19,11.794 20.794,10 23,10 C25.206,10 27,11.794 27,14 C27,16.206 25.206,18 23,18 L23,18 Z" id="Fill-93" fill="#E97025"></path>
            <path d="M33,12 C31.897,12 31,12.897 31,14 C31,15.103 31.897,16 33,16 C34.103,16 35,15.103 35,14 C35,12.897 34.103,12 33,12 Z M33,18 C30.794,18 29,16.206 29,14 C29,11.794 30.794,10 33,10 C35.206,10 37,11.794 37,14 C37,16.206 35.206,18 33,18 L33,18 Z" id="Fill-94" fill="#E97025"></path>
            <polygon id="Fill-95" fill="#E97025" points="26 15 30 15 30 13 26 13"></polygon>
            <path d="M20,15 L19,15 C17.346,15 16,13.654 16,12 L18,12 C18,12.552 18.449,13 19,13 L20,13 L20,15" id="Fill-96" fill="#E97025"></path>
            <path d="M37,15 L36,15 L36,13 L37,13 C37.551,13 38,12.552 38,12 L40,12 C40,13.654 38.654,15 37,15" id="Fill-97" fill="#E97025"></path>
            <path d="M39,11 L37,11 L37,9 C37,2.505 30.111,2 28,2 C25.889,2 19,2.505 19,9 L19,11 L17,11 L17,9 C17,3.448 21.215,0 28,0 C34.785,0 39,3.448 39,9 L39,11" id="Fill-98" fill="#A5ADB1"></path>
            <path d="M33,24 L31,24 C31,23.448 30.551,23 30,23 L26,23 C25.449,23 25,23.448 25,24 L23,24 C23,22.346 24.346,21 26,21 L30,21 C31.654,21 33,22.346 33,24" id="Fill-99" fill="#A5ADB1"></path>
            <path d="M28,37 C22.299,37 18,34.851 18,32 L20,32 C20,33.224 23.117,35 28,35 C32.883,35 36,33.224 36,32 L38,32 C38,34.851 33.701,37 28,37" id="Fill-100" fill="#A5ADB1"></path>
            <path d="M28,41 C22.667,41 17,39.248 17,36 C17,35.447 17.448,35 18,35 C18.552,35 19,35.447 19,36 C19,37.224 22.506,39 28,39 C33.494,39 37,37.224 37,36 C37,35.447 37.448,35 38,35 C38.552,35 39,35.447 39,36 C39,39.248 33.333,41 28,41" id="Fill-101" fill="#A5ADB1"></path>
            <path d="M2,64 L0,64 L0,51 C0,43.6 5.658,40.735 10.616,39.074 L16.388,36.188 C16.746,35.775 18,34.174 18,32 L20,32 C20,35.375 17.801,37.613 17.707,37.707 L17.592,37.822 L11.316,40.948 C4.699,43.154 2,46.066 2,51 L2,64" id="Fill-102" fill="#A5ADB1"></path>
            <path d="M56,64 L54,64 L54,51 C54,46.066 51.301,43.154 44.684,40.948 L44.553,40.895 L38.408,37.822 L38.293,37.707 C38.199,37.613 36,35.375 36,32 L38,32 C38,34.196 39.248,35.775 39.61,36.187 L45.384,39.074 C50.342,40.735 56,43.6 56,51 L56,64" id="Fill-103" fill="#A5ADB1"></path>
        </g>
        <rect id="bounding-box" x="0" y="0" width="80" height="80"></rect>
    </g>
</svg>