<?xml version="1.0" encoding="UTF-8"?>
<svg  viewBox="0 0 24 24" version="1.1" xmlns="http://www.w3.org/2000/svg" xmlns:xlink="http://www.w3.org/1999/xlink">
    <title>Icons/Doctype icons/generic-file</title>
    <g  id="Icons/Doctype-icons/generic-file" stroke="none" stroke-width="1" fill="none" fill-rule="evenodd">
        <g  id="Group" transform="translate(2.000000, 0.000000)" fill-rule="nonzero">
            <path d="M0,1.33313819 C0,0.596866296 0.598808254,0 1.32719676,0 L13.3333333,0 L20,6.66666667 L20,22.6686635 C20,23.4039404 19.4014397,24 18.6722553,24 L1.32774469,24 C0.594451544,24 0,23.4067383 0,22.6668618 L0,1.33313819 Z"  id="path-1" fill="#ECEDEE"></path>
            <path d="M0,22 L20,22 L20,22.67 C20,23.4045387 19.4045387,24 18.67,24 L1.33,24 C0.595461283,24 0,23.4045387 0,22.67 L0,22 L0,22 Z"  id="Rectangle-path" fill="#00347A"></path>
            <path d="M13.3333333,0 L13.3333333,5.33359001 C13.3333333,6.06982792 13.9249555,6.66666667 14.66641,6.66666667 L20,6.66666667 L13.3333333,0 Z"  id="Path-9-Copy" fill="#C8CDD0"></path>
            <path d="M3.34375,10.9 C3.1228361,10.9 2.94375,10.7209139 2.94375,10.5 C2.94375,10.2790861 3.1228361,10.1 3.34375,10.1 L13.6791413,10.1 C13.9000552,10.1 14.0791413,10.2790861 14.0791413,10.5 C14.0791413,10.7209139 13.9000552,10.9 13.6791413,10.9 L3.34375,10.9 Z"  id="Line" fill="#00347A"></path>
            <path d="M3.34375,12.9 C3.1228361,12.9 2.94375,12.7209139 2.94375,12.5 C2.94375,12.2790861 3.1228361,12.1 3.34375,12.1 L13.6791413,12.1 C13.9000552,12.1 14.0791413,12.2790861 14.0791413,12.5 C14.0791413,12.7209139 13.9000552,12.9 13.6791413,12.9 L3.34375,12.9 Z"   id="Line-Copy" fill="#00347A"></path>
            <path d="M3.34375,14.9 C3.1228361,14.9 2.94375,14.7209139 2.94375,14.5 C2.94375,14.2790861 3.1228361,14.1 3.34375,14.1 L13.6791413,14.1 C13.9000552,14.1 14.0791413,14.2790861 14.0791413,14.5 C14.0791413,14.7209139 13.9000552,14.9 13.6791413,14.9 L3.34375,14.9 Z"  id="Line-Copy-2" fill="#00347A"></path>
            <path d="M3.31818182,16.9 C3.09726792,16.9 2.91818182,16.7209139 2.91818182,16.5 C2.91818182,16.2790861 3.09726792,16.1 3.31818182,16.1 L9.6818182,16.1 C9.9027321,16.1 10.0818182,16.2790861 10.0818182,16.5 C10.0818182,16.7209139 9.9027321,16.9 9.6818182,16.9 L3.31818182,16.9 Z"  id="Line-Copy-3" fill="#00347A"></path>
        </g>
    </g>
</svg>