<?xml version="1.0" encoding="UTF-8"?>
<svg  viewBox="0 0 24 24" version="1.1" xmlns="http://www.w3.org/2000/svg" xmlns:xlink="http://www.w3.org/1999/xlink">
    <title>Icons/Doctype icons/pdf</title>
    <g  id="Icons/Doctype-icons/pdf" stroke="none" stroke-width="1" fill="none" fill-rule="evenodd">
        <g  id="Group" transform="translate(2.000000, 0.000000)" fill-rule="nonzero">
            <path d="M0,1.33313819 C0,0.596866296 0.598808254,0 1.32719676,0 L13.3333333,0 L20,6.66666667 L20,22.6686635 C20,23.4039404 19.4014397,24 18.6722553,24 L1.32774469,24 C0.594451544,24 0,23.4067383 0,22.6668618 L0,1.33313819 Z"  id="path-1" fill="#ECEDEE"></path>
            <path d="M0,22 L20,22 L20,22.67 C20,23.4045387 19.4045387,24 18.67,24 L1.33,24 C0.595461283,24 0,23.4045387 0,22.67 L0,22 L0,22 Z"  id="Rectangle-path" fill="#C33932"></path>
            <path d="M4.804,16.2186667 L4.804,10.7386667 L5.564,10.7386667 L5.628,11.1546667 L5.66,11.1546667 C5.82533416,11.0159993 6.00933232,10.8960005 6.212,10.7946667 C6.41466768,10.6933328 6.62533224,10.6426667 6.844,10.6426667 C7.08933456,10.6426667 7.30666572,10.6893329 7.496,10.7826667 C7.68533428,10.8760005 7.846666,11.0106658 7.98,11.1866667 C8.113334,11.3626675 8.21466632,11.5733321 8.284,11.8186667 C8.35333368,12.0640012 8.388,12.3386651 8.388,12.6426667 C8.388,12.9786683 8.3413338,13.2786653 8.248,13.5426667 C8.1546662,13.806668 8.03066744,14.0279991 7.876,14.2066667 C7.72133256,14.3853342 7.54266768,14.5226662 7.34,14.6186667 C7.13733232,14.7146671 6.92666776,14.7626667 6.708,14.7626667 C6.53733248,14.7626667 6.36666752,14.7253337 6.196,14.6506667 C6.02533248,14.5759996 5.8600008,14.469334 5.7,14.3306667 L5.724,14.9866667 L5.724,16.2186667 L4.804,16.2186667 Z M6.516,14.0026667 C6.77733464,14.0026667 6.99599912,13.8893345 7.172,13.6626667 C7.34800088,13.4359989 7.436,13.0986689 7.436,12.6506667 C7.436,12.255998 7.369334,11.9493344 7.236,11.7306667 C7.102666,11.5119989 6.88666816,11.4026667 6.588,11.4026667 C6.31066528,11.4026667 6.02266816,11.5493319 5.724,11.8426667 L5.724,13.6746667 C5.86800072,13.7973339 6.006666,13.8826664 6.14,13.9306667 C6.273334,13.9786669 6.39866608,14.0026667 6.516,14.0026667 Z M10.692,14.7626667 C10.1959975,14.7626667 9.80266812,14.5826685 9.512,14.2226667 C9.22133188,13.8626649 9.076,13.3573366 9.076,12.7066667 C9.076,12.3866651 9.1226662,12.0986679 9.216,11.8426667 C9.3093338,11.5866654 9.43333256,11.3706675 9.588,11.1946667 C9.74266744,11.0186667 9.919999,10.8826671 10.12,10.7866667 C10.320001,10.6906662 10.5266656,10.6426667 10.74,10.6426667 C10.9640011,10.6426667 11.1533326,10.6813329 11.308,10.7586667 C11.4626674,10.8360004 11.6173326,10.9413327 11.772,11.0746667 L11.74,10.4426667 L11.74,9.01866667 L12.66,9.01866667 L12.66,14.6666667 L11.9,14.6666667 L11.836,14.2426667 L11.804,14.2426667 C11.6599993,14.3866674 11.492001,14.5093328 11.3,14.6106667 C11.107999,14.7120005 10.9053344,14.7626667 10.692,14.7626667 Z M10.916,14.0026667 C11.2093348,14.0026667 11.4839987,13.8560015 11.74,13.5626667 L11.74,11.7306667 C11.6013326,11.6079994 11.4666673,11.5226669 11.336,11.4746667 C11.2053327,11.4266664 11.073334,11.4026667 10.94,11.4026667 C10.6839987,11.4026667 10.4680009,11.5146655 10.292,11.7386667 C10.1159991,11.9626678 10.028,12.2826646 10.028,12.6986667 C10.028,13.1253355 10.1039992,13.4493322 10.256,13.6706667 C10.4080008,13.8920011 10.6279986,14.0026667 10.916,14.0026667 Z M13.988,14.6666667 L13.988,11.4666667 L13.46,11.4666667 L13.46,10.7786667 L13.988,10.7386667 L13.988,10.3306667 C13.988,10.127999 14.0119998,9.94000087 14.06,9.76666667 C14.1080002,9.59333247 14.1853328,9.44400063 14.292,9.31866667 C14.3986672,9.19333271 14.5333325,9.09600035 14.696,9.02666667 C14.8586675,8.95733299 15.0573322,8.92266667 15.292,8.92266667 C15.4306674,8.92266667 15.562666,8.93599987 15.688,8.96266667 C15.813334,8.98933347 15.9213329,9.02133315 16.012,9.05866667 L15.836,9.74666667 C15.6919993,9.68266635 15.5480007,9.65066667 15.404,9.65066667 C15.0733317,9.65066667 14.908,9.87199779 14.908,10.3146667 L14.908,10.7386667 L15.676,10.7386667 L15.676,11.4666667 L14.908,11.4666667 L14.908,14.6666667 L13.988,14.6666667 Z"  id="pdf" fill="#C33932"></path>
            <path d="M13.3333333,0 L13.3333333,5.33359001 C13.3333333,6.06982792 13.9249555,6.66666667 14.66641,6.66666667 L20,6.66666667 L13.3333333,0 Z"  id="Path-9-Copy" fill="#C8CDD0"></path>
        </g>
    </g>
</svg>