<?xml version="1.0" encoding="UTF-8"?>
<svg width="80px" height="80px" viewBox="0 0 80 80" version="1.1" xmlns="http://www.w3.org/2000/svg" xmlns:xlink="http://www.w3.org/1999/xlink">
    <title>Icons/Illustrative icons/man-buttons</title>
    <g id="Icons/Illustrative-icons/man-buttons" stroke="none" stroke-width="1" fill="none" fill-rule="evenodd">
        <g id="Group-2" transform="translate(11.000000, 8.000000)">
            <path d="M58,64 L56,64 L56,52 C56,47.365 52.915,44.359 45.684,41.949 C45.614,41.926 45.548,41.895 45.485,41.857 L40.485,38.857 L41.515,37.143 L46.421,40.086 C51.836,41.903 58,44.907 58,52 L58,64" id="Fill-123" fill="#A5ADB1"></path>
            <path d="M2,64 L0,64 L0,52 C0,44.907 6.164,41.903 11.579,40.086 L16.485,37.143 L17.515,38.857 L12.515,41.857 C12.452,41.895 12.386,41.926 12.316,41.949 C5.085,44.359 2,47.365 2,52 L2,64" id="Fill-124" fill="#A5ADB1"></path>
            <polygon id="Fill-111" fill="#A5ADB1" points="12 64 14 64 14 56 12 56"></polygon>
            <polygon id="Fill-112" fill="#A5ADB1" points="44 64 46 64 46 56 44 56"></polygon>
            <polygon id="Fill-113" fill="#A5ADB1" points="22 34 24 34 24 29 22 29"></polygon>
            <polygon id="Fill-114" fill="#A5ADB1" points="34 34 36 34 36 29 34 29"></polygon>
            <path d="M36,8.171 C37.164,8.584 38,9.696 38,11 L38,13 C38,13.551 38.448,14 39,14 L39,5 C39,3.346 37.654,2 36,2 L25,2 C23.897,2 23,2.897 23,4 C23,4.552 22.553,5 22,5 L21,5 C19.897,5 19,5.897 19,7 L19,14 C19.552,14 20,13.551 20,13 L20,11 C20,9.346 21.346,8 23,8 L30.764,8 L34.553,6.105 C34.862,5.951 35.23,5.967 35.525,6.149 C35.82,6.332 36,6.653 36,7 L36,8.171 Z M40,16 L39,16 C37.346,16 36,14.654 36,13 L36,11 C36,10.449 35.552,10 35,10 C34.447,10 34,9.552 34,9 L34,8.618 L31.447,9.895 C31.309,9.964 31.155,10 31,10 L23,10 C22.448,10 22,10.449 22,11 L22,13 C22,14.654 20.654,16 19,16 L18,16 C17.447,16 17,15.552 17,15 L17,7 C17,4.794 18.794,3 21,3 L21.127,3 C21.571,1.277 23.14,0 25,0 L36,0 C38.757,0 41,2.243 41,5 L41,15 C41,15.552 40.553,16 40,16 L40,16 Z" id="Fill-115" fill="#A5ADB1"></path>
            <path d="M29,32 C21.206,32 18.168,24.458 18.007,19.421 L17.293,18.707 C17.105,18.52 17,18.265 17,18 L17,15 L19,15 L19,17.586 L19.707,18.293 C19.895,18.48 20,18.735 20,19 C20,23.253 22.443,30 29,30 C35.557,30 38,23.253 38,19 C38,18.735 38.105,18.48 38.293,18.293 L39,17.586 L39,15 L41,15 L41,18 C41,18.265 40.895,18.52 40.707,18.707 L39.993,19.421 C39.832,24.458 36.794,32 29,32" id="Fill-116" fill="#A5ADB1"></path>
            <path d="M17.999,36.967 L24.826,40.759 L28,37.586 L28,36.781 L21.159,35.071 L17.999,36.967 Z M25,43 C24.834,43 24.667,42.959 24.515,42.874 L15.515,37.874 C15.202,37.701 15.006,37.374 15,37.017 C14.994,36.66 15.18,36.326 15.485,36.143 L20.485,33.143 C20.713,33.006 20.985,32.966 21.242,33.03 L29.242,35.03 C29.688,35.141 30,35.541 30,36 L30,38 C30,38.265 29.895,38.52 29.707,38.707 L25.707,42.707 C25.515,42.899 25.259,43 25,43 L25,43 Z" id="Fill-117" fill="#A5ADB1"></path>
            <path d="M30,37.586 L33.174,40.759 L40.001,36.967 L36.841,35.071 L30,36.781 L30,37.586 Z M33,43 C32.741,43 32.485,42.899 32.293,42.707 L28.293,38.707 C28.105,38.52 28,38.265 28,38 L28,36 C28,35.541 28.313,35.141 28.758,35.03 L36.758,33.03 C37.016,32.965 37.286,33.005 37.515,33.143 L42.515,36.143 C42.82,36.326 43.006,36.66 43,37.017 C42.994,37.374 42.798,37.701 42.485,37.874 L33.485,42.874 C33.333,42.959 33.166,43 33,43 L33,43 Z" id="Fill-118" fill="#A5ADB1"></path>
            <polygon id="Fill-119" fill="#E97025" points="28 50 30 50 30 48 28 48"></polygon>
            <polygon id="Fill-120" fill="#E97025" points="28 46 30 46 30 44 28 44"></polygon>
            <polygon id="Fill-121" fill="#E97025" points="28 54 30 54 30 52 28 52"></polygon>
            <polygon id="Fill-122" fill="#E97025" points="28 58 30 58 30 56 28 56"></polygon>
        </g>
        <rect id="bounding-box" x="0" y="0" width="80" height="80"></rect>
    </g>
</svg>