<?xml version="1.0" encoding="UTF-8"?>
<svg width="80px" height="80px" viewBox="0 0 80 80" version="1.1" xmlns="http://www.w3.org/2000/svg" xmlns:xlink="http://www.w3.org/1999/xlink">
    <title>Icons/Illustrative icons/building-administrative</title>
    <g id="Icons/Illustrative-icons/building-administrative" stroke="none" stroke-width="1" fill="none" fill-rule="evenodd">
        <g id="Hallinto-verotus-ja-rahoitus" transform="translate(7.000000, 11.000000)">
            <path d="M2,20 L64,20 L64,19.585 L33,2.147 L2,19.585 L2,20 Z M65,22 L1,22 C0.447,22 0,21.553 0,21 L0,19 C0,18.639 0.195,18.306 0.51,18.129 L32.51,0.129 C32.814,-0.043 33.186,-0.043 33.49,0.129 L65.49,18.129 C65.805,18.306 66,18.639 66,19 L66,21 C66,21.553 65.553,22 65,22 L65,22 Z" id="Fill-252" fill="#A5ADB1"></path>
            <polyline id="Fill-253" fill="#A5ADB1" points="60 30 48 30 48 25 50 25 50 28 58 28 58 25 60 25 60 30"></polyline>
            <polyline id="Fill-254" fill="#A5ADB1" points="60 53 58 53 58 50 50 50 50 53 48 53 48 48 60 48 60 53"></polyline>
            <polygon id="Fill-255" fill="#A5ADB1" points="50 49 52 49 52 30 50 30"></polygon>
            <polygon id="Fill-256" fill="#A5ADB1" points="56 49 58 49 58 30 56 30"></polygon>
            <polyline id="Fill-257" fill="#A5ADB1" points="46 30 34 30 34 25 36 25 36 28 44 28 44 25 46 25 46 30"></polyline>
            <polyline id="Fill-258" fill="#A5ADB1" points="46 53 44 53 44 50 36 50 36 53 34 53 34 48 46 48 46 53"></polyline>
            <polygon id="Fill-259" fill="#A5ADB1" points="36 49 38 49 38 30 36 30"></polygon>
            <polygon id="Fill-260" fill="#A5ADB1" points="42 49 44 49 44 30 42 30"></polygon>
            <polyline id="Fill-261" fill="#A5ADB1" points="32 30 20 30 20 25 22 25 22 28 30 28 30 25 32 25 32 30"></polyline>
            <polyline id="Fill-262" fill="#A5ADB1" points="32 53 30 53 30 50 22 50 22 53 20 53 20 48 32 48 32 53"></polyline>
            <polygon id="Fill-263" fill="#A5ADB1" points="22 49 24 49 24 30 22 30"></polygon>
            <polygon id="Fill-264" fill="#A5ADB1" points="28 49 30 49 30 30 28 30"></polygon>
            <polyline id="Fill-265" fill="#A5ADB1" points="18 30 6 30 6 25 8 25 8 28 16 28 16 25 18 25 18 30"></polyline>
            <polyline id="Fill-266" fill="#A5ADB1" points="18 53 16 53 16 50 8 50 8 53 6 53 6 48 18 48 18 53"></polyline>
            <polygon id="Fill-267" fill="#A5ADB1" points="8 49 10 49 10 30 8 30"></polygon>
            <polygon id="Fill-268" fill="#A5ADB1" points="14 49 16 49 16 30 14 30"></polygon>
            <polyline id="Fill-269" fill="#A5ADB1" points="62 26 4 26 4 21 6 21 6 24 60 24 60 21 62 21 62 26"></polyline>
            <path d="M33,10 C31.346,10 30,11.346 30,13 C30,14.654 31.346,16 33,16 C34.654,16 36,14.654 36,13 C36,11.346 34.654,10 33,10 Z M33,18 C30.243,18 28,15.757 28,13 C28,10.243 30.243,8 33,8 C35.757,8 38,10.243 38,13 C38,15.757 35.757,18 33,18 L33,18 Z" id="Fill-270" fill="#E97025"></path>
            <polygon id="Fill-271" fill="#A5ADB1" points="24 14 26 14 26 12 24 12"></polygon>
            <polygon id="Fill-271" fill="#A5ADB1" points="1 58 65 58 65 56 1 56"></polygon>
            <polygon id="Fill-272" fill="#A5ADB1" points="40 14 42 14 42 12 40 12"></polygon>
            <path d="M6,56 L60,56 L60,54 L6,54 L6,56 Z M4,58 L62,58 L62,52 L4,52 L4,58 Z" id="Fill-273" fill="#A5ADB1"></path>
        </g>
    </g>
</svg>