<?xml version="1.0" encoding="UTF-8"?>
<svg width="80px" height="80px" viewBox="0 0 80 80" version="1.1" xmlns="http://www.w3.org/2000/svg" xmlns:xlink="http://www.w3.org/1999/xlink">
    <title>Icons/Illustrative icons/swim</title>
    <g id="Icons/Illustrative-icons/swim" stroke="none" stroke-width="1" fill="none" fill-rule="evenodd">
        <g id="Kulttuuri-liikunta-ulkoilu-ja-matkailu" transform="translate(8.000000, 19.000000)">
            <path d="M64,26.0006114 C61.915,26.0006114 60.076,24.9326114 59,23.3136114 C57.924,24.9326114 56.085,26.0006114 54,26.0006114 C51.915,26.0006114 50.076,24.9326114 49,23.3136114 C47.924,24.9326114 46.085,26.0006114 44,26.0006114 C41.915,26.0006114 40.076,24.9326114 39,23.3136114 C37.924,24.9326114 36.085,26.0006114 34,26.0006114 C31.915,26.0006114 30.076,24.9326114 29,23.3136114 C27.924,24.9326114 26.085,26.0006114 24,26.0006114 C21.915,26.0006114 20.076,24.9326114 19,23.3136114 C17.924,24.9326114 16.085,26.0006114 14,26.0006114 C11.915,26.0006114 10.076,24.9326114 9,23.3136114 C7.924,24.9326114 6.085,26.0006114 4,26.0006114 L4,24.0006114 C6.206,24.0006114 8,22.2066114 8,20.0006114 L10,20.0006114 C10,22.2066114 11.794,24.0006114 14,24.0006114 C16.206,24.0006114 18,22.2066114 18,20.0006114 L20,20.0006114 C20,22.2066114 21.794,24.0006114 24,24.0006114 C26.206,24.0006114 28,22.2066114 28,20.0006114 L30,20.0006114 C30,22.2066114 31.794,24.0006114 34,24.0006114 C36.206,24.0006114 38,22.2066114 38,20.0006114 L40,20.0006114 C40,22.2066114 41.794,24.0006114 44,24.0006114 C46.206,24.0006114 48,22.2066114 48,20.0006114 L50,20.0006114 C50,22.2066114 51.794,24.0006114 54,24.0006114 C56.206,24.0006114 58,22.2066114 58,20.0006114 L60,20.0006114 C60,22.2066114 61.794,24.0006114 64,24.0006114 L64,26.0006114" id="Fill-472" fill="#A5ADB1"></path>
            <path d="M60,34.0006114 C57.915,34.0006114 56.076,32.9326114 55,31.3136114 C53.924,32.9326114 52.085,34.0006114 50,34.0006114 C47.915,34.0006114 46.076,32.9326114 45,31.3136114 C43.924,32.9326114 42.085,34.0006114 40,34.0006114 C37.915,34.0006114 36.076,32.9326114 35,31.3136114 C33.924,32.9326114 32.085,34.0006114 30,34.0006114 C27.915,34.0006114 26.076,32.9326114 25,31.3136114 C23.924,32.9326114 22.085,34.0006114 20,34.0006114 C17.915,34.0006114 16.076,32.9326114 15,31.3136114 C13.924,32.9326114 12.085,34.0006114 10,34.0006114 C7.915,34.0006114 6.076,32.9326114 5,31.3136114 C3.924,32.9326114 2.085,34.0006114 0,34.0006114 L0,32.0006114 C2.206,32.0006114 4,30.2066114 4,28.0006114 L6,28.0006114 C6,30.2066114 7.794,32.0006114 10,32.0006114 C12.206,32.0006114 14,30.2066114 14,28.0006114 L16,28.0006114 C16,30.2066114 17.794,32.0006114 20,32.0006114 C22.206,32.0006114 24,30.2066114 24,28.0006114 L26,28.0006114 C26,30.2066114 27.794,32.0006114 30,32.0006114 C32.206,32.0006114 34,30.2066114 34,28.0006114 L36,28.0006114 C36,30.2066114 37.794,32.0006114 40,32.0006114 C42.206,32.0006114 44,30.2066114 44,28.0006114 L46,28.0006114 C46,30.2066114 47.794,32.0006114 50,32.0006114 C52.206,32.0006114 54,30.2066114 54,28.0006114 L56,28.0006114 C56,30.2066114 57.794,32.0006114 60,32.0006114 L60,34.0006114" id="Fill-473" fill="#A5ADB1"></path>
            <path d="M64,42.0006114 C61.915,42.0006114 60.076,40.9326114 59,39.3136114 C57.924,40.9326114 56.085,42.0006114 54,42.0006114 C51.915,42.0006114 50.076,40.9326114 49,39.3136114 C47.924,40.9326114 46.085,42.0006114 44,42.0006114 C41.915,42.0006114 40.076,40.9326114 39,39.3136114 C37.924,40.9326114 36.085,42.0006114 34,42.0006114 C31.915,42.0006114 30.076,40.9326114 29,39.3136114 C27.924,40.9326114 26.085,42.0006114 24,42.0006114 C21.915,42.0006114 20.076,40.9326114 19,39.3136114 C17.924,40.9326114 16.085,42.0006114 14,42.0006114 C11.915,42.0006114 10.076,40.9326114 9,39.3136114 C7.924,40.9326114 6.085,42.0006114 4,42.0006114 L4,40.0006114 C6.206,40.0006114 8,38.2066114 8,36.0006114 L10,36.0006114 C10,38.2066114 11.794,40.0006114 14,40.0006114 C16.206,40.0006114 18,38.2066114 18,36.0006114 L20,36.0006114 C20,38.2066114 21.794,40.0006114 24,40.0006114 C26.206,40.0006114 28,38.2066114 28,36.0006114 L30,36.0006114 C30,38.2066114 31.794,40.0006114 34,40.0006114 C36.206,40.0006114 38,38.2066114 38,36.0006114 L40,36.0006114 C40,38.2066114 41.794,40.0006114 44,40.0006114 C46.206,40.0006114 48,38.2066114 48,36.0006114 L50,36.0006114 C50,38.2066114 51.794,40.0006114 54,40.0006114 C56.206,40.0006114 58,38.2066114 58,36.0006114 L60,36.0006114 C60,38.2066114 61.794,40.0006114 64,40.0006114 L64,42.0006114" id="Fill-474" fill="#A5ADB1"></path>
            <polyline id="Fill-475" fill="#E97025" points="13.4 19.9166114 12.6 18.0846114 28.6 11.0846114 29.4 12.9166114 13.4 19.9166114"></polyline>
            <path d="M30.293,14.7076114 L22.657,7.07161136 L11.164,8.98661136 L10.836,7.01461136 L22.836,5.01461136 C23.151,4.96261136 23.478,5.06361136 23.707,5.29361136 L31.707,13.2936114 L30.293,14.7076114" id="Fill-476" fill="#E97025"></path>
            <path d="M47,8.00061136 C45.346,8.00061136 44,9.34661136 44,11.0006114 C44,12.6546114 45.346,14.0006114 47,14.0006114 C48.654,14.0006114 50,12.6546114 50,11.0006114 C50,9.34661136 48.654,8.00061136 47,8.00061136 Z M47,16.0006114 C44.243,16.0006114 42,13.7576114 42,11.0006114 C42,8.24361136 44.243,6.00061136 47,6.00061136 C49.757,6.00061136 52,8.24361136 52,11.0006114 C52,13.7576114 49.757,16.0006114 47,16.0006114 L47,16.0006114 Z" id="Fill-477" fill="#E97025"></path>
            <path d="M40.081,17.3946114 L37.194,10.6586114 L24.786,2.06861136 L11.21,4.97861136 L10.79,3.02261136 L24.79,0.022611361 C25.063,-0.036388639 25.342,0.021611361 25.569,0.178611361 L38.569,9.17861136 C38.724,9.28561136 38.845,9.43461136 38.919,9.60661136 L41.919,16.6066114 L40.081,17.3946114" id="Fill-478" fill="#E97025"></path>
        </g>
        <rect id="bounding-box" x="0" y="0" width="80" height="80"></rect>
    </g>
</svg>