<?xml version="1.0" encoding="UTF-8"?>
<svg  viewBox="0 0 80 80" version="1.1" xmlns="http://www.w3.org/2000/svg" xmlns:xlink="http://www.w3.org/1999/xlink">
    <title>Icons/Illustrative icons/piggy-bank </title>
    <g  id="Icons/Illustrative-icons/piggy-bank-" stroke="none" stroke-width="1" fill="none" fill-rule="evenodd">
        <g  id="Talouden-hoitaminen" transform="translate(8.000000, 8.000000)">
            <path d="M15.611,54.508 C11.358,51.672 8.381,47.904 7,43.612 L8.904,43 C10.144,46.857 12.848,50.261 16.721,52.844 L15.611,54.508"  id="Fill-136" fill="#A5ADB1"></path>
            <path d="M32.255,60.011 C29.43,60.011 26.652,59.648 24,58.931 L24.522,57.001 C29.49,58.343 35.031,58.341 39.994,57 L40.516,58.93 C37.862,59.647 35.083,60.011 32.255,60.011"  id="Fill-137" fill="#A5ADB1"></path>
            <path d="M49.07,55.058 L47.96,53.394 C53.397,49.769 56.515,44.471 56.515,38.859 C56.515,32.868 53.047,27.348 47,23.714 L48.03,22 C54.694,26.005 58.515,32.15 58.515,38.859 C58.515,45.151 55.073,51.055 49.07,55.058"  id="Fill-138" fill="#A5ADB1"></path>
            <path d="M11,44.943 L3,44.943 C1.346,44.943 0,43.597 0,41.943 L0,35.943 C0,34.289 1.346,32.943 3,32.943 L6.296,32.943 C7.377,30.182 9.628,27.339 13,24.477 L13,14 L21.14,19.814 C23.725,18.799 26,17.943 29,17.943 L29,19.943 C26.277,19.943 24.217,20.753 21.607,21.779 L20.86,22.072 L15,17.886 L15,25.413 L14.639,25.713 C11.123,28.629 8.812,31.581 7.952,34.25 L7.729,34.943 L3,34.943 C2.448,34.943 2,35.392 2,35.943 L2,41.943 C2,42.494 2.448,42.943 3,42.943 L11,42.943 L11,44.943"  id="Fill-139" fill="#A5ADB1"></path>
            <polyline  id="Fill-141" fill="#A5ADB1" points="25 64 15 64 15 50 17 50 17 62 23 62 23 55 25 55 25 64"></polyline>
            <polyline  id="Fill-142" fill="#A5ADB1" points="49 64 39 64 39 55 41 55 41 62 47 62 47 50 49 50 49 64"></polyline>
            <path d="M18,37 C15.243,37 13,34.757 13,32 L15,32 C15,33.654 16.346,35 18,35 C19.654,35 21,33.654 21,32 L23,32 C23,34.757 20.757,37 18,37"  id="Fill-143" fill="#A5ADB1"></path>
            <path d="M57,40 L57,38 C59.757,38 62,35.757 62,33 L64,33 C64,36.86 60.859,40 57,40"  id="Fill-144" fill="#A5ADB1"></path>
            <path d="M41.601,24.8 L40.399,23.2 C41.417,22.437 42,21.27 42,20 C42,17.794 40.206,16 38,16 C35.794,16 34,17.794 34,20 C34,20.875 34.277,21.705 34.801,22.402 L33.203,23.604 C32.416,22.558 32,21.312 32,20 C32,16.691 34.691,14 38,14 C41.309,14 44,16.691 44,20 C44,21.905 43.125,23.655 41.601,24.8"  id="Fill-145" fill="#E97025"></path>
            <polygon  id="Fill-146" fill="#E97025" points="39 6 41 6 41 0 39 0"></polygon>
            <path d="M44.4,27.8 C40.99,25.243 36.28,24 30,24 L30,22 C36.729,22 41.832,23.374 45.6,26.2 L44.4,27.8"  id="Fill-140" fill="#A5ADB1"></path>
            <polygon  id="Fill-147" fill="#E97025" points="35 12 37 12 37 6 35 6"></polygon>
            <polygon  id="Fill-148" fill="#E97025" points="39 10 41 10 41 8 39 8"></polygon>
            <polygon  id="Fill-149" fill="#E97025" points="35 4 37 4 37 2 35 2"></polygon>
            <polygon  id="Fill-150" fill="#A5ADB1" points="31 52 33 52 33 50 31 50"></polygon>
            <polygon  id="Fill-151" fill="#A5ADB1" points="35 52 37 52 37 50 35 50"></polygon>
            <polygon  id="Fill-152" fill="#A5ADB1" points="27 52 29 52 29 50 27 50"></polygon>
            <polygon  id="Fill-153" fill="#A5ADB1" points="0 64 64 64 64 62 0 62"></polygon>
        </g>
        <rect   id="bounding-box" x="0" y="0" width="80" height="80"></rect>
    </g>
</svg>