<svg width="80" height="80" viewBox="0 0 80 80" fill="none" xmlns="http://www.w3.org/2000/svg">
<g id="behalfOfACompany">
<path id="Fill 123" fill-rule="evenodd" clip-rule="evenodd" d="M62 72H60V60C60 55.365 56.915 52.359 49.684 49.949C49.614 49.926 49.548 49.895 49.485 49.857L44.485 46.857L45.515 45.143L50.421 48.086C55.836 49.903 62 52.907 62 60V72" fill="#E86717"/>
<path id="Fill 124" fill-rule="evenodd" clip-rule="evenodd" d="M6 72H4V60C4 52.907 10.164 49.903 15.579 48.086L20.485 45.143L21.515 46.857L16.515 49.857C16.452 49.895 16.386 49.926 16.316 49.949C9.085 52.359 6 55.365 6 60V72" fill="#E86717"/>
<path id="Fill 111" fill-rule="evenodd" clip-rule="evenodd" d="M16 72H18V64H16V72Z" fill="#E86717"/>
<path id="Fill 112" fill-rule="evenodd" clip-rule="evenodd" d="M48 72H50V64H48V72Z" fill="#E86717"/>
<path id="Fill 113" fill-rule="evenodd" clip-rule="evenodd" d="M26 42H28V37H26V42Z" fill="#E86717"/>
<path id="Fill 114" fill-rule="evenodd" clip-rule="evenodd" d="M38 42H40V37H38V42Z" fill="#E86717"/>
<path id="Fill 115" fill-rule="evenodd" clip-rule="evenodd" d="M40 16.171C41.164 16.584 42 17.696 42 19V21C42 21.551 42.448 22 43 22V13C43 11.346 41.654 10 40 10H29C27.897 10 27 10.897 27 12C27 12.552 26.553 13 26 13H25C23.897 13 23 13.897 23 15V22C23.552 22 24 21.551 24 21V19C24 17.346 25.346 16 27 16H34.764L38.553 14.105C38.862 13.951 39.23 13.967 39.525 14.149C39.82 14.332 40 14.653 40 15V16.171ZM44 24H43C41.346 24 40 22.654 40 21V19C40 18.449 39.552 18 39 18C38.447 18 38 17.552 38 17V16.618L35.447 17.895C35.309 17.964 35.155 18 35 18H27C26.448 18 26 18.449 26 19V21C26 22.654 24.654 24 23 24H22C21.447 24 21 23.552 21 23V15C21 12.794 22.794 11 25 11H25.127C25.571 9.277 27.14 8 29 8H40C42.757 8 45 10.243 45 13V23C45 23.552 44.553 24 44 24V24Z" fill="#E86717"/>
<path id="Fill 116" fill-rule="evenodd" clip-rule="evenodd" d="M33 40C25.206 40 22.168 32.458 22.007 27.421L21.293 26.707C21.105 26.52 21 26.265 21 26V23H23V25.586L23.707 26.293C23.895 26.48 24 26.735 24 27C24 31.253 26.443 38 33 38C39.557 38 42 31.253 42 27C42 26.735 42.105 26.48 42.293 26.293L43 25.586V23H45V26C45 26.265 44.895 26.52 44.707 26.707L43.993 27.421C43.832 32.458 40.794 40 33 40" fill="#E86717"/>
<path id="Fill 117" fill-rule="evenodd" clip-rule="evenodd" d="M21.999 44.967L28.826 48.759L32 45.586V44.781L25.159 43.071L21.999 44.967ZM29 51C28.834 51 28.667 50.959 28.515 50.874L19.515 45.874C19.202 45.701 19.006 45.374 19 45.017C18.994 44.66 19.18 44.326 19.485 44.143L24.485 41.143C24.713 41.006 24.985 40.966 25.242 41.03L33.242 43.03C33.688 43.141 34 43.541 34 44V46C34 46.265 33.895 46.52 33.707 46.707L29.707 50.707C29.515 50.899 29.259 51 29 51V51Z" fill="#E86717"/>
<path id="Fill 118" fill-rule="evenodd" clip-rule="evenodd" d="M34 45.586L37.174 48.759L44.001 44.967L40.841 43.071L34 44.781V45.586ZM37 51C36.741 51 36.485 50.899 36.293 50.707L32.293 46.707C32.105 46.52 32 46.265 32 46V44C32 43.541 32.313 43.141 32.758 43.03L40.758 41.03C41.016 40.965 41.286 41.005 41.515 41.143L46.515 44.143C46.82 44.326 47.006 44.66 47 45.017C46.994 45.374 46.798 45.701 46.485 45.874L37.485 50.874C37.333 50.959 37.166 51 37 51V51Z" fill="#E86717"/>
<path id="Fill 119" fill-rule="evenodd" clip-rule="evenodd" d="M32 58H34V56H32V58Z" fill="#A5ADB1"/>
<path id="Fill 120" fill-rule="evenodd" clip-rule="evenodd" d="M32 54H34V52H32V54Z" fill="#A5ADB1"/>
<path id="Fill 121" fill-rule="evenodd" clip-rule="evenodd" d="M32 62H34V60H32V62Z" fill="#A5ADB1"/>
<path id="Fill 122" fill-rule="evenodd" clip-rule="evenodd" d="M32 66H34V64H32V66Z" fill="#A5ADB1"/>
<path id="Fill 267" fill-rule="evenodd" clip-rule="evenodd" d="M56 45.5L54 45V29H73V31H56" fill="#A5ADB1"/>
<path id="Fill 267 Copy" fill-rule="evenodd" clip-rule="evenodd" d="M71 61H73V29H54V31H71V61" fill="#A5ADB1"/>
<path id="Fill 269" fill-rule="evenodd" clip-rule="evenodd" d="M59 37H61V35H59V37Z" fill="#A5ADB1"/>
<path id="Fill 270" fill-rule="evenodd" clip-rule="evenodd" d="M63 37H65V35H63V37Z" fill="#A5ADB1"/>
<path id="Fill 271" fill-rule="evenodd" clip-rule="evenodd" d="M67 37H69V35H67V37Z" fill="#A5ADB1"/>
<path id="Fill 272" fill-rule="evenodd" clip-rule="evenodd" d="M59 41H61V39H59V41Z" fill="#A5ADB1"/>
<path id="Fill 273" fill-rule="evenodd" clip-rule="evenodd" d="M63 41H65V39H63V41Z" fill="#A5ADB1"/>
<path id="Fill 274" fill-rule="evenodd" clip-rule="evenodd" d="M67 41H69V39H67V41Z" fill="#A5ADB1"/>
<path id="Fill 275" fill-rule="evenodd" clip-rule="evenodd" d="M59 45H61V43H59V45Z" fill="#A5ADB1"/>
<path id="Fill 276" fill-rule="evenodd" clip-rule="evenodd" d="M63 45H65V43H63V45Z" fill="#A5ADB1"/>
<path id="Fill 277" fill-rule="evenodd" clip-rule="evenodd" d="M67 45H69V43H67V45Z" fill="#A5ADB1"/>
<path id="Fill 279" fill-rule="evenodd" clip-rule="evenodd" d="M63 49H65V47H63V49Z" fill="#A5ADB1"/>
<path id="Fill 280" fill-rule="evenodd" clip-rule="evenodd" d="M67 49H69V47H67V49Z" fill="#A5ADB1"/>
<path id="Fill 283" fill-rule="evenodd" clip-rule="evenodd" d="M67 53H69V51H67V53Z" fill="#A5ADB1"/>
<path id="Fill 286" fill-rule="evenodd" clip-rule="evenodd" d="M67 57H69V55H67V57Z" fill="#A5ADB1"/>
</g>
</svg>
