<?xml version="1.0" encoding="UTF-8"?>
<svg  viewBox="0 0 80 80" version="1.1" xmlns="http://www.w3.org/2000/svg" xmlns:xlink="http://www.w3.org/1999/xlink">
    <title>Icons/Illustrative icons/money</title>
    <g  id="Icons/Illustrative-icons/money" stroke="none" stroke-width="1" fill="none" fill-rule="evenodd">
        <g  id="Talous-rahoitus-ja-verotus" transform="translate(10.000000, 8.000000)">
            <path d="M22,27 C25.523,27 28.565,29.029 30.043,31.978 L30.043,31.978 L28.255,32.872 C27.106,30.578 24.74,29 22,29 C19.2074941,29 16.796911,30.6351722 15.6735032,33.0002641 L21,33 L21,35 L15.0708899,34.9999903 C15.0241723,35.3265963 15,35.6604752 15,36 C15,36.3398719 15.0242218,36.6740865 15.0710333,37.0010115 L21,37 L21,39 L15.6739798,39.000739 C16.7975926,41.3652901 19.2078889,43 22,43 C24.74,43 27.107,41.422 28.256,39.128 L28.256,39.128 L30.043,40.021 C28.565,42.971 25.523,45 22,45 C18.0812148,45 14.7478479,42.4961249 13.5122751,39.0007505 L11,39 L11,37 L13.055,37.000773 C13.0186576,36.6721928 13,36.3382775 13,36 C13,35.6620652 13.0186198,35.3284839 13.0548896,35.0002257 L11,35 L11,33 L13.5119238,33.0002433 C14.7472161,29.5043497 18.0808434,27 22,27 Z"  id="Combined-Shape" fill="#E97025"></path>
            <path d="M26,64 L7,64 C3.14,64 0,60.86 0,57 L0,41 C0,23.361 7.722,19.239 12.832,16.512 C14.262,15.749 15.496,15.09 16.293,14.293 L17.707,15.707 C16.7,16.714 15.344,17.438 13.774,18.276 C8.805,20.928 2,24.561 2,41 L2,57 C2,59.757 4.243,62 7,62 L26,62 L26,64"  id="Fill-291" fill="#A5ADB1"></path>
            <path d="M44,40 L42,40 C42,23.802 35.328,20.598 30.456,18.258 C28.86,17.492 27.354,16.768 26.293,15.707 L27.707,14.293 C28.527,15.113 29.822,15.735 31.321,16.455 C36.37,18.879 44,22.544 44,40"  id="Fill-292" fill="#A5ADB1"></path>
            <path d="M17,12 L17,14 L27.001,14 L27,12 L17,12 Z M27,16 L17,16 C15.897,16 15,15.103 15,14 L15,12 C15,10.897 15.897,10 17,10 L27,10 C28.103,10 29,10.897 29,12 L29,14 C29,15.103 28.103,16 27,16 L27,16 Z"  id="Fill-293" fill="#A5ADB1"></path>
            <path d="M18.618,10 L25.382,10 L28.658,3.447 L26,2.118 L22.447,3.895 C22.166,4.035 21.834,4.035 21.553,3.895 L18,2.118 L15.342,3.447 L18.618,10 Z M26,12 L18,12 C17.621,12 17.275,11.786 17.105,11.447 L13.105,3.447 C12.858,2.953 13.059,2.353 13.553,2.105 L17.553,0.105 C17.834,-0.035 18.166,-0.035 18.447,0.105 L22,1.882 L25.553,0.105 C25.834,-0.035 26.166,-0.035 26.447,0.105 L30.447,2.105 C30.941,2.353 31.142,2.953 30.894,3.447 L26.895,11.447 C26.725,11.786 26.379,12 26,12 L26,12 Z"  id="Fill-294" fill="#A5ADB1"></path>
            <path d="M28,14 L28,12 C29.654,12 31,10.654 31,9 L33,9 C33,11.757 30.757,14 28,14"  id="Fill-295" fill="#A5ADB1"></path>
            <path d="M16,14 C13.243,14 11,11.757 11,9 L13,9 C13,10.654 14.346,12 16,12 L16,14"  id="Fill-296" fill="#A5ADB1"></path>
            <path d="M30,60 L30,62 L38.001,62 L38,60 L30,60 Z M38,64 L30,64 C28.897,64 28,63.103 28,62 L28,60 C28,58.897 28.897,58 30,58 L38,58 C39.103,58 40,58.897 40,60 L40,62 C40,63.103 39.103,64 38,64 L38,64 Z"  id="Fill-298" fill="#A5ADB1"></path>
            <path d="M30,56 L30,58 L38.001,58 L38,56 L30,56 Z M38,60 L30,60 C28.897,60 28,59.103 28,58 L28,56 C28,54.897 28.897,54 30,54 L38,54 C39.103,54 40,54.897 40,56 L40,58 C40,59.103 39.103,60 38,60 L38,60 Z"  id="Fill-299" fill="#A5ADB1"></path>
            <path d="M30,52 L30,54 L38.001,54 L38,52 L30,52 Z M38,56 L30,56 C28.897,56 28,55.103 28,54 L28,52 C28,50.897 28.897,50 30,50 L38,50 C39.103,50 40,50.897 40,52 L40,54 C40,55.103 39.103,56 38,56 L38,56 Z"  id="Fill-300" fill="#A5ADB1"></path>
            <path d="M40,60 L40,62 L48.001,62 L48,60 L40,60 Z M48,64 L40,64 C38.897,64 38,63.103 38,62 L38,60 C38,58.897 38.897,58 40,58 L48,58 C49.103,58 50,58.897 50,60 L50,62 C50,63.103 49.103,64 48,64 L48,64 Z"  id="Fill-301" fill="#A5ADB1"></path>
            <path d="M40,56 L40,58 L48.001,58 L48,56 L40,56 Z M48,60 L40,60 C38.897,60 38,59.103 38,58 L38,56 C38,54.897 38.897,54 40,54 L48,54 C49.103,54 50,54.897 50,56 L50,58 C50,59.103 49.103,60 48,60 L48,60 Z"  id="Fill-302" fill="#A5ADB1"></path>
            <path d="M40,52 L40,54 L48.001,54 L48,52 L40,52 Z M48,56 L40,56 C38.897,56 38,55.103 38,54 L38,52 C38,50.897 38.897,50 40,50 L48,50 C49.103,50 50,50.897 50,52 L50,54 C50,55.103 49.103,56 48,56 L48,56 Z"  id="Fill-303" fill="#A5ADB1"></path>
            <path d="M40,48 L40,50 L48.001,50 L48,48 L40,48 Z M48,52 L40,52 C38.897,52 38,51.103 38,50 L38,48 C38,46.897 38.897,46 40,46 L48,46 C49.103,46 50,46.897 50,48 L50,50 C50,51.103 49.103,52 48,52 L48,52 Z"  id="Fill-304" fill="#A5ADB1"></path>
            <path d="M40,44 L40,46 L48.001,46 L48,44 L40,44 Z M48,48 L40,48 C38.897,48 38,47.103 38,46 L38,44 C38,42.897 38.897,42 40,42 L48,42 C49.103,42 50,42.897 50,44 L50,46 C50,47.103 49.103,48 48,48 L48,48 Z"  id="Fill-305" fill="#A5ADB1"></path>
            <path d="M50,60 L50,62 L58.001,62 L58,60 L50,60 Z M58,64 L50,64 C48.897,64 48,63.103 48,62 L48,60 C48,58.897 48.897,58 50,58 L58,58 C59.103,58 60,58.897 60,60 L60,62 C60,63.103 59.103,64 58,64 L58,64 Z"  id="Fill-306" fill="#A5ADB1"></path>
            <path d="M50,56 L50,58 L58.001,58 L58,56 L50,56 Z M58,60 L50,60 C48.897,60 48,59.103 48,58 L48,56 C48,54.897 48.897,54 50,54 L58,54 C59.103,54 60,54.897 60,56 L60,58 C60,59.103 59.103,60 58,60 L58,60 Z"  id="Fill-307" fill="#A5ADB1"></path>
            <path d="M50,52 L50,54 L58.001,54 L58,52 L50,52 Z M58,56 L50,56 C48.897,56 48,55.103 48,54 L48,52 C48,50.897 48.897,50 50,50 L58,50 C59.103,50 60,50.897 60,52 L60,54 C60,55.103 59.103,56 58,56 L58,56 Z"  id="Fill-308" fill="#A5ADB1"></path>
            <path d="M50,48 L50,50 L58.001,50 L58,48 L50,48 Z M58,52 L50,52 C48.897,52 48,51.103 48,50 L48,48 C48,46.897 48.897,46 50,46 L58,46 C59.103,46 60,46.897 60,48 L60,50 C60,51.103 59.103,52 58,52 L58,52 Z"  id="Fill-309" fill="#A5ADB1"></path>
            <path d="M50,44 L50,46 L58.001,46 L58,44 L50,44 Z M58,48 L50,48 C48.897,48 48,47.103 48,46 L48,44 C48,42.897 48.897,42 50,42 L58,42 C59.103,42 60,42.897 60,44 L60,46 C60,47.103 59.103,48 58,48 L58,48 Z"  id="Fill-310" fill="#A5ADB1"></path>
            <path d="M50,40 L50,42 L58.001,42 L58,40 L50,40 Z M58,44 L50,44 C48.897,44 48,43.103 48,42 L48,40 C48,38.897 48.897,38 50,38 L58,38 C59.103,38 60,38.897 60,40 L60,42 C60,43.103 59.103,44 58,44 L58,44 Z"  id="Fill-311" fill="#A5ADB1"></path>
            <path d="M50,36 L50,38 L58.001,38 L58,36 L50,36 Z M58,40 L50,40 C48.897,40 48,39.103 48,38 L48,36 C48,34.897 48.897,34 50,34 L58,34 C59.103,34 60,34.897 60,36 L60,38 C60,39.103 59.103,40 58,40 L58,40 Z"  id="Fill-312" fill="#A5ADB1"></path>
            <path d="M50,26 L50,28 L58.001,28 L58,26 L50,26 Z M58,30 L50,30 C48.897,30 48,29.103 48,28 L48,26 C48,24.897 48.897,24 50,24 L58,24 C59.103,24 60,24.897 60,26 L60,28 C60,29.103 59.103,30 58,30 L58,30 Z"  id="Fill-313" fill="#E97025"></path>
            <polygon  id="Fill-314" fill="#E97025" points="51 22 53 22 53 14 51 14"></polygon>
            <polygon  id="Fill-315" fill="#E97025" points="55 16 57 16 57 8 55 8"></polygon>
            <polygon  id="Fill-316" fill="#E97025" points="51 12 53 12 53 10 51 10"></polygon>
            <polygon  id="Fill-317" fill="#E97025" points="55 20 57 20 57 18 55 18"></polygon>
        </g>
        <rect   id="bounding-box" x="0" y="0" width="80" height="80"></rect>
    </g>
</svg>