<?xml version="1.0" encoding="UTF-8"?>
<svg width="80px" height="80px" viewBox="0 0 80 80" version="1.1" xmlns="http://www.w3.org/2000/svg" xmlns:xlink="http://www.w3.org/1999/xlink">
    <!-- Generator: Sketch 49.3 (51167) - http://www.bohemiancoding.com/sketch -->
    <title>Ikonit / Kuvitukset / Vaaka 2</title>
    <desc>Created with Sketch.</desc>
    <defs></defs>
    <g id="Ikonit-/-Kuvitukset-/-Vaaka-2" stroke="none" stroke-width="1" fill="none" fill-rule="evenodd">
        <g id="Group-2" transform="translate(8.000000, 8.000000)">
            <polyline id="Fill-360" fill="#A5ACB0" points="37 58 27 58 27 19 29 19 29 56 35 56 35 19 37 19 37 58"></polyline>
            <path d="M37,11 L35,11 L35,5 C35,3.346 33.654,2 32,2 C30.346,2 29,3.346 29,5 L29,11 L27,11 L27,5 C27,2.243 29.243,0 32,0 C34.757,0 37,2.243 37,5 L37,11" id="Fill-361" fill="#A5ACB0"></path>
            <path d="M61,64 L3,64 L3,63 C3,59.141 6.141,56 10,56 L25,56 L25,58 L10,58 C7.585,58 5.565,59.721 5.101,62 L58.899,62 C58.435,59.721 56.415,58 54,58 L39,58 L39,56 L54,56 C57.859,56 61,59.141 61,63 L61,64" id="Fill-362" fill="#A5ACB0"></path>
            <polygon id="Fill-363" fill="#A5ACB0" points="31 6 33 6 33 4 31 4"></polygon>
            <path d="M32,10 C29.243,10 27,12.243 27,15 C27,17.757 29.243,20 32,20 C34.757,20 37,17.757 37,15 C37,12.243 34.757,10 32,10 Z M32,22 C28.141,22 25,18.859 25,15 C25,11.141 28.141,8 32,8 C35.859,8 39,11.141 39,15 C39,18.859 35.859,22 32,22 L32,22 Z" id="Fill-364" fill="#A5ACB0"></path>
            <path d="M61,18 L57,18 L57,16 L61,16 C61.552,16 62,15.552 62,15 C62,14.448 61.552,14 61,14 L38,14 L38,12 L61,12 C62.654,12 64,13.346 64,15 C64,16.654 62.654,18 61,18" id="Fill-365" fill="#A5ACB0"></path>
            <polygon id="Fill-366" fill="#A5ACB0" points="38 18 51 18 51 16 38 16"></polygon>
            <path d="M7,18 L3,18 C1.346,18 0,16.654 0,15 C0,13.346 1.346,12 3,12 L26,12 L26,14 L3,14 C2.448,14 2,14.448 2,15 C2,15.552 2.448,16 3,16 L7,16 L7,18" id="Fill-367" fill="#A5ACB0"></path>
            <polygon id="Fill-368" fill="#A5ACB0" points="13 18 26 18 26 16 13 16"></polygon>
            <path d="M2.063,36 C2.556,39.94 5.928,43 10,43 C14.072,43 17.444,39.94 17.938,36 L2.063,36 Z M10,45 C4.486,45 0,40.514 0,35 L0,34 L20,34 L20,35 C20,40.514 15.514,45 10,45 L10,45 Z" id="Fill-369" fill="#EA7125"></path>
            <path d="M1.999,36 C1.863,36 1.726,35.973 1.594,35.914 C1.089,35.689 0.862,35.099 1.086,34.594 L9.086,16.594 C9.311,16.09 9.903,15.862 10.406,16.086 C10.911,16.311 11.138,16.901 10.914,17.406 L2.914,35.406 C2.748,35.778 2.383,36 1.999,36" id="Fill-370" fill="#EA7125"></path>
            <path d="M18.001,36 C17.617,36 17.252,35.779 17.086,35.406 L9.086,17.406 C8.862,16.901 9.089,16.311 9.594,16.086 C10.1,15.862 10.689,16.089 10.914,16.594 L18.914,34.594 C19.138,35.099 18.911,35.689 18.406,35.914 C18.274,35.973 18.137,36 18.001,36" id="Fill-371" fill="#EA7125"></path>
            <path d="M46.063,36 C46.556,39.94 49.928,43 54,43 C58.072,43 61.444,39.94 61.938,36 L46.063,36 Z M54,45 C48.486,45 44,40.514 44,35 L44,34 L64,34 L64,35 C64,40.514 59.514,45 54,45 L54,45 Z" id="Fill-372" fill="#EA7125"></path>
            <path d="M45.999,36 C45.863,36 45.726,35.973 45.594,35.914 C45.089,35.689 44.862,35.099 45.086,34.594 L53.086,16.594 C53.311,16.09 53.902,15.862 54.406,16.086 C54.911,16.311 55.138,16.901 54.914,17.406 L46.914,35.406 C46.748,35.778 46.383,36 45.999,36" id="Fill-373" fill="#EA7125"></path>
            <path d="M62.001,36 C61.617,36 61.252,35.779 61.086,35.406 L53.086,17.406 C52.862,16.901 53.089,16.311 53.594,16.086 C54.099,15.862 54.689,16.089 54.914,16.594 L62.914,34.594 C63.138,35.099 62.911,35.689 62.406,35.914 C62.274,35.973 62.137,36 62.001,36" id="Fill-374" fill="#EA7125"></path>
            <polygon id="Fill-375" fill="#A5ACB0" points="31 54 33 54 33 52 31 52"></polygon>
            <polygon id="Fill-376" fill="#A5ACB0" points="31 50 33 50 33 48 31 48"></polygon>
            <polygon id="Fill-377" fill="#A5ACB0" points="31 46 33 46 33 44 31 44"></polygon>
        </g>
        <rect id="bounding-box" x="0" y="0" width="80" height="80"></rect>
    </g>
</svg>