<?xml version="1.0" encoding="UTF-8"?>
<svg width="80px" height="80px" viewBox="0 0 80 80" version="1.1" xmlns="http://www.w3.org/2000/svg" xmlns:xlink="http://www.w3.org/1999/xlink">
    <!-- Generator: Sketch 49.3 (51167) - http://www.bohemiancoding.com/sketch -->
    <title>Ikonit / Kuvitukset / Esitys</title>
    <desc>Created with Sketch.</desc>
    <defs></defs>
    <g id="Ikonit-/-Kuvitukset-/-Esitys" stroke="none" stroke-width="1" fill="none" fill-rule="evenodd">
        <g id="Group-2" transform="translate(8.000000, 10.000000)">
            <polygon id="Fill-345" fill="#A5ACB0" points="31 59 33 59 33 41 31 41"></polygon>
            <polyline id="Fill-346" fill="#A5ACB0" points="49 59 47 59 47 58.171 41.057 41.333 42.943 40.667 49 57.829 49 59"></polyline>
            <polyline id="Fill-347" fill="#A5ACB0" points="17 59 15 59 15 57.829 15.057 57.667 21.057 40.667 22.943 41.333 17 58.171 17 59"></polyline>
            <polyline id="Fill-348" fill="#A5ACB0" points="60 42 4 42 4 12 6 12 6 40 58 40 58 12 60 12 60 42"></polyline>
            <path d="M2,8 L62,8 L62,6 L38.382,6 L36.382,2 L27.618,2 L25.618,6 L2,6 L2,8 Z M64,10 L0,10 L0,4 L24.382,4 L26.382,0 L37.618,0 L39.618,4 L64,4 L64,10 L64,10 Z" id="Fill-349" fill="#A5ACB0"></path>
            <path d="M18,21.083 C15.166,21.561 13,24.032 13,27 C13,30.309 15.691,33 19,33 C21.968,33 24.439,30.834 24.917,28 L18,28 L18,21.083 Z M19,35 C14.589,35 11,31.411 11,27 C11,22.589 14.589,19 19,19 L20,19 L20,26 L27,26 L27,27 C27,31.411 23.411,35 19,35 L19,35 Z" id="Fill-350" fill="#EA7125"></path>
            <path d="M24,22 L28.917,22 C28.494,19.491 26.509,17.506 24,17.083 L24,22 Z M31,24 L22,24 L22,15 L23,15 C27.411,15 31,18.589 31,23 L31,24 L31,24 Z" id="Fill-351" fill="#EA7125"></path>
            <polygon id="Fill-352" fill="#A5ACB0" points="29 6 35 6 35 4 29 4"></polygon>
            <polygon id="Fill-353" fill="#EA7125" points="35 24 53 24 53 22 35 22"></polygon>
            <polygon id="Fill-354" fill="#EA7125" points="35 28 53 28 53 26 35 26"></polygon>
            <polygon id="Fill-355" fill="#EA7125" points="35 32 53 32 53 30 35 30"></polygon>
            <polygon id="Fill-356" fill="#A5ACB0" points="39 19 41 19 41 17 39 17"></polygon>
            <polygon id="Fill-357" fill="#A5ACB0" points="43 19 45 19 45 17 43 17"></polygon>
            <polygon id="Fill-358" fill="#A5ACB0" points="47 19 49 19 49 17 47 17"></polygon>
            <polygon id="Fill-359" fill="#A5ACB0" points="0 60 64 60 64 58 0 58"></polygon>
        </g>
        <rect id="bounding-box" x="0" y="0" width="80" height="80"></rect>
    </g>
</svg>