<?xml version="1.0" encoding="UTF-8"?>
<svg width="80px" height="80px" viewBox="0 0 80 80" version="1.1" xmlns="http://www.w3.org/2000/svg" xmlns:xlink="http://www.w3.org/1999/xlink">
    <!-- Generator: Sketch 63.1 (92452) - https://sketch.com -->
    <title>Icons/Illustrative Icons/Immigration and Emigration</title>
    <desc>Created with Sketch.</desc>
    <g id="Icons/Illustrative-Icons/Immigration-and-Emigration" stroke="none" stroke-width="1" fill="none" fill-rule="evenodd">
        <g id="Maahan-maastamuutto" transform="translate(20.000000, 7.000000)" fill-rule="nonzero">
            <polygon id="Shape" fill="#A5ADB1" points="13.7 65.1 10.6 64.7 11.7 63.2 11.8 62.6 11.4 62.1 11.4 62.1 11.4 62.1 11.1 61.7 10.3 61.9 9.2 60.9 9 60.8 8.6 61.2 8.2 60.5 7.6 60.2 7.8 59.9 7.2 58.9 6.8 57 7.5 55.3 7.6 55.4 7.8 54.7 8 54.1 8.1 53.4 8.4 53.1 7.7 49.8 8 49 8 48.6 7.4 46.9 7.6 45.3 8.4 44.3 8.4 43.9 9 42.9 9.1 43 9.2 41.7 11 42 10.8 41.3 11.8 40.7 12.1 40.2 12.6 39.2 14.3 38.4 14.3 37.5 15.2 37.4 15.6 36.7 16 36.3 17.3 34.6 18.6 32.5 19.6 32.7 19.3 32.3 19.5 31.5 19.4 30.2 19 29.9 18.5 30.2 17.9 29.3 17.2 29.7 15.9 25.7 15.6 24.2 16.2 22.9 16.2 22.1 16.4 21.7 16 20.7 15.5 18.6 16.2 18.2 15.7 16.6 15.7 15.3 15.9 14.8 15.8 14.7 15.4 14.7 15.1 13.6 14.7 13 12.5 11.5 11.3 10.2 10.6 9.2 10.3 8.5 9.4 5.7 11.1 6.3 11.4 5 14 5.5 15.5 8.1 16.4 8.9 18.2 8.2 20 9.5 20.2 8.5 21 8.2 21.2 5.8 21.5 4.3 22.5 2.9 23.7 1.6 25.2 1.6 26.3 0.9 27.5 1.1 28.1 1.9 28.8 2.6 30.7 3.5 30.2 6.8 30.3 8.5 29.2 9.4 29.3 10.9 30.1 12.7 31.1 13.4 31.9 15 33.1 16.1 32.7 18 30.9 21.3 29.2 20.3 30.8 17.2 30.9 16.8 30.3 16.2 29.6 14.8 28.4 14.1 27.4 11.2 27.2 8.7 28.2 7.7 28.2 6.7 28.5 4.6 27.5 4.1 26.5 3.1 25.7 3.6 24.6 3.6 24.1 4.2 23.4 5.1 23.2 6.2 22.8 9.7 21.9 10 21.5 11.3 20.1 12 17.9 10.5 16 11.2 13.9 9.4 12.8 7.5 12.6 8.5 12.9 8.9 13.9 10.1 16.2 11.6 16.9 12.8 17.1 12.8 18.1 14.6 17.7 15.7 17.7 16.4 18.2 17.9 18.1 19.2 17.8 19.5 18 20.1 18.6 21.9 18.2 22.6 18.2 23.4 17.7 24.4 17.8 25.3 18.2 26.5 18.3 26.5 19.2 27.6 20.3 28.4 21.2 28 21.5 31.6 21.5 31.7 21.6 31.8 22.1 33.2 21.4 35 19.6 34.7 18.9 35.8 17.5 37.6 17.2 38 16.5 39.3 16.3 39.3 16.2 40 15 40.3 14.1 40.7 13.8 41.2 13.2 42.1 13.5 43.3 11.4 44.1 11.1 44 11 45.3 10.4 45.2 10.4 46.2 9.5 46.2 9.4 46.7 10 48.2 10.1 49.2 9.8 50 10.5 53.4 10 54.2 9.9 54.8 9.6 55.4 9.4 56.3 9.4 58.7 9.6 58.9 10.3 59.2 10.9 59.7 11.9 59.5 12.5 60.2 13.6 60.5 13.5 61.6 13.8 62 15.2 61.9 14.9 62.3 17.1 61.7 17.3 61.4 18.4 61.4 18.4 61.4 18.4 61.4 19.9 60.8 20.6 59.6 20.8 59.8 21.2 59.9 20.9 59 23 60.1 24.1 59.7 24.4 58.9 26.3 59.5 26.6 59 27.1 59 28.5 57.3 29.4 56.5 30.2 55.6 31 54.8 31.7 53.6 32.3 53 32.6 52.4 33.4 51.3 36.2 47 36.4 44.9 36 44.6 35.8 43.9 34.9 43.2 32.2 40.7 33.1 37.3 31.9 35.9 32.2 34.8 32.2 34.5 30.8 32.5 31.5 31.2 31.7 31.3 32.5 30.5 33.7 31.5 33.1 32.4 34.1 33.8 34.3 35 34.1 35.4 35.3 36.9 34.4 40.1 36.2 41.7 37.5 42.6 37.8 43.4 38.6 44.1 38.1 47.7 34.3 53.5 33.9 54.3 33.3 54.8 32.6 56.1 31.5 57 30.8 58 29.9 58.8 28 61 27.8 61 27.6 61.3 26.2 61.6 25.7 61.4 25.6 61.8 24.6 61.7 23.9 61.9 24 62.5 22.8 62.3 22.6 62.4 22.6 63.2 21.6 62.9 21.3 63 21.2 62.8 20.7 62.6 19.9 62.9 19.6 63.7 18.3 63.4 17.8 64 17.3 63.7 17.4 64.1 15.8 64.3 15.8 64.1 14.1 64.6"></polygon>
            <path d="M3.4,64.7 L3.1,63.4 L2.5,63.5 L2.2,62.5 L1.6,62.5 L1,61 L1,61 L0.7,61 L1.2,59.6 L2.1,59.2 L2.4,58.8 L3.7,58.2 L4.3,58.8 L5,58.9 L5.3,59.3 L5.7,59.5 L5.7,60 L6.1,60.5 L5.7,61.7 L5.8,61.8 L5.6,63.1 L3.4,64.7 Z M3.9,61.7 L4.1,62.1 L4.1,62.1 L4.1,61.5 L4.4,60.8 L4.2,60.6 L4.2,60.5 L4.1,60.5 L4,60.3 L3.8,60.3 L3.5,59.9 L3.4,59.9 L2.9,60.6 L2.7,60.6 L2.5,60.7 L2.6,60.8 L2.5,61.1 L2.5,61.1 L2.8,61.1 L3.5,61.9 L3.9,61.7 Z" id="Shape" fill="#A5ADB1"></path>
            <polygon id="Rectangle-path" fill="#E97025" points="27.5 21.7 38.5 21.7 38.5 23.4 27.5 23.4"></polygon>
            <path d="M35.7,26.5 L34.5,25.3 L37.3,22.5 L34.5,19.7 L35.7,18.5 L39.1,21.9 C39.4,22.2 39.4,22.8 39.1,23.1 L35.7,26.5 Z" id="Shape" fill="#E97025"></path>
            <polygon id="Rectangle-path" fill="#E97025" points="25.4 28.6 36.4 28.6 36.4 30.3 25.4 30.3"></polygon>
            <path d="M28.1,25.5 L29.3,26.7 L26.5,29.5 L29.3,32.3 L28.1,33.5 L24.7,30.1 C24.4,29.8 24.4,29.2 24.7,28.9 L28.1,25.5 Z" id="Shape" fill="#E97025"></path>
        </g>
        <rect id="bounding-box" x="0" y="0" width="80" height="80"></rect>
    </g>
</svg>