<?xml version="1.0" encoding="UTF-8"?>
<svg width="80px" height="80px" viewBox="0 0 80 80" version="1.1" xmlns="http://www.w3.org/2000/svg" xmlns:xlink="http://www.w3.org/1999/xlink">
    <!-- Generator: Sketch 49.3 (51167) - http://www.bohemiancoding.com/sketch -->
    <title>Ikonit / Kuvitukset / Rahapussi</title>
    <desc>Created with Sketch.</desc>
    <defs></defs>
    <g id="Ikonit-/-Kuvitukset-/-Rahapussi" stroke="none" stroke-width="1" fill="none" fill-rule="evenodd">
        <g id="Group-2" transform="translate(12.000000, 8.000000)">
            <polygon id="Fill-585" fill="#A5ACB0" points="14 26 16 26 16 24 14 24"></polygon>
            <polygon id="Fill-586" fill="#A5ACB0" points="10 26 12 26 12 24 10 24"></polygon>
            <path d="M18,30 L4,30 L4,28 L18,28 L18,10 L0,10 L0,8 L18,8 C19.103,8 20,8.897 20,10 L20,28 C20,29.103 19.103,30 18,30" id="Fill-587" fill="#A5ACB0"></path>
            <path d="M46,20 L43,20 L43,18 L46,18 C46.551,18 47,17.552 47,17 L47,16 C47,15.448 46.551,15 46,15 L43,15 L43,13 L46,13 C47.654,13 49,14.346 49,16 L49,17 C49,18.654 47.654,20 46,20" id="Fill-589" fill="#A5ACB0"></path>
            <path d="M45,25 L42,25 L42,23 L45,23 C45.551,23 46,22.552 46,22 L46,21 C46,20.448 45.551,20 45,20 L45,18 C46.654,18 48,19.346 48,21 L48,22 C48,23.654 46.654,25 45,25" id="Fill-590" fill="#A5ACB0"></path>
            <path d="M22,12 L19,12 L19,10 L21.586,10 L27.293,4.293 C27.433,4.153 27.61,4.059 27.804,4.02 L32.804,3.02 L33.196,4.98 L28.493,5.921 L22.707,11.707 C22.52,11.895 22.265,12 22,12" id="Fill-592" fill="#A5ACB0"></path>
            <path d="M35.781,8 L40.219,8 L41.719,2 L34.281,2 L35.781,8 Z M41,10 L35,10 C34.541,10 34.141,9.688 34.03,9.242 L32.03,1.242 C31.955,0.943 32.022,0.627 32.212,0.385 C32.401,0.142 32.692,0 33,0 L43,0 C43.308,0 43.599,0.142 43.788,0.385 C43.978,0.627 44.045,0.943 43.97,1.242 L41.97,9.242 C41.859,9.688 41.459,10 41,10 L41,10 Z" id="Fill-593" fill="#EA7125"></path>
            <path d="M37,64 C25.458,64 18,57.72 18,48 C18,42.073 21.967,37.359 25.467,33.2 C26.906,31.49 28.266,29.874 29.137,28.393 L30.861,29.406 C29.904,31.033 28.492,32.711 26.997,34.488 C23.717,38.386 20,42.803 20,48 C20,58.333 29.158,62 37,62 C44.842,62 54,58.333 54,48 C54,42.802 50.281,38.384 47,34.485 C45.505,32.71 44.093,31.032 43.136,29.405 L44.86,28.392 C45.732,29.873 47.091,31.488 48.53,33.197 C52.032,37.357 56,42.072 56,48 C56,57.72 48.542,64 37,64" id="Fill-594" fill="#EA7125"></path>
            <path d="M28.5120098,43 C29.7473708,39.5042335 33.0809343,37 37,37 C40.523,37 43.565,39.029 45.043,41.978 L43.255,42.872 C42.106,40.578 39.74,39 37,39 C34.207598,39 31.7970904,40.6350505 30.6736286,43 L36,43 L36,45 L30.0708885,45 C30.0241718,45.3266029 30,45.6604786 30,46 C30,46.3395214 30.0241718,46.6733971 30.0708885,47 L36,47 L36,49 L30.6736286,49 C31.7970904,51.3649495 34.207598,53 37,53 C39.74,53 42.107,51.422 43.256,49.128 L45.043,50.021 C43.565,52.971 40.523,55 37,55 C33.0809343,55 29.7473708,52.4957665 28.5120098,49 L26,49 L26,47 L28.0549146,47 C28.0186284,46.6716691 28,46.3380122 28,46 C28,45.6619878 28.0186284,45.3283309 28.0549146,45 L26,45 L26,43 L28.5120098,43 Z" id="Combined-Shape" fill="#EA7125"></path>
            <path d="M44,30 L32,30 C31.918,30 31.837,29.99 31.757,29.97 L23.877,28 L19,28 L19,26 L24,26 C24.082,26 24.163,26.01 24.243,26.03 L32.123,28 L44,28 C44.551,28 45,27.552 45,27 L45,26 C45,25.448 44.551,25 44,25 L44,23 C45.654,23 47,24.346 47,26 L47,27 C47,28.654 45.654,30 44,30" id="Fill-591" fill="#A5ACB0"></path>
            <path d="M45,15 L45,13 C45.551,13 46,12.552 46,12 L46,11 C46,10.448 45.551,10 45,10 L32,10 L32,8 L45,8 C46.654,8 48,9.346 48,11 L48,12 C48,13.654 46.654,15 45,15" id="Fill-588" fill="#A5ACB0"></path>
        </g>
        <rect id="bounding-box" x="0" y="0" width="80" height="80"></rect>
    </g>
</svg>