<svg xmlns="http://www.w3.org/2000/svg" xmlns:xlink="http://www.w3.org/1999/xlink" viewBox="0 0 24 24"><defs><path id="a" d="M0 1.33313819C0 .59686629.59880825 0 1.32719676 0H13.3333333L20 6.66666667V22.6686635C20 23.4039404 19.4014397 24 18.6722553 24H1.32774469C.59445154 24 0 23.4067383 0 22.6668618V1.33313819z"/></defs><g fill="none" fill-rule="evenodd"><path fill="#ECEDEE" fill-rule="nonzero" d="M2 1.33313819C2 .59686629 2.59880825 0 3.32719676 0H15.3333333L22 6.66666667V22.6686635C22 23.4039404 21.4014397 24 20.6722553 24H3.32774469C2.59445154 24 2 23.4067383 2 22.6668618V1.33313819z"/><g transform="translate(2)"><mask id="b" fill="#fff"><use xlink:href="#a"/></mask><use fill="#ECEDEE" xlink:href="#a"/><path fill="#00347A" d="M0 22h20v2H0z" mask="url(#b)"/></g><path fill="#C8CDD0" d="M15.3333333 0v5.33359001c0 .73623791.5916222 1.33307666 1.3330767 1.33307666H22L15.3333333 0z"/><path fill="#00347A" d="M5.34375 10.9c-.2209139 0-.4-.1790861-.4-.4 0-.2209139.1790861-.4.4-.4h10.3353913c.2209139 0 .4.1790861.4.4 0 .2209139-.1790861.4-.4.4H5.34375zM5.34375 12.9c-.2209139 0-.4-.1790861-.4-.4 0-.2209139.1790861-.4.4-.4h10.3353913c.2209139 0 .4.1790861.4.4 0 .2209139-.1790861.4-.4.4H5.34375zM5.34375 14.9c-.2209139 0-.4-.1790861-.4-.4 0-.2209139.1790861-.4.4-.4h10.3353913c.2209139 0 .4.1790861.4.4 0 .2209139-.1790861.4-.4.4H5.34375zM5.31818182 16.9c-.2209139 0-.4-.1790861-.4-.4 0-.2209139.1790861-.4.4-.4h6.36363638c.2209139 0 .4.1790861.4.4 0 .2209139-.1790861.4-.4.4H5.31818182z"/></g></svg>