<svg xmlns="http://www.w3.org/2000/svg" xmlns:xlink="http://www.w3.org/1999/xlink" viewBox="0 0 24 24"><defs><path id="a" d="M0 1.33313819C0 .59686629.59880825 0 1.32719676 0H13.3333333L20 6.66666667V22.6686635C20 23.4039404 19.4014397 24 18.6722553 24H1.32774469C.59445154 24 0 23.4067383 0 22.6668618V1.33313819z"/></defs><g fill="none" fill-rule="evenodd"><path fill="#ECEDEE" fill-rule="nonzero" d="M2 1.33313819C2 .59686629 2.59880825 0 3.32719676 0H15.3333333L22 6.66666667V22.6686635C22 23.4039404 21.4014397 24 20.6722553 24H3.32774469C2.59445154 24 2 23.4067383 2 22.6668618V1.33313819z"/><g transform="translate(2)"><mask id="b" fill="#fff"><use xlink:href="#a"/></mask><path fill="#2A6EBB" d="M0 22h20v2H0z" mask="url(#b)"/></g><path fill="#2A6EBB" d="M7.60742706 15c-.49337117 0-.88461394-.1880204-1.17374006-.5640669C6.14456089 14.0598867 6 13.5320368 6 12.8523677c0-.3342635.04641863-.6350962.13925729-.902507.09283866-.2674108.21617961-.4930353.37002653-.6768802.15384692-.1838449.33023773-.3259048.52917772-.4261838.19893999-.1002791.40450822-.1504179.61671087-.1504179.22281279 0 .41113982.0403896.56498674.1211699.15384692.0807804.30769154.1908071.46153846.3300836l-.03183024-.6601671V9h.91511937v5.8997214h-.75596817l-.06366048-.4428969h-.03183024c-.14323679.1504186-.31034387.278551-.50132626.3844011S7.81962971 15 7.60742706 15zm.22281167-.7938719c.29177864 0 .56498546-.1532018.81962864-.45961v-1.913649c-.13793172-.1281344-.27188264-.21727-.40185676-.2674095-.12997412-.0501395-.26127255-.0752089-.3938992-.0752089-.25464319 0-.46949515.1169905-.64456234.3509749-.17506719.2339845-.26259947.568243-.26259947 1.0027855 0 .4456847.07559606.7841214.22679045 1.0153204.15119439.2311989.3700251.3467966.65649868.3467966zM12.3262599 15c-.244033 0-.47745242-.0473533-.70026521-.1420613-.22281278-.094708-.42042354-.2339823-.59283819-.4178273-.17241466-.1838449-.30901806-.4094694-.40981432-.6768802-.10079626-.2674108-.15119364-.5710289-.15119364-.9108635 0-.3398346.05039738-.6434527.15119364-.9108635.10079626-.2674108.23739966-.4930353.40981432-.6768802.17241465-.183845.37002541-.3245121.59283819-.4220056.22281279-.0974935.45623221-.1462396.70026521-.1462396.2440331 0 .4787788.0487461.7042441.1462396.2254653.0974935.4230761.2381606.5928382.4220056.1697621.1838449.3063655.4094694.4098143.6768802.1034488.2674108.1551724.5710289.1551724.9108635 0 .3398346-.0517236.6434527-.1551724.9108635-.1034488.2674108-.2400522.4930353-.4098143.6768802-.1697621.183845-.3673729.3231193-.5928382.4178273-.2254653.094708-.460211.1420613-.7042441.1420613zm0-.7855153c.2864736 0 .5119356-.1239542.6763926-.3718663.1644571-.2479121.2466844-.5779924.2466844-.9902507 0-.4178294-.0822273-.7506952-.2466844-.9986073-.164457-.2479121-.389919-.3718662-.6763926-.3718662-.2864735 0-.51060922.1239541-.67241375.3718662-.16180452.2479121-.24270557.5807779-.24270557.9986073 0 .4122583.08090105.7423386.24270557.9902507.16180453.2479121.38594025.3718663.67241375.3718663zM16.7267905 15c-.2652534 0-.5132615-.0473533-.7440319-.1420613-.2307704-.094708-.4310336-.2339823-.6007957-.4178273-.1697622-.1838449-.3023868-.4094694-.397878-.6768802-.0954912-.2674108-.1432361-.5710289-.1432361-.9108635 0-.3398346.0530499-.6434527.1591512-.9108635.1061013-.2674108.249336-.4930353.4297082-.6768802.1803723-.183845.388593-.3245121.6246685-.4220056.2360754-.0974935.4840835-.1462396.7440318-.1462396.2546432 0 .4734739.0445678.6564987.1337048.1830247.0891369.3461531.1977709.4893899.3259053l-.4456234.6267409c-.1061013-.094708-.2108748-.1685234-.3143236-.2214485-.1034488-.052925-.2161797-.0793871-.3381963-.0793871-.3183039 0-.5755958.1239541-.7718832.3718662-.1962875.2479121-.2944298.5807779-.2944298.9986073 0 .4122583.0968161.7423386.290451.9902507.1936349.2479121.4442955.3718663.7519894.3718663.1538469 0 .2984078-.0348186.433687-.1044568.1352792-.0696383.2586201-.1518102.3700265-.2465182L18 14.4986072c-.1856773.1671318-.3885931.2924787-.6087533.3760446C17.1710864 14.9582177 16.9496032 15 16.7267905 15z"/><path fill="#C8CDD0" d="M15.3333333 0v5.33359001c0 .73623791.5916222 1.33307666 1.3330767 1.33307666H22L15.3333333 0z"/></g></svg>