<?xml version="1.0" encoding="UTF-8"?>
<svg width="80px" height="80px" viewBox="0 0 80 80" version="1.1" xmlns="http://www.w3.org/2000/svg" xmlns:xlink="http://www.w3.org/1999/xlink">
    <!-- Generator: Sketch 49.3 (51167) - http://www.bohemiancoding.com/sketch -->
    <title>Ikonit / Kuvitukset / Tabletti</title>
    <desc>Created with Sketch.</desc>
    <defs></defs>
    <g id="Ikonit-/-Kuvitukset-/-Tabletti" stroke="none" stroke-width="1" fill="none" fill-rule="evenodd">
        <g id="Group-2" transform="translate(17.000000, 8.000000)">
            <polygon id="Fill-173" fill="#A5ACB0" points="1 10 45 10 45 8 1 8"></polygon>
            <polygon id="Fill-174" fill="#A5ACB0" points="1 56 45 56 45 54 1 54"></polygon>
            <path d="M6,2 C3.794,2 2,3.794 2,6 L2,58 C2,60.206 3.794,62 6,62 L40,62 C42.206,62 44,60.206 44,58 L44,6 C44,3.794 42.206,2 40,2 L6,2 Z M40,64 L6,64 C2.691,64 0,61.309 0,58 L0,6 C0,2.691 2.691,0 6,0 L40,0 C43.309,0 46,2.691 46,6 L46,58 C46,61.309 43.309,64 40,64 L40,64 Z" id="Fill-175" fill="#A5ACB0"></path>
            <polygon id="Fill-176" fill="#A5ACB0" points="17 6 29 6 29 4 17 4"></polygon>
            <polygon id="Fill-177" fill="#A5ACB0" points="21 60 25 60 25 58 21 58"></polygon>
            <path d="M6,50 L40,50 L40,14 L6,14 L6,50 Z M41,52 L5,52 C4.447,52 4,51.553 4,51 L4,13 C4,12.447 4.447,12 5,12 L41,12 C41.553,12 42,12.447 42,13 L42,51 C42,51.553 41.553,52 41,52 L41,52 Z" id="Fill-178" fill="#A5ACB0"></path>
            <polygon id="Fill-179" fill="#EA7125" points="10 20 12 20 12 18 10 18"></polygon>
            <polygon id="Fill-180" fill="#EA7125" points="16 20 18 20 18 18 16 18"></polygon>
            <polygon id="Fill-181" fill="#EA7125" points="22 20 24 20 24 18 22 18"></polygon>
            <polygon id="Fill-182" fill="#EA7125" points="28 20 30 20 30 18 28 18"></polygon>
            <polygon id="Fill-183" fill="#EA7125" points="34 20 36 20 36 18 34 18"></polygon>
            <polygon id="Fill-184" fill="#EA7125" points="10 26 12 26 12 24 10 24"></polygon>
            <polygon id="Fill-185" fill="#EA7125" points="16 26 18 26 18 24 16 24"></polygon>
            <polygon id="Fill-186" fill="#EA7125" points="22 26 24 26 24 24 22 24"></polygon>
            <polygon id="Fill-187" fill="#EA7125" points="28 26 30 26 30 24 28 24"></polygon>
            <polygon id="Fill-188" fill="#EA7125" points="34 26 36 26 36 24 34 24"></polygon>
            <polygon id="Fill-189" fill="#EA7125" points="10 32 12 32 12 30 10 30"></polygon>
            <polygon id="Fill-190" fill="#EA7125" points="16 32 18 32 18 30 16 30"></polygon>
            <polygon id="Fill-191" fill="#EA7125" points="22 32 24 32 24 30 22 30"></polygon>
            <polygon id="Fill-192" fill="#EA7125" points="28 32 30 32 30 30 28 30"></polygon>
            <polygon id="Fill-193" fill="#EA7125" points="34 32 36 32 36 30 34 30"></polygon>
            <polygon id="Fill-194" fill="#EA7125" points="10 38 12 38 12 36 10 36"></polygon>
            <polygon id="Fill-195" fill="#EA7125" points="16 38 18 38 18 36 16 36"></polygon>
            <polygon id="Fill-196" fill="#EA7125" points="22 38 24 38 24 36 22 36"></polygon>
            <polygon id="Fill-197" fill="#EA7125" points="10 46 12 46 12 44 10 44"></polygon>
            <polygon id="Fill-198" fill="#EA7125" points="16 46 18 46 18 44 16 44"></polygon>
            <polygon id="Fill-199" fill="#EA7125" points="22 46 24 46 24 44 22 44"></polygon>
            <polygon id="Fill-200" fill="#EA7125" points="28 46 30 46 30 44 28 44"></polygon>
            <polygon id="Fill-201" fill="#EA7125" points="34 46 36 46 36 44 34 44"></polygon>
        </g>
        <rect id="bounding-box" x="0" y="0" width="80" height="80"></rect>
    </g>
</svg>