<svg xmlns="http://www.w3.org/2000/svg" xmlns:xlink="http://www.w3.org/1999/xlink" viewBox="0 0 24 24"><defs><path id="a" d="M0 1.33313819C0 .59686629.59880825 0 1.32719676 0H13.3333333L20 6.66666667V22.6686635C20 23.4039404 19.4014397 24 18.6722553 24H1.32774469C.59445154 24 0 23.4067383 0 22.6668618V1.33313819z"/></defs><g fill="none" fill-rule="evenodd"><path fill="#ECEDEE" fill-rule="nonzero" d="M2 1.33313819C2 .59686629 2.59880825 0 3.32719676 0H15.3333333L22 6.66666667V22.6686635C22 23.4039404 21.4014397 24 20.6722553 24H3.32774469C2.59445154 24 2 23.4067383 2 22.6668618V1.33313819z"/><g transform="translate(2)"><mask id="b" fill="#fff"><use xlink:href="#a"/></mask><path fill="#09AE87" d="M0 22h20v2H0z" mask="url(#b)"/></g><path fill="#09AE87" d="M7.38 14.6666667l1.248-2.048-1.168-1.88h.992l.44.744c.05866696.1066672.11866636.2173327.18.332.06133364.1146672.12133304.2253328.18.332h.032c.04800024-.1066672.0986664-.2173328.152-.332.0533336-.1146673.10399976-.2253328.152-.332l.376-.744h.952l-1.16 1.984 1.248 1.944h-.992l-.48-.776c-.06400032-.117334-.129333-.2346661-.196-.352-.066667-.117334-.13466632-.2319995-.204-.344H9.1c-.05866696.1120005-.11599972.2253327-.172.34-.05600028.1146672-.11333304.2333327-.172.356l-.416.776h-.96zm5.216.096c-.3306683 0-.562666-.0986657-.696-.296-.133334-.1973344-.2-.466665-.2-.808V9.01866667h.92v4.68800003c0 .1120005.0213331.1906664.064.236.0426669.0453335.0879998.068.136.068h.06c.0186668 0 .0466665-.0053333.084-.016l.12.688c-.1226673.0533336-.2853323.08-.488.08zm2.368 0c-.2720014 0-.5399987-.0519995-.804-.156-.2640013-.1040006-.491999-.2333326-.684-.388l.432-.592c.1760009.1386673.3506658.2466662.524.324.1733342.0773337.3613323.116.564.116.2133344 0 .3706662-.0439996.472-.132.1013338-.0880005.152-.2013327.152-.34 0-.0800004-.0239998-.1506664-.072-.212-.0480002-.0613337-.1119996-.1159998-.192-.164-.0800004-.0480003-.1706662-.0919998-.272-.132-.1013338-.0400002-.2026662-.0813332-.304-.124-.1280006-.0480003-.258666-.1039997-.392-.168-.133334-.0640004-.2519995-.1413329-.356-.232-.1040005-.0906672-.189333-.1959994-.256-.316-.066667-.1200006-.1-.2626659-.1-.428 0-.3466684.1279987-.6293323.384-.848.2560013-.2186678.6053311-.328 1.048-.328.2720014 0 .5173322.0479995.736.144.2186678.0960004.4079992.2053327.568.328l-.424.56c-.1386674-.1013339-.278666-.1826664-.42-.244-.141334-.0613337-.2893326-.092-.444-.092-.1973343 0-.3426662.0413329-.436.124-.0933338.082667-.14.1853327-.14.308 0 .0800004.0226664.1479997.068.204.0453336.0560002.105333.1053331.18.148.074667.0426668.1613328.0826664.26.12.0986672.0373335.2013328.0746664.308.112.133334.0480002.266666.1026663.4.164.133334.0613336.2546661.1373328.364.228.1093339.0906671.197333.2013326.264.332.066667.1306673.1.2866657.1.468 0 .1706675-.033333.3293326-.1.476s-.1639994.2746661-.292.384c-.1280006.1093338-.287999.1959996-.48.26-.192001.0640003-.4106654.096-.656.096z"/><path fill="#C8CDD0" d="M15.3333333 0v5.33359001c0 .73623791.5916222 1.33307666 1.3330767 1.33307666H22L15.3333333 0z"/></g></svg>