<?xml version="1.0" encoding="UTF-8"?>
<svg  viewBox="0 0 24 24" version="1.1" xmlns="http://www.w3.org/2000/svg" xmlns:xlink="http://www.w3.org/1999/xlink">
    <title>Icons/Doctype icons/doc</title>
    <g  id="Icons/Doctype-icons/doc" stroke="none" stroke-width="1" fill="none" fill-rule="evenodd">
        <g  id="Group" transform="translate(2.000000, 0.000000)" fill-rule="nonzero">
            <path d="M0,1.33313819 C0,0.596866296 0.598808254,0 1.32719676,0 L13.3333333,0 L20,6.66666667 L20,22.6686635 C20,23.4039404 19.4014397,24 18.6722553,24 L1.32774469,24 C0.594451544,24 0,23.4067383 0,22.6668618 L0,1.33313819 Z"  id="path-1" fill="#ECEDEE"></path>
            <path d="M0,22 L20,22 L20,22.67 C20,23.4045387 19.4045387,24 18.67,24 L1.33,24 C0.595461283,24 0,23.4045387 0,22.67 L0,22 L0,22 Z"  id="Rectangle-path" fill="#2A6EBB"></path>
            <path d="M5.60742706,15 C5.11405589,15 4.72281312,14.8119796 4.433687,14.4359331 C4.14456089,14.0598867 4,13.5320368 4,12.8523677 C4,12.5181042 4.04641863,12.2172715 4.13925729,11.9498607 C4.23209595,11.6824499 4.3554369,11.4568254 4.50928382,11.2729805 C4.66313074,11.0891356 4.83952155,10.9470757 5.03846154,10.8467967 C5.23740153,10.7465176 5.44296976,10.6963788 5.65517241,10.6963788 C5.8779852,10.6963788 6.06631223,10.7367684 6.22015915,10.8175487 C6.37400607,10.8983291 6.52785069,11.0083558 6.68169761,11.1476323 L6.64986737,10.4874652 L6.64986737,9 L7.56498674,9 L7.56498674,14.8997214 L6.80901857,14.8997214 L6.74535809,14.4568245 L6.71352785,14.4568245 C6.57029106,14.6072431 6.40318398,14.7353755 6.21220159,14.8412256 C6.0212192,14.9470757 5.81962971,15 5.60742706,15 Z M5.83023873,14.2061281 C6.12201737,14.2061281 6.39522419,14.0529263 6.64986737,13.7465181 L6.64986737,11.8328691 C6.51193565,11.7047347 6.37798473,11.6155991 6.24801061,11.5654596 C6.11803649,11.5153201 5.98673806,11.4902507 5.85411141,11.4902507 C5.59946822,11.4902507 5.38461626,11.6072412 5.20954907,11.8412256 C5.03448188,12.0752101 4.9469496,12.4094686 4.9469496,12.8440111 C4.9469496,13.2896958 5.02254566,13.6281325 5.17374005,13.8593315 C5.32493444,14.0905304 5.54376515,14.2061281 5.83023873,14.2061281 Z M10.3262599,15 C10.0822269,15 9.84880748,14.9526467 9.62599469,14.8579387 C9.40318191,14.7632307 9.20557115,14.6239564 9.0331565,14.4401114 C8.86074184,14.2562665 8.72413844,14.030642 8.62334218,13.7632312 C8.52254592,13.4958204 8.47214854,13.1922023 8.47214854,12.8523677 C8.47214854,12.5125331 8.52254592,12.208915 8.62334218,11.9415042 C8.72413844,11.6740934 8.86074184,11.4484689 9.0331565,11.264624 C9.20557115,11.080779 9.40318191,10.9401119 9.62599469,10.8426184 C9.84880748,10.7451249 10.0822269,10.6963788 10.3262599,10.6963788 C10.570293,10.6963788 10.8050387,10.7451249 11.030504,10.8426184 C11.2559693,10.9401119 11.4535801,11.080779 11.6233422,11.264624 C11.7931043,11.4484689 11.9297077,11.6740934 12.0331565,11.9415042 C12.1366053,12.208915 12.1883289,12.5125331 12.1883289,12.8523677 C12.1883289,13.1922023 12.1366053,13.4958204 12.0331565,13.7632312 C11.9297077,14.030642 11.7931043,14.2562665 11.6233422,14.4401114 C11.4535801,14.6239564 11.2559693,14.7632307 11.030504,14.8579387 C10.8050387,14.9526467 10.570293,15 10.3262599,15 Z M10.3262599,14.2144847 C10.6127335,14.2144847 10.8381955,14.0905305 11.0026525,13.8426184 C11.1671096,13.5947063 11.2493369,13.264626 11.2493369,12.8523677 C11.2493369,12.4345383 11.1671096,12.1016725 11.0026525,11.8537604 C10.8381955,11.6058483 10.6127335,11.4818942 10.3262599,11.4818942 C10.0397864,11.4818942 9.81565068,11.6058483 9.65384615,11.8537604 C9.49204163,12.1016725 9.41114058,12.4345383 9.41114058,12.8523677 C9.41114058,13.264626 9.49204163,13.5947063 9.65384615,13.8426184 C9.81565068,14.0905305 10.0397864,14.2144847 10.3262599,14.2144847 Z M14.7267905,15 C14.4615371,15 14.213529,14.9526467 13.9827586,14.8579387 C13.7519882,14.7632307 13.551725,14.6239564 13.3819629,14.4401114 C13.2122007,14.2562665 13.0795761,14.030642 12.9840849,13.7632312 C12.8885937,13.4958204 12.8408488,13.1922023 12.8408488,12.8523677 C12.8408488,12.5125331 12.8938987,12.208915 13,11.9415042 C13.1061013,11.6740934 13.249336,11.4484689 13.4297082,11.264624 C13.6100805,11.080779 13.8183012,10.9401119 14.0543767,10.8426184 C14.2904521,10.7451249 14.5384602,10.6963788 14.7984085,10.6963788 C15.0530517,10.6963788 15.2718824,10.7409466 15.4549072,10.8300836 C15.6379319,10.9192205 15.8010603,11.0278545 15.9442971,11.1559889 L15.4986737,11.7827298 C15.3925724,11.6880218 15.2877989,11.6142064 15.1843501,11.5612813 C15.0809013,11.5083563 14.9681704,11.4818942 14.8461538,11.4818942 C14.5278499,11.4818942 14.270558,11.6058483 14.0742706,11.8537604 C13.8779831,12.1016725 13.7798408,12.4345383 13.7798408,12.8523677 C13.7798408,13.264626 13.8766569,13.5947063 14.0702918,13.8426184 C14.2639267,14.0905305 14.5145873,14.2144847 14.8222812,14.2144847 C14.9761281,14.2144847 15.120689,14.1796661 15.2559682,14.1100279 C15.3912474,14.0403896 15.5145883,13.9582177 15.6259947,13.8635097 L16,14.4986072 C15.8143227,14.665739 15.6114069,14.7910859 15.3912467,14.8746518 C15.1710864,14.9582177 14.9496032,15 14.7267905,15 Z"  id="doc" fill="#2A6EBB"></path>
            <path d="M13.3333333,0 L13.3333333,5.33359001 C13.3333333,6.06982792 13.9249555,6.66666667 14.66641,6.66666667 L20,6.66666667 L13.3333333,0 Z"  id="Path-9-Copy" fill="#C8CDD0"></path>
        </g>
    </g>
</svg>