<?xml version="1.0" encoding="UTF-8"?>
<svg  viewBox="0 0 24 24" version="1.1" xmlns="http://www.w3.org/2000/svg" xmlns:xlink="http://www.w3.org/1999/xlink">
    <title>Icons/Doctype icons/ppt</title>
    <g  id="Icons/Doctype-icons/ppt" stroke="none" stroke-width="1" fill="none" fill-rule="evenodd">
        <g  id="Group" transform="translate(2.000000, 0.000000)" fill-rule="nonzero">
            <path d="M0,1.33313819 C0,0.596866296 0.598808254,0 1.32719676,0 L13.3333333,0 L20,6.66666667 L20,22.6686635 C20,23.4039404 19.4014397,24 18.6722553,24 L1.32774469,24 C0.594451544,24 0,23.4067383 0,22.6668618 L0,1.33313819 Z"  id="path-1" fill="#ECEDEE"></path>
            <path d="M0,22 L20,22 L20,22.67 C20,23.4045387 19.4045387,24 18.67,24 L1.33,24 C0.595461283,24 0,23.4045387 0,22.67 L0,22 L0,22 Z"  id="Rectangle-path" fill="#E97025"></path>
            <path d="M4.628,16.2186667 L4.628,10.7386667 L5.388,10.7386667 L5.452,11.1546667 L5.484,11.1546667 C5.64933416,11.0159993 5.83333232,10.8960005 6.036,10.7946667 C6.23866768,10.6933328 6.44933224,10.6426667 6.668,10.6426667 C6.91333456,10.6426667 7.13066572,10.6893329 7.32,10.7826667 C7.50933428,10.8760005 7.670666,11.0106658 7.804,11.1866667 C7.937334,11.3626675 8.03866632,11.5733321 8.108,11.8186667 C8.17733368,12.0640012 8.212,12.3386651 8.212,12.6426667 C8.212,12.9786683 8.1653338,13.2786653 8.072,13.5426667 C7.9786662,13.806668 7.85466744,14.0279991 7.7,14.2066667 C7.54533256,14.3853342 7.36666768,14.5226662 7.164,14.6186667 C6.96133232,14.7146671 6.75066776,14.7626667 6.532,14.7626667 C6.36133248,14.7626667 6.19066752,14.7253337 6.02,14.6506667 C5.84933248,14.5759996 5.6840008,14.469334 5.524,14.3306667 L5.548,14.9866667 L5.548,16.2186667 L4.628,16.2186667 Z M6.34,14.0026667 C6.60133464,14.0026667 6.81999912,13.8893345 6.996,13.6626667 C7.17200088,13.4359989 7.26,13.0986689 7.26,12.6506667 C7.26,12.255998 7.193334,11.9493344 7.06,11.7306667 C6.926666,11.5119989 6.71066816,11.4026667 6.412,11.4026667 C6.13466528,11.4026667 5.84666816,11.5493319 5.548,11.8426667 L5.548,13.6746667 C5.69200072,13.7973339 5.830666,13.8826664 5.964,13.9306667 C6.097334,13.9786669 6.22266608,14.0026667 6.34,14.0026667 Z M9.14,16.2186667 L9.14,10.7386667 L9.9,10.7386667 L9.964,11.1546667 L9.996,11.1546667 C10.1613342,11.0159993 10.3453323,10.8960005 10.548,10.7946667 C10.7506677,10.6933328 10.9613322,10.6426667 11.18,10.6426667 C11.4253346,10.6426667 11.6426657,10.6893329 11.832,10.7826667 C12.0213343,10.8760005 12.182666,11.0106658 12.316,11.1866667 C12.449334,11.3626675 12.5506663,11.5733321 12.62,11.8186667 C12.6893337,12.0640012 12.724,12.3386651 12.724,12.6426667 C12.724,12.9786683 12.6773338,13.2786653 12.584,13.5426667 C12.4906662,13.806668 12.3666674,14.0279991 12.212,14.2066667 C12.0573326,14.3853342 11.8786677,14.5226662 11.676,14.6186667 C11.4733323,14.7146671 11.2626678,14.7626667 11.044,14.7626667 C10.8733325,14.7626667 10.7026675,14.7253337 10.532,14.6506667 C10.3613325,14.5759996 10.1960008,14.469334 10.036,14.3306667 L10.06,14.9866667 L10.06,16.2186667 L9.14,16.2186667 Z M10.852,14.0026667 C11.1133346,14.0026667 11.3319991,13.8893345 11.508,13.6626667 C11.6840009,13.4359989 11.772,13.0986689 11.772,12.6506667 C11.772,12.255998 11.705334,11.9493344 11.572,11.7306667 C11.438666,11.5119989 11.2226682,11.4026667 10.924,11.4026667 C10.6466653,11.4026667 10.3586682,11.5493319 10.06,11.8426667 L10.06,13.6746667 C10.2040007,13.7973339 10.342666,13.8826664 10.476,13.9306667 C10.609334,13.9786669 10.7346661,14.0026667 10.852,14.0026667 Z M14.86,14.7626667 C14.6306655,14.7626667 14.4373341,14.7280003 14.28,14.6586667 C14.1226659,14.589333 13.9946672,14.4920006 13.896,14.3666667 C13.7973328,14.2413327 13.7253336,14.0920009 13.68,13.9186667 C13.6346664,13.7453325 13.612,13.5520011 13.612,13.3386667 L13.612,11.4666667 L13.052,11.4666667 L13.052,10.7786667 L13.66,10.7386667 L13.772,9.66666667 L14.54,9.66666667 L14.54,10.7386667 L15.54,10.7386667 L15.54,11.4666667 L14.54,11.4666667 L14.54,13.3386667 C14.54,13.7973356 14.7239982,14.0266667 15.092,14.0266667 C15.1613337,14.0266667 15.2319996,14.0186667 15.304,14.0026667 C15.3760004,13.9866666 15.441333,13.9653335 15.5,13.9386667 L15.66,14.6186667 C15.5533328,14.6560002 15.4320007,14.6893332 15.296,14.7186667 C15.1599993,14.7480001 15.0146674,14.7626667 14.86,14.7626667 Z"  id="ppt" fill="#E97025"></path>
            <path d="M13.3333333,0 L13.3333333,5.33359001 C13.3333333,6.06982792 13.9249555,6.66666667 14.66641,6.66666667 L20,6.66666667 L13.3333333,0 Z"  id="Path-9-Copy" fill="#C8CDD0"></path>
        </g>
    </g>
</svg>