<?xml version="1.0" encoding="UTF-8"?>
<svg  viewBox="0 0 24 24" version="1.1" xmlns="http://www.w3.org/2000/svg" xmlns:xlink="http://www.w3.org/1999/xlink">
    <title>Icons/Doctype icons/xml</title>
    <g  id="Icons/Doctype-icons/xml" stroke="none" stroke-width="1" fill="none" fill-rule="evenodd">
        <g  id="Group" transform="translate(2.000000, 0.000000)" fill-rule="nonzero">
            <path d="M0,1.33313819 C0,0.596866296 0.598808254,0 1.32719676,0 L13.3333333,0 L20,6.66666667 L20,22.6686635 C20,23.4039404 19.4014397,24 18.6722553,24 L1.32774469,24 C0.594451544,24 0,23.4067383 0,22.6668618 L0,1.33313819 Z"  id="path-1" fill="#ECEDEE"></path>
            <path d="M0,22 L20,22 L20,22.67 C20,23.4045387 19.4045387,24 18.67,24 L1.33,24 C0.595461283,24 0,23.4045387 0,22.67 L0,22 L0,22 Z"  id="Rectangle-path" fill="#1A99C7"></path>
            <path d="M3.732,14.6666667 L4.98,12.6186667 L3.812,10.7386667 L4.804,10.7386667 L5.244,11.4826667 C5.30266696,11.5893339 5.36266636,11.6999994 5.424,11.8146667 C5.48533364,11.9293339 5.54533304,12.0399995 5.604,12.1466667 L5.636,12.1466667 C5.68400024,12.0399995 5.7346664,11.9293339 5.788,11.8146667 C5.8413336,11.6999994 5.89199976,11.5893339 5.94,11.4826667 L6.316,10.7386667 L7.268,10.7386667 L6.108,12.7226667 L7.356,14.6666667 L6.364,14.6666667 L5.884,13.8906667 C5.81999968,13.7733327 5.754667,13.6560006 5.688,13.5386667 C5.621333,13.4213327 5.55333368,13.3066672 5.484,13.1946667 L5.452,13.1946667 C5.39333304,13.3066672 5.33600028,13.4199994 5.28,13.5346667 C5.22399972,13.6493339 5.16666696,13.7679994 5.108,13.8906667 L4.692,14.6666667 L3.732,14.6666667 Z M8.052,14.6666667 L8.052,10.7386667 L8.812,10.7386667 L8.876,11.2746667 L8.908,11.2746667 C9.07333416,11.0986658 9.25333236,10.9493339 9.448,10.8266667 C9.64266764,10.7039994 9.86266544,10.6426667 10.108,10.6426667 C10.3960014,10.6426667 10.6266658,10.7039994 10.8,10.8266667 C10.9733342,10.9493339 11.1053329,11.1226655 11.196,11.3466667 C11.3826676,11.143999 11.5773323,10.9760007 11.78,10.8426667 C11.9826677,10.7093327 12.2093321,10.6426667 12.46,10.6426667 C12.8760021,10.6426667 13.1826657,10.777332 13.38,11.0466667 C13.5773343,11.3160013 13.676,11.7013308 13.676,12.2026667 L13.676,14.6666667 L12.748,14.6666667 L12.748,12.3226667 C12.748,11.9973317 12.6986672,11.7680007 12.6,11.6346667 C12.5013328,11.5013327 12.3506677,11.4346667 12.148,11.4346667 C11.9026654,11.4346667 11.6280015,11.5973317 11.324,11.9226667 L11.324,14.6666667 L10.404,14.6666667 L10.404,12.3226667 C10.404,11.9973317 10.3546672,11.7680007 10.256,11.6346667 C10.1573328,11.5013327 10.004001,11.4346667 9.796,11.4346667 C9.55066544,11.4346667 9.27600152,11.5973317 8.972,11.9226667 L8.972,14.6666667 L8.052,14.6666667 Z M15.692,14.7626667 C15.3613317,14.7626667 15.129334,14.664001 14.996,14.4666667 C14.862666,14.2693323 14.796,14.0000017 14.796,13.6586667 L14.796,9.01866667 L15.716,9.01866667 L15.716,13.7066667 C15.716,13.8186672 15.7373331,13.8973331 15.78,13.9426667 C15.8226669,13.9880002 15.8679998,14.0106667 15.916,14.0106667 L15.976,14.0106667 C15.9946668,14.0106667 16.0226665,14.0053334 16.06,13.9946667 L16.18,14.6826667 C16.0573327,14.7360003 15.8946677,14.7626667 15.692,14.7626667 Z"  id="xml" fill="#1A99C7"></path>
            <path d="M13.3333333,0 L13.3333333,5.33359001 C13.3333333,6.06982792 13.9249555,6.66666667 14.66641,6.66666667 L20,6.66666667 L13.3333333,0 Z"  id="Path-9-Copy" fill="#C8CDD0"></path>
        </g>
    </g>
</svg>