<?xml version="1.0" encoding="UTF-8"?>
<svg  viewBox="0 0 24 24" version="1.1" xmlns="http://www.w3.org/2000/svg" xmlns:xlink="http://www.w3.org/1999/xlink">
    <title>Icons/Doctype icons/xls</title>
    <g  id="Icons/Doctype-icons/xls" stroke="none" stroke-width="1" fill="none" fill-rule="evenodd">
        <g  id="Group" transform="translate(2.000000, 0.000000)" fill-rule="nonzero">
            <path d="M0,1.33313819 C0,0.596866296 0.598808254,0 1.32719676,0 L13.3333333,0 L20,6.66666667 L20,22.6686635 C20,23.4039404 19.4014397,24 18.6722553,24 L1.32774469,24 C0.594451544,24 0,23.4067383 0,22.6668618 L0,1.33313819 Z"  id="path-1" fill="#ECEDEE"></path>
            <path d="M0,22 L20,22 L20,22.67 C20,23.4045387 19.4045387,24 18.67,24 L1.33,24 C0.595461283,24 0,23.4045387 0,22.67 L0,22 L0,22 Z"  id="Rectangle-path" fill="#09A580"></path>
            <path d="M5.38,14.6666667 L6.628,12.6186667 L5.46,10.7386667 L6.452,10.7386667 L6.892,11.4826667 C6.95066696,11.5893339 7.01066636,11.6999994 7.072,11.8146667 C7.13333364,11.9293339 7.19333304,12.0399995 7.252,12.1466667 L7.284,12.1466667 C7.33200024,12.0399995 7.3826664,11.9293339 7.436,11.8146667 C7.4893336,11.6999994 7.53999976,11.5893339 7.588,11.4826667 L7.964,10.7386667 L8.916,10.7386667 L7.756,12.7226667 L9.004,14.6666667 L8.012,14.6666667 L7.532,13.8906667 C7.46799968,13.7733327 7.402667,13.6560006 7.336,13.5386667 C7.269333,13.4213327 7.20133368,13.3066672 7.132,13.1946667 L7.1,13.1946667 C7.04133304,13.3066672 6.98400028,13.4199994 6.928,13.5346667 C6.87199972,13.6493339 6.81466696,13.7679994 6.756,13.8906667 L6.34,14.6666667 L5.38,14.6666667 Z M10.596,14.7626667 C10.2653317,14.7626667 10.033334,14.664001 9.9,14.4666667 C9.766666,14.2693323 9.7,14.0000017 9.7,13.6586667 L9.7,9.01866667 L10.62,9.01866667 L10.62,13.7066667 C10.62,13.8186672 10.6413331,13.8973331 10.684,13.9426667 C10.7266669,13.9880002 10.7719998,14.0106667 10.82,14.0106667 L10.88,14.0106667 C10.8986668,14.0106667 10.9266665,14.0053334 10.964,13.9946667 L11.084,14.6826667 C10.9613327,14.7360003 10.7986677,14.7626667 10.596,14.7626667 Z M12.964,14.7626667 C12.6919986,14.7626667 12.4240013,14.7106672 12.16,14.6066667 C11.8959987,14.5026661 11.668001,14.3733341 11.476,14.2186667 L11.908,13.6266667 C12.0840009,13.765334 12.2586658,13.8733329 12.432,13.9506667 C12.6053342,14.0280004 12.7933323,14.0666667 12.996,14.0666667 C13.2093344,14.0666667 13.3666662,14.0226671 13.468,13.9346667 C13.5693338,13.8466662 13.62,13.733334 13.62,13.5946667 C13.62,13.5146663 13.5960002,13.4440003 13.548,13.3826667 C13.4999998,13.321333 13.4360004,13.2666669 13.356,13.2186667 C13.2759996,13.1706664 13.1853338,13.1266669 13.084,13.0866667 C12.9826662,13.0466665 12.8813338,13.0053335 12.78,12.9626667 C12.6519994,12.9146664 12.521334,12.858667 12.388,12.7946667 C12.254666,12.7306663 12.1360005,12.6533338 12.032,12.5626667 C11.9279995,12.4719995 11.842667,12.3666673 11.776,12.2466667 C11.709333,12.1266661 11.676,11.9840008 11.676,11.8186667 C11.676,11.4719983 11.8039987,11.1893344 12.06,10.9706667 C12.3160013,10.7519989 12.6653311,10.6426667 13.108,10.6426667 C13.3800014,10.6426667 13.6253322,10.6906662 13.844,10.7866667 C14.0626678,10.8826671 14.2519992,10.9919994 14.412,11.1146667 L13.988,11.6746667 C13.8493326,11.5733328 13.709334,11.4920003 13.568,11.4306667 C13.426666,11.369333 13.2786674,11.3386667 13.124,11.3386667 C12.9266657,11.3386667 12.7813338,11.3799996 12.688,11.4626667 C12.5946662,11.5453337 12.548,11.6479994 12.548,11.7706667 C12.548,11.8506671 12.5706664,11.9186664 12.616,11.9746667 C12.6613336,12.0306669 12.721333,12.0799998 12.796,12.1226667 C12.870667,12.1653335 12.9573328,12.2053331 13.056,12.2426667 C13.1546672,12.2800002 13.2573328,12.3173331 13.364,12.3546667 C13.497334,12.4026669 13.630666,12.457333 13.764,12.5186667 C13.897334,12.5800003 14.0186661,12.6559995 14.128,12.7466667 C14.2373339,12.8373338 14.325333,12.9479993 14.392,13.0786667 C14.458667,13.209334 14.492,13.3653324 14.492,13.5466667 C14.492,13.7173342 14.458667,13.8759993 14.392,14.0226667 C14.325333,14.1693341 14.2280006,14.2973328 14.1,14.4066667 C13.9719994,14.5160005 13.812001,14.6026663 13.62,14.6666667 C13.427999,14.730667 13.2093346,14.7626667 12.964,14.7626667 Z"  id="xls" fill="#09A580"></path>
            <path d="M13.3333333,0 L13.3333333,5.33359001 C13.3333333,6.06982792 13.9249555,6.66666667 14.66641,6.66666667 L20,6.66666667 L13.3333333,0 Z"  id="Path-9-Copy" fill="#C8CDD0"></path>
        </g>
    </g>
</svg>