<svg xmlns="http://www.w3.org/2000/svg" xmlns:xlink="http://www.w3.org/1999/xlink" viewBox="0 0 24 24"><defs><path id="a" d="M0 1.33313819C0 .59686629.59880825 0 1.32719676 0H13.3333333L20 6.66666667V22.6686635C20 23.4039404 19.4014397 24 18.6722553 24H1.32774469C.59445154 24 0 23.4067383 0 22.6668618V1.33313819z"/></defs><g fill="none" fill-rule="evenodd"><path fill="#ECEDEE" fill-rule="nonzero" d="M2 1.33313819C2 .59686629 2.59880825 0 3.32719676 0H15.3333333L22 6.66666667V22.6686635C22 23.4039404 21.4014397 24 20.6722553 24H3.32774469C2.59445154 24 2 23.4067383 2 22.6668618V1.33313819z"/><g transform="translate(2)"><mask id="b" fill="#fff"><use xlink:href="#a"/></mask><use fill="#ECEDEE" xlink:href="#a"/><path fill="#E97025" d="M0 22h20v2H0z" mask="url(#b)"/></g><path fill="#E97025" d="M6.628 16.2186667v-5.48h.76l.064.416h.032c.16533416-.1386674.34933232-.2586662.552-.36.20266768-.1013339.41333224-.152.632-.152.24533456 0 .46266572.0466662.652.14.18933428.0933338.350666.2279991.484.404.133334.1760008.23466632.3866654.304.632.06933368.2453345.104.5199984.104.824 0 .3360016-.0466662.6359986-.14.9-.0933338.2640013-.21733256.4853324-.372.664-.15466744.1786675-.33333232.3159995-.536.412-.20266768.0960004-.41333224.144-.632.144-.17066752 0-.34133248-.037333-.512-.112-.17066752-.0746671-.3359992-.1813327-.496-.32l.024.656v1.232h-.92zm1.712-2.216c.26133464 0 .47999912-.1133322.656-.34.17600088-.2266678.264-.5639978.264-1.012 0-.3946687-.066666-.7013323-.2-.92-.133334-.2186678-.34933184-.328-.648-.328-.27733472 0-.56533184.1466652-.864.44v1.832c.14400072.1226672.282666.2079997.416.256.133334.0480002.25866608.072.376.072zm2.8 2.216v-5.48h.76l.064.416h.032c.1653342-.1386674.3493323-.2586662.552-.36.2026677-.1013339.4133322-.152.632-.152.2453346 0 .4626657.0466662.652.14.1893343.0933338.350666.2279991.484.404.133334.1760008.2346663.3866654.304.632.0693337.2453345.104.5199984.104.824 0 .3360016-.0466662.6359986-.14.9-.0933338.2640013-.2173326.4853324-.372.664-.1546674.1786675-.3333323.3159995-.536.412-.2026677.0960004-.4133322.144-.632.144-.1706675 0-.3413325-.037333-.512-.112-.1706675-.0746671-.3359992-.1813327-.496-.32l.024.656v1.232h-.92zm1.712-2.216c.2613346 0 .4799991-.1133322.656-.34.1760009-.2266678.264-.5639978.264-1.012 0-.3946687-.066666-.7013323-.2-.92-.133334-.2186678-.3493318-.328-.648-.328-.2773347 0-.5653318.1466652-.864.44v1.832c.1440007.1226672.282666.2079997.416.256.133334.0480002.2586661.072.376.072zm4.008.76c-.2293345 0-.4226659-.0346664-.58-.104-.1573341-.0693337-.2853328-.1666661-.384-.292-.0986672-.125334-.1706664-.2746658-.216-.448s-.068-.3666656-.068-.58v-1.872h-.56v-.688l.608-.04.112-1.07200003h.768v1.07200003h1v.728h-1v1.872c0 .4586689.1839982.688.552.688.0693337 0 .1399996-.008.212-.024.0720004-.0160001.137333-.0373332.196-.064l.16.68c-.1066672.0373335-.2279993.0706665-.364.1-.1360007.0293334-.2813326.044-.436.044z"/><path fill="#C8CDD0" d="M15.3333333 0v5.33359001c0 .73623791.5916222 1.33307666 1.3330767 1.33307666H22L15.3333333 0z"/></g></svg>