<svg xmlns="http://www.w3.org/2000/svg" xmlns:xlink="http://www.w3.org/1999/xlink" viewBox="0 0 24 24"><defs><path id="a" d="M0 1.33313819C0 .59686629.59880825 0 1.32719676 0H13.3333333L20 6.66666667V22.6686635C20 23.4039404 19.4014397 24 18.6722553 24H1.32774469C.59445154 24 0 23.4067383 0 22.6668618V1.33313819z"/></defs><g fill="none" fill-rule="evenodd"><path fill="#ECEDEE" fill-rule="nonzero" d="M2 1.33313819C2 .59686629 2.59880825 0 3.32719676 0H15.3333333L22 6.66666667V22.6686635C22 23.4039404 21.4014397 24 20.6722553 24H3.32774469C2.59445154 24 2 23.4067383 2 22.6668618V1.33313819z"/><g transform="translate(2)"><mask id="b" fill="#fff"><use xlink:href="#a"/></mask><path fill="#C33932" d="M0 22h20v2H0z" mask="url(#b)"/></g><path fill="#C33932" d="M6.804 16.2186667v-5.48h.76l.064.416h.032c.16533416-.1386674.34933232-.2586662.552-.36.20266768-.1013339.41333224-.152.632-.152.24533456 0 .46266572.0466662.652.14.18933428.0933338.350666.2279991.484.404.133334.1760008.23466632.3866654.304.632.06933368.2453345.104.5199984.104.824 0 .3360016-.0466662.6359986-.14.9-.0933338.2640013-.21733256.4853324-.372.664-.15466744.1786675-.33333232.3159995-.536.412-.20266768.0960004-.41333224.144-.632.144-.17066752 0-.34133248-.037333-.512-.112-.17066752-.0746671-.3359992-.1813327-.496-.32l.024.656v1.232h-.92zm1.712-2.216c.26133464 0 .47999912-.1133322.656-.34.17600088-.2266678.264-.5639978.264-1.012 0-.3946687-.066666-.7013323-.2-.92-.133334-.2186678-.34933184-.328-.648-.328-.27733472 0-.56533184.1466652-.864.44v1.832c.14400072.1226672.282666.2079997.416.256.133334.0480002.25866608.072.376.072zm4.176.76c-.4960025 0-.88933188-.1799982-1.18-.54-.29066812-.3600018-.436-.8653301-.436-1.516 0-.3200016.0466662-.6079988.14-.864.0933338-.2560013.21733256-.4719992.372-.648.15466744-.176.331999-.3119996.532-.408.200001-.0960005.4066656-.144.62-.144.2240011 0 .4133326.0386662.568.116.1546674.0773337.3093326.182666.464.316l-.032-.632V9.01866667h.92v5.64800003h-.76l-.064-.424h-.032c-.1440007.1440007-.311999.2666661-.504.368-.192001.1013338-.3946656.152-.608.152zm.224-.76c.2933348 0 .5679987-.1466652.824-.44v-1.832c-.1386674-.1226673-.2733327-.2079998-.404-.256-.1306673-.0480003-.262666-.072-.396-.072-.2560013 0-.4719991.1119988-.648.336-.1760009.2240011-.264.5439979-.264.96 0 .4266688.0759992.7506655.228.972.1520008.2213344.3719986.332.66.332zm3.072.664v-3.2h-.528v-.688l.528-.04v-.408c0-.2026677.0239998-.39066583.072-.56400003.0480002-.1733342.1253328-.32266604.232-.448.1066672-.12533396.2413325-.22266632.404-.292.1626675-.06933368.3613322-.104.596-.104.1386674 0 .270666.0133332.396.04s.2333329.05866648.324.096l-.176.688c-.1440007-.06400032-.2879993-.096-.432-.096-.3306683 0-.496.22133112-.496.66400003v.424h.768v.728h-.768v3.2h-.92z"/><path fill="#C8CDD0" d="M15.3333333 0v5.33359001c0 .73623791.5916222 1.33307666 1.3330767 1.33307666H22L15.3333333 0z"/></g></svg>