<svg xmlns="http://www.w3.org/2000/svg" xmlns:xlink="http://www.w3.org/1999/xlink" viewBox="0 0 24 24"><defs><path id="a" d="M0 1.33313819C0 .59686629.59880825 0 1.32719676 0H13.3333333L20 6.66666667V22.6686635C20 23.4039404 19.4014397 24 18.6722553 24H1.32774469C.59445154 24 0 23.4067383 0 22.6668618V1.33313819z"/></defs><g fill="none" fill-rule="evenodd"><path fill="#ECEDEE" fill-rule="nonzero" d="M2 1.33313819C2 .59686629 2.59880825 0 3.32719676 0H15.3333333L22 6.66666667V22.6686635C22 23.4039404 21.4014397 24 20.6722553 24H3.32774469C2.59445154 24 2 23.4067383 2 22.6668618V1.33313819z"/><g transform="translate(2)"><mask id="b" fill="#fff"><use xlink:href="#a"/></mask><path fill="#34B5E5" d="M0 22h20v2H0z" mask="url(#b)"/></g><path fill="#34B5E5" d="M5.732 14.6666667l1.248-2.048-1.168-1.88h.992l.44.744c.05866696.1066672.11866636.2173327.18.332.06133364.1146672.12133304.2253328.18.332h.032c.04800024-.1066672.0986664-.2173328.152-.332.0533336-.1146673.10399976-.2253328.152-.332l.376-.744h.952l-1.16 1.984 1.248 1.944h-.992l-.48-.776c-.06400032-.117334-.129333-.2346661-.196-.352-.066667-.117334-.13466632-.2319995-.204-.344h-.032c-.05866696.1120005-.11599972.2253327-.172.34-.05600028.1146672-.11333304.2333327-.172.356l-.416.776h-.96zm4.32 0v-3.928h.76l.064.536h.032c.16533416-.1760009.34533236-.3253328.54-.448.19466764-.1226673.41466544-.184.66-.184.2880014 0 .5186658.0613327.692.184.1733342.1226672.3053329.2959988.396.52.1866676-.2026677.3813323-.370666.584-.504.2026677-.133334.4293321-.2.68-.2.4160021 0 .7226657.1346653.92.404.1973343.2693346.296.6546641.296 1.156v2.464h-.928v-2.344c0-.325335-.0493328-.554666-.148-.688-.0986672-.133334-.2493323-.2-.452-.2-.2453346 0-.5199985.162665-.824.488v2.744h-.92v-2.344c0-.325335-.0493328-.554666-.148-.688-.0986672-.133334-.251999-.2-.46-.2-.24533456 0-.51999848.162665-.824.488v2.744h-.92zm7.64.096c-.3306683 0-.562666-.0986657-.696-.296-.133334-.1973344-.2-.466665-.2-.808V9.01866667h.92v4.68800003c0 .1120005.0213331.1906664.064.236.0426669.0453335.0879998.068.136.068h.06c.0186668 0 .0466665-.0053333.084-.016l.12.688c-.1226673.0533336-.2853323.08-.488.08z"/><path fill="#C8CDD0" d="M15.3333333 0v5.33359001c0 .73623791.5916222 1.33307666 1.3330767 1.33307666H22L15.3333333 0z"/></g></svg>