<?xml version="1.0" encoding="UTF-8"?>
<svg width="143px" height="40px" viewBox="0 0 143 40" version="1.1" xmlns="http://www.w3.org/2000/svg" xmlns:xlink="http://www.w3.org/1999/xlink">
    <title>DS / Suomi.fi -logo / horizontal</title>
    <g id="DS-/-Suomi.fi--logo-/-horizontal" stroke="none" stroke-width="1" fill="none" fill-rule="evenodd">
        <path d="M38,39.9995 L2,39.9995 C0.9,39.9995 0,39.0995 0,37.9995 L0,1.9995 C0,0.8995 0.9,-0.0005 2,-0.0005 L38,-0.0005 C39.1,-0.0005 40,0.8995 40,1.9995 L40,37.9995 C40,39.0995 39.1,39.9995 38,39.9995" id="Fill-25" fill="#003479"></path>
        <path d="M10,14.999 L10,11.5 C10,10.675 10.675,9.999 11.5,9.999 L14.999,9.999 L14.999,14.999" id="Fill-26" fill="#FFFFFF"></path>
        <path d="M10,19.9995 L14.999,19.9995 L14.999,29.9965 C14.999,30.5465 14.548,30.9965 13.999,30.9965 L11,30.9965 C10.45,30.9965 10,30.5465 10,29.9965" id="Fill-27" fill="#FFFFFF"></path>
        <path d="M20,9.9995 L28.997,9.9995 C29.547,9.9995 29.997,10.4495 29.997,10.9995 L29.997,14.9995 L20,14.9995" id="Fill-28" fill="#FFFFFF"></path>
        <path d="M28.9966,24.9946 L19.9996,24.9946 L19.9996,19.9956 L29.9966,19.9956 L29.9966,23.9946 C29.9966,24.5466 29.5496,24.9946 28.9966,24.9946" id="Fill-29" fill="#FFFFFF"></path>
        <path d="M60.4048,31.2202 C58.3038,31.2202 56.4278,30.7162 54.9998,29.9602 L55.3918,27.2712 C56.7088,28.1392 58.5288,28.9242 60.4608,28.9242 C62.4768,28.9242 63.9058,27.8592 63.9058,25.9832 C63.9058,24.2192 63.1208,23.4912 60.2088,22.1752 C56.5678,20.5222 55.1958,19.3182 55.1958,16.5462 C55.1958,13.4372 57.5758,11.4492 61.0768,11.4492 C62.9528,11.4492 64.3538,11.8972 65.4728,12.5412 L65.0528,15.1732 C63.9898,14.3612 62.5328,13.7452 60.9928,13.7452 C58.7808,13.7452 57.8008,14.9212 57.8008,16.3492 C57.8008,17.8342 58.5288,18.5342 61.4688,19.8782 C65.2208,21.5872 66.5098,22.8752 66.5098,25.7872 C66.5098,29.1202 64.0178,31.2202 60.4048,31.2202" id="Fill-30" fill="#003479"></path>
        <path d="M71.688,17.6377 L71.688,26.7397 C71.688,28.1117 72.276,29.0357 73.732,29.0357 C75.049,29.0357 76.393,28.1677 77.597,26.8797 L77.597,17.6377 L80.089,17.6377 L80.089,30.9957 L78.101,30.9957 L77.793,29.0637 C76.533,30.2407 74.937,31.2767 73.06,31.2767 C70.512,31.2767 69.195,29.7637 69.195,27.3557 L69.195,17.6377 L71.688,17.6377 Z" id="Fill-31" fill="#003479"></path>
        <path d="M88.8242,19.4302 C86.4162,19.4302 85.2112,21.5302 85.2112,24.3312 C85.2112,27.0762 86.4722,29.2042 88.8242,29.2042 C91.2892,29.2042 92.5212,27.1322 92.5212,24.3312 C92.5212,21.5872 91.2332,19.4302 88.8242,19.4302 M88.8242,31.2762 C85.2672,31.2762 82.6912,28.7272 82.6912,24.3312 C82.6912,19.9342 85.2672,17.3582 88.8242,17.3582 C92.4082,17.3582 95.0412,19.9342 95.0412,24.3312 C95.0412,28.7272 92.4082,31.2762 88.8242,31.2762" id="Fill-32" fill="#003479"></path>
        <path d="M114.1099,30.9961 L114.1099,21.8941 C114.1099,20.5221 113.6059,19.5981 112.1499,19.5981 C110.8339,19.5981 109.5739,20.4661 108.3689,21.7551 L108.3689,30.9961 L105.8769,30.9961 L105.8769,21.8941 C105.8769,20.5221 105.3729,19.5981 103.9159,19.5981 C102.5999,19.5981 101.3399,20.4661 100.1349,21.7551 L100.1349,30.9961 L97.6429,30.9961 L97.6429,17.6381 L99.6309,17.6381 L99.9399,19.5701 C101.1999,18.4221 102.7129,17.3581 104.5889,17.3581 C106.5489,17.3581 107.6129,18.1981 108.1169,19.5701 C109.3209,18.4221 110.9449,17.3581 112.8219,17.3581 C115.3709,17.3581 116.6019,18.8701 116.6019,21.2781 L116.6019,30.9961 L114.1099,30.9961 Z" id="Fill-33" fill="#003479"></path>
        <polygon id="Path" fill="#003479" points="120.099 30.996 122.591 30.996 122.591 17.638 120.099 17.638"></polygon>
        <path d="M121.359,14.826 C120.491,14.826 119.763,14.126 119.763,13.258 C119.763,12.39 120.491,11.662 121.359,11.662 C122.227,11.662 122.928,12.39 122.928,13.258 C122.928,14.126 122.227,14.826 121.359,14.826 L121.359,14.826 Z" id="Path" fill="#003479"></path>
        <path d="M136.9839,13.8735 C135.8359,13.8735 135.1349,14.3495 135.1349,15.5815 L135.1349,17.6375 L137.8239,17.6375 L138.1309,19.7385 L135.1349,19.7385 L135.1349,30.9965 L132.6989,30.9965 L132.6989,19.7385 L130.6819,19.7385 L130.6819,17.6375 L132.6989,17.6375 L132.6989,15.3305 C132.6989,12.6695 134.4629,11.6615 136.8439,11.6615 C137.2359,11.6615 137.5719,11.6895 137.9079,11.7175 L138.2719,13.9855 C137.9919,13.9295 137.4879,13.8735 136.9839,13.8735" id="Fill-35" fill="#003479"></path>
        <polygon id="Path" fill="#003479" points="140.286 30.996 142.779 30.996 142.779 17.638 140.286 17.638"></polygon>
        <path d="M141.546,14.826 C140.678,14.826 139.95,14.126 139.95,13.258 C139.95,12.39 140.678,11.662 141.546,11.662 C142.415,11.662 143.115,12.39 143.115,13.258 C143.115,14.126 142.415,14.826 141.546,14.826 L141.546,14.826 Z" id="Path" fill="#003479"></path>
        <path d="M127.3789,30.9951 C126.5099,30.9951 125.7829,30.2951 125.7829,29.4271 C125.7829,28.5581 126.5099,27.8311 127.3789,27.8311 C128.2469,27.8311 128.9469,28.5581 128.9469,29.4271 C128.9469,30.2951 128.2469,30.9951 127.3789,30.9951" id="Fill-37" fill="#003479"></path>
    </g>
</svg>